<svg width="372" height="372" viewBox="0 0 372 372" fill="none" xmlns="http://www.w3.org/2000/svg">
<path d="M1.69884 186.347C1.69884 84.7707 84.0492 2.42032 185.625 2.42032C287.202 2.42032 369.552 84.7707 369.552 186.347C369.552 287.923 287.202 370.274 185.625 370.274C84.0492 370.274 1.67188 287.923 1.67188 186.347H1.69884Z" fill="#16318F"/>
<path d="M23.9984 236.908L22.8389 232.971L38.2088 221.08L39.3413 224.936L35.8089 227.578L37.8582 234.616L42.2805 234.966L43.3321 238.58L23.9984 236.908ZM26.9375 233.969V234.023L34.8382 234.427L33.3551 229.358L26.9375 233.969Z" fill="white"/>
<path d="M16.9609 199.399L16.853 194.95L30.2006 187.75V187.696L16.6912 188.02L16.6104 184.541L34.6767 184.11L34.7846 188.532L21.437 195.759V195.812L34.9464 195.489L35.0273 198.967L16.9609 199.399Z" fill="white"/>
<path d="M31.307 153.778L19.1729 157.741L20.1166 153.616L28.4487 151.162L22.0311 145.23L22.894 141.509L32.089 150.272L39.0459 151.863L38.2369 155.395L31.28 153.805L31.307 153.778Z" fill="white"/>
<path d="M33.6787 113.949L35.5123 110.309L54.8191 112.062L53.0124 115.648L48.6172 115.19L45.3275 121.742L48.3206 125.005L46.6488 128.348L33.6787 113.949ZM37.8043 113.814V113.868L43.2782 119.558L45.6511 114.839L37.8313 113.841L37.8043 113.814Z" fill="white"/>
<path d="M54.0377 81.6991L56.9769 78.3555L71.6457 82.1575H71.6727L61.5609 73.1782L63.8529 70.5896L77.3622 82.562L74.4231 85.8786L59.7273 82.1036H59.7003L69.8121 91.0828L67.5201 93.6714L54.0107 81.6991H54.0377Z" fill="white"/>
<path d="M99.2568 46.6965C97.7198 46.9392 96.0479 47.6942 94.8615 48.5031C91.3561 50.849 91.0055 54.5163 93.0549 57.5902C95.1042 60.6373 98.5287 61.6889 101.738 59.5317C102.546 58.9924 103.14 58.4801 103.571 57.9947L100.956 54.0848L97.7737 56.215L96.1828 53.8421L102.25 49.7974L107.67 57.8868C106.375 59.3699 104.946 60.826 103.328 61.9046C98.4748 65.1673 93.4593 64.9786 90.0618 59.9092C86.6103 54.7589 87.8237 49.7705 92.947 46.3729C94.6997 45.2134 96.2367 44.5123 97.7737 44.0539L99.2837 46.7234L99.2568 46.6965Z" fill="white"/>
<path d="M141.673 24.7208L145.205 23.9388L147.47 34.1315C148.144 37.1515 149.52 38.9042 152.243 38.311C154.94 37.7178 155.479 35.5336 154.805 32.5136L152.567 22.3209L156.099 21.5389L158.58 32.8102C159.631 37.529 157.366 40.0907 152.836 41.0884C148.306 42.0861 145.205 40.7378 144.154 35.992L141.673 24.7208Z" fill="white"/>
<path d="M184.737 19.0586L189.186 19.2474L195.496 33.0264H195.55L196.116 19.544L199.568 19.6788L198.813 37.7182L194.39 37.5295L188.054 23.7505H188L187.434 37.2329L183.955 37.098L184.71 19.0586H184.737Z" fill="white"/>
<path d="M227.017 24.4532L230.522 25.397L225.884 42.8701L222.379 41.9264L227.017 24.4532Z" fill="white"/>
<path d="M255.14 34.1596L258.592 35.9393L256.192 50.662H256.246L266.816 40.1997L269.998 41.8446L256.3 55.0843L252.336 53.0349L255.113 34.1326L255.14 34.1596Z" fill="white"/>
<path d="M292.055 57.2926L300.091 64.3034L298.23 66.4606L292.918 61.8227L289.979 65.1663L294.833 69.3998L292.945 71.557L288.091 67.3235L284.748 71.1525L290.087 75.8174L288.199 77.9746L280.137 70.9368L292.028 57.3196L292.055 57.2926Z" fill="white"/>
<path d="M318.778 84.8266L321.043 88.0084C323.308 91.1633 326.086 94.8575 322.014 97.7697C320.288 99.01 318.023 98.8752 316.432 97.1764H316.379C316.891 98.0393 316.432 99.0909 315.974 99.8459L311.902 106.317L309.556 103.028L312.873 97.9854C313.655 96.772 313.817 96.0978 312.927 94.8575L312.253 93.9137L306.159 98.282L304.056 95.3428L318.751 84.8266H318.778ZM314.599 92.2688L315.3 93.2396C316.325 94.6957 317.754 96.2057 319.56 94.8844C321.34 93.6171 320.288 91.8644 319.237 90.4083L318.536 89.4375L314.572 92.2688H314.599Z" fill="white"/>
<path d="M340.052 129.91C340.079 128.67 339.864 127.375 339.378 126.216C338.92 125.056 337.814 123.789 335.981 124.517C333.068 125.704 337.275 132.553 331.666 134.818C327.999 136.301 325.41 133.982 324.035 130.584C323.307 128.751 323.199 127.834 322.93 126.027L326.085 125.11C325.923 126.513 326.085 127.996 326.597 129.317C327.109 130.584 328.457 132.04 329.967 131.42C333.176 130.126 328.862 123.304 334.417 121.066C338.165 119.556 340.699 121.902 341.913 124.841C342.506 126.27 342.857 127.699 342.938 129.101L340.052 129.91Z" fill="white"/>
<path d="M350.704 155.958L351.351 159.517L333.554 162.699L332.907 159.14L350.704 155.931V155.958Z" fill="white"/>
<path d="M350.812 190.419L350.947 185.242L353.805 185.323L353.401 199.29L350.542 199.21L350.704 194.032L335.496 193.601L335.604 189.988L350.812 190.419Z" fill="white"/>
<path d="M337.681 227.468L349.95 223.963L348.844 228.062L340.404 230.192L346.579 236.367L345.581 240.061L336.737 230.947L329.834 229.086L330.778 225.581L337.654 227.441L337.681 227.468Z" fill="white"/>
<path d="M79.0341 313.46L82.5934 316.211L78.1982 321.9L89.6312 330.745L88.0673 332.767L75.5556 323.087C74.1265 321.981 73.7759 320.282 74.9085 318.799L79.0341 313.46ZM93.595 311.627C91.1412 314.782 86.4224 315.213 83.0788 312.624C79.7621 310.063 79.0071 305.371 81.4339 302.216C83.8877 299.061 88.6066 298.63 91.9232 301.191C95.2669 303.78 96.0219 308.445 93.595 311.627ZM84.9933 304.966C83.4293 306.989 83.2675 309.523 84.6427 310.602C86.0449 311.681 88.4448 310.899 90.0357 308.876C91.5996 306.854 91.7614 304.319 90.3593 303.241C88.9841 302.189 86.5842 302.971 84.9933 304.993V304.966ZM100.552 307.582L104.138 310.359L100.579 314.97L104.138 317.721L102.574 319.743L99.015 316.993L91.6805 326.484L88.0942 323.707L100.579 307.582H100.552Z" fill="white"/>
<path d="M137.197 334.139C135.93 337.78 131.723 339.667 127.679 338.265C123.688 336.89 121.477 332.764 122.744 329.124C124.011 325.484 128.272 323.65 132.263 325.025C136.28 326.428 138.438 330.472 137.17 334.139H137.197ZM139.085 350.615C137.898 354.039 133.827 355.711 129.971 354.363C126.115 353.015 123.93 349.213 125.144 345.761C126.33 342.337 130.402 340.692 134.258 342.013C138.114 343.361 140.298 347.19 139.085 350.615ZM127.004 330.634C126.196 332.98 126.897 335.326 128.488 335.865C130.105 336.431 132.128 335.056 132.937 332.683C133.746 330.337 133.045 328.018 131.427 327.479C129.836 326.913 127.813 328.261 126.978 330.634H127.004ZM129.296 347.217C128.595 349.186 129.296 351.37 130.807 351.909C132.317 352.422 134.204 351.154 134.905 349.159C135.606 347.19 134.905 344.925 133.422 344.413C131.912 343.901 129.998 345.222 129.323 347.217H129.296ZM146.5 329.825L145.394 333.007L149.655 334.49L148.819 336.89L144.586 335.407L143.588 338.292L147.821 339.775L146.985 342.175L142.725 340.692L141.538 344.116L137.305 342.633L142.267 328.369L146.527 329.852L146.5 329.825Z" fill="white"/>
<path d="M183.792 362.401L183.953 351.561C183.171 352.073 182.039 352.505 180.421 352.478L174.758 352.397C172.871 352.37 171.684 351.21 171.711 349.431L171.927 335.733L181.931 335.894V338.456L176.295 338.375L176.107 349.889L180.61 349.97C182.147 349.97 183.279 349.7 183.98 349.431L184.196 334.924L188.457 334.978L188.349 342.474L191.018 342.528L191.126 335.032L195.386 335.086L194.955 362.617L190.695 362.563L190.964 345.036L188.295 344.982L188.025 362.509L183.765 362.455L183.792 362.401Z" fill="white"/>
<path d="M231.412 333.145C233.083 333.792 234.405 335.06 234.917 336.732C235.942 339.967 233.838 343.581 230.225 344.713C226.639 345.846 222.81 344.147 221.785 340.911C221.246 339.239 221.596 337.433 222.54 335.95L219.412 336.947L218.657 334.601L224.077 332.876L223.079 329.748L227.367 328.4L228.365 331.527L233.784 329.802L234.539 332.148L231.412 333.145ZM225.857 339.617C226.504 341.612 228.203 342.88 229.524 342.475C230.899 342.044 231.492 340.021 230.872 338.026C230.252 336.058 228.58 334.763 227.205 335.222C225.884 335.653 225.237 337.675 225.857 339.644V339.617ZM241.362 345.765L226.801 350.403L226.019 348.003L244.867 342.017L247.806 351.293L243.519 352.668L241.335 345.819L241.362 345.765ZM241.2 330.368L245.487 328.993L246.269 331.447L241.982 332.822L244.355 340.237L240.067 341.612L235.214 326.35L239.501 324.975L241.227 330.368H241.2Z" fill="white"/>
<path d="M263.878 313.163L279.976 301.487L286.097 309.9C288.281 312.894 289.387 315.509 289.548 317.531L286.34 319.85C286.151 317.639 284.749 315.563 282.322 312.219L277.927 306.152L265.415 315.239L263.905 313.163H263.878ZM274.853 316.884L281.378 325.864L283.185 324.542L276.659 315.563L280.165 313.028L286.69 322.008L294.213 316.561L295.696 318.61L275.823 333.063L274.34 331.014L277.9 328.425L271.374 319.446L274.88 316.911L274.853 316.884Z" fill="white"/>
<path d="M57.3822 277.678C57.2474 279.889 55.3599 281.588 53.1488 281.453C50.9377 281.318 49.2389 279.404 49.3737 277.192C49.5085 274.981 51.3961 273.283 53.6341 273.417C55.8453 273.552 57.544 275.467 57.3822 277.678Z" fill="white"/>
<path d="M320.991 277.678C320.856 279.889 318.968 281.588 316.757 281.453C314.546 281.318 312.847 279.404 312.982 277.193C313.117 274.981 315.004 273.283 317.243 273.418C319.454 273.552 321.125 275.467 320.991 277.678Z" fill="white"/>
<path d="M45.165 186.35C45.165 108.772 108.047 45.8906 185.624 45.8637C263.202 45.8637 326.084 108.745 326.111 186.35C326.111 263.928 263.202 326.81 185.624 326.836C108.047 326.836 45.165 263.955 45.165 186.35Z" fill="white"/>
<path d="M185.624 305.611C185.597 305.611 185.543 305.611 185.624 305.611ZM185.624 305.611C237.828 290.916 256.892 258.315 263.957 230.407C264.631 227.764 265.089 225.068 265.467 222.371C267.57 207.298 267.435 191.928 267.435 176.747V107.636C267.435 104.481 266.68 102.621 262.932 101.623C224.642 92.9134 198.028 80.8871 188.968 76.9502C188.914 76.9502 188.86 76.8963 188.806 76.8963C187.512 76.33 186.595 76.0604 185.624 76.0874C184.654 76.0874 183.737 76.33 182.443 76.8963C182.389 76.8963 182.335 76.9233 182.281 76.9502C173.194 80.8871 146.606 92.8864 108.316 101.623C104.568 102.621 103.813 104.481 103.813 107.636V176.747C103.813 191.928 103.678 207.298 105.782 222.371C106.159 225.068 106.618 227.764 107.292 230.407C114.356 258.342 133.421 290.943 185.624 305.611Z" fill="#16318F"/>
<path d="M227.823 160.997L231.194 159.109C231.194 159.109 231.275 158.974 231.194 158.92L227.823 157.033C227.203 156.682 227.203 156.116 227.823 155.792L231.032 153.986C230.061 145.114 226.556 137.025 221.271 130.446L217.738 131.443C217.064 131.632 216.66 131.228 216.848 130.553L217.9 126.832C217.9 126.832 217.873 126.67 217.765 126.724L214.044 127.776C213.37 127.965 212.965 127.56 213.154 126.886L214.152 123.354C207.546 118.069 199.456 114.563 190.585 113.593L188.805 116.801C188.481 117.422 187.915 117.422 187.565 116.801L185.677 113.431C185.677 113.431 185.542 113.35 185.488 113.431L183.601 116.801C183.25 117.422 182.684 117.422 182.36 116.801L180.581 113.593C171.709 114.563 163.62 118.069 157.041 123.354L158.038 126.886C158.227 127.56 157.823 127.965 157.148 127.776L153.427 126.724C153.427 126.724 153.266 126.751 153.292 126.832L154.344 130.553C154.533 131.228 154.128 131.632 153.454 131.443L149.922 130.446C144.637 137.052 141.131 145.141 140.161 153.986L143.369 155.792C143.99 156.143 143.99 156.682 143.369 157.033L139.999 158.92C139.999 158.92 139.918 159.055 139.999 159.109L143.369 160.997C143.99 161.347 143.99 161.913 143.369 162.237L140.161 164.044C141.131 172.888 144.61 181.004 149.922 187.584L153.481 186.586C154.155 186.397 154.56 186.802 154.371 187.476L153.319 191.197C153.319 191.197 153.346 191.359 153.454 191.332L157.175 190.28C157.85 190.092 158.254 190.496 158.065 191.17L157.068 194.73C163.674 200.015 171.763 203.52 180.608 204.491L182.414 201.255C182.765 200.635 183.331 200.635 183.655 201.255L185.542 204.626C185.542 204.626 185.677 204.707 185.731 204.626L187.619 201.255C187.969 200.635 188.535 200.635 188.859 201.255L190.666 204.491C199.537 203.52 207.626 200.015 214.206 194.73L213.208 191.17C213.019 190.496 213.424 190.092 214.098 190.28L217.819 191.332C217.819 191.332 217.981 191.305 217.954 191.197L216.902 187.476C216.714 186.802 217.118 186.397 217.792 186.586L221.352 187.584C226.637 180.978 230.142 172.888 231.113 164.044L227.877 162.237C227.257 161.886 227.257 161.32 227.877 160.997H227.823Z" fill="url(#paint0_radial_473_629)"/>
<path d="M185.624 143.228C176.914 143.228 169.85 150.319 169.85 159.002C169.85 167.685 176.941 174.776 185.624 174.776C194.307 174.776 201.398 167.712 201.398 159.002C201.398 150.292 194.334 143.228 185.624 143.228ZM185.624 174.156C177.265 174.156 170.497 167.388 170.497 159.029C170.497 150.67 177.265 143.902 185.624 143.902C193.983 143.902 200.751 150.67 200.751 159.029C200.751 167.388 193.983 174.156 185.624 174.156Z" fill="#EE7800"/>
<path d="M185.624 143.874C177.265 143.874 170.497 150.643 170.497 159.002C170.497 167.361 177.265 174.129 185.624 174.129C193.983 174.129 200.752 167.361 200.752 159.002C200.752 150.643 193.983 143.874 185.624 143.874Z" fill="white"/>
<path d="M141.995 237.442H137.573L139.838 230.539H139.892L141.995 237.442ZM130.319 244.56H135.092L136.467 240.785H143.101L144.422 244.56H149.572L142.777 226.925H137.007L130.319 244.56Z" fill="white"/>
<path d="M151.19 226.925H157.176L163.135 238.898H163.189L163.108 226.925H167.395V244.56H161.544L155.369 232.507H155.315L155.45 244.56H151.136V226.925H151.19Z" fill="white"/>
<path d="M175.377 237.901L168.852 226.9H174.271L177.723 233.964L181.147 226.9H186.54L180.069 237.901V244.562H175.377V237.901Z" fill="white"/>
<path d="M195.549 237.442H191.127L193.392 230.539H193.446L195.549 237.442ZM183.873 244.56H188.646L190.048 240.785H196.681L198.003 244.56H203.153L196.358 226.925H190.587L183.9 244.56H183.873Z" fill="white"/>
<path d="M205.038 226.925H211.024L216.983 238.898H217.037L216.957 226.925H221.244V244.56H215.42L209.245 232.507H209.191L209.352 244.56H205.038V226.925Z" fill="white"/>
<path d="M240.955 244.048C237.962 244.803 235.751 244.857 234.133 244.857C229.441 244.857 223.994 242.484 223.994 235.824C223.994 229.163 228.659 226.629 235.131 226.629C236.29 226.629 238.744 226.763 240.47 227.411L240.092 231.24C238.609 230.377 236.91 230.107 235.805 230.107C232.003 230.107 228.848 231.698 228.848 235.824C228.848 239.275 231.302 241.378 234.726 241.378C235.346 241.378 235.966 241.27 236.398 241.082V237.603H233.648V234.26H240.955V244.075V244.048Z" fill="white"/>
<path d="M140.81 250.816H143.182V257.638C143.182 259.66 143.83 260.982 145.636 260.982C147.443 260.982 148.09 259.66 148.09 257.638V250.816H150.463V258.393C150.463 261.548 148.656 262.869 145.636 262.869C142.616 262.869 140.81 261.575 140.81 258.393V250.816Z" fill="white"/>
<path d="M153.022 250.816H155.934L160.437 259.66H160.464V250.816H162.729V262.654H159.817L155.287 253.809H155.26V262.654H152.995V250.816H153.022Z" fill="white"/>
<path d="M165.185 250.816H167.557V262.654H165.185V250.816Z" fill="white"/>
<path d="M168.879 250.816H171.413L174.46 260.119H174.487L177.48 250.816H179.826L175.835 262.654H172.923L168.852 250.816H168.879Z" fill="white"/>
<path d="M181.418 250.816H188.402V252.676H183.791V255.588H188.024V257.449H183.791V260.766H188.429V262.626H181.418V250.789V250.816Z" fill="white"/>
<path d="M193.013 252.677H193.795C194.981 252.677 196.302 252.785 196.302 254.214C196.302 255.643 194.954 255.859 193.795 255.859H193.013V252.677ZM190.64 262.654H193.013V257.746H193.768C194.765 257.746 195.089 258.097 195.412 258.96L196.842 262.654H199.484L197.597 258.016C197.354 257.476 196.976 256.856 196.356 256.802C197.866 256.56 198.783 255.4 198.783 254.025C198.783 250.735 195.763 250.816 193.201 250.816H190.64V262.654Z" fill="white"/>
<path d="M207.494 253.004C206.739 252.68 205.93 252.491 205.094 252.491C204.258 252.491 203.233 252.842 203.233 254.136C203.233 256.185 208.411 255.323 208.411 259.286C208.411 261.875 206.361 262.873 203.961 262.873C202.667 262.873 202.101 262.711 200.914 262.414L201.13 260.284C201.939 260.716 202.883 261.012 203.827 261.012C204.77 261.012 205.93 260.554 205.93 259.475C205.93 257.21 200.726 258.154 200.726 254.244C200.726 251.601 202.775 250.631 204.878 250.631C205.903 250.631 206.847 250.766 207.709 251.062L207.494 253.031V253.004Z" fill="white"/>
<path d="M210.404 250.816H212.777V262.654H210.404V250.816Z" fill="white"/>
<path d="M217.496 252.677H214.099V250.816H223.267V252.677H219.869V262.654H217.496V252.677Z" fill="white"/>
<path d="M227.904 257.987L223.562 250.842H226.34L229.144 255.803L231.975 250.842H234.483L230.25 257.987V262.679H227.877V257.987H227.904Z" fill="white"/>
<path d="M172.089 275.332L173.437 272.689H174.731V281.669H173.437V272.689" fill="white"/>
<path d="M178.317 280.373C178.776 280.616 179.342 280.751 179.908 280.751C181.58 280.751 182.389 279.214 182.416 277.488C181.823 278.108 181.202 278.324 180.447 278.324C178.722 278.324 177.751 277.084 177.751 275.493C177.751 273.632 179.018 272.527 180.636 272.527C183.144 272.527 183.656 274.792 183.656 276.841C183.656 279.268 182.847 281.829 180.016 281.829C179.396 281.829 178.479 281.695 178.155 281.56L178.317 280.4V280.373ZM180.609 277.272C181.688 277.272 182.281 276.49 182.281 275.466C182.281 274.63 181.742 273.578 180.69 273.578C179.639 273.578 179.099 274.495 179.099 275.466C179.099 276.302 179.585 277.272 180.609 277.272Z" fill="white"/>
<path d="M189.183 278.568H186.352L189.156 273.741V278.568H189.183ZM189.183 281.669H190.477V279.619H191.61V278.568H190.477V272.689H188.644L185.03 278.568V279.619H189.21V281.669H189.183Z" fill="white"/>
<path d="M197.812 279.349C197.812 280.265 197.057 280.751 196.194 280.751C195.331 280.751 194.388 280.211 194.388 279.214C194.388 278.162 195.143 277.919 195.871 277.407C196.841 277.866 197.866 278.081 197.812 279.322V279.349ZM196.059 281.802C197.731 281.802 199.16 281.02 199.16 279.241C199.16 278.054 198.351 277.245 197.273 276.868C198.486 276.221 198.891 275.547 198.891 274.549C198.891 273.551 197.893 272.527 196.113 272.527C194.334 272.527 193.201 273.524 193.201 274.684C193.201 275.52 193.579 276.463 194.9 276.922C193.821 277.326 192.985 278.108 192.985 279.322C192.985 280.966 194.522 281.829 196.032 281.829L196.059 281.802ZM194.522 274.846C194.522 273.983 195.439 273.578 196.032 273.578C196.68 273.578 197.542 273.875 197.542 274.711C197.542 275.331 197.408 275.681 196.356 276.49C195.143 275.897 194.495 275.466 194.495 274.846H194.522Z" fill="white"/>
<defs>
<radialGradient id="paint0_radial_473_629" cx="0" cy="0" r="1" gradientUnits="userSpaceOnUse" gradientTransform="translate(185.623 159.028) scale(45.5704 45.5705)">
<stop offset="0.48" stop-color="#F5A200"/>
<stop offset="0.82" stop-color="#FFF100"/>
<stop offset="1" stop-color="#FFF100"/>
</radialGradient>
</defs>
</svg>
