<svg width="365" height="308" viewBox="0 0 365 308" fill="none" xmlns="http://www.w3.org/2000/svg">
<path d="M351.41 124.811C346.914 120.969 342.088 119.589 339.427 119.048C340.766 116.157 342.601 111.308 342.913 105.079C343.005 103.288 343.427 90.7741 335.499 81.1505C333.462 78.67 327.81 72.6646 309.165 69.1956C298.742 67.256 281.198 65.5402 258.956 70.9674C252.79 49.9299 245.009 34.3382 239.026 24.0059C233.612 14.6621 229.906 10.0741 224.07 7.16469C212.233 1.25254 198.286 5.54211 194.084 6.84763C189.019 8.41426 185.091 10.4658 182.485 12.0324C179.88 10.4658 175.934 8.39561 170.887 6.84763C166.667 5.54211 152.72 1.25254 140.901 7.16469C135.066 10.0741 131.377 14.6808 125.945 24.0059C119.944 34.3382 112.181 49.9299 106.015 70.9674C84.5441 67.7223 67.2571 68.9718 55.6774 70.669C39.3263 73.0749 33.4538 76.5252 29.4716 81.1505C21.5254 90.3638 21.9659 103.177 22.0577 105.079C22.3696 111.289 24.2047 116.157 25.5444 119.048C22.865 119.589 18.057 120.969 13.561 124.811C1.96287 134.733 4.23844 151.108 4.38526 151.966C5.41293 158.643 8.56933 163.548 12.258 168.229C18.2038 175.801 30.6828 189.229 54.1175 200.811C46.5567 217.223 43.8591 231.23 42.7763 240.48C41.0697 254.99 43.0333 260.38 44.1711 262.898C50.3738 276.811 65.6239 281.045 67.2755 281.474C73.7352 283.171 79.3139 282.649 82.6906 282.07C83.2228 284.812 84.3973 288.71 87.2051 292.403C94.8393 302.474 108.603 302.996 115.558 303.257C124.091 303.574 131.01 301.97 136.552 300.31C146.425 297.326 163.565 290.594 182.504 274.163C201.442 290.594 218.583 297.326 228.456 300.31C233.979 301.989 240.916 303.593 249.45 303.257C256.423 302.996 270.168 302.474 277.803 292.403C280.61 288.71 281.767 284.812 282.317 282.07C285.694 282.667 291.272 283.171 297.732 281.474C299.365 281.045 314.616 276.811 320.837 262.898C321.956 260.38 323.938 254.99 322.231 240.48C321.149 231.248 318.451 217.223 310.89 200.811C334.343 189.248 346.804 175.801 352.75 168.229C356.438 163.548 359.576 158.624 360.622 151.966C360.751 151.089 363.026 134.733 351.447 124.811H351.41Z" fill="#FFBFC2"/>
<path d="M351.409 124.811C346.913 120.969 342.087 119.589 339.426 119.048C340.765 116.157 342.6 111.308 342.912 105.079C343.004 103.288 343.426 90.7741 335.498 81.1505C333.461 78.67 327.809 72.6646 309.164 69.1956C298.741 67.256 281.197 65.5402 258.955 70.9674C252.789 49.9299 245.008 34.3382 239.025 24.0059C233.611 14.6621 229.905 10.0741 224.069 7.16469C212.232 1.25254 198.285 5.54211 194.083 6.84763C189.018 8.41426 185.09 10.4658 182.485 12.0324C179.879 10.4658 175.933 8.39561 170.886 6.84763C166.666 5.54211 152.719 1.25254 140.9 7.16469C135.065 10.0741 131.376 14.6808 125.944 24.0059C119.943 34.3382 112.18 49.9299 106.014 70.9674C84.5432 67.7223 67.2562 68.9718 55.6764 70.669C39.3253 73.0749 33.4529 76.5252 29.4706 81.1505C21.5244 90.3638 21.9649 103.177 22.0567 105.079C22.3687 111.289 24.2037 116.157 25.5434 119.048C22.8641 119.589 18.0561 120.969 13.56 124.811C1.9619 134.733 4.23747 151.108 4.38428 151.966C5.41196 158.643 8.56836 163.548 12.257 168.229C18.2028 175.801 30.6818 189.229 54.1165 200.811C46.5557 217.223 43.8581 231.23 42.7754 240.48C41.0687 254.99 43.0323 260.38 44.1701 262.898C50.3728 276.811 65.6229 281.045 67.2745 281.474C73.7342 283.171 79.313 282.649 82.6896 282.07C83.2218 284.812 84.3963 288.71 87.2041 292.403C94.8383 302.474 108.602 302.996 115.557 303.257C124.09 303.574 131.009 301.97 136.551 300.31C146.424 297.326 163.564 290.594 182.503 274.163C201.442 290.594 218.582 297.326 228.455 300.31C233.978 301.989 240.915 303.593 249.449 303.257C256.422 302.996 270.167 302.474 277.802 292.403C280.609 288.71 281.766 284.812 282.316 282.07C285.693 282.667 291.272 283.171 297.731 281.474C299.364 281.045 314.615 276.811 320.836 262.898C321.955 260.38 323.937 254.99 322.23 240.48C321.148 231.248 318.45 217.223 310.889 200.811C334.342 189.248 346.803 175.801 352.749 168.229C356.437 163.548 359.575 158.624 360.621 151.966C360.75 151.089 363.025 134.733 351.446 124.811H351.409Z" fill="#FFBFC2"/>
<path d="M247.193 307.511C238.879 307.511 232.236 305.851 227.263 304.34C211.609 299.603 196.561 291.304 182.486 279.628C168.41 291.304 153.362 299.603 137.708 304.34C132.276 305.981 124.807 307.828 115.393 307.473C108.034 307.194 92.7473 306.615 83.9202 294.978C82.0484 292.516 80.6171 289.756 79.6261 286.697C75.0933 287.07 70.6156 286.697 66.248 285.559C63.1282 284.739 47.2175 279.908 40.4092 264.652C38.831 261.127 36.9408 254.749 38.6841 240.015C40.1522 227.463 43.5288 214.949 48.7223 202.789C32.4079 194.191 18.7361 183.225 9.02823 170.897C5.21114 166.048 1.52251 160.49 0.31132 152.657C0.18286 151.874 -2.55144 133.149 10.9185 121.642C13.5794 119.366 16.6625 117.576 20.0208 116.326C18.828 112.764 18.149 109.09 17.9471 105.36C17.8003 102.656 17.5616 88.6678 26.3703 78.4474C31.0316 73.0575 37.4546 69.1782 55.0719 66.5858C70.6339 64.2918 86.7647 64.2172 103.079 66.3807C108.016 50.4533 114.494 35.5144 122.366 21.9369C127.743 12.6677 131.983 6.97938 139.048 3.45447C147.875 -0.94701 158.977 -1.15216 172.062 2.89496C175.641 3.99533 179.146 5.4687 182.467 7.27778C185.789 5.4687 189.276 3.99533 192.873 2.89496C205.957 -1.13351 217.078 -0.94701 225.887 3.45447C232.952 6.97938 237.191 12.6677 242.568 21.9369C250.404 35.4398 256.845 50.2668 261.764 66.0822C278.17 62.576 294.356 62.2403 309.881 65.1311C323.975 67.7608 333.371 72.125 338.638 78.522C347.373 89.1527 347.134 102.749 347.006 105.36C346.804 109.09 346.125 112.764 344.932 116.326C348.29 117.576 351.392 119.366 354.034 121.642C367.486 133.167 364.752 151.874 364.623 152.657C363.412 160.49 359.705 166.048 355.906 170.897C346.198 183.225 332.527 194.21 316.212 202.789C321.406 214.949 324.782 227.463 326.25 240.015C327.975 254.749 326.085 261.146 324.525 264.652C317.717 279.89 301.806 284.739 298.687 285.559C294.337 286.697 289.841 287.089 285.308 286.716C284.318 289.774 282.868 292.534 281.014 294.996C272.187 306.615 256.9 307.194 249.542 307.492C248.734 307.529 247.927 307.529 247.156 307.529L247.193 307.511ZM182.467 269.968C183.421 269.968 184.376 270.303 185.147 270.975C199.094 283.079 214.05 291.602 229.594 296.302C234.42 297.757 241.027 299.398 249.248 299.081C255.818 298.838 268.04 298.372 274.499 289.849C276.335 287.443 277.582 284.552 278.225 281.251C278.665 279.013 280.776 277.558 282.978 277.931C287.639 278.752 292.245 278.565 296.65 277.409C298.173 277.017 311.661 273.175 317.02 261.165C317.68 259.673 319.736 255.103 318.066 240.985C316.543 228.042 312.854 215.117 307.092 202.603C306.137 200.532 307 198.052 309.018 197.045C325.828 188.745 339.812 177.891 349.465 165.619C353.043 161.068 355.613 156.891 356.475 151.314C356.493 151.165 358.641 136.525 348.713 128.02C345.905 125.614 342.4 123.936 338.564 123.171C337.316 122.91 336.252 122.089 335.683 120.951C335.114 119.795 335.096 118.452 335.628 117.277C337.463 113.305 338.509 109.146 338.729 104.894C338.839 102.823 339.023 92.0994 332.27 83.8746C328.361 79.1188 320.323 75.5753 308.376 73.3559C292.777 70.4651 276.463 71.0432 259.873 75.0717C257.745 75.5939 255.579 74.3257 254.955 72.1809C250.092 55.6194 243.522 40.121 235.411 26.1519C230.089 16.976 226.878 13.2832 222.198 10.9332C215.316 7.50159 206.251 7.46429 195.221 10.8773C191.496 12.015 187.899 13.6375 184.523 15.6704C183.22 16.4537 181.623 16.4537 180.32 15.6704C176.943 13.6375 173.347 12.0336 169.621 10.8773C158.61 7.48294 149.526 7.50159 142.645 10.9519C137.965 13.2832 134.754 16.9946 129.432 26.1706C121.32 40.1396 114.751 55.6381 109.888 72.1996C109.3 74.1951 107.355 75.4634 105.318 75.1463C88.5999 72.6099 72.0653 72.5166 56.1913 74.8665C39.4365 77.347 35.179 80.8533 32.4997 83.9679C25.7831 91.7451 26.0033 102.786 26.1134 104.912C26.3336 109.164 27.3796 113.342 29.2148 117.315C29.7469 118.49 29.747 119.832 29.1598 120.989C28.5909 122.145 27.5265 122.966 26.2786 123.208C22.4431 123.991 18.938 125.67 16.1302 128.057C6.20211 136.562 8.34925 151.202 8.36761 151.352C9.23012 156.928 11.7993 161.106 15.3778 165.656C25.0307 177.91 39.0144 188.783 55.8243 197.082C57.8613 198.089 58.7239 200.551 57.7513 202.64C51.9889 215.154 48.3002 228.06 46.777 241.022C45.1254 255.141 47.1624 259.71 47.8231 261.202C53.1817 273.213 66.67 277.055 68.1932 277.446C72.6159 278.603 77.222 278.771 81.8649 277.969C84.0671 277.577 86.1775 279.05 86.618 281.288C87.2603 284.589 88.5264 287.48 90.3432 289.886C96.8029 298.391 109.025 298.857 115.595 299.118C123.816 299.435 130.423 297.794 135.249 296.339C150.793 291.639 165.749 283.116 179.715 271.012C180.485 270.341 181.44 270.005 182.394 270.005L182.467 269.968Z" fill="#FFBFC2"/>
<path d="M247.193 307.511C238.879 307.511 232.236 305.851 227.263 304.34C211.609 299.603 196.561 291.304 182.486 279.628C168.41 291.304 153.362 299.603 137.708 304.34C132.276 305.981 124.807 307.828 115.393 307.473C108.034 307.194 92.7473 306.615 83.9202 294.978C82.0484 292.516 80.6171 289.756 79.6261 286.697C75.0933 287.07 70.6156 286.697 66.248 285.559C63.1282 284.739 47.2175 279.908 40.4092 264.652C38.831 261.127 36.9408 254.749 38.6841 240.015C40.1522 227.463 43.5288 214.949 48.7223 202.789C32.4079 194.191 18.7361 183.225 9.02823 170.897C5.21114 166.048 1.52251 160.49 0.31132 152.657C0.18286 151.874 -2.55144 133.149 10.9185 121.642C13.5794 119.366 16.6625 117.576 20.0208 116.326C18.828 112.764 18.149 109.09 17.9471 105.36C17.8003 102.656 17.5616 88.6678 26.3703 78.4474C31.0316 73.0575 37.4546 69.1782 55.0719 66.5858C70.6339 64.2918 86.7647 64.2172 103.079 66.3807C108.016 50.4533 114.494 35.5144 122.366 21.9369C127.743 12.6677 131.983 6.97938 139.048 3.45447C147.875 -0.94701 158.977 -1.15216 172.062 2.89496C175.641 3.99533 179.146 5.4687 182.467 7.27778C185.789 5.4687 189.276 3.99533 192.873 2.89496C205.957 -1.13351 217.078 -0.94701 225.887 3.45447C232.952 6.97938 237.191 12.6677 242.568 21.9369C250.404 35.4398 256.845 50.2668 261.764 66.0822C278.17 62.576 294.356 62.2403 309.881 65.1311C323.975 67.7608 333.371 72.125 338.638 78.522C347.373 89.1527 347.134 102.749 347.006 105.36C346.804 109.09 346.125 112.764 344.932 116.326C348.29 117.576 351.392 119.366 354.034 121.642C367.486 133.167 364.752 151.874 364.623 152.657C363.412 160.49 359.705 166.048 355.906 170.897C346.198 183.225 332.527 194.21 316.212 202.789C321.406 214.949 324.782 227.463 326.25 240.015C327.975 254.749 326.085 261.146 324.525 264.652C317.717 279.89 301.806 284.739 298.687 285.559C294.337 286.697 289.841 287.089 285.308 286.716C284.318 289.774 282.868 292.534 281.014 294.996C272.187 306.615 256.9 307.194 249.542 307.492C248.734 307.529 247.927 307.529 247.156 307.529L247.193 307.511ZM182.467 269.968C183.421 269.968 184.376 270.303 185.147 270.975C199.094 283.079 214.05 291.602 229.594 296.302C234.42 297.757 241.027 299.398 249.248 299.081C255.818 298.838 268.04 298.372 274.499 289.849C276.335 287.443 277.582 284.552 278.225 281.251C278.665 279.013 280.776 277.558 282.978 277.931C287.639 278.752 292.245 278.565 296.65 277.409C298.173 277.017 311.661 273.175 317.02 261.165C317.68 259.673 319.736 255.103 318.066 240.985C316.543 228.042 312.854 215.117 307.092 202.603C306.137 200.532 307 198.052 309.018 197.045C325.828 188.745 339.812 177.891 349.465 165.619C353.043 161.068 355.613 156.891 356.475 151.314C356.493 151.165 358.641 136.525 348.713 128.02C345.905 125.614 342.4 123.936 338.564 123.171C337.316 122.91 336.252 122.089 335.683 120.951C335.114 119.795 335.096 118.452 335.628 117.277C337.463 113.305 338.509 109.146 338.729 104.894C338.839 102.823 339.023 92.0994 332.27 83.8746C328.361 79.1188 320.323 75.5753 308.376 73.3559C292.777 70.4651 276.463 71.0432 259.873 75.0717C257.745 75.5939 255.579 74.3257 254.955 72.1809C250.092 55.6194 243.522 40.121 235.411 26.1519C230.089 16.976 226.878 13.2832 222.198 10.9332C215.316 7.50159 206.251 7.46429 195.221 10.8773C191.496 12.015 187.899 13.6375 184.523 15.6704C183.22 16.4537 181.623 16.4537 180.32 15.6704C176.943 13.6375 173.347 12.0336 169.621 10.8773C158.61 7.48294 149.526 7.50159 142.645 10.9519C137.965 13.2832 134.754 16.9946 129.432 26.1706C121.32 40.1396 114.751 55.6381 109.888 72.1996C109.3 74.1951 107.355 75.4634 105.318 75.1463C88.5999 72.6099 72.0653 72.5166 56.1913 74.8665C39.4365 77.347 35.179 80.8533 32.4997 83.9679C25.7831 91.7451 26.0033 102.786 26.1134 104.912C26.3336 109.164 27.3796 113.342 29.2148 117.315C29.7469 118.49 29.747 119.832 29.1598 120.989C28.5909 122.145 27.5265 122.966 26.2786 123.208C22.4431 123.991 18.938 125.67 16.1302 128.057C6.20211 136.562 8.34925 151.202 8.36761 151.352C9.23012 156.928 11.7993 161.106 15.3778 165.656C25.0307 177.91 39.0144 188.783 55.8243 197.082C57.8613 198.089 58.7239 200.551 57.7513 202.64C51.9889 215.154 48.3002 228.06 46.777 241.022C45.1254 255.141 47.1624 259.71 47.8231 261.202C53.1817 273.213 66.67 277.055 68.1932 277.446C72.6159 278.603 77.222 278.771 81.8649 277.969C84.0671 277.577 86.1775 279.05 86.618 281.288C87.2603 284.589 88.5264 287.48 90.3432 289.886C96.8029 298.391 109.025 298.857 115.595 299.118C123.816 299.435 130.423 297.794 135.249 296.339C150.793 291.639 165.749 283.116 179.715 271.012C180.485 270.341 181.44 270.005 182.394 270.005L182.467 269.968Z" fill="#FFBFC2"/>
<path d="M182.467 60.0382C180.191 60.0382 178.338 58.1546 178.338 55.8419V42.3018C178.338 39.9892 180.191 38.1055 182.467 38.1055C184.743 38.1055 186.596 39.9892 186.596 42.3018V55.8419C186.596 58.1546 184.743 60.0382 182.467 60.0382Z" fill="#EE868A"/>
<path d="M254.13 241.711L263.049 251.783L254.13 241.711Z" fill="#DD5E4A"/>
<path d="M263.048 255.978C261.91 255.978 260.791 255.512 259.984 254.579L251.065 244.508C249.542 242.792 249.67 240.125 251.377 238.577C253.065 237.029 255.689 237.16 257.213 238.894L266.131 248.965C267.654 250.681 267.526 253.348 265.819 254.896C265.03 255.624 264.039 255.978 263.067 255.978H263.048Z" fill="#FFBFC2"/>
<path d="M296.576 133.241L309.092 128.597L296.576 133.241Z" fill="#DD5E4A"/>
<path d="M296.576 137.437C294.887 137.437 293.309 136.374 292.704 134.677C291.914 132.495 293.016 130.089 295.163 129.287L307.678 124.643C309.825 123.841 312.193 124.96 312.982 127.142C313.771 129.325 312.67 131.73 310.523 132.532L298.007 137.176C297.548 137.344 297.053 137.437 296.594 137.437H296.576Z" fill="#EE868A"/>
<path d="M68.377 133.241L55.8613 128.597L68.377 133.241Z" fill="#DD5E4A"/>
<path d="M68.3765 137.437C67.8994 137.437 67.4222 137.363 66.9634 137.176L54.4478 132.532C52.3007 131.73 51.1996 129.325 51.9888 127.142C52.7779 124.96 55.1452 123.841 57.2923 124.643L69.8079 129.287C71.955 130.089 73.0561 132.495 72.267 134.677C71.6614 136.374 70.0649 137.437 68.3949 137.437H68.3765Z" fill="#EE868A"/>
<path d="M110.805 241.71L101.886 251.782L110.805 241.71Z" fill="#DD5E4A"/>
<path d="M101.904 255.978C100.913 255.978 99.9407 255.624 99.1516 254.897C97.4633 253.349 97.3164 250.7 98.8396 248.966L107.74 238.895C109.263 237.179 111.869 237.03 113.576 238.577C115.264 240.125 115.411 242.774 113.888 244.508L104.969 254.579C104.162 255.493 103.024 255.978 101.904 255.978Z" fill="#FFBFC2"/>
<path d="M182.485 166.682C188.688 166.682 193.716 162.916 193.716 158.271C193.716 153.625 188.688 149.859 182.485 149.859C176.282 149.859 171.254 153.625 171.254 158.271C171.254 162.916 176.282 166.682 182.485 166.682Z" fill="#B2696B"/>
<path d="M182.485 187.589C180.705 187.589 179.273 186.135 179.273 184.326V165.806C179.273 163.997 180.705 162.542 182.485 162.542C184.265 162.542 185.696 163.997 185.696 165.806V184.326C185.696 186.135 184.265 187.589 182.485 187.589Z" fill="#B2696B"/>
<path d="M140.791 151.334L157.234 150.812L140.791 151.334Z" fill="#DD5E4A"/>
<path d="M140.773 156.613C137.69 156.613 135.139 154.375 135.029 151.522C134.919 148.612 137.396 146.169 140.571 146.076L157.014 145.554C160.17 145.404 162.85 147.736 162.96 150.645C163.07 153.555 160.592 155.998 157.418 156.091L140.975 156.613C140.975 156.613 140.846 156.613 140.773 156.613Z" fill="#B2696B"/>
<path d="M141.727 151.614L156.775 150.365C157.803 150.272 158.72 150.029 159.491 149.339C160.152 148.724 160.647 147.735 160.611 146.859C160.519 145.105 158.922 143.166 156.775 143.352L141.727 144.602C140.699 144.695 139.782 144.938 139.011 145.628C138.35 146.243 137.855 147.232 137.892 148.108C137.983 149.861 139.58 151.801 141.727 151.614Z" fill="#B2696B"/>
<path d="M207.866 150.772L224.291 151.407L207.866 150.772Z" fill="#DD5E4A"/>
<path d="M224.309 156.664C224.309 156.664 224.144 156.664 224.071 156.664L207.646 156.03C204.471 155.9 202.012 153.456 202.141 150.547C202.269 147.637 204.967 145.399 208.123 145.511L224.548 146.145C227.722 146.276 230.181 148.719 230.053 151.629C229.925 154.463 227.374 156.683 224.309 156.683V156.664Z" fill="#B2696B"/>
<path d="M207.427 150.212L216.07 150.455C217.465 150.492 218.859 150.529 220.254 150.566C220.548 150.566 220.841 150.585 221.135 150.604C221.337 150.604 221.52 150.622 221.722 150.641L221.282 150.585C221.539 150.585 221.887 150.678 222.144 150.753C222.328 150.79 222.511 150.846 222.695 150.921C222.236 150.734 222.199 150.734 222.585 150.921C224.365 151.779 226.824 151.387 227.833 149.653C228.769 148.03 228.347 145.755 226.457 144.841C223.466 143.386 220.052 143.554 216.749 143.461L207.427 143.2C205.426 143.144 203.499 144.859 203.591 146.706C203.683 148.664 205.279 150.156 207.427 150.212Z" fill="#B2696B"/>
<path d="M181.999 181.019C171.314 181.019 163.299 185.363 159.43 187.984C157.957 188.995 157.551 191.017 158.546 192.534C159.541 194.032 161.549 194.444 163.023 193.433C166.358 191.167 173.359 187.366 182.681 187.572C191.727 187.759 198.433 191.598 201.621 193.863C203.076 194.893 205.084 194.537 206.116 193.058C207.148 191.579 206.779 189.538 205.324 188.49C201.529 185.793 193.57 181.225 182.81 181C182.552 181 182.276 181 182.018 181L181.999 181.019Z" fill="#B16476"/>
<ellipse cx="223.625" cy="235.1" rx="7.475" ry="6.9" fill="#54D4FF"/>
<path d="M222.724 220.873C223.087 220.118 224.163 220.118 224.526 220.873L230.405 233.091C230.724 233.755 230.24 234.525 229.504 234.525H217.746C217.01 234.525 216.526 233.755 216.845 233.091L222.724 220.873Z" fill="#54D4FF"/>
</svg>
