<svg width="42" height="41" viewBox="0 0 42 41" fill="none" xmlns="http://www.w3.org/2000/svg">
<mask id="mask0_64_354" style="mask-type:luminance" maskUnits="userSpaceOnUse" x="0" y="0" width="42" height="41">
<path d="M0.238419 20.5008C0.238419 31.7775 9.38404 40.9216 20.6608 40.9216C31.9375 40.9216 41.08 31.779 41.08 20.5008C41.08 9.2225 31.936 0.0799541 20.6608 0.0799541C9.38558 0.0799541 0.238419 9.2225 0.238419 20.5008Z" fill="white"/>
</mask>
<g mask="url(#mask0_64_354)">
<path d="M41.0785 0.0799541H0.238419V40.9216H41.0785V0.0799541Z" fill="url(#paint0_radial_64_354)"/>
</g>
<mask id="mask1_64_354" style="mask-type:luminance" maskUnits="userSpaceOnUse" x="0" y="0" width="42" height="41">
<path d="M0.316834 20.5008C0.316834 9.284 9.44247 0.158372 20.6608 0.158372C31.8791 0.158372 41.0016 9.284 41.0016 20.5008C41.0016 31.7175 31.8775 40.8432 20.6608 40.8432C9.44401 40.8432 0.316834 31.7175 0.316834 20.5008ZM0.16 20.5008C0.16 31.8036 9.35636 41 20.6608 41C31.9652 41 41.1585 31.8036 41.1585 20.5008C41.1585 9.1979 31.9636 0 20.6608 0C9.3579 0 0.16 9.19636 0.16 20.5008Z" fill="white"/>
</mask>
<g mask="url(#mask1_64_354)">
<path d="M41.1585 0H0.16V41H41.1585V0Z" fill="url(#paint1_radial_64_354)"/>
</g>
<mask id="mask2_64_354" style="mask-type:luminance" maskUnits="userSpaceOnUse" x="1" y="0" width="40" height="41">
<path d="M1.04566 20.5008C1.04566 31.3331 9.82841 40.1143 20.6592 40.1143C31.4901 40.1143 40.2728 31.3331 40.2728 20.5008C40.2728 9.66841 31.4901 0.887194 20.6592 0.887194C9.82841 0.887194 1.04566 9.66841 1.04566 20.5008Z" fill="white"/>
</mask>
<g mask="url(#mask2_64_354)">
<path d="M20.6588 -18.7259L-18.5679 20.5008L20.6588 59.7275L59.8855 20.5008L20.6588 -18.7259Z" fill="url(#paint2_linear_64_354)"/>
</g>
<mask id="mask3_64_354" style="mask-type:luminance" maskUnits="userSpaceOnUse" x="1" y="1" width="40" height="39">
<path d="M1.28706 20.5008C1.28706 31.1994 9.96218 39.8729 20.6592 39.8729C31.3563 39.8729 40.0314 31.2009 40.0314 20.5008C40.0314 9.80064 31.3578 1.12706 20.6592 1.12706C9.96064 1.12706 1.28706 9.80064 1.28706 20.5008Z" fill="white"/>
</mask>
<g mask="url(#mask3_64_354)">
<path d="M40.0299 1.12706H1.28706V39.8729H40.0299V1.12706Z" fill="url(#paint3_radial_64_354)"/>
</g>
<mask id="mask4_64_354" style="mask-type:luminance" maskUnits="userSpaceOnUse" x="7" y="6" width="28" height="29">
<path d="M7.14069 20.5008C7.14069 27.9673 13.1927 34.0208 20.6608 34.0208C28.1289 34.0208 34.1778 27.9673 34.1778 20.5008C34.1778 13.0342 28.1258 6.98069 20.6608 6.98069C13.1957 6.98069 7.14069 13.0342 7.14069 20.5008Z" fill="white"/>
</mask>
<g mask="url(#mask4_64_354)">
<path d="M20.6572 -6.53575L-6.38036 20.5019L20.6572 47.5395L47.6948 20.5019L20.6572 -6.53575Z" fill="url(#paint4_linear_64_354)"/>
</g>
<mask id="mask5_64_354" style="mask-type:luminance" maskUnits="userSpaceOnUse" x="7" y="7" width="27" height="27">
<path d="M7.47281 20.4885C7.47281 27.7705 13.3787 33.6764 20.6608 33.6764C27.9428 33.6764 33.8457 27.7705 33.8457 20.4885C33.8457 13.2064 27.9428 7.30051 20.6608 7.30051C13.3787 7.30051 7.47281 13.2064 7.47281 20.4885Z" fill="white"/>
</mask>
<g mask="url(#mask5_64_354)">
<path d="M33.8441 7.30051H7.47281V33.6764H33.8441V7.30051Z" fill="url(#paint5_radial_64_354)"/>
</g>
<mask id="mask6_64_354" style="mask-type:luminance" maskUnits="userSpaceOnUse" x="11" y="14" width="19" height="9">
<path d="M26.499 14.5164V15.1668H18.5958V14.5164H16.7122V15.1668H11.7519V16.8398H13.2449C12.2101 17.2918 11.5428 18.2789 11.5428 19.7212C11.5428 21.6555 13.3633 22.7564 14.8287 22.7564H20.301V22.1691H21.8509V22.7564H29.6757V21.0835H28.3872V16.8382H29.6757V15.1653H28.3872V14.5149H26.5036L26.499 14.5164Z" fill="white"/>
</mask>
<g mask="url(#mask6_64_354)">
<path d="M29.6711 14.5164H11.5398V22.758H29.6711V14.5164Z" fill="url(#paint6_radial_64_354)"/>
</g>
<mask id="mask7_64_354" style="mask-type:luminance" maskUnits="userSpaceOnUse" x="10" y="13" width="21" height="11">
<path d="M26.0623 14.7194V14.0398C26.2115 14.0398 28.81 14.0352 28.9592 14.0336V14.7194H30.2338C30.2338 14.867 30.2292 17.1626 30.2277 17.3118H28.9146V20.7237H30.2231C30.2231 20.8713 30.2277 23.1992 30.2277 23.3499C30.0693 23.3499 21.6248 23.3346 21.468 23.3346V22.7349H20.7961V23.3499H14.8102C13.6401 23.3499 12.5161 22.8333 11.8734 22.003C11.3199 21.3572 10.9939 20.5238 10.9939 19.7689C10.9939 18.7664 11.2491 18.0052 11.7965 17.3748L11.9134 17.2411C11.9134 17.2411 11.3706 17.2426 11.2507 17.2426V14.7194H16.2771V14.0398C16.4262 14.0398 18.9786 14.0444 19.1278 14.0459V14.7194H26.0623ZM25.8994 13.8768V14.5564H19.2892V13.883L16.1141 13.8768V14.5564H11.0877V17.404C11.0877 17.404 11.4106 17.404 11.5751 17.404C11.0739 18.0375 10.8294 18.791 10.8294 19.7689C10.8294 20.5607 11.1723 21.4341 11.7458 22.1045C12.4146 22.9717 13.5909 23.5114 14.8087 23.5114H20.956V22.8963H21.305V23.496L30.3907 23.5114L30.3845 20.5623H29.0776V17.4748H30.3907L30.3968 14.5595H29.1222V13.8737L25.9009 13.8799L25.8994 13.8768Z" fill="white"/>
</mask>
<g mask="url(#mask7_64_354)">
<path d="M30.3953 13.872H10.8294V23.5097H30.3953V13.872Z" fill="url(#paint7_radial_64_354)"/>
</g>
<mask id="mask8_64_354" style="mask-type:luminance" maskUnits="userSpaceOnUse" x="14" y="16" width="13" height="6">
<path d="M15.4145 19.6366V20.6591C15.4145 21.1727 15.7482 21.4848 16.2909 21.4848L18.9171 21.4879V21.0451H16.2463V19.6351H15.4145V19.6366ZM15.5467 18.1544C15.5467 17.7146 15.8496 17.381 16.2248 17.381C16.6 17.381 16.9029 17.7146 16.9029 18.1544C16.9029 18.5942 16.6 18.9293 16.2248 18.9293C15.8496 18.9293 15.5467 18.6034 15.5467 18.1544ZM14.8164 16.8751V17.3179H15.3468C15.027 17.5148 14.8271 17.8161 14.8271 18.1559C14.8271 18.7479 15.4283 19.2276 16.2233 19.2276C17.0182 19.2276 17.6194 18.7479 17.6194 18.1559C17.6194 17.8161 17.4211 17.5148 17.1012 17.3179H17.6332V16.8751H14.8148H14.8164ZM22.6289 17.5778C22.6289 17.0627 22.961 16.7167 23.3685 16.7167C23.7759 16.7167 24.1096 17.0627 24.1096 17.5778C24.1096 18.0929 23.7775 18.4419 23.3685 18.4419C22.9595 18.4419 22.6289 18.1052 22.6289 17.5778ZM21.8463 17.5778C21.8463 18.2651 22.5028 18.8202 23.3685 18.8202C24.2341 18.8202 24.8922 18.2651 24.8922 17.5778C24.8922 16.8905 24.2372 16.3354 23.3685 16.3354C22.4997 16.3354 21.8463 16.892 21.8463 17.5778ZM15.4775 16.6906H16.9767V16.2493H15.4775V16.6906ZM18.1007 16.2509V19.8534H18.8664V17.976H19.4907V17.5347H18.8664V16.2509H18.1007ZM23.3347 20.4085C23.3347 19.9088 23.7544 19.609 24.2188 19.609C24.6831 19.609 25.1029 19.9088 25.1029 20.4085C25.1029 20.9082 24.6847 21.2081 24.2188 21.2081C23.7529 21.2081 23.3347 20.9036 23.3347 20.4085ZM25.1044 16.2509V19.3768C24.8492 19.2553 24.5463 19.1846 24.2203 19.1846C23.3054 19.1846 22.5751 19.735 22.5705 20.4101C22.5751 21.0851 23.3054 21.6355 24.2203 21.6355C25.1352 21.6355 25.864 21.0851 25.8702 20.4101V18.4173H26.519V17.976H25.8702V17.341H26.519V16.8982H25.8702V16.2509H25.1029H25.1044Z" fill="white"/>
</mask>
<g mask="url(#mask8_64_354)">
<path d="M26.5192 16.251H14.8165V21.6341H26.5192V16.251Z" fill="url(#paint8_radial_64_354)"/>
</g>
<mask id="mask9_64_354" style="mask-type:luminance" maskUnits="userSpaceOnUse" x="36" y="22" width="2" height="3">
<path d="M36.3473 23.3745C36.3412 23.9019 36.6702 24.3309 36.6702 24.3309C36.6702 24.3309 37.0085 23.9081 37.0131 23.3807C37.0193 22.8548 36.6917 22.4243 36.6917 22.4243C36.6917 22.4243 36.3535 22.8487 36.3473 23.3745Z" fill="white"/>
</mask>
<g mask="url(#mask9_64_354)">
<path d="M37.0112 22.3364L36.1138 22.4466L36.3546 24.4077L37.252 24.2975L37.0112 22.3364Z" fill="url(#paint9_radial_64_354)"/>
</g>
<mask id="mask10_64_354" style="mask-type:luminance" maskUnits="userSpaceOnUse" x="36" y="23" width="3" height="4">
<path d="M37.0961 24.6184C36.4611 25.338 36.3304 26.2606 36.3304 26.2606C36.3304 26.2606 37.2299 26.0177 37.8649 25.2996C38.5 24.58 38.5938 23.7482 38.5938 23.7482C38.5938 23.7482 37.7312 23.9019 37.0946 24.62" fill="white"/>
</mask>
<g mask="url(#mask10_64_354)">
<path d="M38.5623 23.4739L36.0272 23.7839L36.3633 26.5326L38.8983 26.2227L38.5623 23.4739Z" fill="url(#paint10_radial_64_354)"/>
</g>
<mask id="mask11_64_354" style="mask-type:luminance" maskUnits="userSpaceOnUse" x="35" y="23" width="2" height="4">
<path d="M35.3402 24.8214C35.5247 25.6148 36.0829 26.1622 36.0829 26.1622C36.0829 26.1622 36.3104 25.4995 36.1259 24.7076C35.9429 23.9127 35.3725 23.476 35.3725 23.476C35.3725 23.476 35.1572 24.028 35.3402 24.8199" fill="white"/>
</mask>
<g mask="url(#mask11_64_354)">
<path d="M36.2913 23.3405L34.8322 23.5189L35.1727 26.3042L36.6318 26.1259L36.2913 23.3405Z" fill="url(#paint11_radial_64_354)"/>
</g>
<mask id="mask12_64_354" style="mask-type:luminance" maskUnits="userSpaceOnUse" x="35" y="26" width="3" height="3">
<path d="M36.1905 27.1739C35.4401 27.7721 35.1511 28.6577 35.1511 28.6577C35.1511 28.6577 36.0798 28.5732 36.8286 27.975C37.5805 27.3769 37.8188 26.5758 37.8188 26.5758C37.8188 26.5758 36.9424 26.5758 36.1905 27.1724" fill="white"/>
</mask>
<g mask="url(#mask12_64_354)">
<path d="M37.7804 26.256L38.071 28.6285L35.1911 28.9806L34.9004 26.6081L37.7804 26.256Z" fill="url(#paint12_radial_64_354)"/>
</g>
<mask id="mask13_64_354" style="mask-type:luminance" maskUnits="userSpaceOnUse" x="34" y="25" width="2" height="4">
<path d="M34.4269 27.0525C34.4699 27.8659 34.9251 28.5024 34.9251 28.5024C34.9251 28.5024 35.2633 27.8905 35.2203 27.074C35.1772 26.2621 34.6898 25.7332 34.6898 25.7332C34.6898 25.7332 34.3823 26.2406 34.4253 27.0525" fill="white"/>
</mask>
<g mask="url(#mask13_64_354)">
<path d="M35.2497 25.6291L34.0486 25.7761L34.3956 28.6103L35.5967 28.4632L35.2497 25.6291Z" fill="url(#paint13_radial_64_354)"/>
</g>
<mask id="mask14_64_354" style="mask-type:luminance" maskUnits="userSpaceOnUse" x="30" y="33" width="4" height="2">
<path d="M31.4993 33.5334C30.6167 33.7364 30.0078 34.3714 30.0078 34.3714C30.0078 34.3714 30.8335 34.6789 31.713 34.4775C32.5971 34.2746 33.1261 33.6903 33.1261 33.6903C33.1261 33.6903 32.6709 33.4719 32.0513 33.4719C31.8791 33.4719 31.693 33.4888 31.4993 33.5319" fill="white"/>
</mask>
<g mask="url(#mask14_64_354)">
<path d="M33.0742 33.1006L29.8569 33.4939L30.0483 35.0598L33.2656 34.6665L33.0742 33.1006Z" fill="url(#paint14_radial_64_354)"/>
</g>
<mask id="mask15_64_354" style="mask-type:luminance" maskUnits="userSpaceOnUse" x="29" y="31" width="2" height="4">
<path d="M29.9617 32.617C29.6434 33.3858 29.7818 34.17 29.7818 34.17C29.7818 34.17 30.3615 33.7548 30.6828 32.9891C31.0011 32.2249 30.7874 31.5223 30.7874 31.5223C30.7874 31.5223 30.2815 31.8544 29.9632 32.6155" fill="white"/>
</mask>
<g mask="url(#mask15_64_354)">
<path d="M30.9796 31.3616L29.3236 31.564L29.6625 34.3357L31.3184 34.1332L30.9796 31.3616Z" fill="url(#paint15_radial_64_354)"/>
</g>
<mask id="mask16_64_354" style="mask-type:luminance" maskUnits="userSpaceOnUse" x="27" y="35" width="4" height="1">
<path d="M27.6737 35.5231C27.6737 35.5231 28.3734 35.9859 29.2344 35.989C30.0985 35.9905 30.7151 35.5615 30.7151 35.5615C30.7151 35.5615 30.1001 35.0695 29.2375 35.0695H29.2236C28.3672 35.0695 27.6737 35.5246 27.6737 35.5246" fill="white"/>
</mask>
<g mask="url(#mask16_64_354)">
<path d="M30.6742 34.7001L27.5651 35.0791L27.7207 36.3551L30.8298 35.9761L30.6742 34.7001Z" fill="url(#paint16_radial_64_354)"/>
</g>
<mask id="mask17_64_354" style="mask-type:luminance" maskUnits="userSpaceOnUse" x="27" y="32" width="3" height="4">
<path d="M28.0366 33.7718C27.5538 34.4452 27.5108 35.2417 27.5108 35.2417C27.5108 35.2417 28.1719 34.9695 28.6517 34.2945C29.1375 33.6226 29.0868 32.8923 29.0868 32.8923C29.0868 32.8923 28.5179 33.0983 28.0351 33.7718" fill="white"/>
</mask>
<g mask="url(#mask17_64_354)">
<path d="M29.1114 32.6979L27.225 32.9288L27.5326 35.4409L29.419 35.21L29.1114 32.6979Z" fill="url(#paint17_radial_64_354)"/>
</g>
<mask id="mask18_64_354" style="mask-type:luminance" maskUnits="userSpaceOnUse" x="23" y="34" width="5" height="5">
<path d="M25.4473 36.7562C25.1767 36.6255 25.0645 36.2965 25.1967 36.0274C25.3305 35.7568 25.6564 35.6461 25.9286 35.7783C26.1992 35.9121 26.3099 36.2381 26.1777 36.5087C26.0823 36.7009 25.8901 36.8116 25.6887 36.8116C25.6072 36.8116 25.5242 36.7931 25.4473 36.7547M25.6549 35.1187C25.5473 35.334 25.4996 35.5554 25.5088 35.7414C25.4012 35.5907 25.2321 35.4416 25.0153 35.3355C24.5632 35.1126 23.9205 35.0664 23.7898 35.3324C23.656 35.6015 24.085 36.0812 24.5371 36.3027C24.7554 36.4087 24.9737 36.4564 25.1613 36.4487C25.0091 36.5548 24.8615 36.7255 24.7554 36.9423C24.5324 37.3959 24.4832 38.0371 24.7523 38.1662C25.0183 38.3015 25.4996 37.871 25.721 37.4205C25.8271 37.2021 25.8763 36.9823 25.8671 36.7962C25.9747 36.9484 26.1454 37.096 26.3637 37.2021C26.8142 37.4251 27.4554 37.4712 27.5876 37.2052C27.7183 36.9392 27.2924 36.4579 26.8388 36.2335C26.622 36.1258 26.4022 36.0812 26.2161 36.0905C26.3699 35.9828 26.5144 35.8122 26.622 35.5954C26.8435 35.1433 26.8927 34.5006 26.6251 34.3684C26.5913 34.3514 26.5544 34.3453 26.5159 34.3453C26.2423 34.3453 25.8517 34.722 25.6564 35.1187" fill="white"/>
</mask>
<g mask="url(#mask18_64_354)">
<path d="M27.6547 33.8597L23.1752 34.4074L23.7115 38.7938L28.191 38.2461L27.6547 33.8597Z" fill="url(#paint18_radial_64_354)"/>
</g>
<mask id="mask19_64_354" style="mask-type:luminance" maskUnits="userSpaceOnUse" x="31" y="28" width="5" height="5">
<path d="M33.2137 30.4844C33.1691 30.1799 33.3813 29.8986 33.6858 29.8509C33.9902 29.8078 34.2731 30.0216 34.3162 30.326C34.3608 30.6305 34.1501 30.9134 33.8441 30.958C33.818 30.961 33.7918 30.9626 33.7657 30.9626C33.492 30.9626 33.2552 30.7627 33.2152 30.4844M33.4582 28.2641C33.1568 28.3071 32.9969 28.9452 33.0707 29.4557C33.1061 29.7002 33.1937 29.9124 33.309 30.0631C33.1307 29.9954 32.9016 29.9724 32.6571 30.0077C32.1466 30.0785 31.5777 30.4106 31.6223 30.7104C31.6638 31.0118 32.3019 31.1701 32.8139 31.0963C33.06 31.0625 33.2706 30.9749 33.4244 30.8596C33.3567 31.0379 33.3321 31.2686 33.3675 31.513C33.4397 32.022 33.7703 32.5894 34.0717 32.5448C34.3731 32.5017 34.5299 31.8651 34.4576 31.3547C34.4223 31.1117 34.3346 30.8965 34.2193 30.7442C34.3977 30.8134 34.6268 30.8365 34.8697 30.8027C35.3817 30.7289 35.9506 30.3967 35.906 30.0969C35.863 29.7971 35.2249 29.6387 34.7144 29.7125C34.4684 29.7463 34.2562 29.834 34.1055 29.9493C34.1716 29.7725 34.1978 29.5418 34.1624 29.2989C34.0901 28.8069 33.7826 28.261 33.4889 28.261C33.4782 28.261 33.4674 28.261 33.4566 28.2641" fill="white"/>
</mask>
<g mask="url(#mask19_64_354)">
<path d="M35.8814 27.7389L31.0525 28.3301L31.639 33.1208L36.4679 32.5296L35.8814 27.7389Z" fill="url(#paint19_radial_64_354)"/>
</g>
<mask id="mask20_64_354" style="mask-type:luminance" maskUnits="userSpaceOnUse" x="4" y="22" width="2" height="3">
<path d="M4.42683 23.3807C4.43452 23.9081 4.76972 24.3309 4.76972 24.3309C4.76972 24.3309 5.09876 23.9019 5.09261 23.3745C5.08646 22.8487 4.74819 22.4243 4.74819 22.4243C4.74819 22.4243 4.42068 22.8564 4.4253 23.3807" fill="white"/>
</mask>
<g mask="url(#mask20_64_354)">
<path d="M4.43273 22.3445L4.19296 24.3057L5.09038 24.4154L5.33015 22.4542L4.43273 22.3445Z" fill="url(#paint20_radial_64_354)"/>
</g>
<mask id="mask21_64_354" style="mask-type:luminance" maskUnits="userSpaceOnUse" x="2" y="23" width="4" height="4">
<path d="M3.57655 25.2996C4.21157 26.0177 5.11107 26.2606 5.11107 26.2606C5.11107 26.2606 4.97883 25.3396 4.34381 24.6184C3.70878 23.9004 2.84772 23.7466 2.84772 23.7466C2.84772 23.7466 2.93998 24.58 3.57808 25.2981" fill="white"/>
</mask>
<g mask="url(#mask21_64_354)">
<path d="M2.88099 23.4783L2.54495 26.227L5.0785 26.5368L5.41454 23.788L2.88099 23.4783Z" fill="url(#paint21_radial_64_354)"/>
</g>
<mask id="mask22_64_354" style="mask-type:luminance" maskUnits="userSpaceOnUse" x="5" y="23" width="2" height="4">
<path d="M5.31557 24.7092C5.13106 25.501 5.35862 26.1637 5.35862 26.1637C5.35862 26.1637 5.91831 25.6164 6.10282 24.823C6.28579 24.0311 6.07053 23.4791 6.07053 23.4791C6.07053 23.4791 5.50008 23.9158 5.31711 24.7107" fill="white"/>
</mask>
<g mask="url(#mask22_64_354)">
<path d="M5.14654 23.3366L4.80553 26.1219L6.26611 26.3007L6.60712 23.5154L5.14654 23.3366Z" fill="url(#paint22_radial_64_354)"/>
</g>
<mask id="mask23_64_354" style="mask-type:luminance" maskUnits="userSpaceOnUse" x="3" y="26" width="4" height="3">
<path d="M3.62113 26.5774C3.62113 26.5774 3.85792 27.3784 4.60827 27.9766C5.36015 28.5747 6.28732 28.6593 6.28732 28.6593C6.28732 28.6593 5.99826 27.7736 5.24791 27.1755C4.49756 26.5789 3.62113 26.5789 3.61959 26.5789" fill="white"/>
</mask>
<g mask="url(#mask23_64_354)">
<path d="M3.65996 26.2526L3.36917 28.6242L6.24753 28.9771L6.53831 26.6055L3.65996 26.2526Z" fill="url(#paint23_radial_64_354)"/>
</g>
<mask id="mask24_64_354" style="mask-type:luminance" maskUnits="userSpaceOnUse" x="6" y="25" width="2" height="4">
<path d="M6.21967 27.074C6.17816 27.8889 6.51643 28.5024 6.51643 28.5024C6.51643 28.5024 6.97156 27.8659 7.01461 27.0525C7.05612 26.2406 6.75168 25.7332 6.75168 25.7332C6.75168 25.7332 6.26426 26.2621 6.21967 27.074Z" fill="white"/>
</mask>
<g mask="url(#mask24_64_354)">
<path d="M6.18914 25.6251L5.84234 28.4578L7.04193 28.6046L7.38873 25.772L6.18914 25.6251Z" fill="url(#paint24_radial_64_354)"/>
</g>
<mask id="mask25_64_354" style="mask-type:luminance" maskUnits="userSpaceOnUse" x="8" y="33" width="4" height="2">
<path d="M8.31695 33.6903C8.31695 33.6903 8.84435 34.2746 9.72847 34.4775C10.6095 34.6789 11.4337 34.3714 11.4337 34.3714C11.4337 34.3714 10.8248 33.7364 9.94219 33.5334C9.74999 33.4888 9.56394 33.4735 9.3902 33.4735C8.77054 33.4735 8.31541 33.6918 8.31541 33.6918" fill="white"/>
</mask>
<g mask="url(#mask25_64_354)">
<path d="M8.3615 33.0935L8.17025 34.6579L11.3876 35.0512L11.5788 33.4868L8.3615 33.0935Z" fill="url(#paint25_radial_64_354)"/>
</g>
<mask id="mask26_64_354" style="mask-type:luminance" maskUnits="userSpaceOnUse" x="10" y="31" width="2" height="4">
<path d="M10.7587 32.9907C11.0785 33.7564 11.6581 34.1715 11.6581 34.1715C11.6581 34.1715 11.7965 33.3858 11.4782 32.6186C11.16 31.8559 10.6541 31.5253 10.6541 31.5253C10.6541 31.5253 10.4404 32.228 10.7587 32.9922" fill="white"/>
</mask>
<g mask="url(#mask26_64_354)">
<path d="M10.4619 31.3607L10.1226 34.1323L11.777 34.3349L12.1163 31.5633L10.4619 31.3607Z" fill="url(#paint26_radial_64_354)"/>
</g>
<mask id="mask27_64_354" style="mask-type:luminance" maskUnits="userSpaceOnUse" x="10" y="35" width="4" height="1">
<path d="M12.2025 35.068C11.3399 35.068 10.7248 35.56 10.7248 35.56C10.7248 35.56 11.3414 35.9905 12.2055 35.9874C13.0666 35.9859 13.7677 35.5215 13.7677 35.5215C13.7677 35.5215 13.0743 35.0664 12.2163 35.0664H12.2025" fill="white"/>
</mask>
<g mask="url(#mask27_64_354)">
<path d="M10.7709 34.7025L10.6145 35.9784L13.7233 36.3596L13.8797 35.0837L10.7709 34.7025Z" fill="url(#paint27_radial_64_354)"/>
</g>
<mask id="mask28_64_354" style="mask-type:luminance" maskUnits="userSpaceOnUse" x="12" y="32" width="2" height="4">
<path d="M12.7883 34.2945C13.2711 34.9695 13.9307 35.2417 13.9307 35.2417C13.9307 35.2417 13.8877 34.4452 13.4049 33.7718C12.9205 33.0983 12.3531 32.8923 12.3531 32.8923C12.3531 32.8923 12.3039 33.6226 12.7883 34.2945Z" fill="white"/>
</mask>
<g mask="url(#mask28_64_354)">
<path d="M12.3291 32.6975L12.0215 35.2096L13.9079 35.4406L14.2154 32.9284L12.3291 32.6975Z" fill="url(#paint28_radial_64_354)"/>
</g>
<mask id="mask29_64_354" style="mask-type:luminance" maskUnits="userSpaceOnUse" x="13" y="34" width="5" height="5">
<path d="M15.2623 36.5102C15.13 36.2396 15.2407 35.9121 15.5114 35.7799C15.7851 35.6461 16.1095 35.7568 16.2433 36.029C16.3755 36.298 16.2648 36.6255 15.9957 36.7578C15.9173 36.7962 15.8343 36.8147 15.7528 36.8147C15.5529 36.8147 15.3591 36.704 15.2623 36.5118M14.8164 34.3684C14.5488 34.5006 14.595 35.1433 14.8179 35.5954C14.9255 35.8122 15.0716 35.9828 15.2238 36.0905C15.0362 36.0828 14.8164 36.1274 14.6011 36.2335C14.1475 36.4564 13.7216 36.9377 13.8523 37.2052C13.9845 37.4712 14.6257 37.4251 15.0778 37.2021C15.2961 37.096 15.4668 36.9484 15.5729 36.7962C15.5636 36.9823 15.6113 37.2021 15.7189 37.4205C15.9419 37.871 16.4216 38.3015 16.6907 38.1662C16.9567 38.0371 16.909 37.3959 16.6861 36.9423C16.58 36.727 16.4339 36.5548 16.2802 36.4487C16.4677 36.4564 16.6876 36.4087 16.9044 36.3027C17.3565 36.0812 17.7855 35.6 17.6532 35.3324C17.5225 35.0664 16.8798 35.1126 16.4278 35.3355C16.2094 35.4416 16.0388 35.5907 15.9327 35.7414C15.9419 35.5554 15.8958 35.3355 15.7881 35.1187C15.5913 34.722 15.2008 34.3453 14.9271 34.3453C14.8886 34.3453 14.8517 34.353 14.8179 34.3684" fill="white"/>
</mask>
<g mask="url(#mask29_64_354)">
<path d="M13.7826 33.8557L13.2456 38.242L17.725 38.7904L18.262 34.4041L13.7826 33.8557Z" fill="url(#paint29_radial_64_354)"/>
</g>
<mask id="mask30_64_354" style="mask-type:luminance" maskUnits="userSpaceOnUse" x="5" y="28" width="5" height="5">
<path d="M7.59736 30.958C7.29138 30.9134 7.08226 30.6305 7.12685 30.326C7.16837 30.0216 7.45129 29.8078 7.75727 29.8509C8.06018 29.897 8.27236 30.1784 8.22777 30.4844C8.1878 30.7627 7.94947 30.9626 7.67731 30.9626C7.65118 30.9626 7.62504 30.9626 7.59736 30.958ZM7.27754 29.2989C7.24217 29.5418 7.26678 29.7725 7.33443 29.9493C7.18375 29.834 6.97156 29.7463 6.72554 29.7125C6.2166 29.6402 5.57849 29.7971 5.53544 30.0969C5.49085 30.3983 6.05976 30.7304 6.57025 30.8027C6.81319 30.8365 7.04229 30.8134 7.22065 30.7442C7.10533 30.8965 7.01922 31.1102 6.98078 31.3547C6.90852 31.8651 7.06689 32.5017 7.3698 32.5448C7.66963 32.5878 8.00175 32.0204 8.07401 31.513C8.10784 31.2686 8.08478 31.0379 8.01712 30.8596C8.16781 30.9749 8.38307 31.0641 8.62601 31.0963C9.13649 31.1717 9.77459 31.0133 9.81765 30.7104C9.85916 30.4106 9.29179 30.0785 8.78285 30.0077C8.53837 29.9708 8.30927 29.9954 8.12937 30.0631C8.24623 29.9109 8.33233 29.6987 8.36769 29.4557C8.4415 28.9437 8.28313 28.3071 7.98176 28.2641C7.97099 28.2626 7.96023 28.261 7.94947 28.261C7.65733 28.261 7.34827 28.8069 7.276 29.2989" fill="white"/>
</mask>
<g mask="url(#mask30_64_354)">
<path d="M5.55544 27.7352L4.96961 32.5248L9.79613 33.1168L10.3835 28.3256L5.55544 27.7352Z" fill="url(#paint30_radial_64_354)"/>
</g>
<mask id="mask31_64_354" style="mask-type:luminance" maskUnits="userSpaceOnUse" x="19" y="36" width="3" height="2">
<path d="M19.975 37.1606C19.975 37.5404 20.2825 37.8464 20.6608 37.8464C21.039 37.8464 21.345 37.5404 21.345 37.1606C21.345 36.7808 21.039 36.4764 20.6608 36.4764C20.2825 36.4764 19.975 36.7824 19.975 37.1606Z" fill="white"/>
</mask>
<g mask="url(#mask31_64_354)">
<path d="M21.345 36.4764H19.975V37.8449H21.345V36.4764Z" fill="url(#paint31_radial_64_354)"/>
</g>
<mask id="mask32_64_354" style="mask-type:luminance" maskUnits="userSpaceOnUse" x="2" y="17" width="5" height="3">
<path d="M2.77699 17.7531L4.15621 17.9314L4.06703 18.6126L2.69857 18.4342L2.63553 19.0877L6.02747 19.5321L6.07821 18.8801L4.67438 18.6941L4.76356 18.0129L6.16893 18.1974L6.28886 17.544L2.89846 17.1011L2.77699 17.7531Z" fill="white"/>
</mask>
<g mask="url(#mask32_64_354)">
<path d="M6.28886 17.1011H2.63553V19.5321H6.28886V17.1011Z" fill="url(#paint32_radial_64_354)"/>
</g>
<mask id="mask33_64_354" style="mask-type:luminance" maskUnits="userSpaceOnUse" x="3" y="14" width="5" height="3">
<path d="M4.8589 15.2576C4.68361 15.1622 4.36687 15.0008 4.16391 14.8947L4.16852 14.8809C4.39301 14.9254 4.72667 14.99 4.93117 15.0239L5.63692 15.1453L5.48163 15.602L4.85583 15.2576H4.8589ZM3.42279 15.0162L6.45339 16.8428L6.63482 16.2186L5.9506 15.828L6.14587 15.2514L6.92543 15.3621L7.15453 14.7625L3.67341 14.292L3.42586 15.0177L3.42279 15.0162Z" fill="white"/>
</mask>
<g mask="url(#mask33_64_354)">
<path d="M7.15299 14.292H3.42279V16.8444H7.15299V14.292Z" fill="url(#paint33_radial_64_354)"/>
</g>
<mask id="mask34_64_354" style="mask-type:luminance" maskUnits="userSpaceOnUse" x="4" y="10" width="5" height="5">
<path d="M5.20024 11.1137L7.26831 12.2177L7.26216 12.227L4.77894 11.8349L4.50217 12.3638L7.47896 14.0675L7.74035 13.5478L5.71841 12.4392L5.74763 12.4515L8.15243 12.8297L8.47994 12.3192L5.5093 10.6217L5.20024 11.1137Z" fill="white"/>
</mask>
<g mask="url(#mask34_64_354)">
<path d="M8.48147 10.6217H4.50217V14.069H8.48147V10.6217Z" fill="url(#paint34_radial_64_354)"/>
</g>
<mask id="mask35_64_354" style="mask-type:luminance" maskUnits="userSpaceOnUse" x="6" y="7" width="4" height="5">
<path d="M7.16837 8.45678L7.65579 9.13486C7.80032 9.33628 7.95254 9.53925 8.11399 9.72991L8.10938 9.73606C7.88489 9.61151 7.65271 9.49927 7.44667 9.40548L6.66096 9.05029L6.22582 9.5946L8.30004 10.3803L9.29487 11.2275L9.72385 10.7263L8.7075 9.86368L7.62965 7.96167L7.16991 8.45832L7.16837 8.45678Z" fill="white"/>
</mask>
<g mask="url(#mask35_64_354)">
<path d="M9.72217 7.96167H6.22414V11.2275H9.72217V7.96167Z" fill="url(#paint35_radial_64_354)"/>
</g>
<mask id="mask36_64_354" style="mask-type:luminance" maskUnits="userSpaceOnUse" x="8" y="6" width="5" height="5">
<path d="M9.82226 7.82944C9.72231 7.65723 9.53473 7.35586 9.4148 7.16212L9.4271 7.15136C9.59623 7.30512 9.8484 7.53268 10.0068 7.66799L10.548 8.1385L10.179 8.44909L9.82072 7.83098L9.82226 7.82944ZM8.72441 6.91457L10.385 10.0297L10.8571 9.58537L10.4604 8.88116L10.9247 8.48753L11.5505 9.00109L12.0687 8.60592L9.32561 6.40562L8.72288 6.91303L8.72441 6.91457Z" fill="white"/>
</mask>
<g mask="url(#mask36_64_354)">
<path d="M12.0704 6.40731H8.72456V10.0299H12.0704V6.40731Z" fill="url(#paint36_radial_64_354)"/>
</g>
<mask id="mask37_64_354" style="mask-type:luminance" maskUnits="userSpaceOnUse" x="11" y="4" width="4" height="5">
<path d="M12.2732 4.47287L12.6407 5.13711C12.942 5.68142 13.2665 6.17499 13.4571 6.47635L13.4479 6.48097C13.2219 6.26878 12.8667 5.97202 12.653 5.79059L11.5444 4.87572L11.0308 5.18785L12.6883 8.18001L13.1834 7.8771L12.8052 7.19595C12.4731 6.59782 12.1994 6.15346 12.021 5.86285L12.0287 5.8567C12.244 6.08888 12.5869 6.38717 12.8221 6.58399L13.9153 7.47118L14.4535 7.20825L12.7898 4.21301L12.2732 4.47594V4.47287Z" fill="white"/>
</mask>
<g mask="url(#mask37_64_354)">
<path d="M14.4535 4.20993H11.0293V8.18001H14.4535V4.20993Z" fill="url(#paint37_radial_64_354)"/>
</g>
<mask id="mask38_64_354" style="mask-type:luminance" maskUnits="userSpaceOnUse" x="14" y="3" width="4" height="4">
<path d="M15.5021 3.14131C14.8179 3.36118 14.3059 4.06386 14.6672 5.24013C14.8348 5.79827 15.1377 6.2288 15.4991 6.40716C15.7835 6.55323 16.0941 6.56861 16.4631 6.45021C16.6969 6.37487 16.9752 6.22265 17.0951 6.12117L16.5431 4.39906L15.6774 4.67737L15.8419 5.18938L16.1295 5.09713L16.3801 5.87669C16.3586 5.8936 16.3171 5.91206 16.2602 5.93051C15.968 6.0243 15.5775 5.8444 15.3284 5.06945C15.0593 4.22685 15.3053 3.82707 15.7297 3.69023C15.8881 3.63949 16.0172 3.63026 16.1218 3.6441L16.0587 3.0675C16.0295 3.06443 15.9972 3.06135 15.9588 3.06135C15.8435 3.06135 15.6867 3.08288 15.5006 3.13977" fill="white"/>
</mask>
<g mask="url(#mask38_64_354)">
<path d="M17.0966 3.06289H14.3059V6.57015H17.0966V3.06289Z" fill="url(#paint38_radial_64_354)"/>
</g>
<mask id="mask39_64_354" style="mask-type:luminance" maskUnits="userSpaceOnUse" x="19" y="2" width="3" height="4">
<path d="M20.4394 4.62048C20.4578 5.1325 20.3256 5.27242 20.1365 5.28011C19.9658 5.28626 19.8089 5.14019 19.792 4.64354L19.7182 2.43555L19.0601 2.4863L19.1309 4.5559C19.1601 5.40465 19.4522 5.88285 20.1611 5.85671C20.813 5.83364 21.1236 5.35084 21.0944 4.48363L21.0236 2.42018L20.3625 2.41557L20.4409 4.62048H20.4394Z" fill="white"/>
</mask>
<g mask="url(#mask39_64_354)">
<path d="M21.1219 2.41557H19.0584V5.88131H21.1219V2.41557Z" fill="url(#paint39_radial_64_354)"/>
</g>
<mask id="mask40_64_354" style="mask-type:luminance" maskUnits="userSpaceOnUse" x="22" y="2" width="3" height="5">
<path d="M22.1 5.89514L22.6766 5.9628L23.0256 3.66409L23.0348 3.66563L23.4976 6.10579L24.0819 6.22726L24.6555 2.85532L24.085 2.73692L23.7621 5.04332L23.7529 5.04178L23.2624 2.60008L22.6766 2.52473L22.1 5.89514Z" fill="white"/>
</mask>
<g mask="url(#mask40_64_354)">
<path d="M24.6555 2.52473H22.1V6.22726H24.6555V2.52473Z" fill="url(#paint40_radial_64_354)"/>
</g>
<mask id="mask41_64_354" style="mask-type:luminance" maskUnits="userSpaceOnUse" x="25" y="3" width="2" height="4">
<path d="M26.1327 3.25831L25.031 6.49073L25.6539 6.70303L26.7556 3.47061L26.1327 3.25831Z" fill="white"/>
</mask>
<g mask="url(#mask41_64_354)">
<path d="M26.7544 3.25984H25.0323V6.70406H26.7544V3.25984Z" fill="url(#paint41_radial_64_354)"/>
</g>
<mask id="mask42_64_354" style="mask-type:luminance" maskUnits="userSpaceOnUse" x="27" y="3" width="3" height="5">
<path d="M27.0018 7.26821L27.6522 7.60033L29.891 4.94491L29.2682 4.58511L27.6968 6.77311L27.6891 6.76849L28.5317 4.20686L27.8706 3.90703L27.0018 7.26821Z" fill="white"/>
</mask>
<g mask="url(#mask42_64_354)">
<path d="M29.891 3.90703H27.0018V7.60033H29.891V3.90703Z" fill="url(#paint42_radial_64_354)"/>
</g>
<mask id="mask43_64_354" style="mask-type:luminance" maskUnits="userSpaceOnUse" x="28" y="5" width="5" height="5">
<path d="M28.9069 8.36299L30.1293 9.28555L30.4814 8.81197L29.7833 8.28611L30.3338 7.55575L30.9534 8.02164L31.281 7.58496L30.6644 7.11907L31.1333 6.49789L31.7822 6.98684L32.1389 6.51941L30.9642 5.63375L28.9069 8.36299Z" fill="white"/>
</mask>
<g mask="url(#mask43_64_354)">
<path d="M32.1389 5.63375H28.9069V9.28555H32.1389V5.63375Z" fill="url(#paint43_radial_64_354)"/>
</g>
<mask id="mask44_64_354" style="mask-type:luminance" maskUnits="userSpaceOnUse" x="30" y="7" width="5" height="5">
<path d="M32.7678 9.2594L32.6879 9.17484L33.4274 8.48599C33.4613 8.50137 33.5105 8.54596 33.5474 8.58747C33.7426 8.81196 33.6704 9.03645 33.4613 9.23173C33.3444 9.3409 33.2076 9.40086 33.0769 9.40086C32.9646 9.40086 32.857 9.35627 32.7678 9.2594ZM30.8566 9.97746L31.3271 10.4403L32.3158 9.52079L32.3803 9.59152C32.5295 9.75451 32.5141 9.91288 32.2466 10.245C32.0082 10.5356 31.8083 10.8231 31.7668 10.9169L32.2189 11.4674C32.2696 11.3382 32.5295 10.9415 32.7617 10.6386C32.9815 10.3434 33.063 10.1128 32.9708 9.88059L32.98 9.87444C33.3321 10.0174 33.6904 9.92518 33.9564 9.67763C34.1701 9.47928 34.2946 9.28093 34.29 9.00416C34.2869 8.70587 34.1194 8.42449 33.8733 8.16002C33.7027 7.97705 33.5151 7.79715 33.3644 7.65108L30.8581 9.97746H30.8566Z" fill="white"/>
</mask>
<g mask="url(#mask44_64_354)">
<path d="M34.2946 7.64939H30.8566V11.4642H34.2946V7.64939Z" fill="url(#paint44_radial_64_354)"/>
</g>
<mask id="mask45_64_354" style="mask-type:luminance" maskUnits="userSpaceOnUse" x="32" y="10" width="5" height="4">
<path d="M34.616 10.634C34.3592 10.8001 34.1532 11.1414 34.167 11.6827C34.167 12.0225 34.147 12.2147 33.9395 12.3484C33.7534 12.4699 33.5366 12.4284 33.3675 12.167C33.2629 12.0055 33.186 11.7811 33.1768 11.6273L32.6463 11.8533C32.6509 11.9809 32.7371 12.2439 32.8831 12.4714C33.2414 13.0296 33.8318 13.1926 34.3515 12.8589C34.6514 12.6667 34.8482 12.3423 34.8343 11.8195C34.822 11.392 34.8559 11.2491 35.025 11.1414C35.1772 11.043 35.3956 11.0645 35.5462 11.3013C35.6508 11.4628 35.6831 11.615 35.6846 11.7272L36.2182 11.5089C36.2151 11.392 36.1505 11.1814 36.0321 10.9953C35.7938 10.6263 35.4817 10.4618 35.1695 10.4618C34.9789 10.4618 34.7882 10.5233 34.616 10.634Z" fill="white"/>
</mask>
<g mask="url(#mask45_64_354)">
<path d="M36.2166 10.4618H32.6463V13.1941H36.2166V10.4618Z" fill="url(#paint45_radial_64_354)"/>
</g>
<mask id="mask46_64_354" style="mask-type:luminance" maskUnits="userSpaceOnUse" x="33" y="12" width="5" height="3">
<path d="M33.8672 14.109L34.144 14.7071L37.2268 13.2695L36.9516 12.6729L33.8672 14.109Z" fill="white"/>
</mask>
<g mask="url(#mask46_64_354)">
<path d="M37.2268 12.6729H33.8672V14.7071H37.2268V12.6729Z" fill="url(#paint46_radial_64_354)"/>
</g>
<mask id="mask47_64_354" style="mask-type:luminance" maskUnits="userSpaceOnUse" x="34" y="14" width="5" height="3">
<path d="M37.1192 14.621L37.3099 15.1884L34.6252 16.0141L34.8174 16.6429L37.5036 15.8173L37.6604 16.4L38.2417 16.2201L37.7004 14.4442L37.1192 14.621Z" fill="white"/>
</mask>
<g mask="url(#mask47_64_354)">
<path d="M38.2417 14.4442H34.6252V16.6429H38.2417V14.4442Z" fill="url(#paint47_radial_64_354)"/>
</g>
<mask id="mask48_64_354" style="mask-type:luminance" maskUnits="userSpaceOnUse" x="35" y="17" width="4" height="3">
<path d="M36.4534 18.1298L35.168 18.2897L35.2526 18.9447L36.5595 18.7802L38.7014 19.2799L38.6476 18.608L37.0592 18.4358L37.0577 18.4266L38.5522 17.8346L38.4369 17.1365L36.4534 18.1298Z" fill="white"/>
</mask>
<g mask="url(#mask48_64_354)">
<path d="M38.7014 17.1365H35.168V19.2799H38.7014V17.1365Z" fill="url(#paint48_radial_64_354)"/>
</g>
<mask id="mask49_64_354" style="mask-type:luminance" maskUnits="userSpaceOnUse" x="17" y="26" width="3" height="4">
<path d="M18.5666 27.6429C18.4958 27.6275 18.4328 27.6014 18.3774 27.5676C18.3221 27.5307 18.2775 27.4845 18.2452 27.4261C18.2129 27.3661 18.1975 27.2923 18.1975 27.2047C18.1975 27.117 18.2145 27.0432 18.2452 26.9833C18.2775 26.9233 18.3221 26.8756 18.3774 26.8418C18.4328 26.8065 18.4958 26.7788 18.5666 26.7649C18.6388 26.7496 18.7096 26.7403 18.7834 26.7403C18.8572 26.7403 18.9279 26.7496 19.0002 26.7649C19.0709 26.7788 19.1339 26.8065 19.1893 26.8418C19.2447 26.8772 19.2877 26.9233 19.3215 26.9833C19.3523 27.0432 19.3677 27.1155 19.3677 27.2047C19.3677 27.2939 19.3523 27.3661 19.3215 27.4261C19.2892 27.4845 19.2462 27.5322 19.1893 27.5676C19.1339 27.6029 19.0709 27.6275 19.0002 27.6429C18.9279 27.6583 18.8572 27.666 18.7834 27.666C18.7096 27.666 18.6388 27.6583 18.5666 27.6429ZM18.4174 26.3559C18.2806 26.3928 18.1591 26.4513 18.0484 26.5312C17.9377 26.6127 17.847 26.7127 17.7793 26.8357C17.7086 26.9571 17.6748 27.1078 17.6748 27.2785C17.6748 27.423 17.7055 27.546 17.7639 27.6475C17.8224 27.749 17.8993 27.8336 17.993 27.8981C18.0868 27.9643 18.1929 28.0104 18.3098 28.0411C18.4266 28.0704 18.5404 28.0857 18.6511 28.0857C18.7926 28.0857 18.9264 28.0596 19.0571 28.0089C19.1862 27.9581 19.3138 27.8966 19.4445 27.8243C19.4138 28.361 19.1585 28.63 18.6804 28.63C18.6327 28.63 18.5758 28.6254 18.5143 28.6162C18.4528 28.6101 18.3913 28.5931 18.3329 28.5716C18.2729 28.5516 18.2175 28.5255 18.1653 28.4932C18.113 28.4609 18.0715 28.4225 18.0407 28.3794C18.0284 28.3625 18.0207 28.341 18.0176 28.3179C18.0115 28.2933 18.01 28.2733 18.01 28.2564L17.9546 28.2257L17.6794 28.7869L17.7163 28.8222C17.7393 28.8023 17.7701 28.79 17.8024 28.79C17.827 28.79 17.8593 28.8038 17.9008 28.8284C17.9392 28.8545 17.9915 28.8822 18.0561 28.913C18.1191 28.9468 18.2006 28.9729 18.2975 28.996C18.3928 29.0175 18.5112 29.0283 18.6481 29.0283C18.8464 29.0283 19.0279 28.9945 19.1878 28.9283C19.3492 28.8607 19.4876 28.7654 19.6044 28.6362C19.7198 28.5101 19.8089 28.3548 19.872 28.178C19.935 28.0012 19.9673 27.7997 19.9673 27.5783C19.9673 27.3892 19.9381 27.2185 19.8828 27.0602C19.8289 26.9049 19.7505 26.768 19.649 26.6542C19.5476 26.5405 19.4276 26.4513 19.2877 26.3898C19.1478 26.3267 18.9925 26.296 18.8249 26.296C18.6911 26.296 18.5558 26.3129 18.4174 26.3513" fill="white"/>
</mask>
<g mask="url(#mask49_64_354)">
<path d="M19.9673 26.3007H17.6748V29.033H19.9673V26.3007Z" fill="url(#paint49_radial_64_354)"/>
</g>
<mask id="mask50_64_354" style="mask-type:luminance" maskUnits="userSpaceOnUse" x="22" y="26" width="3" height="4">
<path d="M23.553 27.6429C23.4807 27.6275 23.4192 27.6014 23.3623 27.5676C23.31 27.5307 23.2639 27.4845 23.2316 27.4261C23.2009 27.3661 23.184 27.2923 23.184 27.2047C23.184 27.117 23.2009 27.0432 23.2316 26.9833C23.2639 26.9233 23.31 26.8756 23.3623 26.8418C23.4177 26.8065 23.4807 26.7788 23.553 26.7649C23.6237 26.7496 23.6944 26.7403 23.7698 26.7403C23.8451 26.7403 23.9143 26.7496 23.9851 26.7649C24.0558 26.7788 24.1188 26.8065 24.1742 26.8418C24.2295 26.8772 24.2726 26.9233 24.3064 26.9833C24.3372 27.0432 24.3541 27.1155 24.3541 27.2047C24.3541 27.2939 24.3372 27.3661 24.3064 27.4261C24.2726 27.4845 24.2295 27.5322 24.1742 27.5676C24.1188 27.6029 24.0542 27.6275 23.9851 27.6429C23.9128 27.6583 23.8436 27.666 23.7698 27.666C23.696 27.666 23.6237 27.6583 23.553 27.6429ZM23.4038 26.3559C23.267 26.3928 23.144 26.4513 23.0333 26.5312C22.9226 26.6127 22.8319 26.7127 22.7642 26.8357C22.6935 26.9571 22.6596 27.1078 22.6596 27.2785C22.6596 27.423 22.6904 27.546 22.7488 27.6475C22.8088 27.749 22.8841 27.8336 22.9795 27.8981C23.0717 27.9643 23.1794 28.0104 23.2947 28.0411C23.4131 28.0704 23.5253 28.0857 23.636 28.0857C23.7759 28.0857 23.9112 28.0596 24.0419 28.0089C24.1696 27.9581 24.3003 27.8966 24.4279 27.8243C24.3971 28.361 24.1434 28.63 23.6652 28.63C23.616 28.63 23.5607 28.6254 23.4992 28.6162C23.4377 28.6101 23.3777 28.5931 23.3177 28.5716C23.2578 28.5516 23.2024 28.5255 23.1501 28.4932C23.0979 28.4609 23.0579 28.4225 23.0256 28.3794C23.0133 28.3625 23.0056 28.341 23.001 28.3179C22.9964 28.2933 22.9933 28.2733 22.9933 28.2564L22.9379 28.2257L22.6627 28.7869L22.6996 28.8222C22.7242 28.8023 22.7534 28.79 22.7873 28.79C22.8119 28.79 22.8442 28.8038 22.8841 28.8284C22.9226 28.8545 22.9749 28.8822 23.0394 28.913C23.104 28.9468 23.1855 28.9729 23.2824 28.996C23.3792 29.0175 23.4961 29.0283 23.6329 29.0283C23.8313 29.0283 24.0127 28.9945 24.1742 28.9283C24.3341 28.8607 24.4725 28.7654 24.5893 28.6362C24.7062 28.5101 24.7954 28.3548 24.8569 28.178C24.9215 28.0012 24.9522 27.7997 24.9522 27.5783C24.9522 27.3892 24.9245 27.2185 24.8692 27.0602C24.8138 26.9049 24.7354 26.768 24.6355 26.6542C24.534 26.5405 24.414 26.4513 24.2726 26.3898C24.1327 26.3267 23.9774 26.296 23.8098 26.296C23.676 26.296 23.5391 26.3129 23.4038 26.3513" fill="white"/>
</mask>
<g mask="url(#mask50_64_354)">
<path d="M24.9522 26.3007H22.6596V29.033H24.9522V26.3007Z" fill="url(#paint50_radial_64_354)"/>
</g>
<mask id="mask51_64_354" style="mask-type:luminance" maskUnits="userSpaceOnUse" x="20" y="26" width="3" height="4">
<path d="M20.8637 26.359C20.7377 26.3975 20.6377 26.4405 20.5578 26.4897C20.4778 26.5374 20.4178 26.5804 20.3763 26.6219C20.3348 26.6604 20.3071 26.6804 20.2902 26.6804C20.2641 26.6804 20.2364 26.6711 20.2118 26.6542L20.158 26.7004L20.527 27.2231L20.567 27.1909C20.5608 27.1755 20.5578 27.157 20.5531 27.137C20.5516 27.1201 20.5485 27.1032 20.5485 27.0894C20.5485 27.0494 20.5716 27.0079 20.6177 26.9664C20.6623 26.9264 20.7223 26.8864 20.7915 26.8541C20.8622 26.8203 20.9422 26.7926 21.0267 26.7726C21.1128 26.7511 21.1974 26.7403 21.2789 26.7403C21.3496 26.7403 21.4203 26.7465 21.488 26.7542C21.5572 26.7619 21.6187 26.7788 21.6756 26.8034C21.7325 26.8264 21.7786 26.8587 21.8124 26.9018C21.8478 26.9448 21.8647 26.9987 21.8647 27.0663C21.8647 27.134 21.8447 27.197 21.8047 27.2431C21.7648 27.2908 21.7171 27.3292 21.6617 27.3554C21.6049 27.3815 21.5464 27.4015 21.4818 27.4107C21.4157 27.4215 21.3588 27.4261 21.3112 27.4261C21.2374 27.4261 21.1697 27.4169 21.1097 27.3923C21.0498 27.3707 21.0175 27.3262 21.0113 27.2585H20.956V27.952H21.0113C21.0298 27.8905 21.0652 27.852 21.119 27.8382C21.1728 27.8213 21.2374 27.8151 21.3112 27.8151C21.3619 27.8151 21.425 27.8197 21.4972 27.8274C21.568 27.8351 21.6356 27.8536 21.7002 27.8797C21.7632 27.9089 21.817 27.9458 21.8616 27.9966C21.9047 28.0458 21.9262 28.1119 21.9262 28.1949C21.9262 28.2779 21.9016 28.3487 21.857 28.4025C21.8109 28.4548 21.7555 28.4947 21.691 28.527C21.6264 28.5578 21.5557 28.5793 21.4803 28.5916C21.405 28.6054 21.3389 28.61 21.2835 28.61C21.2143 28.61 21.1282 28.5977 21.0236 28.5778C20.9237 28.5532 20.8238 28.5209 20.73 28.4794C20.6362 28.4378 20.5562 28.3871 20.4886 28.3241C20.4209 28.2641 20.3871 28.1918 20.3871 28.1134V28.078C20.3871 28.0596 20.3886 28.0488 20.3917 28.0427L20.341 28.0119L20.0734 28.7469L20.1165 28.7607C20.1288 28.7546 20.1395 28.7484 20.1488 28.7423C20.1611 28.7346 20.1734 28.7315 20.1887 28.7315C20.2118 28.7315 20.2564 28.7484 20.3164 28.7792C20.3763 28.8115 20.4517 28.8484 20.5439 28.8868C20.6362 28.9253 20.7392 28.9606 20.8607 28.9883C20.9806 29.0175 21.1098 29.0314 21.2481 29.0314C21.3696 29.0314 21.5003 29.0206 21.6387 28.9975C21.7771 28.976 21.9062 28.9329 22.0215 28.8653C22.1353 28.8007 22.2337 28.71 22.3121 28.5978C22.389 28.4855 22.429 28.3425 22.429 28.1688C22.429 28.015 22.3875 27.8889 22.3029 27.7874C22.2199 27.686 22.1123 27.6183 21.9816 27.5845V27.5737C22.0923 27.546 22.1799 27.4815 22.2445 27.3769C22.3091 27.2739 22.3398 27.1616 22.3398 27.0371C22.3398 26.9049 22.3091 26.7926 22.246 26.6973C22.1845 26.6035 22.103 26.5281 22.0031 26.4682C21.9047 26.4067 21.7955 26.3636 21.6756 26.3359C21.5541 26.3098 21.4357 26.2975 21.3158 26.2975C21.1374 26.2975 20.9883 26.316 20.8637 26.3559" fill="white"/>
</mask>
<g mask="url(#mask51_64_354)">
<path d="M22.429 26.3006H20.0749V29.0329H22.429V26.3006Z" fill="url(#paint51_radial_64_354)"/>
</g>
<mask id="mask52_64_354" style="mask-type:luminance" maskUnits="userSpaceOnUse" x="16" y="26" width="2" height="4">
<path d="M16.6323 26.3006V26.359C16.6661 26.3667 16.6938 26.3775 16.7138 26.3913C16.7338 26.4036 16.743 26.4344 16.743 26.4805C16.743 26.5328 16.7261 26.5758 16.6892 26.6112C16.6538 26.6465 16.6092 26.665 16.5585 26.665C16.5323 26.665 16.5077 26.6588 16.4801 26.6465C16.4508 26.6358 16.437 26.6143 16.437 26.5835H16.3832V27.2262H16.437C16.4462 27.1985 16.4631 27.177 16.4847 27.1632C16.5093 27.1478 16.5323 27.137 16.56 27.1263C16.5892 27.1186 16.6169 27.1124 16.6461 27.1109C16.6753 27.1063 16.6984 27.1047 16.7215 27.1047V28.8115C16.7215 28.8699 16.7092 28.9083 16.6861 28.9268C16.663 28.9452 16.6369 28.9545 16.6061 28.9545V29.016H17.3657V28.9545C17.335 28.9545 17.3073 28.9452 17.2827 28.9268C17.2596 28.9083 17.2458 28.8699 17.2458 28.8115V26.4697C17.2458 26.4344 17.2581 26.4098 17.2827 26.3928C17.3073 26.3775 17.338 26.3636 17.3734 26.3559V26.2975H16.6323V26.3006Z" fill="white"/>
</mask>
<g mask="url(#mask52_64_354)">
<path d="M17.3719 26.3006H16.3816V29.0191H17.3719V26.3006Z" fill="url(#paint52_radial_64_354)"/>
</g>
<defs>
<radialGradient id="paint0_radial_64_354" cx="0" cy="0" r="1" gradientUnits="userSpaceOnUse" gradientTransform="translate(11.7963 9.86595) scale(33.732 33.732)">
<stop stop-color="white"/>
<stop offset="0.26" stop-color="white"/>
<stop offset="0.36" stop-color="#F1F1F1"/>
<stop offset="0.9" stop-color="#AAABAB"/>
<stop offset="1" stop-color="#AAABAB"/>
</radialGradient>
<radialGradient id="paint1_radial_64_354" cx="0" cy="0" r="1" gradientUnits="userSpaceOnUse" gradientTransform="translate(11.5317 11.3152) scale(34.1679 34.1667)">
<stop stop-color="#96B3DD"/>
<stop offset="0.1" stop-color="#5C8CC1"/>
<stop offset="0.2" stop-color="#2465A7"/>
<stop offset="0.25" stop-color="#0F579D"/>
<stop offset="0.57" stop-color="#004989"/>
<stop offset="0.75" stop-color="#002561"/>
<stop offset="0.91" stop-color="#000A44"/>
<stop offset="1" stop-color="#000039"/>
</radialGradient>
<linearGradient id="paint2_linear_64_354" x1="7.01213" y1="6.32636" x2="34.9867" y2="34.3009" gradientUnits="userSpaceOnUse">
<stop stop-color="#C9CACA"/>
<stop offset="0.27" stop-color="#A2A2A2"/>
<stop offset="0.59" stop-color="#7A7979"/>
<stop offset="0.85" stop-color="#626060"/>
<stop offset="1" stop-color="#595757"/>
</linearGradient>
<radialGradient id="paint3_radial_64_354" cx="0" cy="0" r="1" gradientUnits="userSpaceOnUse" gradientTransform="translate(11.7858 9.53433) scale(36.4899)">
<stop stop-color="#96B3DD"/>
<stop offset="0.1" stop-color="#5C8CC1"/>
<stop offset="0.2" stop-color="#2465A7"/>
<stop offset="0.25" stop-color="#0F579D"/>
<stop offset="0.57" stop-color="#004989"/>
<stop offset="0.75" stop-color="#002561"/>
<stop offset="0.91" stop-color="#000A44"/>
<stop offset="1" stop-color="#000039"/>
</radialGradient>
<linearGradient id="paint4_linear_64_354" x1="30.5806" y1="29.9075" x2="11.526" y2="10.8529" gradientUnits="userSpaceOnUse">
<stop stop-color="white"/>
<stop offset="0.16" stop-color="#DCDCDC"/>
<stop offset="0.45" stop-color="#A4A3A3"/>
<stop offset="0.69" stop-color="#7B7979"/>
<stop offset="0.88" stop-color="#626060"/>
<stop offset="1" stop-color="#595757"/>
</linearGradient>
<radialGradient id="paint5_radial_64_354" cx="0" cy="0" r="1" gradientUnits="userSpaceOnUse" gradientTransform="translate(11.962 10.2069) scale(33.7309)">
<stop stop-color="white"/>
<stop offset="0.26" stop-color="white"/>
<stop offset="0.36" stop-color="#F1F1F1"/>
<stop offset="0.9" stop-color="#AAABAB"/>
<stop offset="1" stop-color="#AAABAB"/>
</radialGradient>
<radialGradient id="paint6_radial_64_354" cx="0" cy="0" r="1" gradientUnits="userSpaceOnUse" gradientTransform="translate(12.94 11.3298) scale(25.0168 25.0168)">
<stop stop-color="#96B3DD"/>
<stop offset="0.1" stop-color="#5C8CC1"/>
<stop offset="0.2" stop-color="#2465A7"/>
<stop offset="0.25" stop-color="#0F579D"/>
<stop offset="0.57" stop-color="#004989"/>
<stop offset="0.75" stop-color="#002561"/>
<stop offset="0.91" stop-color="#000A44"/>
<stop offset="1" stop-color="#000039"/>
</radialGradient>
<radialGradient id="paint7_radial_64_354" cx="0" cy="0" r="1" gradientUnits="userSpaceOnUse" gradientTransform="translate(11.1942 10.8431) scale(33.8197 33.8197)">
<stop stop-color="#96B3DD"/>
<stop offset="0.1" stop-color="#5C8CC1"/>
<stop offset="0.2" stop-color="#2465A7"/>
<stop offset="0.25" stop-color="#0F579D"/>
<stop offset="0.57" stop-color="#004989"/>
<stop offset="0.75" stop-color="#002561"/>
<stop offset="0.91" stop-color="#000A44"/>
<stop offset="1" stop-color="#000039"/>
</radialGradient>
<radialGradient id="paint8_radial_64_354" cx="0" cy="0" r="1" gradientUnits="userSpaceOnUse" gradientTransform="translate(12.0236 10.0589) scale(33.7309 33.7309)">
<stop stop-color="white"/>
<stop offset="0.1" stop-color="white"/>
<stop offset="0.25" stop-color="#F4F5F5"/>
<stop offset="0.51" stop-color="#D9DBDC"/>
<stop offset="0.84" stop-color="#ACB0B3"/>
<stop offset="1" stop-color="#949A9D"/>
</radialGradient>
<radialGradient id="paint9_radial_64_354" cx="0" cy="0" r="1" gradientUnits="userSpaceOnUse" gradientTransform="translate(12.0873 11.6793) rotate(83.02) scale(34.1617 34.1617)">
<stop stop-color="white"/>
<stop offset="0.26" stop-color="white"/>
<stop offset="0.36" stop-color="#F1F1F1"/>
<stop offset="0.9" stop-color="#AAABAB"/>
<stop offset="1" stop-color="#AAABAB"/>
</radialGradient>
<radialGradient id="paint10_radial_64_354" cx="0" cy="0" r="1" gradientUnits="userSpaceOnUse" gradientTransform="translate(11.4378 10.0697) rotate(83.02) scale(33.7239 33.7238)">
<stop stop-color="white"/>
<stop offset="0.26" stop-color="white"/>
<stop offset="0.36" stop-color="#F1F1F1"/>
<stop offset="0.9" stop-color="#AAABAB"/>
<stop offset="1" stop-color="#AAABAB"/>
</radialGradient>
<radialGradient id="paint11_radial_64_354" cx="0" cy="0" r="1" gradientUnits="userSpaceOnUse" gradientTransform="translate(11.4746 8.08548) rotate(83.02) scale(33.7285 33.7285)">
<stop stop-color="white"/>
<stop offset="0.26" stop-color="white"/>
<stop offset="0.36" stop-color="#F1F1F1"/>
<stop offset="0.9" stop-color="#AAABAB"/>
<stop offset="1" stop-color="#AAABAB"/>
</radialGradient>
<radialGradient id="paint12_radial_64_354" cx="0" cy="0" r="1" gradientUnits="userSpaceOnUse" gradientTransform="translate(12.3351 9.5331) rotate(83.02) scale(33.7297 33.7309)">
<stop stop-color="white"/>
<stop offset="0.26" stop-color="white"/>
<stop offset="0.36" stop-color="#F1F1F1"/>
<stop offset="0.9" stop-color="#AAABAB"/>
<stop offset="1" stop-color="#AAABAB"/>
</radialGradient>
<radialGradient id="paint13_radial_64_354" cx="0" cy="0" r="1" gradientUnits="userSpaceOnUse" gradientTransform="translate(12.0106 8.76604) rotate(83.02) scale(33.7332 33.7343)">
<stop stop-color="white"/>
<stop offset="0.26" stop-color="white"/>
<stop offset="0.36" stop-color="#F1F1F1"/>
<stop offset="0.9" stop-color="#AAABAB"/>
<stop offset="1" stop-color="#AAABAB"/>
</radialGradient>
<radialGradient id="paint14_radial_64_354" cx="0" cy="0" r="1" gradientUnits="userSpaceOnUse" gradientTransform="translate(13.0092 12.2982) rotate(83.03) scale(33.7449 33.746)">
<stop stop-color="white"/>
<stop offset="0.26" stop-color="white"/>
<stop offset="0.36" stop-color="#F1F1F1"/>
<stop offset="0.9" stop-color="#AAABAB"/>
<stop offset="1" stop-color="#AAABAB"/>
</radialGradient>
<radialGradient id="paint15_radial_64_354" cx="0" cy="0" r="1" gradientUnits="userSpaceOnUse" gradientTransform="translate(11.8879 8.21231) rotate(83.02) scale(33.7379 33.7391)">
<stop stop-color="white"/>
<stop offset="0.26" stop-color="white"/>
<stop offset="0.36" stop-color="#F1F1F1"/>
<stop offset="0.9" stop-color="#AAABAB"/>
<stop offset="1" stop-color="#AAABAB"/>
</radialGradient>
<radialGradient id="paint16_radial_64_354" cx="0" cy="0" r="1" gradientUnits="userSpaceOnUse" gradientTransform="translate(12.2742 10.4855) rotate(83.02) scale(33.2871 33.287)">
<stop stop-color="white"/>
<stop offset="0.26" stop-color="white"/>
<stop offset="0.36" stop-color="#F1F1F1"/>
<stop offset="0.9" stop-color="#AAABAB"/>
<stop offset="1" stop-color="#AAABAB"/>
</radialGradient>
<radialGradient id="paint17_radial_64_354" cx="0" cy="0" r="1" gradientUnits="userSpaceOnUse" gradientTransform="translate(11.8356 8.70449) rotate(83.02) scale(33.725 33.7251)">
<stop stop-color="white"/>
<stop offset="0.26" stop-color="white"/>
<stop offset="0.36" stop-color="#F1F1F1"/>
<stop offset="0.9" stop-color="#AAABAB"/>
<stop offset="1" stop-color="#AAABAB"/>
</radialGradient>
<radialGradient id="paint18_radial_64_354" cx="0" cy="0" r="1" gradientUnits="userSpaceOnUse" gradientTransform="translate(12.8134 12.3427) rotate(83.03) scale(33.7262 33.7274)">
<stop stop-color="white"/>
<stop offset="0.26" stop-color="white"/>
<stop offset="0.36" stop-color="#F1F1F1"/>
<stop offset="0.9" stop-color="#AAABAB"/>
<stop offset="1" stop-color="#AAABAB"/>
</radialGradient>
<radialGradient id="paint19_radial_64_354" cx="0" cy="0" r="1" gradientUnits="userSpaceOnUse" gradientTransform="translate(12.1066 11.9893) rotate(83.03) scale(33.7332 33.7332)">
<stop stop-color="white"/>
<stop offset="0.26" stop-color="white"/>
<stop offset="0.36" stop-color="#F1F1F1"/>
<stop offset="0.9" stop-color="#AAABAB"/>
<stop offset="1" stop-color="#AAABAB"/>
</radialGradient>
<radialGradient id="paint20_radial_64_354" cx="0" cy="0" r="1" gradientUnits="userSpaceOnUse" gradientTransform="translate(12.2933 10.6268) rotate(96.98) scale(33.7414 33.7412)">
<stop stop-color="white"/>
<stop offset="0.26" stop-color="white"/>
<stop offset="0.36" stop-color="#F1F1F1"/>
<stop offset="0.9" stop-color="#AAABAB"/>
<stop offset="1" stop-color="#AAABAB"/>
</radialGradient>
<radialGradient id="paint21_radial_64_354" cx="0" cy="0" r="1" gradientUnits="userSpaceOnUse" gradientTransform="translate(12.1569 11.5419) rotate(96.98) scale(33.732 33.732)">
<stop stop-color="white"/>
<stop offset="0.26" stop-color="white"/>
<stop offset="0.36" stop-color="#F1F1F1"/>
<stop offset="0.9" stop-color="#AAABAB"/>
<stop offset="1" stop-color="#AAABAB"/>
</radialGradient>
<radialGradient id="paint22_radial_64_354" cx="0" cy="0" r="1" gradientUnits="userSpaceOnUse" gradientTransform="translate(12.0757 8.13298) rotate(96.98) scale(33.7297 33.7297)">
<stop stop-color="white"/>
<stop offset="0.26" stop-color="white"/>
<stop offset="0.36" stop-color="#F1F1F1"/>
<stop offset="0.9" stop-color="#AAABAB"/>
<stop offset="1" stop-color="#AAABAB"/>
</radialGradient>
<radialGradient id="paint23_radial_64_354" cx="0" cy="0" r="1" gradientUnits="userSpaceOnUse" gradientTransform="translate(11.9093 12.155) rotate(96.97) scale(33.732 33.732)">
<stop stop-color="white"/>
<stop offset="0.26" stop-color="white"/>
<stop offset="0.36" stop-color="#F1F1F1"/>
<stop offset="0.9" stop-color="#AAABAB"/>
<stop offset="1" stop-color="#AAABAB"/>
</radialGradient>
<radialGradient id="paint24_radial_64_354" cx="0" cy="0" r="1" gradientUnits="userSpaceOnUse" gradientTransform="translate(12.5927 7.6863) rotate(96.98) scale(33.7391 33.739)">
<stop stop-color="white"/>
<stop offset="0.26" stop-color="white"/>
<stop offset="0.36" stop-color="#F1F1F1"/>
<stop offset="0.9" stop-color="#AAABAB"/>
<stop offset="1" stop-color="#AAABAB"/>
</radialGradient>
<radialGradient id="paint25_radial_64_354" cx="0" cy="0" r="1" gradientUnits="userSpaceOnUse" gradientTransform="translate(11.2882 12.4809) rotate(96.97) scale(33.7484 33.7484)">
<stop stop-color="white"/>
<stop offset="0.26" stop-color="white"/>
<stop offset="0.36" stop-color="#F1F1F1"/>
<stop offset="0.9" stop-color="#AAABAB"/>
<stop offset="1" stop-color="#AAABAB"/>
</radialGradient>
<radialGradient id="paint26_radial_64_354" cx="0" cy="0" r="1" gradientUnits="userSpaceOnUse" gradientTransform="translate(11.7321 9.29785) rotate(96.98) scale(33.7425 33.7425)">
<stop stop-color="white"/>
<stop offset="0.26" stop-color="white"/>
<stop offset="0.36" stop-color="#F1F1F1"/>
<stop offset="0.9" stop-color="#AAABAB"/>
<stop offset="1" stop-color="#AAABAB"/>
</radialGradient>
<radialGradient id="paint27_radial_64_354" cx="0" cy="0" r="1" gradientUnits="userSpaceOnUse" gradientTransform="translate(11.6334 10.4035) rotate(96.98) scale(33.2859 33.2859)">
<stop stop-color="white"/>
<stop offset="0.26" stop-color="white"/>
<stop offset="0.36" stop-color="#F1F1F1"/>
<stop offset="0.9" stop-color="#AAABAB"/>
<stop offset="1" stop-color="#AAABAB"/>
</radialGradient>
<radialGradient id="paint28_radial_64_354" cx="0" cy="0" r="1" gradientUnits="userSpaceOnUse" gradientTransform="translate(12.4505 9.88027) rotate(96.98) scale(33.279 33.279)">
<stop stop-color="white"/>
<stop offset="0.26" stop-color="white"/>
<stop offset="0.36" stop-color="#F1F1F1"/>
<stop offset="0.9" stop-color="#AAABAB"/>
<stop offset="1" stop-color="#AAABAB"/>
</radialGradient>
<radialGradient id="paint29_radial_64_354" cx="0" cy="0" r="1" gradientUnits="userSpaceOnUse" gradientTransform="translate(12.3828 9.24568) rotate(96.98) scale(33.7274)">
<stop stop-color="white"/>
<stop offset="0.26" stop-color="white"/>
<stop offset="0.36" stop-color="#F1F1F1"/>
<stop offset="0.9" stop-color="#AAABAB"/>
<stop offset="1" stop-color="#AAABAB"/>
</radialGradient>
<radialGradient id="paint30_radial_64_354" cx="0" cy="0" r="1" gradientUnits="userSpaceOnUse" gradientTransform="translate(11.8485 9.42357) rotate(96.98) scale(33.732 33.732)">
<stop stop-color="white"/>
<stop offset="0.26" stop-color="white"/>
<stop offset="0.36" stop-color="#F1F1F1"/>
<stop offset="0.9" stop-color="#AAABAB"/>
<stop offset="1" stop-color="#AAABAB"/>
</radialGradient>
<radialGradient id="paint31_radial_64_354" cx="0" cy="0" r="1" gradientUnits="userSpaceOnUse" gradientTransform="translate(11.9701 10.9364) scale(33.2835 33.2825)">
<stop stop-color="white"/>
<stop offset="0.26" stop-color="white"/>
<stop offset="0.36" stop-color="#F1F1F1"/>
<stop offset="0.9" stop-color="#AAABAB"/>
<stop offset="1" stop-color="#AAABAB"/>
</radialGradient>
<radialGradient id="paint32_radial_64_354" cx="0" cy="0" r="1" gradientUnits="userSpaceOnUse" gradientTransform="translate(11.9639 9.79983) scale(33.732 33.7321)">
<stop stop-color="white"/>
<stop offset="0.26" stop-color="white"/>
<stop offset="0.36" stop-color="#F1F1F1"/>
<stop offset="0.9" stop-color="#AAABAB"/>
<stop offset="1" stop-color="#AAABAB"/>
</radialGradient>
<radialGradient id="paint33_radial_64_354" cx="0" cy="0" r="1" gradientUnits="userSpaceOnUse" gradientTransform="translate(11.9105 10.0507) scale(33.7285 33.7285)">
<stop stop-color="white"/>
<stop offset="0.26" stop-color="white"/>
<stop offset="0.36" stop-color="#F1F1F1"/>
<stop offset="0.9" stop-color="#AAABAB"/>
<stop offset="1" stop-color="#AAABAB"/>
</radialGradient>
<radialGradient id="paint34_radial_64_354" cx="0" cy="0" r="1" gradientUnits="userSpaceOnUse" gradientTransform="translate(11.9062 10.5768) scale(33.7344 33.7332)">
<stop stop-color="white"/>
<stop offset="0.26" stop-color="white"/>
<stop offset="0.36" stop-color="#F1F1F1"/>
<stop offset="0.9" stop-color="#AAABAB"/>
<stop offset="1" stop-color="#AAABAB"/>
</radialGradient>
<radialGradient id="paint35_radial_64_354" cx="0" cy="0" r="1" gradientUnits="userSpaceOnUse" gradientTransform="translate(11.9541 9.612) scale(33.7355 33.7355)">
<stop stop-color="white"/>
<stop offset="0.26" stop-color="white"/>
<stop offset="0.36" stop-color="#F1F1F1"/>
<stop offset="0.9" stop-color="#AAABAB"/>
<stop offset="1" stop-color="#AAABAB"/>
</radialGradient>
<radialGradient id="paint36_radial_64_354" cx="0" cy="0" r="1" gradientUnits="userSpaceOnUse" gradientTransform="translate(12.0168 10.1844) scale(33.7238 33.7238)">
<stop stop-color="white"/>
<stop offset="0.26" stop-color="white"/>
<stop offset="0.36" stop-color="#F1F1F1"/>
<stop offset="0.9" stop-color="#AAABAB"/>
<stop offset="1" stop-color="#AAABAB"/>
</radialGradient>
<radialGradient id="paint37_radial_64_354" cx="0" cy="0" r="1" gradientUnits="userSpaceOnUse" gradientTransform="translate(11.8612 10.0032) scale(33.7332 33.7332)">
<stop stop-color="white"/>
<stop offset="0.26" stop-color="white"/>
<stop offset="0.36" stop-color="#F1F1F1"/>
<stop offset="0.9" stop-color="#AAABAB"/>
<stop offset="1" stop-color="#AAABAB"/>
</radialGradient>
<radialGradient id="paint38_radial_64_354" cx="0" cy="0" r="1" gradientUnits="userSpaceOnUse" gradientTransform="translate(11.9747 10.4558) scale(33.7273 33.7262)">
<stop stop-color="white"/>
<stop offset="0.26" stop-color="white"/>
<stop offset="0.36" stop-color="#F1F1F1"/>
<stop offset="0.9" stop-color="#AAABAB"/>
<stop offset="1" stop-color="#AAABAB"/>
</radialGradient>
<radialGradient id="paint39_radial_64_354" cx="0" cy="0" r="1" gradientUnits="userSpaceOnUse" gradientTransform="translate(11.9648 10.4357) scale(33.7355 33.7344)">
<stop stop-color="white"/>
<stop offset="0.26" stop-color="white"/>
<stop offset="0.36" stop-color="#F1F1F1"/>
<stop offset="0.9" stop-color="#AAABAB"/>
<stop offset="1" stop-color="#AAABAB"/>
</radialGradient>
<radialGradient id="paint40_radial_64_354" cx="0" cy="0" r="1" gradientUnits="userSpaceOnUse" gradientTransform="translate(11.9982 10.9628) scale(33.7238 33.7227)">
<stop stop-color="white"/>
<stop offset="0.26" stop-color="white"/>
<stop offset="0.36" stop-color="#F1F1F1"/>
<stop offset="0.9" stop-color="#AAABAB"/>
<stop offset="1" stop-color="#AAABAB"/>
</radialGradient>
<radialGradient id="paint41_radial_64_354" cx="0" cy="0" r="1" gradientUnits="userSpaceOnUse" gradientTransform="translate(11.9986 10.2542) scale(33.7297 33.7297)">
<stop stop-color="white"/>
<stop offset="0.26" stop-color="white"/>
<stop offset="0.36" stop-color="#F1F1F1"/>
<stop offset="0.9" stop-color="#AAABAB"/>
<stop offset="1" stop-color="#AAABAB"/>
</radialGradient>
<radialGradient id="paint42_radial_64_354" cx="0" cy="0" r="1" gradientUnits="userSpaceOnUse" gradientTransform="translate(11.9315 9.99837) scale(33.7367 33.7367)">
<stop stop-color="white"/>
<stop offset="0.26" stop-color="white"/>
<stop offset="0.36" stop-color="#F1F1F1"/>
<stop offset="0.9" stop-color="#AAABAB"/>
<stop offset="1" stop-color="#AAABAB"/>
</radialGradient>
<radialGradient id="paint43_radial_64_354" cx="0" cy="0" r="1" gradientUnits="userSpaceOnUse" gradientTransform="translate(12.082 10.5028) scale(33.7262 33.7262)">
<stop stop-color="white"/>
<stop offset="0.26" stop-color="white"/>
<stop offset="0.36" stop-color="#F1F1F1"/>
<stop offset="0.9" stop-color="#AAABAB"/>
<stop offset="1" stop-color="#AAABAB"/>
</radialGradient>
<radialGradient id="paint44_radial_64_354" cx="0" cy="0" r="1" gradientUnits="userSpaceOnUse" gradientTransform="translate(11.8844 10.0121) scale(33.7285 33.7285)">
<stop stop-color="white"/>
<stop offset="0.26" stop-color="white"/>
<stop offset="0.36" stop-color="#F1F1F1"/>
<stop offset="0.9" stop-color="#AAABAB"/>
<stop offset="1" stop-color="#AAABAB"/>
</radialGradient>
<radialGradient id="paint45_radial_64_354" cx="0" cy="0" r="1" gradientUnits="userSpaceOnUse" gradientTransform="translate(11.9847 10.1895) scale(33.7297 33.7297)">
<stop stop-color="white"/>
<stop offset="0.26" stop-color="white"/>
<stop offset="0.36" stop-color="#F1F1F1"/>
<stop offset="0.9" stop-color="#AAABAB"/>
<stop offset="1" stop-color="#AAABAB"/>
</radialGradient>
<radialGradient id="paint46_radial_64_354" cx="0" cy="0" r="1" gradientUnits="userSpaceOnUse" gradientTransform="translate(12.047 10.0334) scale(33.7274 33.7273)">
<stop stop-color="white"/>
<stop offset="0.26" stop-color="white"/>
<stop offset="0.36" stop-color="#F1F1F1"/>
<stop offset="0.9" stop-color="#AAABAB"/>
<stop offset="1" stop-color="#AAABAB"/>
</radialGradient>
<radialGradient id="paint47_radial_64_354" cx="0" cy="0" r="1" gradientUnits="userSpaceOnUse" gradientTransform="translate(12.0065 10.3285) scale(33.7355 33.7355)">
<stop stop-color="white"/>
<stop offset="0.26" stop-color="white"/>
<stop offset="0.36" stop-color="#F1F1F1"/>
<stop offset="0.9" stop-color="#AAABAB"/>
<stop offset="1" stop-color="#AAABAB"/>
</radialGradient>
<radialGradient id="paint48_radial_64_354" cx="0" cy="0" r="1" gradientUnits="userSpaceOnUse" gradientTransform="translate(11.8709 9.84204) scale(33.7297)">
<stop stop-color="white"/>
<stop offset="0.26" stop-color="white"/>
<stop offset="0.36" stop-color="#F1F1F1"/>
<stop offset="0.9" stop-color="#AAABAB"/>
<stop offset="1" stop-color="#AAABAB"/>
</radialGradient>
<radialGradient id="paint49_radial_64_354" cx="0" cy="0" r="1" gradientUnits="userSpaceOnUse" gradientTransform="translate(12.0161 10.2116) scale(36.7095 36.7095)">
<stop stop-color="#96B3DD"/>
<stop offset="0.1" stop-color="#5C8CC1"/>
<stop offset="0.2" stop-color="#2465A7"/>
<stop offset="0.25" stop-color="#0F579D"/>
<stop offset="0.57" stop-color="#004989"/>
<stop offset="0.75" stop-color="#002561"/>
<stop offset="0.91" stop-color="#000A44"/>
<stop offset="1" stop-color="#000039"/>
</radialGradient>
<radialGradient id="paint50_radial_64_354" cx="0" cy="0" r="1" gradientUnits="userSpaceOnUse" gradientTransform="translate(12.0503 9.58473) scale(36.7107 36.7107)">
<stop stop-color="#96B3DD"/>
<stop offset="0.1" stop-color="#5C8CC1"/>
<stop offset="0.2" stop-color="#2465A7"/>
<stop offset="0.25" stop-color="#0F579D"/>
<stop offset="0.57" stop-color="#004989"/>
<stop offset="0.75" stop-color="#002561"/>
<stop offset="0.91" stop-color="#000A44"/>
<stop offset="1" stop-color="#000039"/>
</radialGradient>
<radialGradient id="paint51_radial_64_354" cx="0" cy="0" r="1" gradientUnits="userSpaceOnUse" gradientTransform="translate(12.0361 9.95933) scale(36.2265 36.2265)">
<stop stop-color="#96B3DD"/>
<stop offset="0.1" stop-color="#5C8CC1"/>
<stop offset="0.2" stop-color="#2465A7"/>
<stop offset="0.25" stop-color="#0F579D"/>
<stop offset="0.57" stop-color="#004989"/>
<stop offset="0.75" stop-color="#002561"/>
<stop offset="0.91" stop-color="#000A44"/>
<stop offset="1" stop-color="#000039"/>
</radialGradient>
<radialGradient id="paint52_radial_64_354" cx="0" cy="0" r="1" gradientUnits="userSpaceOnUse" gradientTransform="translate(11.9711 10.2618) scale(36.7084 36.7084)">
<stop stop-color="#96B3DD"/>
<stop offset="0.1" stop-color="#5C8CC1"/>
<stop offset="0.2" stop-color="#2465A7"/>
<stop offset="0.25" stop-color="#0F579D"/>
<stop offset="0.57" stop-color="#004989"/>
<stop offset="0.75" stop-color="#002561"/>
<stop offset="0.91" stop-color="#000A44"/>
<stop offset="1" stop-color="#000039"/>
</radialGradient>
</defs>
</svg>
