<svg width="372" height="372" viewBox="0 0 372 372" fill="none" xmlns="http://www.w3.org/2000/svg">
<mask id="mask0_473_196" style="mask-type:luminance" maskUnits="userSpaceOnUse" x="1" y="0" width="370" height="371">
<path d="M1.15625 185.647C1.15625 287.764 83.975 370.569 186.092 370.569C288.209 370.569 371 287.778 371 185.647C371 83.5164 288.195 0.725586 186.092 0.725586C83.9889 0.725586 1.15625 83.5164 1.15625 185.647Z" fill="white"/>
</mask>
<g mask="url(#mask0_473_196)">
<path d="M370.986 0.725586H1.15625V370.569H370.986V0.725586Z" fill="url(#paint0_radial_473_196)"/>
</g>
<mask id="mask1_473_196" style="mask-type:luminance" maskUnits="userSpaceOnUse" x="0" y="0" width="372" height="372">
<path d="M1.86749 185.646C1.86749 84.0718 84.5052 1.43415 186.093 1.43415C287.681 1.43415 370.291 84.0718 370.291 185.646C370.291 287.22 287.667 369.858 186.093 369.858C84.5191 369.858 1.86749 287.22 1.86749 185.646ZM0.447266 185.646C0.447266 288 83.7254 371.278 186.093 371.278C288.461 371.278 371.711 288 371.711 185.646C371.711 83.2921 288.447 0 186.093 0C83.7394 0 0.447266 83.2782 0.447266 185.646Z" fill="white"/>
</mask>
<g mask="url(#mask1_473_196)">
<path d="M371.711 0H0.447266V371.278H371.711V0Z" fill="url(#paint1_radial_473_196)"/>
</g>
<mask id="mask2_473_196" style="mask-type:luminance" maskUnits="userSpaceOnUse" x="8" y="8" width="356" height="356">
<path d="M8.46777 185.646C8.46777 283.739 88.0005 363.258 186.08 363.258C284.159 363.258 363.691 283.739 363.691 185.646C363.691 87.5532 284.159 8.03448 186.08 8.03448C88.0005 8.03448 8.46777 87.5532 8.46777 185.646Z" fill="white"/>
</mask>
<g mask="url(#mask2_473_196)">
<path d="M186.075 -169.576L-169.145 185.643L186.075 540.863L541.295 185.643L186.075 -169.576Z" fill="url(#paint2_linear_473_196)"/>
</g>
<mask id="mask3_473_196" style="mask-type:luminance" maskUnits="userSpaceOnUse" x="10" y="10" width="352" height="352">
<path d="M10.6523 185.646C10.6523 282.528 89.2103 361.072 186.078 361.072C282.946 361.072 361.504 282.541 361.504 185.646C361.504 88.7501 282.96 10.2061 186.078 10.2061C89.1964 10.2061 10.6523 88.7501 10.6523 185.646Z" fill="white"/>
</mask>
<g mask="url(#mask3_473_196)">
<path d="M361.49 10.2061H10.6523V361.072H361.49V10.2061Z" fill="url(#paint3_radial_473_196)"/>
</g>
<mask id="mask4_473_196" style="mask-type:luminance" maskUnits="userSpaceOnUse" x="63" y="63" width="246" height="246">
<path d="M63.6611 185.644C63.6611 253.258 118.465 308.076 186.093 308.076C253.721 308.076 308.497 253.258 308.497 185.644C308.497 118.03 253.693 63.2122 186.093 63.2122C118.493 63.2122 63.6611 118.03 63.6611 185.644Z" fill="white"/>
</mask>
<g mask="url(#mask4_473_196)">
<path d="M186.061 -59.189L-58.7793 185.652L186.061 430.492L430.902 185.652L186.061 -59.189Z" fill="url(#paint4_linear_473_196)"/>
</g>
<mask id="mask5_473_196" style="mask-type:luminance" maskUnits="userSpaceOnUse" x="66" y="66" width="240" height="239">
<path d="M66.668 185.532C66.668 251.475 120.149 304.956 186.092 304.956C252.035 304.956 305.489 251.475 305.489 185.532C305.489 119.589 252.035 66.1076 186.092 66.1076C120.149 66.1076 66.668 119.589 66.668 185.532Z" fill="white"/>
</mask>
<g mask="url(#mask5_473_196)">
<path d="M305.475 66.1076H66.668V304.956H305.475V66.1076Z" fill="url(#paint5_radial_473_196)"/>
</g>
<mask id="mask6_473_196" style="mask-type:luminance" maskUnits="userSpaceOnUse" x="103" y="131" width="165" height="76">
<path d="M238.961 131.457V137.347H167.393V131.457H150.336V137.347H105.418V152.496H118.938C109.567 156.59 103.524 165.529 103.524 178.589C103.524 196.105 120.01 206.075 133.28 206.075H182.834V200.756H196.869V206.075H267.728V190.926H256.059V152.482H267.728V137.333H256.059V131.443H239.003L238.961 131.457Z" fill="white"/>
</mask>
<g mask="url(#mask6_473_196)">
<path d="M267.684 131.455H103.495V206.087H267.684V131.455Z" fill="url(#paint6_radial_473_196)"/>
</g>
<mask id="mask7_473_196" style="mask-type:luminance" maskUnits="userSpaceOnUse" x="97" y="125" width="178" height="88">
<path d="M235.007 133.29V127.136C236.358 127.136 259.889 127.094 261.24 127.08V133.29H272.783C272.783 134.627 272.741 155.415 272.727 156.765H260.836V187.662H272.685C272.685 188.999 272.727 210.08 272.727 211.444C271.293 211.444 194.823 211.305 193.403 211.305V205.875H187.318V211.444H133.113C122.517 211.444 112.339 206.766 106.519 199.247C101.506 193.399 98.5543 185.852 98.5543 179.016C98.5543 169.937 100.866 163.045 105.823 157.336L106.881 156.125C106.881 156.125 101.966 156.139 100.88 156.139V133.29H146.396V127.136C147.747 127.136 170.861 127.177 172.211 127.191V133.29H235.007ZM233.532 125.66V131.814H173.673V125.715L144.921 125.66V131.814H99.4036V157.601C99.4036 157.601 102.328 157.601 103.817 157.601C99.2783 163.338 97.0645 170.16 97.0645 179.016C97.0645 186.186 100.169 194.095 105.363 200.166C111.42 208.019 122.072 212.906 133.099 212.906H188.767V207.337H191.927V212.767L274.203 212.906L274.147 186.2H262.312V158.241H274.203L274.259 131.842H262.716V125.632L233.545 125.688L233.532 125.66Z" fill="white"/>
</mask>
<g mask="url(#mask7_473_196)">
<path d="M274.245 125.62H97.0645V212.894H274.245V125.62Z" fill="url(#paint7_radial_473_196)"/>
</g>
<mask id="mask8_473_196" style="mask-type:luminance" maskUnits="userSpaceOnUse" x="133" y="147" width="107" height="49">
<path d="M138.585 177.823V187.082C138.585 191.733 141.606 194.559 146.521 194.559L170.303 194.587V190.577H146.117V177.809H138.585V177.823ZM139.782 164.4C139.782 160.418 142.525 157.396 145.922 157.396C149.32 157.396 152.063 160.418 152.063 164.4C152.063 168.382 149.32 171.418 145.922 171.418C142.525 171.418 139.782 168.466 139.782 164.4ZM133.168 152.816V156.826H137.972C135.076 158.608 133.266 161.337 133.266 164.414C133.266 169.775 138.71 174.119 145.908 174.119C153.107 174.119 158.551 169.775 158.551 164.414C158.551 161.337 156.755 158.608 153.859 156.826H158.677V152.816H133.154H133.168ZM203.915 159.179C203.915 154.514 206.923 151.381 210.612 151.381C214.302 151.381 217.324 154.514 217.324 159.179C217.324 163.843 214.316 167.004 210.612 167.004C206.909 167.004 203.915 163.955 203.915 159.179ZM196.828 159.179C196.828 165.403 202.773 170.429 210.612 170.429C218.451 170.429 224.411 165.403 224.411 159.179C224.411 152.955 218.479 147.928 210.612 147.928C202.745 147.928 196.828 152.969 196.828 159.179ZM139.155 151.145H152.731V147.149H139.155V151.145ZM162.909 147.163V179.786H169.843V162.785H175.497V158.789H169.843V147.163H162.909ZM210.306 184.812C210.306 180.287 214.107 177.572 218.312 177.572C222.517 177.572 226.318 180.287 226.318 184.812C226.318 189.338 222.531 192.053 218.312 192.053C214.093 192.053 210.306 189.296 210.306 184.812ZM226.332 147.163V175.47C224.021 174.37 221.278 173.729 218.326 173.729C210.041 173.729 203.428 178.714 203.386 184.826C203.428 190.939 210.041 195.924 218.326 195.924C226.611 195.924 233.211 190.939 233.266 184.826V166.781H239.142V162.785H233.266V157.034H239.142V153.024H233.266V147.163H226.318H226.332Z" fill="white"/>
</mask>
<g mask="url(#mask8_473_196)">
<path d="M239.144 147.162H133.17V195.91H239.144V147.162Z" fill="url(#paint8_radial_473_196)"/>
</g>
<mask id="mask9_473_196" style="mask-type:luminance" maskUnits="userSpaceOnUse" x="328" y="203" width="7" height="18">
<path d="M328.143 211.669C328.088 216.445 331.067 220.329 331.067 220.329C331.067 220.329 334.131 216.5 334.172 211.724C334.228 206.963 331.262 203.064 331.262 203.064C331.262 203.064 328.199 206.907 328.143 211.669Z" fill="white"/>
</mask>
<g mask="url(#mask9_473_196)">
<path d="M334.155 202.272L326.029 203.27L328.21 221.028L336.336 220.031L334.155 202.272Z" fill="url(#paint9_radial_473_196)"/>
</g>
<mask id="mask10_473_196" style="mask-type:luminance" maskUnits="userSpaceOnUse" x="327" y="215" width="22" height="23">
<path d="M334.924 222.933C329.174 229.449 327.99 237.804 327.99 237.804C327.99 237.804 336.136 235.604 341.886 229.101C347.637 222.585 348.486 215.052 348.486 215.052C348.486 215.052 340.675 216.444 334.91 222.947" fill="white"/>
</mask>
<g mask="url(#mask10_473_196)">
<path d="M348.202 212.568L325.245 215.374L328.288 240.266L351.245 237.459L348.202 212.568Z" fill="url(#paint10_radial_473_196)"/>
</g>
<mask id="mask11_473_196" style="mask-type:luminance" maskUnits="userSpaceOnUse" x="318" y="212" width="9" height="25">
<path d="M319.023 224.772C320.694 231.957 325.748 236.914 325.748 236.914C325.748 236.914 327.809 230.913 326.138 223.742C324.481 216.543 319.315 212.589 319.315 212.589C319.315 212.589 317.366 217.588 319.023 224.758" fill="white"/>
</mask>
<g mask="url(#mask11_473_196)">
<path d="M327.636 211.358L314.423 212.973L317.506 238.197L330.719 236.581L327.636 211.358Z" fill="url(#paint11_radial_473_196)"/>
</g>
<mask id="mask12_473_196" style="mask-type:luminance" maskUnits="userSpaceOnUse" x="317" y="240" width="25" height="20">
<path d="M326.723 246.074C319.928 251.491 317.311 259.511 317.311 259.511C317.311 259.511 325.721 258.745 332.501 253.329C339.31 247.912 341.468 240.658 341.468 240.658C341.468 240.658 333.532 240.658 326.723 246.061" fill="white"/>
</mask>
<g mask="url(#mask12_473_196)">
<path d="M341.119 237.761L343.751 259.245L317.672 262.434L315.04 240.949L341.119 237.761Z" fill="url(#paint12_radial_473_196)"/>
</g>
<mask id="mask13_473_196" style="mask-type:luminance" maskUnits="userSpaceOnUse" x="310" y="233" width="8" height="26">
<path d="M310.754 244.977C311.143 252.342 315.265 258.107 315.265 258.107C315.265 258.107 318.328 252.565 317.938 245.172C317.548 237.82 313.134 233.03 313.134 233.03C313.134 233.03 310.35 237.625 310.74 244.977" fill="white"/>
</mask>
<g mask="url(#mask13_473_196)">
<path d="M318.206 232.088L307.329 233.419L310.471 259.084L321.348 257.753L318.206 232.088Z" fill="url(#paint13_radial_473_196)"/>
</g>
<mask id="mask14_473_196" style="mask-type:luminance" maskUnits="userSpaceOnUse" x="270" y="303" width="29" height="10">
<path d="M284.242 303.666C276.25 305.504 270.736 311.254 270.736 311.254C270.736 311.254 278.213 314.039 286.178 312.215C294.184 310.377 298.974 305.086 298.974 305.086C298.974 305.086 294.852 303.109 289.241 303.109C287.682 303.109 285.997 303.262 284.242 303.652" fill="white"/>
</mask>
<g mask="url(#mask14_473_196)">
<path d="M298.504 299.75L269.369 303.311L271.103 317.492L300.237 313.93L298.504 299.75Z" fill="url(#paint14_radial_473_196)"/>
</g>
<mask id="mask15_473_196" style="mask-type:luminance" maskUnits="userSpaceOnUse" x="268" y="285" width="11" height="25">
<path d="M270.317 295.367C267.435 302.329 268.688 309.43 268.688 309.43C268.688 309.43 273.937 305.67 276.847 298.736C279.73 291.816 277.794 285.453 277.794 285.453C277.794 285.453 273.213 288.461 270.331 295.353" fill="white"/>
</mask>
<g mask="url(#mask15_473_196)">
<path d="M279.535 284.001L264.539 285.834L267.607 310.933L282.603 309.1L279.535 284.001Z" fill="url(#paint15_radial_473_196)"/>
</g>
<mask id="mask16_473_196" style="mask-type:luminance" maskUnits="userSpaceOnUse" x="249" y="317" width="29" height="9">
<path d="M249.599 321.68C249.599 321.68 255.934 325.871 263.731 325.898C271.556 325.912 277.14 322.028 277.14 322.028C277.14 322.028 271.57 317.572 263.759 317.572H263.634C255.878 317.572 249.599 321.693 249.599 321.693" fill="white"/>
</mask>
<g mask="url(#mask16_473_196)">
<path d="M276.769 314.229L248.614 317.661L250.023 329.216L278.177 325.784L276.769 314.229Z" fill="url(#paint16_radial_473_196)"/>
</g>
<mask id="mask17_473_196" style="mask-type:luminance" maskUnits="userSpaceOnUse" x="248" y="297" width="15" height="23">
<path d="M252.886 305.821C248.514 311.919 248.124 319.132 248.124 319.132C248.124 319.132 254.111 316.667 258.455 310.555C262.855 304.47 262.396 297.856 262.396 297.856C262.396 297.856 257.244 299.722 252.872 305.821" fill="white"/>
</mask>
<g mask="url(#mask17_473_196)">
<path d="M262.619 296.096L245.537 298.187L248.322 320.936L265.405 318.845L262.619 296.096Z" fill="url(#paint17_radial_473_196)"/>
</g>
<mask id="mask18_473_196" style="mask-type:luminance" maskUnits="userSpaceOnUse" x="214" y="311" width="36" height="35">
<path d="M229.438 332.847C226.987 331.663 225.971 328.684 227.168 326.247C228.38 323.797 231.332 322.794 233.796 323.991C236.247 325.203 237.249 328.155 236.052 330.605C235.188 332.346 233.448 333.348 231.624 333.348C230.886 333.348 230.134 333.181 229.438 332.833M231.318 318.018C230.343 319.967 229.911 321.972 229.995 323.657C229.02 322.293 227.489 320.942 225.525 319.981C221.432 317.962 215.612 317.545 214.428 319.954C213.217 322.39 217.101 326.734 221.195 328.739C223.172 329.7 225.149 330.132 226.848 330.062C225.47 331.023 224.133 332.568 223.172 334.532C221.153 338.639 220.708 344.445 223.144 345.615C225.553 346.84 229.911 342.942 231.916 338.862C232.877 336.885 233.323 334.894 233.239 333.209C234.214 334.587 235.759 335.924 237.736 336.885C241.816 338.904 247.622 339.322 248.82 336.913C250.003 334.504 246.146 330.146 242.039 328.113C240.076 327.138 238.085 326.734 236.4 326.818C237.792 325.843 239.101 324.298 240.076 322.335C242.081 318.241 242.526 312.421 240.104 311.223C239.797 311.07 239.463 311.014 239.115 311.014C236.636 311.014 233.1 314.426 231.332 318.018" fill="white"/>
</mask>
<g mask="url(#mask18_473_196)">
<path d="M249.429 306.621L208.864 311.58L213.72 351.302L254.285 346.342L249.429 306.621Z" fill="url(#paint18_radial_473_196)"/>
</g>
<mask id="mask19_473_196" style="mask-type:luminance" maskUnits="userSpaceOnUse" x="285" y="255" width="40" height="40">
<path d="M299.766 276.055C299.363 273.298 301.284 270.75 304.041 270.318C306.798 269.928 309.36 271.864 309.75 274.62C310.154 277.377 308.246 279.939 305.475 280.343C305.238 280.371 305.002 280.385 304.765 280.385C302.287 280.385 300.142 278.575 299.78 276.055M301.98 255.949C299.251 256.339 297.803 262.117 298.472 266.74C298.792 268.953 299.585 270.875 300.63 272.239C299.015 271.627 296.94 271.418 294.726 271.738C290.103 272.379 284.952 275.386 285.355 278.101C285.731 280.83 291.51 282.265 296.146 281.596C298.374 281.29 300.282 280.496 301.674 279.452C301.061 281.067 300.839 283.156 301.159 285.37C301.813 289.978 304.807 295.116 307.536 294.712C310.265 294.323 311.685 288.558 311.031 283.935C310.711 281.736 309.917 279.786 308.873 278.408C310.488 279.034 312.562 279.243 314.762 278.937C319.399 278.268 324.551 275.261 324.147 272.546C323.757 269.831 317.979 268.397 313.356 269.065C311.128 269.371 309.207 270.165 307.842 271.209C308.441 269.608 308.678 267.519 308.357 265.319C307.703 260.864 304.918 255.921 302.259 255.921C302.161 255.921 302.064 255.921 301.966 255.949" fill="white"/>
</mask>
<g mask="url(#mask19_473_196)">
<path d="M323.923 251.195L280.194 256.548L285.506 299.931L329.234 294.577L323.923 251.195Z" fill="url(#paint19_radial_473_196)"/>
</g>
<mask id="mask20_473_196" style="mask-type:luminance" maskUnits="userSpaceOnUse" x="39" y="203" width="7" height="18">
<path d="M39.0847 211.724C39.1543 216.5 42.1897 220.329 42.1897 220.329C42.1897 220.329 45.1694 216.445 45.1137 211.669C45.058 206.907 41.9948 203.064 41.9948 203.064C41.9948 203.064 39.029 206.976 39.0707 211.724" fill="white"/>
</mask>
<g mask="url(#mask20_473_196)">
<path d="M39.139 202.347L36.9678 220.107L45.0944 221.101L47.2656 203.341L39.139 202.347Z" fill="url(#paint20_radial_473_196)"/>
</g>
<mask id="mask21_473_196" style="mask-type:luminance" maskUnits="userSpaceOnUse" x="24" y="215" width="22" height="23">
<path d="M31.386 229.101C37.1365 235.604 45.282 237.804 45.282 237.804C45.282 237.804 44.0845 229.463 38.334 222.933C32.5834 216.431 24.7861 215.038 24.7861 215.038C24.7861 215.038 25.6216 222.585 31.3999 229.087" fill="white"/>
</mask>
<g mask="url(#mask21_473_196)">
<path d="M25.087 212.603L22.0439 237.495L44.9866 240.3L48.0297 215.408L25.087 212.603Z" fill="url(#paint21_radial_473_196)"/>
</g>
<mask id="mask22_473_196" style="mask-type:luminance" maskUnits="userSpaceOnUse" x="46" y="212" width="9" height="25">
<path d="M47.1339 223.754C45.4631 230.924 47.5238 236.926 47.5238 236.926C47.5238 236.926 52.592 231.969 54.2629 224.784C55.9198 217.613 53.9705 212.615 53.9705 212.615C53.9705 212.615 48.8048 216.569 47.1478 223.768" fill="white"/>
</mask>
<g mask="url(#mask22_473_196)">
<path d="M45.6027 211.322L42.5146 236.545L55.741 238.164L58.829 212.941L45.6027 211.322Z" fill="url(#paint22_radial_473_196)"/>
</g>
<mask id="mask23_473_196" style="mask-type:luminance" maskUnits="userSpaceOnUse" x="31" y="240" width="25" height="20">
<path d="M31.7883 240.67C31.7883 240.67 33.9326 247.924 40.7274 253.341C47.5361 258.757 55.9322 259.523 55.9322 259.523C55.9322 259.523 53.3145 251.503 46.5197 246.086C39.7249 240.684 31.7883 240.684 31.7744 240.684" fill="white"/>
</mask>
<g mask="url(#mask23_473_196)">
<path d="M32.14 237.729L29.5068 259.206L55.5719 262.402L58.2051 240.925L32.14 237.729Z" fill="url(#paint23_radial_473_196)"/>
</g>
<mask id="mask24_473_196" style="mask-type:luminance" maskUnits="userSpaceOnUse" x="55" y="233" width="8" height="26">
<path d="M55.321 245.172C54.9451 252.551 58.0083 258.107 58.0083 258.107C58.0083 258.107 62.1298 252.342 62.5196 244.977C62.8956 237.625 60.1387 233.03 60.1387 233.03C60.1387 233.03 55.7248 237.82 55.321 245.172Z" fill="white"/>
</mask>
<g mask="url(#mask24_473_196)">
<path d="M55.0448 232.052L51.9043 257.703L62.7673 259.033L65.9077 233.382L55.0448 232.052Z" fill="url(#paint24_radial_473_196)"/>
</g>
<mask id="mask25_473_196" style="mask-type:luminance" maskUnits="userSpaceOnUse" x="74" y="303" width="29" height="10">
<path d="M74.3147 305.086C74.3147 305.086 79.0906 310.377 87.0967 312.215C95.0751 314.039 102.538 311.254 102.538 311.254C102.538 311.254 97.0244 305.503 89.0322 303.665C87.2917 303.262 85.6069 303.122 84.0335 303.122C78.4222 303.122 74.3008 305.1 74.3008 305.1" fill="white"/>
</mask>
<g mask="url(#mask25_473_196)">
<path d="M74.7172 299.683L72.9854 313.85L102.12 317.412L103.852 303.245L74.7172 299.683Z" fill="url(#paint25_radial_473_196)"/>
</g>
<mask id="mask26_473_196" style="mask-type:luminance" maskUnits="userSpaceOnUse" x="94" y="285" width="11" height="25">
<path d="M96.4235 298.75C99.3197 305.684 104.569 309.443 104.569 309.443C104.569 309.443 105.822 302.328 102.94 295.38C100.058 288.474 95.4767 285.481 95.4767 285.481C95.4767 285.481 93.5413 291.844 96.4235 298.764" fill="white"/>
</mask>
<g mask="url(#mask26_473_196)">
<path d="M93.7368 283.988L90.6641 309.086L105.646 310.921L108.718 285.822L93.7368 283.988Z" fill="url(#paint26_radial_473_196)"/>
</g>
<mask id="mask27_473_196" style="mask-type:luminance" maskUnits="userSpaceOnUse" x="96" y="317" width="28" height="9">
<path d="M109.5 317.56C101.689 317.56 96.1191 322.016 96.1191 322.016C96.1191 322.016 101.703 325.915 109.528 325.887C117.325 325.873 123.674 321.668 123.674 321.668C123.674 321.668 117.395 317.546 109.625 317.546H109.5" fill="white"/>
</mask>
<g mask="url(#mask27_473_196)">
<path d="M96.5367 314.251L95.1201 325.805L123.272 329.257L124.689 317.703L96.5367 314.251Z" fill="url(#paint27_radial_473_196)"/>
</g>
<mask id="mask28_473_196" style="mask-type:luminance" maskUnits="userSpaceOnUse" x="110" y="297" width="16" height="23">
<path d="M114.802 310.555C119.174 316.667 125.147 319.132 125.147 319.132C125.147 319.132 124.757 311.919 120.385 305.821C115.999 299.722 110.861 297.856 110.861 297.856C110.861 297.856 110.416 304.47 114.802 310.555Z" fill="white"/>
</mask>
<g mask="url(#mask28_473_196)">
<path d="M110.643 296.092L107.857 318.841L124.94 320.933L127.725 298.184L110.643 296.092Z" fill="url(#paint28_radial_473_196)"/>
</g>
<mask id="mask29_473_196" style="mask-type:luminance" maskUnits="userSpaceOnUse" x="124" y="311" width="36" height="35">
<path d="M137.208 330.619C136.01 328.169 137.013 325.203 139.463 324.005C141.942 322.794 144.88 323.796 146.091 326.261C147.288 328.698 146.286 331.663 143.849 332.861C143.139 333.209 142.387 333.376 141.649 333.376C139.839 333.376 138.085 332.374 137.208 330.633M133.17 311.223C130.747 312.421 131.165 318.241 133.184 322.335C134.158 324.298 135.481 325.843 136.86 326.818C135.161 326.748 133.17 327.152 131.22 328.113C127.113 330.132 123.256 334.49 124.44 336.913C125.637 339.322 131.443 338.904 135.537 336.885C137.514 335.924 139.06 334.587 140.02 333.209C139.937 334.894 140.368 336.885 141.343 338.862C143.362 342.942 147.706 346.84 150.143 345.615C152.552 344.445 152.12 338.639 150.101 334.532C149.14 332.582 147.818 331.023 146.425 330.062C148.124 330.132 150.115 329.7 152.078 328.739C156.172 326.734 160.057 322.376 158.859 319.954C157.676 317.545 151.856 317.962 147.762 319.981C145.785 320.942 144.239 322.293 143.278 323.657C143.362 321.972 142.944 319.981 141.97 318.018C140.187 314.426 136.651 311.014 134.172 311.014C133.824 311.014 133.49 311.084 133.184 311.223" fill="white"/>
</mask>
<g mask="url(#mask29_473_196)">
<path d="M123.807 306.579L118.944 346.3L159.508 351.266L164.371 311.546L123.807 306.579Z" fill="url(#paint29_radial_473_196)"/>
</g>
<mask id="mask30_473_196" style="mask-type:luminance" maskUnits="userSpaceOnUse" x="49" y="255" width="39" height="40">
<path d="M67.7976 280.343C65.0268 279.939 63.1332 277.377 63.537 274.62C63.9129 271.864 66.4749 269.928 69.2457 270.318C71.9887 270.736 73.9102 273.284 73.5064 276.055C73.1444 278.575 70.9862 280.385 68.5217 280.385C68.285 280.385 68.0483 280.385 67.7976 280.343ZM64.9015 265.319C64.5812 267.519 64.804 269.608 65.4167 271.209C64.0521 270.165 62.1307 269.371 59.9028 269.065C55.2941 268.41 49.5157 269.831 49.1258 272.546C48.722 275.275 53.8739 278.282 58.4966 278.937C60.6965 279.243 62.7711 279.034 64.3863 278.408C63.342 279.786 62.5623 281.722 62.2142 283.935C61.5598 288.558 62.9939 294.323 65.7369 294.712C68.4521 295.102 71.4596 289.964 72.114 285.37C72.4203 283.156 72.2115 281.067 71.5988 279.452C72.9633 280.496 74.9127 281.304 77.1126 281.596C81.7353 282.279 87.5137 280.844 87.9036 278.101C88.2795 275.386 83.1417 272.379 78.5329 271.738C76.319 271.404 74.2444 271.627 72.6153 272.239C73.6735 270.861 74.4532 268.94 74.7734 266.74C75.4418 262.103 74.0076 256.339 71.2786 255.949C71.1811 255.935 71.0837 255.921 70.9862 255.921C68.3407 255.921 65.542 260.864 64.8876 265.319" fill="white"/>
</mask>
<g mask="url(#mask30_473_196)">
<path d="M49.3069 251.159L44.002 294.532L87.7087 299.892L93.0276 256.506L49.3069 251.159Z" fill="url(#paint30_radial_473_196)"/>
</g>
<mask id="mask31_473_196" style="mask-type:luminance" maskUnits="userSpaceOnUse" x="179" y="330" width="14" height="13">
<path d="M179.883 336.511C179.883 339.95 182.668 342.721 186.093 342.721C189.518 342.721 192.289 339.95 192.289 336.511C192.289 333.072 189.518 330.315 186.093 330.315C182.668 330.315 179.883 333.086 179.883 336.511Z" fill="white"/>
</mask>
<g mask="url(#mask31_473_196)">
<path d="M192.289 330.315H179.883V342.707H192.289V330.315Z" fill="url(#paint31_radial_473_196)"/>
</g>
<mask id="mask32_473_196" style="mask-type:luminance" maskUnits="userSpaceOnUse" x="22" y="154" width="34" height="23">
<path d="M24.1462 160.764L36.6359 162.379L35.8283 168.548L23.4361 166.932L22.8652 172.85L53.5811 176.874L54.0406 170.97L41.3282 169.286L42.1358 163.117L54.8621 164.788L55.9482 158.871L25.2462 154.861L24.1462 160.764Z" fill="white"/>
</mask>
<g mask="url(#mask32_473_196)">
<path d="M55.9482 154.861H22.8652V176.874H55.9482V154.861Z" fill="url(#paint32_radial_473_196)"/>
</g>
<mask id="mask33_473_196" style="mask-type:luminance" maskUnits="userSpaceOnUse" x="29" y="129" width="35" height="24">
<path d="M42.997 138.167C41.4097 137.304 38.5414 135.842 36.7034 134.881L36.7452 134.756C38.7781 135.159 41.7996 135.744 43.6514 136.05L50.0424 137.15L48.6361 141.286L42.9691 138.167H42.997ZM29.9922 135.981L57.436 152.522L59.079 146.869L52.8829 143.333L54.6512 138.111L61.7106 139.114L63.7852 133.683L32.2618 129.423L30.02 135.995L29.9922 135.981Z" fill="white"/>
</mask>
<g mask="url(#mask33_473_196)">
<path d="M63.7713 129.423H29.9922V152.536H63.7713V129.423Z" fill="url(#paint33_radial_473_196)"/>
</g>
<mask id="mask34_473_196" style="mask-type:luminance" maskUnits="userSpaceOnUse" x="39" y="96" width="37" height="32">
<path d="M46.09 100.639L64.8175 110.637L64.7618 110.72L42.2748 107.17L39.7686 111.959L66.725 127.387L69.0921 122.681L50.7823 112.642L51.0468 112.753L72.8236 116.178L75.7894 111.556L48.8886 96.1837L46.09 100.639Z" fill="white"/>
</mask>
<g mask="url(#mask34_473_196)">
<path d="M75.8033 96.1837H39.7686V127.401H75.8033V96.1837Z" fill="url(#paint34_radial_473_196)"/>
</g>
<mask id="mask35_473_196" style="mask-type:luminance" maskUnits="userSpaceOnUse" x="55" y="72" width="33" height="30">
<path d="M63.9122 76.5826L68.3261 82.723C69.6349 84.547 71.0134 86.3849 72.4754 88.1115L72.4336 88.1672C70.4007 87.0393 68.2982 86.0229 66.4324 85.1736L59.3174 81.9571L55.377 86.8862L74.1602 94.0012L83.1688 101.673L87.0536 97.1341L77.8499 89.3228L68.0894 72.0991L63.9262 76.5965L63.9122 76.5826Z" fill="white"/>
</mask>
<g mask="url(#mask35_473_196)">
<path d="M87.037 72.0992H55.3604V101.673H87.037V72.0992Z" fill="url(#paint35_radial_473_196)"/>
</g>
<mask id="mask36_473_196" style="mask-type:luminance" maskUnits="userSpaceOnUse" x="77" y="58" width="32" height="33">
<path d="M87.9457 70.9014C87.0407 69.3419 85.342 66.6128 84.2559 64.8584L84.3673 64.761C85.8989 66.1534 88.1824 68.2141 89.6166 69.4394L94.5178 73.7L91.1761 76.5127L87.9318 70.9153L87.9457 70.9014ZM78.0042 62.6167L93.0418 90.8263L97.3164 86.8023L93.7241 80.4252L97.9291 76.8608L103.596 81.5113L108.288 77.9329L83.4484 58.0079L77.9902 62.6028L78.0042 62.6167Z" fill="white"/>
</mask>
<g mask="url(#mask36_473_196)">
<path d="M108.304 58.0218H78.0059V90.8262H108.304V58.0218Z" fill="url(#paint36_radial_473_196)"/>
</g>
<mask id="mask37_473_196" style="mask-type:luminance" maskUnits="userSpaceOnUse" x="98" y="38" width="32" height="37">
<path d="M110.139 40.5031L113.467 46.5182C116.196 51.4472 119.134 55.9167 120.86 58.6458L120.777 58.6876C118.73 56.7661 115.514 54.0788 113.578 52.4358L103.539 44.1511L98.8887 46.9776L113.899 74.0733L118.382 71.3304L114.957 65.1621C111.949 59.7458 109.471 55.7218 107.856 53.0902L107.925 53.0345C109.875 55.137 112.98 57.8382 115.11 59.6204L125.01 67.6545L129.883 65.2735L114.817 38.15L110.139 40.5309V40.5031Z" fill="white"/>
</mask>
<g mask="url(#mask37_473_196)">
<path d="M129.884 38.1243H98.876V74.0755H129.884V38.1243Z" fill="url(#paint37_radial_473_196)"/>
</g>
<mask id="mask38_473_196" style="mask-type:luminance" maskUnits="userSpaceOnUse" x="130" y="27" width="24" height="33">
<path d="M139.379 28.4484C133.183 30.4395 128.546 36.8027 131.818 47.4544C133.336 52.5087 136.079 56.4074 139.351 58.0225C141.927 59.3453 144.74 59.4845 148.081 58.4124C150.198 57.7301 152.718 56.3517 153.804 55.4327L148.805 39.8381L140.966 42.3583L142.456 46.9949L145.06 46.1595L147.329 53.2188C147.134 53.372 146.758 53.5391 146.243 53.7062C143.598 54.5555 140.061 52.9264 137.805 45.9088C135.369 38.2786 137.597 34.6584 141.44 33.4192C142.874 32.9597 144.043 32.8762 144.99 33.0015L144.419 27.7801C144.155 27.7522 143.862 27.7244 143.514 27.7244C142.47 27.7244 141.05 27.9193 139.365 28.4345" fill="white"/>
</mask>
<g mask="url(#mask38_473_196)">
<path d="M153.816 27.7361H128.544V59.4963H153.816V27.7361Z" fill="url(#paint38_radial_473_196)"/>
</g>
<mask id="mask39_473_196" style="mask-type:luminance" maskUnits="userSpaceOnUse" x="171" y="21" width="20" height="33">
<path d="M184.088 41.8402C184.255 46.4768 183.058 47.7439 181.345 47.8135C179.8 47.8692 178.38 46.5464 178.226 42.049L177.558 22.0545L171.599 22.514L172.239 41.2554C172.504 48.9413 175.149 53.2716 181.568 53.0349C187.472 52.8261 190.284 48.454 190.02 40.601L189.379 21.9152L183.392 21.8735L184.102 41.8402H184.088Z" fill="white"/>
</mask>
<g mask="url(#mask39_473_196)">
<path d="M190.269 21.8734H171.583V53.2576H190.269V21.8734Z" fill="url(#paint39_radial_473_196)"/>
</g>
<mask id="mask40_473_196" style="mask-type:luminance" maskUnits="userSpaceOnUse" x="199" y="22" width="24" height="35">
<path d="M199.126 53.3859L204.347 53.9985L207.508 33.1824L207.592 33.1964L211.783 55.2934L217.074 56.3934L222.267 25.8585L217.102 24.7864L214.178 45.6721L214.094 45.6582L209.652 23.5472L204.347 22.8649L199.126 53.3859Z" fill="white"/>
</mask>
<g mask="url(#mask40_473_196)">
<path d="M222.267 22.8649H199.126V56.3934H222.267V22.8649Z" fill="url(#paint40_radial_473_196)"/>
</g>
<mask id="mask41_473_196" style="mask-type:luminance" maskUnits="userSpaceOnUse" x="225" y="29" width="17" height="32">
<path d="M235.644 29.5052L225.668 58.7766L231.309 60.6991L241.285 31.4277L235.644 29.5052Z" fill="white"/>
</mask>
<g mask="url(#mask41_473_196)">
<path d="M241.273 29.5188H225.679V60.7081H241.273V29.5188Z" fill="url(#paint41_radial_473_196)"/>
</g>
<mask id="mask42_473_196" style="mask-type:luminance" maskUnits="userSpaceOnUse" x="243" y="35" width="27" height="34">
<path d="M243.515 65.8189L249.404 68.8264L269.677 44.78L264.038 41.5219L249.808 61.3354L249.739 61.2936L257.369 38.0966L251.382 35.3815L243.515 65.8189Z" fill="white"/>
</mask>
<g mask="url(#mask42_473_196)">
<path d="M269.677 35.3815H243.515V68.8264H269.677V35.3815Z" fill="url(#paint42_radial_473_196)"/>
</g>
<mask id="mask43_473_196" style="mask-type:luminance" maskUnits="userSpaceOnUse" x="260" y="51" width="31" height="34">
<path d="M260.766 75.7311L271.835 84.0854L275.024 79.7969L268.702 75.035L273.687 68.4212L279.298 72.6401L282.264 68.6857L276.681 64.4668L280.927 58.8416L286.803 63.2694L290.033 59.0365L279.396 51.0164L260.766 75.7311Z" fill="white"/>
</mask>
<g mask="url(#mask43_473_196)">
<path d="M290.033 51.0164H260.766V84.0854H290.033V51.0164Z" fill="url(#paint43_radial_473_196)"/>
</g>
<mask id="mask44_473_196" style="mask-type:luminance" maskUnits="userSpaceOnUse" x="278" y="69" width="32" height="35">
<path d="M295.729 83.8469L295.005 83.0811L301.702 76.8432C302.009 76.9824 302.454 77.3862 302.789 77.7622C304.557 79.795 303.902 81.8279 302.009 83.5962C300.951 84.5848 299.711 85.1278 298.528 85.1278C297.511 85.1278 296.537 84.7241 295.729 83.8469ZM278.422 90.3493L282.683 94.5403L291.636 86.2139L292.22 86.8544C293.571 88.3303 293.432 89.7645 291.009 92.772C288.851 95.4036 287.041 98.0074 286.665 98.8567L290.758 103.841C291.218 102.672 293.571 99.0795 295.673 96.3365C297.665 93.6631 298.403 91.5746 297.567 89.4721L297.651 89.4164C300.839 90.7113 304.083 89.8759 306.492 87.6341C308.428 85.838 309.555 84.0418 309.514 81.5355C309.486 78.8343 307.968 76.2863 305.74 73.8914C304.195 72.2344 302.496 70.6054 301.132 69.2826L278.436 90.3493H278.422Z" fill="white"/>
</mask>
<g mask="url(#mask44_473_196)">
<path d="M309.555 69.2687H278.422V103.814H309.555V69.2687Z" fill="url(#paint44_radial_473_196)"/>
</g>
<mask id="mask45_473_196" style="mask-type:luminance" maskUnits="userSpaceOnUse" x="294" y="94" width="33" height="25">
<path d="M312.465 96.2971C310.14 97.8009 308.274 100.892 308.4 105.793C308.4 108.87 308.219 110.611 306.339 111.822C304.654 112.922 302.691 112.546 301.159 110.179C300.212 108.717 299.516 106.684 299.433 105.292L294.629 107.339C294.671 108.494 295.45 110.875 296.773 112.936C300.017 117.99 305.364 119.466 310.07 116.445C312.786 114.704 314.568 111.766 314.442 107.032C314.331 103.162 314.637 101.867 316.169 100.892C317.547 100.001 319.525 100.196 320.889 102.34C321.836 103.802 322.128 105.181 322.142 106.197L326.974 104.22C326.946 103.162 326.361 101.254 325.289 99.5692C323.131 96.2275 320.304 94.7377 317.478 94.7377C315.751 94.7377 314.025 95.2946 312.465 96.2971Z" fill="white"/>
</mask>
<g mask="url(#mask45_473_196)">
<path d="M326.96 94.7377H294.629V119.48H326.96V94.7377Z" fill="url(#paint45_radial_473_196)"/>
</g>
<mask id="mask46_473_196" style="mask-type:luminance" maskUnits="userSpaceOnUse" x="305" y="114" width="32" height="20">
<path d="M305.686 127.765L308.192 133.181L336.109 120.163L333.617 114.76L305.686 127.765Z" fill="white"/>
</mask>
<g mask="url(#mask46_473_196)">
<path d="M336.109 114.76H305.686V133.181H336.109V114.76Z" fill="url(#paint46_radial_473_196)"/>
</g>
<mask id="mask47_473_196" style="mask-type:luminance" maskUnits="userSpaceOnUse" x="312" y="130" width="34" height="21">
<path d="M335.134 132.403L336.861 137.541L312.55 145.018L314.29 150.713L338.615 143.236L340.035 148.513L345.299 146.884L340.397 130.802L335.134 132.403Z" fill="white"/>
</mask>
<g mask="url(#mask47_473_196)">
<path d="M345.299 130.802H312.55V150.713H345.299V130.802Z" fill="url(#paint47_radial_473_196)"/>
</g>
<mask id="mask48_473_196" style="mask-type:luminance" maskUnits="userSpaceOnUse" x="317" y="155" width="33" height="20">
<path d="M329.105 164.178L317.465 165.626L318.231 171.557L330.066 170.068L349.462 174.593L348.974 168.508L334.591 166.949L334.577 166.865L348.111 161.504L347.067 155.183L329.105 164.178Z" fill="white"/>
</mask>
<g mask="url(#mask48_473_196)">
<path d="M349.462 155.183H317.465V174.593H349.462V155.183Z" fill="url(#paint48_radial_473_196)"/>
</g>
<mask id="mask49_473_196" style="mask-type:luminance" maskUnits="userSpaceOnUse" x="159" y="238" width="21" height="25">
<path d="M167.129 250.322C166.488 250.183 165.917 249.946 165.416 249.64C164.915 249.305 164.511 248.888 164.218 248.359C163.926 247.816 163.787 247.147 163.787 246.354C163.787 245.56 163.94 244.892 164.218 244.349C164.511 243.805 164.915 243.374 165.416 243.068C165.917 242.747 166.488 242.497 167.129 242.371C167.783 242.232 168.423 242.149 169.092 242.149C169.76 242.149 170.401 242.232 171.055 242.371C171.696 242.497 172.266 242.747 172.768 243.068C173.269 243.388 173.659 243.805 173.965 244.349C174.244 244.892 174.383 245.546 174.383 246.354C174.383 247.161 174.244 247.816 173.965 248.359C173.673 248.888 173.283 249.319 172.768 249.64C172.266 249.96 171.696 250.183 171.055 250.322C170.401 250.461 169.76 250.531 169.092 250.531C168.423 250.531 167.783 250.461 167.129 250.322ZM165.778 238.668C164.539 239.002 163.439 239.531 162.436 240.255C161.434 240.993 160.612 241.898 160 243.012C159.359 244.112 159.053 245.476 159.053 247.022C159.053 248.331 159.331 249.445 159.86 250.364C160.389 251.283 161.086 252.048 161.935 252.633C162.784 253.232 163.745 253.65 164.803 253.928C165.861 254.193 166.892 254.332 167.894 254.332C169.175 254.332 170.387 254.095 171.57 253.636C172.74 253.176 173.895 252.619 175.079 251.965C174.801 256.824 172.489 259.261 168.159 259.261C167.727 259.261 167.212 259.219 166.655 259.136C166.098 259.08 165.541 258.927 165.012 258.732C164.469 258.551 163.968 258.314 163.494 258.022C163.021 257.729 162.645 257.381 162.367 256.991C162.255 256.838 162.186 256.643 162.158 256.434C162.102 256.212 162.088 256.031 162.088 255.877L161.587 255.599L159.095 260.681L159.429 261.001C159.638 260.82 159.916 260.709 160.208 260.709C160.431 260.709 160.724 260.834 161.1 261.057C161.448 261.294 161.921 261.544 162.506 261.823C163.077 262.129 163.815 262.366 164.692 262.575C165.555 262.77 166.627 262.867 167.866 262.867C169.663 262.867 171.306 262.561 172.754 261.962C174.216 261.349 175.469 260.486 176.527 259.317C177.571 258.175 178.379 256.769 178.95 255.167C179.521 253.566 179.813 251.742 179.813 249.737C179.813 248.024 179.549 246.479 179.047 245.045C178.56 243.638 177.85 242.399 176.931 241.369C176.012 240.338 174.926 239.531 173.659 238.974C172.392 238.403 170.985 238.125 169.468 238.125C168.256 238.125 167.031 238.278 165.778 238.626" fill="white"/>
</mask>
<g mask="url(#mask49_473_196)">
<path d="M179.813 238.167H159.053V262.91H179.813V238.167Z" fill="url(#paint49_radial_473_196)"/>
</g>
<mask id="mask50_473_196" style="mask-type:luminance" maskUnits="userSpaceOnUse" x="204" y="238" width="21" height="25">
<path d="M212.284 250.322C211.63 250.183 211.073 249.946 210.558 249.64C210.084 249.305 209.666 248.888 209.374 248.359C209.096 247.816 208.942 247.147 208.942 246.354C208.942 245.56 209.096 244.892 209.374 244.349C209.666 243.805 210.084 243.374 210.558 243.068C211.059 242.747 211.63 242.497 212.284 242.371C212.925 242.232 213.565 242.149 214.247 242.149C214.93 242.149 215.556 242.232 216.197 242.371C216.837 242.497 217.408 242.747 217.909 243.068C218.411 243.388 218.8 243.805 219.107 244.349C219.385 244.892 219.538 245.546 219.538 246.354C219.538 247.161 219.385 247.816 219.107 248.359C218.8 248.888 218.411 249.319 217.909 249.64C217.408 249.96 216.823 250.183 216.197 250.322C215.542 250.461 214.916 250.531 214.247 250.531C213.579 250.531 212.925 250.461 212.284 250.322ZM210.933 238.668C209.694 239.002 208.58 239.531 207.578 240.255C206.575 240.993 205.754 241.898 205.141 243.012C204.501 244.112 204.194 245.476 204.194 247.022C204.194 248.331 204.473 249.445 205.002 250.364C205.545 251.283 206.227 252.048 207.09 252.633C207.926 253.232 208.901 253.65 209.945 253.928C211.017 254.193 212.033 254.332 213.036 254.332C214.303 254.332 215.528 254.095 216.712 253.636C217.867 253.176 219.051 252.619 220.207 251.965C219.928 256.824 217.631 259.261 213.301 259.261C212.855 259.261 212.354 259.219 211.797 259.136C211.24 259.08 210.697 258.927 210.154 258.732C209.611 258.551 209.109 258.314 208.636 258.022C208.163 257.729 207.801 257.381 207.508 256.991C207.397 256.838 207.327 256.643 207.285 256.434C207.244 256.212 207.216 256.031 207.216 255.877L206.715 255.599L204.222 260.681L204.556 261.001C204.779 260.82 205.044 260.709 205.35 260.709C205.573 260.709 205.865 260.834 206.227 261.057C206.575 261.294 207.049 261.544 207.634 261.823C208.218 262.129 208.956 262.366 209.833 262.575C210.711 262.77 211.769 262.867 213.008 262.867C214.804 262.867 216.447 262.561 217.909 261.962C219.357 261.349 220.61 260.486 221.669 259.317C222.727 258.175 223.534 256.769 224.091 255.167C224.676 253.566 224.955 251.742 224.955 249.737C224.955 248.024 224.704 246.479 224.203 245.045C223.702 243.638 222.991 242.399 222.086 241.369C221.167 240.338 220.081 239.531 218.8 238.974C217.533 238.403 216.127 238.125 214.609 238.125C213.398 238.125 212.159 238.278 210.933 238.626" fill="white"/>
</mask>
<g mask="url(#mask50_473_196)">
<path d="M224.955 238.167H204.194V262.91H224.955V238.167Z" fill="url(#paint50_radial_473_196)"/>
</g>
<mask id="mask51_473_196" style="mask-type:luminance" maskUnits="userSpaceOnUse" x="180" y="238" width="23" height="25">
<path d="M187.93 238.694C186.789 239.042 185.883 239.432 185.159 239.877C184.435 240.309 183.892 240.699 183.516 241.074C183.14 241.423 182.89 241.604 182.737 241.604C182.5 241.604 182.249 241.52 182.027 241.367L181.539 241.785L184.881 246.519L185.243 246.226C185.187 246.087 185.159 245.92 185.118 245.739C185.104 245.586 185.076 245.433 185.076 245.307C185.076 244.945 185.285 244.569 185.702 244.193C186.106 243.831 186.649 243.469 187.276 243.177C187.916 242.871 188.64 242.62 189.406 242.439C190.186 242.244 190.952 242.147 191.69 242.147C192.33 242.147 192.971 242.202 193.583 242.272C194.21 242.342 194.767 242.495 195.282 242.717C195.797 242.926 196.215 243.219 196.521 243.609C196.841 243.999 196.995 244.486 196.995 245.098C196.995 245.711 196.814 246.282 196.452 246.7C196.09 247.131 195.658 247.479 195.157 247.716C194.642 247.953 194.112 248.134 193.528 248.217C192.929 248.315 192.414 248.357 191.982 248.357C191.314 248.357 190.701 248.273 190.158 248.05C189.615 247.855 189.323 247.452 189.267 246.839H188.766V253.119H189.267C189.434 252.562 189.754 252.214 190.242 252.088C190.729 251.935 191.314 251.879 191.982 251.879C192.442 251.879 193.012 251.921 193.667 251.991C194.307 252.06 194.92 252.227 195.505 252.464C196.076 252.729 196.563 253.063 196.967 253.522C197.357 253.968 197.552 254.567 197.552 255.319C197.552 256.07 197.329 256.711 196.925 257.198C196.507 257.672 196.006 258.034 195.421 258.326C194.836 258.605 194.196 258.799 193.514 258.911C192.831 259.036 192.233 259.078 191.731 259.078C191.105 259.078 190.325 258.967 189.378 258.786C188.473 258.563 187.568 258.27 186.719 257.894C185.87 257.519 185.146 257.059 184.533 256.488C183.92 255.945 183.614 255.291 183.614 254.581V254.26C183.614 254.093 183.628 253.996 183.656 253.94L183.196 253.662L180.773 260.317L181.163 260.442C181.275 260.387 181.372 260.331 181.456 260.275C181.567 260.206 181.678 260.178 181.818 260.178C182.027 260.178 182.43 260.331 182.973 260.61C183.516 260.902 184.199 261.236 185.034 261.584C185.87 261.932 186.802 262.253 187.902 262.503C188.988 262.768 190.158 262.893 191.411 262.893C192.511 262.893 193.695 262.796 194.948 262.587C196.201 262.392 197.371 262.002 198.415 261.389C199.445 260.804 200.336 259.983 201.046 258.967C201.743 257.95 202.105 256.655 202.105 255.082C202.105 253.689 201.729 252.548 200.963 251.629C200.211 250.71 199.236 250.097 198.053 249.791V249.693C199.055 249.443 199.849 248.858 200.434 247.911C201.019 246.978 201.297 245.962 201.297 244.834C201.297 243.636 201.019 242.62 200.448 241.757C199.891 240.907 199.153 240.225 198.248 239.682C197.357 239.125 196.368 238.735 195.282 238.485C194.182 238.248 193.11 238.137 192.024 238.137C190.409 238.137 189.058 238.304 187.93 238.666" fill="white"/>
</mask>
<g mask="url(#mask51_473_196)">
<path d="M202.103 238.164H180.786V262.906H202.103V238.164Z" fill="url(#paint51_radial_473_196)"/>
</g>
<mask id="mask52_473_196" style="mask-type:luminance" maskUnits="userSpaceOnUse" x="147" y="238" width="10" height="25">
<path d="M149.612 238.164V238.694C149.918 238.763 150.169 238.861 150.35 238.986C150.531 239.097 150.615 239.376 150.615 239.794C150.615 240.267 150.461 240.657 150.127 240.977C149.807 241.297 149.403 241.464 148.944 241.464C148.707 241.464 148.484 241.409 148.234 241.297C147.969 241.2 147.844 241.005 147.844 240.726H147.356V246.547H147.844C147.927 246.296 148.08 246.101 148.275 245.976C148.498 245.836 148.707 245.739 148.958 245.641C149.222 245.572 149.473 245.516 149.737 245.502C150.002 245.46 150.211 245.447 150.42 245.447V260.902C150.42 261.431 150.308 261.779 150.099 261.946C149.891 262.113 149.654 262.197 149.375 262.197V262.754H156.254V262.197C155.975 262.197 155.725 262.113 155.502 261.946C155.293 261.779 155.168 261.431 155.168 260.902V239.696C155.168 239.376 155.279 239.153 155.502 239C155.725 238.861 156.003 238.735 156.323 238.666V238.137H149.612V238.164Z" fill="white"/>
</mask>
<g mask="url(#mask52_473_196)">
<path d="M156.31 238.164H147.343V262.781H156.31V238.164Z" fill="url(#paint52_radial_473_196)"/>
</g>
<defs>
<radialGradient id="paint0_radial_473_196" cx="0" cy="0" r="1" gradientUnits="userSpaceOnUse" gradientTransform="translate(105.819 89.3432) scale(305.462 305.462)">
<stop stop-color="white"/>
<stop offset="0.26" stop-color="white"/>
<stop offset="0.36" stop-color="#F1F1F1"/>
<stop offset="0.9" stop-color="#AAABAB"/>
<stop offset="1" stop-color="#AAABAB"/>
</radialGradient>
<radialGradient id="paint1_radial_473_196" cx="0" cy="0" r="1" gradientUnits="userSpaceOnUse" gradientTransform="translate(103.424 102.465) scale(309.409 309.399)">
<stop stop-color="#96B3DD"/>
<stop offset="0.1" stop-color="#5C8CC1"/>
<stop offset="0.2" stop-color="#2465A7"/>
<stop offset="0.25" stop-color="#0F579D"/>
<stop offset="0.57" stop-color="#004989"/>
<stop offset="0.75" stop-color="#002561"/>
<stop offset="0.91" stop-color="#000A44"/>
<stop offset="1" stop-color="#000039"/>
</radialGradient>
<linearGradient id="paint2_linear_473_196" x1="62.4969" y1="57.286" x2="315.822" y2="310.611" gradientUnits="userSpaceOnUse">
<stop stop-color="#C9CACA"/>
<stop offset="0.27" stop-color="#A2A2A2"/>
<stop offset="0.59" stop-color="#7A7979"/>
<stop offset="0.85" stop-color="#626060"/>
<stop offset="1" stop-color="#595757"/>
</linearGradient>
<radialGradient id="paint3_radial_473_196" cx="0" cy="0" r="1" gradientUnits="userSpaceOnUse" gradientTransform="translate(105.724 86.3385) scale(330.436 330.436)">
<stop stop-color="#96B3DD"/>
<stop offset="0.1" stop-color="#5C8CC1"/>
<stop offset="0.2" stop-color="#2465A7"/>
<stop offset="0.25" stop-color="#0F579D"/>
<stop offset="0.57" stop-color="#004989"/>
<stop offset="0.75" stop-color="#002561"/>
<stop offset="0.91" stop-color="#000A44"/>
<stop offset="1" stop-color="#000039"/>
</radialGradient>
<linearGradient id="paint4_linear_473_196" x1="275.923" y1="270.825" x2="103.372" y2="98.2746" gradientUnits="userSpaceOnUse">
<stop stop-color="white"/>
<stop offset="0.16" stop-color="#DCDCDC"/>
<stop offset="0.45" stop-color="#A4A3A3"/>
<stop offset="0.69" stop-color="#7B7979"/>
<stop offset="0.88" stop-color="#626060"/>
<stop offset="1" stop-color="#595757"/>
</linearGradient>
<radialGradient id="paint5_radial_473_196" cx="0" cy="0" r="1" gradientUnits="userSpaceOnUse" gradientTransform="translate(107.32 92.4264) scale(305.452 305.452)">
<stop stop-color="white"/>
<stop offset="0.26" stop-color="white"/>
<stop offset="0.36" stop-color="#F1F1F1"/>
<stop offset="0.9" stop-color="#AAABAB"/>
<stop offset="1" stop-color="#AAABAB"/>
</radialGradient>
<radialGradient id="paint6_radial_473_196" cx="0" cy="0" r="1" gradientUnits="userSpaceOnUse" gradientTransform="translate(116.175 102.599) scale(226.541 226.541)">
<stop stop-color="#96B3DD"/>
<stop offset="0.1" stop-color="#5C8CC1"/>
<stop offset="0.2" stop-color="#2465A7"/>
<stop offset="0.25" stop-color="#0F579D"/>
<stop offset="0.57" stop-color="#004989"/>
<stop offset="0.75" stop-color="#002561"/>
<stop offset="0.91" stop-color="#000A44"/>
<stop offset="1" stop-color="#000039"/>
</radialGradient>
<radialGradient id="paint7_radial_473_196" cx="0" cy="0" r="1" gradientUnits="userSpaceOnUse" gradientTransform="translate(100.368 98.1909) scale(306.256 306.256)">
<stop stop-color="#96B3DD"/>
<stop offset="0.1" stop-color="#5C8CC1"/>
<stop offset="0.2" stop-color="#2465A7"/>
<stop offset="0.25" stop-color="#0F579D"/>
<stop offset="0.57" stop-color="#004989"/>
<stop offset="0.75" stop-color="#002561"/>
<stop offset="0.91" stop-color="#000A44"/>
<stop offset="1" stop-color="#000039"/>
</radialGradient>
<radialGradient id="paint8_radial_473_196" cx="0" cy="0" r="1" gradientUnits="userSpaceOnUse" gradientTransform="translate(107.879 91.0893) scale(305.452 305.452)">
<stop stop-color="white"/>
<stop offset="0.1" stop-color="white"/>
<stop offset="0.25" stop-color="#F4F5F5"/>
<stop offset="0.51" stop-color="#D9DBDC"/>
<stop offset="0.84" stop-color="#ACB0B3"/>
<stop offset="1" stop-color="#949A9D"/>
</radialGradient>
<radialGradient id="paint9_radial_473_196" cx="0" cy="0" r="1" gradientUnits="userSpaceOnUse" gradientTransform="translate(108.456 105.766) rotate(83.02) scale(309.353 309.353)">
<stop stop-color="white"/>
<stop offset="0.26" stop-color="white"/>
<stop offset="0.36" stop-color="#F1F1F1"/>
<stop offset="0.9" stop-color="#AAABAB"/>
<stop offset="1" stop-color="#AAABAB"/>
</radialGradient>
<radialGradient id="paint10_radial_473_196" cx="0" cy="0" r="1" gradientUnits="userSpaceOnUse" gradientTransform="translate(102.574 91.1848) rotate(83.02) scale(305.388 305.388)">
<stop stop-color="white"/>
<stop offset="0.26" stop-color="white"/>
<stop offset="0.36" stop-color="#F1F1F1"/>
<stop offset="0.9" stop-color="#AAABAB"/>
<stop offset="1" stop-color="#AAABAB"/>
</radialGradient>
<radialGradient id="paint11_radial_473_196" cx="0" cy="0" r="1" gradientUnits="userSpaceOnUse" gradientTransform="translate(102.907 73.2155) rotate(83.02) scale(305.431 305.43)">
<stop stop-color="white"/>
<stop offset="0.26" stop-color="white"/>
<stop offset="0.36" stop-color="#F1F1F1"/>
<stop offset="0.9" stop-color="#AAABAB"/>
<stop offset="1" stop-color="#AAABAB"/>
</radialGradient>
<radialGradient id="paint12_radial_473_196" cx="0" cy="0" r="1" gradientUnits="userSpaceOnUse" gradientTransform="translate(110.698 86.3257) rotate(83.02) scale(305.441 305.452)">
<stop stop-color="white"/>
<stop offset="0.26" stop-color="white"/>
<stop offset="0.36" stop-color="#F1F1F1"/>
<stop offset="0.9" stop-color="#AAABAB"/>
<stop offset="1" stop-color="#AAABAB"/>
</radialGradient>
<radialGradient id="paint13_radial_473_196" cx="0" cy="0" r="1" gradientUnits="userSpaceOnUse" gradientTransform="translate(107.762 79.3837) rotate(83.02) scale(305.473 305.483)">
<stop stop-color="white"/>
<stop offset="0.26" stop-color="white"/>
<stop offset="0.36" stop-color="#F1F1F1"/>
<stop offset="0.9" stop-color="#AAABAB"/>
<stop offset="1" stop-color="#AAABAB"/>
</radialGradient>
<radialGradient id="paint14_radial_473_196" cx="0" cy="0" r="1" gradientUnits="userSpaceOnUse" gradientTransform="translate(116.804 111.372) rotate(83.03) scale(305.579 305.589)">
<stop stop-color="white"/>
<stop offset="0.26" stop-color="white"/>
<stop offset="0.36" stop-color="#F1F1F1"/>
<stop offset="0.9" stop-color="#AAABAB"/>
<stop offset="1" stop-color="#AAABAB"/>
</radialGradient>
<radialGradient id="paint15_radial_473_196" cx="0" cy="0" r="1" gradientUnits="userSpaceOnUse" gradientTransform="translate(106.649 74.3712) rotate(83.02) scale(305.515 305.526)">
<stop stop-color="white"/>
<stop offset="0.26" stop-color="white"/>
<stop offset="0.36" stop-color="#F1F1F1"/>
<stop offset="0.9" stop-color="#AAABAB"/>
<stop offset="1" stop-color="#AAABAB"/>
</radialGradient>
<radialGradient id="paint16_radial_473_196" cx="0" cy="0" r="1" gradientUnits="userSpaceOnUse" gradientTransform="translate(110.146 94.9524) rotate(83.02) scale(301.433 301.433)">
<stop stop-color="white"/>
<stop offset="0.26" stop-color="white"/>
<stop offset="0.36" stop-color="#F1F1F1"/>
<stop offset="0.9" stop-color="#AAABAB"/>
<stop offset="1" stop-color="#AAABAB"/>
</radialGradient>
<radialGradient id="paint17_radial_473_196" cx="0" cy="0" r="1" gradientUnits="userSpaceOnUse" gradientTransform="translate(106.178 78.8227) rotate(83.02) scale(305.399 305.399)">
<stop stop-color="white"/>
<stop offset="0.26" stop-color="white"/>
<stop offset="0.36" stop-color="#F1F1F1"/>
<stop offset="0.9" stop-color="#AAABAB"/>
<stop offset="1" stop-color="#AAABAB"/>
</radialGradient>
<radialGradient id="paint18_radial_473_196" cx="0" cy="0" r="1" gradientUnits="userSpaceOnUse" gradientTransform="translate(115.032 111.772) rotate(83.03) scale(305.41 305.42)">
<stop stop-color="white"/>
<stop offset="0.26" stop-color="white"/>
<stop offset="0.36" stop-color="#F1F1F1"/>
<stop offset="0.9" stop-color="#AAABAB"/>
<stop offset="1" stop-color="#AAABAB"/>
</radialGradient>
<radialGradient id="paint19_radial_473_196" cx="0" cy="0" r="1" gradientUnits="userSpaceOnUse" gradientTransform="translate(108.629 108.573) rotate(83.03) scale(305.473 305.473)">
<stop stop-color="white"/>
<stop offset="0.26" stop-color="white"/>
<stop offset="0.36" stop-color="#F1F1F1"/>
<stop offset="0.9" stop-color="#AAABAB"/>
<stop offset="1" stop-color="#AAABAB"/>
</radialGradient>
<radialGradient id="paint20_radial_473_196" cx="0" cy="0" r="1" gradientUnits="userSpaceOnUse" gradientTransform="translate(110.321 96.2367) rotate(96.98) scale(305.547 305.546)">
<stop stop-color="white"/>
<stop offset="0.26" stop-color="white"/>
<stop offset="0.36" stop-color="#F1F1F1"/>
<stop offset="0.9" stop-color="#AAABAB"/>
<stop offset="1" stop-color="#AAABAB"/>
</radialGradient>
<radialGradient id="paint21_radial_473_196" cx="0" cy="0" r="1" gradientUnits="userSpaceOnUse" gradientTransform="translate(109.085 104.512) rotate(96.98) scale(305.462 305.462)">
<stop stop-color="white"/>
<stop offset="0.26" stop-color="white"/>
<stop offset="0.36" stop-color="#F1F1F1"/>
<stop offset="0.9" stop-color="#AAABAB"/>
<stop offset="1" stop-color="#AAABAB"/>
</radialGradient>
<radialGradient id="paint22_radial_473_196" cx="0" cy="0" r="1" gradientUnits="userSpaceOnUse" gradientTransform="translate(108.35 73.6446) rotate(96.98) scale(305.441 305.441)">
<stop stop-color="white"/>
<stop offset="0.26" stop-color="white"/>
<stop offset="0.36" stop-color="#F1F1F1"/>
<stop offset="0.9" stop-color="#AAABAB"/>
<stop offset="1" stop-color="#AAABAB"/>
</radialGradient>
<radialGradient id="paint23_radial_473_196" cx="0" cy="0" r="1" gradientUnits="userSpaceOnUse" gradientTransform="translate(106.843 110.068) rotate(96.97) scale(305.462 305.462)">
<stop stop-color="white"/>
<stop offset="0.26" stop-color="white"/>
<stop offset="0.36" stop-color="#F1F1F1"/>
<stop offset="0.9" stop-color="#AAABAB"/>
<stop offset="1" stop-color="#AAABAB"/>
</radialGradient>
<radialGradient id="paint24_radial_473_196" cx="0" cy="0" r="1" gradientUnits="userSpaceOnUse" gradientTransform="translate(113.033 69.6058) rotate(96.98) scale(305.526 305.525)">
<stop stop-color="white"/>
<stop offset="0.26" stop-color="white"/>
<stop offset="0.36" stop-color="#F1F1F1"/>
<stop offset="0.9" stop-color="#AAABAB"/>
<stop offset="1" stop-color="#AAABAB"/>
</radialGradient>
<radialGradient id="paint25_radial_473_196" cx="0" cy="0" r="1" gradientUnits="userSpaceOnUse" gradientTransform="translate(101.22 113.025) rotate(96.97) scale(305.61 305.611)">
<stop stop-color="white"/>
<stop offset="0.26" stop-color="white"/>
<stop offset="0.36" stop-color="#F1F1F1"/>
<stop offset="0.9" stop-color="#AAABAB"/>
<stop offset="1" stop-color="#AAABAB"/>
</radialGradient>
<radialGradient id="paint26_radial_473_196" cx="0" cy="0" r="1" gradientUnits="userSpaceOnUse" gradientTransform="translate(105.239 84.1966) rotate(96.98) scale(305.557 305.557)">
<stop stop-color="white"/>
<stop offset="0.26" stop-color="white"/>
<stop offset="0.36" stop-color="#F1F1F1"/>
<stop offset="0.9" stop-color="#AAABAB"/>
<stop offset="1" stop-color="#AAABAB"/>
</radialGradient>
<radialGradient id="paint27_radial_473_196" cx="0" cy="0" r="1" gradientUnits="userSpaceOnUse" gradientTransform="translate(104.348 94.2106) rotate(96.98) scale(301.422 301.422)">
<stop stop-color="white"/>
<stop offset="0.26" stop-color="white"/>
<stop offset="0.36" stop-color="#F1F1F1"/>
<stop offset="0.9" stop-color="#AAABAB"/>
<stop offset="1" stop-color="#AAABAB"/>
</radialGradient>
<radialGradient id="paint28_radial_473_196" cx="0" cy="0" r="1" gradientUnits="userSpaceOnUse" gradientTransform="translate(111.742 89.4698) rotate(96.98) scale(301.36 301.36)">
<stop stop-color="white"/>
<stop offset="0.26" stop-color="white"/>
<stop offset="0.36" stop-color="#F1F1F1"/>
<stop offset="0.9" stop-color="#AAABAB"/>
<stop offset="1" stop-color="#AAABAB"/>
</radialGradient>
<radialGradient id="paint29_radial_473_196" cx="0" cy="0" r="1" gradientUnits="userSpaceOnUse" gradientTransform="translate(111.131 83.7223) rotate(96.98) scale(305.42 305.42)">
<stop stop-color="white"/>
<stop offset="0.26" stop-color="white"/>
<stop offset="0.36" stop-color="#F1F1F1"/>
<stop offset="0.9" stop-color="#AAABAB"/>
<stop offset="1" stop-color="#AAABAB"/>
</radialGradient>
<radialGradient id="paint30_radial_473_196" cx="0" cy="0" r="1" gradientUnits="userSpaceOnUse" gradientTransform="translate(106.294 85.3374) rotate(96.98) scale(305.462 305.462)">
<stop stop-color="white"/>
<stop offset="0.26" stop-color="white"/>
<stop offset="0.36" stop-color="#F1F1F1"/>
<stop offset="0.9" stop-color="#AAABAB"/>
<stop offset="1" stop-color="#AAABAB"/>
</radialGradient>
<radialGradient id="paint31_radial_473_196" cx="0" cy="0" r="1" gradientUnits="userSpaceOnUse" gradientTransform="translate(107.394 99.036) scale(301.401 301.392)">
<stop stop-color="white"/>
<stop offset="0.26" stop-color="white"/>
<stop offset="0.36" stop-color="#F1F1F1"/>
<stop offset="0.9" stop-color="#AAABAB"/>
<stop offset="1" stop-color="#AAABAB"/>
</radialGradient>
<radialGradient id="paint32_radial_473_196" cx="0" cy="0" r="1" gradientUnits="userSpaceOnUse" gradientTransform="translate(107.339 88.7431) scale(305.462 305.463)">
<stop stop-color="white"/>
<stop offset="0.26" stop-color="white"/>
<stop offset="0.36" stop-color="#F1F1F1"/>
<stop offset="0.9" stop-color="#AAABAB"/>
<stop offset="1" stop-color="#AAABAB"/>
</radialGradient>
<radialGradient id="paint33_radial_473_196" cx="0" cy="0" r="1" gradientUnits="userSpaceOnUse" gradientTransform="translate(106.853 91.0159) scale(305.43 305.43)">
<stop stop-color="white"/>
<stop offset="0.26" stop-color="white"/>
<stop offset="0.36" stop-color="#F1F1F1"/>
<stop offset="0.9" stop-color="#AAABAB"/>
<stop offset="1" stop-color="#AAABAB"/>
</radialGradient>
<radialGradient id="paint34_radial_473_196" cx="0" cy="0" r="1" gradientUnits="userSpaceOnUse" gradientTransform="translate(106.816 95.7765) scale(305.483 305.473)">
<stop stop-color="white"/>
<stop offset="0.26" stop-color="white"/>
<stop offset="0.36" stop-color="#F1F1F1"/>
<stop offset="0.9" stop-color="#AAABAB"/>
<stop offset="1" stop-color="#AAABAB"/>
</radialGradient>
<radialGradient id="paint35_radial_473_196" cx="0" cy="0" r="1" gradientUnits="userSpaceOnUse" gradientTransform="translate(107.248 87.0438) scale(305.494 305.494)">
<stop stop-color="white"/>
<stop offset="0.26" stop-color="white"/>
<stop offset="0.36" stop-color="#F1F1F1"/>
<stop offset="0.9" stop-color="#AAABAB"/>
<stop offset="1" stop-color="#AAABAB"/>
</radialGradient>
<radialGradient id="paint36_radial_473_196" cx="0" cy="0" r="1" gradientUnits="userSpaceOnUse" gradientTransform="translate(107.819 92.2258) scale(305.388 305.388)">
<stop stop-color="white"/>
<stop offset="0.26" stop-color="white"/>
<stop offset="0.36" stop-color="#F1F1F1"/>
<stop offset="0.9" stop-color="#AAABAB"/>
<stop offset="1" stop-color="#AAABAB"/>
</radialGradient>
<radialGradient id="paint37_radial_473_196" cx="0" cy="0" r="1" gradientUnits="userSpaceOnUse" gradientTransform="translate(106.41 90.5858) scale(305.473 305.473)">
<stop stop-color="white"/>
<stop offset="0.26" stop-color="white"/>
<stop offset="0.36" stop-color="#F1F1F1"/>
<stop offset="0.9" stop-color="#AAABAB"/>
<stop offset="1" stop-color="#AAABAB"/>
</radialGradient>
<radialGradient id="paint38_radial_473_196" cx="0" cy="0" r="1" gradientUnits="userSpaceOnUse" gradientTransform="translate(107.434 94.6828) scale(305.42 305.409)">
<stop stop-color="white"/>
<stop offset="0.26" stop-color="white"/>
<stop offset="0.36" stop-color="#F1F1F1"/>
<stop offset="0.9" stop-color="#AAABAB"/>
<stop offset="1" stop-color="#AAABAB"/>
</radialGradient>
<radialGradient id="paint39_radial_473_196" cx="0" cy="0" r="1" gradientUnits="userSpaceOnUse" gradientTransform="translate(107.346 94.5004) scale(305.494 305.483)">
<stop stop-color="white"/>
<stop offset="0.26" stop-color="white"/>
<stop offset="0.36" stop-color="#F1F1F1"/>
<stop offset="0.9" stop-color="#AAABAB"/>
<stop offset="1" stop-color="#AAABAB"/>
</radialGradient>
<radialGradient id="paint40_radial_473_196" cx="0" cy="0" r="1" gradientUnits="userSpaceOnUse" gradientTransform="translate(107.649 99.2761) scale(305.388 305.377)">
<stop stop-color="white"/>
<stop offset="0.26" stop-color="white"/>
<stop offset="0.36" stop-color="#F1F1F1"/>
<stop offset="0.9" stop-color="#AAABAB"/>
<stop offset="1" stop-color="#AAABAB"/>
</radialGradient>
<radialGradient id="paint41_radial_473_196" cx="0" cy="0" r="1" gradientUnits="userSpaceOnUse" gradientTransform="translate(107.652 92.857) scale(305.441 305.441)">
<stop stop-color="white"/>
<stop offset="0.26" stop-color="white"/>
<stop offset="0.36" stop-color="#F1F1F1"/>
<stop offset="0.9" stop-color="#AAABAB"/>
<stop offset="1" stop-color="#AAABAB"/>
</radialGradient>
<radialGradient id="paint42_radial_473_196" cx="0" cy="0" r="1" gradientUnits="userSpaceOnUse" gradientTransform="translate(107.045 90.542) scale(305.505 305.505)">
<stop stop-color="white"/>
<stop offset="0.26" stop-color="white"/>
<stop offset="0.36" stop-color="#F1F1F1"/>
<stop offset="0.9" stop-color="#AAABAB"/>
<stop offset="1" stop-color="#AAABAB"/>
</radialGradient>
<radialGradient id="paint43_radial_473_196" cx="0" cy="0" r="1" gradientUnits="userSpaceOnUse" gradientTransform="translate(108.407 95.1087) scale(305.409 305.409)">
<stop stop-color="white"/>
<stop offset="0.26" stop-color="white"/>
<stop offset="0.36" stop-color="#F1F1F1"/>
<stop offset="0.9" stop-color="#AAABAB"/>
<stop offset="1" stop-color="#AAABAB"/>
</radialGradient>
<radialGradient id="paint44_radial_473_196" cx="0" cy="0" r="1" gradientUnits="userSpaceOnUse" gradientTransform="translate(106.618 90.6646) scale(305.43 305.431)">
<stop stop-color="white"/>
<stop offset="0.26" stop-color="white"/>
<stop offset="0.36" stop-color="#F1F1F1"/>
<stop offset="0.9" stop-color="#AAABAB"/>
<stop offset="1" stop-color="#AAABAB"/>
</radialGradient>
<radialGradient id="paint45_radial_473_196" cx="0" cy="0" r="1" gradientUnits="userSpaceOnUse" gradientTransform="translate(107.526 92.2721) scale(305.441 305.441)">
<stop stop-color="white"/>
<stop offset="0.26" stop-color="white"/>
<stop offset="0.36" stop-color="#F1F1F1"/>
<stop offset="0.9" stop-color="#AAABAB"/>
<stop offset="1" stop-color="#AAABAB"/>
</radialGradient>
<radialGradient id="paint46_radial_473_196" cx="0" cy="0" r="1" gradientUnits="userSpaceOnUse" gradientTransform="translate(108.091 90.8582) scale(305.42 305.42)">
<stop stop-color="white"/>
<stop offset="0.26" stop-color="white"/>
<stop offset="0.36" stop-color="#F1F1F1"/>
<stop offset="0.9" stop-color="#AAABAB"/>
<stop offset="1" stop-color="#AAABAB"/>
</radialGradient>
<radialGradient id="paint47_radial_473_196" cx="0" cy="0" r="1" gradientUnits="userSpaceOnUse" gradientTransform="translate(107.725 93.5323) scale(305.494 305.494)">
<stop stop-color="white"/>
<stop offset="0.26" stop-color="white"/>
<stop offset="0.36" stop-color="#F1F1F1"/>
<stop offset="0.9" stop-color="#AAABAB"/>
<stop offset="1" stop-color="#AAABAB"/>
</radialGradient>
<radialGradient id="paint48_radial_473_196" cx="0" cy="0" r="1" gradientUnits="userSpaceOnUse" gradientTransform="translate(106.497 89.1275) scale(305.441 305.441)">
<stop stop-color="white"/>
<stop offset="0.26" stop-color="white"/>
<stop offset="0.36" stop-color="#F1F1F1"/>
<stop offset="0.9" stop-color="#AAABAB"/>
<stop offset="1" stop-color="#AAABAB"/>
</radialGradient>
<radialGradient id="paint49_radial_473_196" cx="0" cy="0" r="1" gradientUnits="userSpaceOnUse" gradientTransform="translate(107.81 92.4717) scale(332.425 332.425)">
<stop stop-color="#96B3DD"/>
<stop offset="0.1" stop-color="#5C8CC1"/>
<stop offset="0.2" stop-color="#2465A7"/>
<stop offset="0.25" stop-color="#0F579D"/>
<stop offset="0.57" stop-color="#004989"/>
<stop offset="0.75" stop-color="#002561"/>
<stop offset="0.91" stop-color="#000A44"/>
<stop offset="1" stop-color="#000039"/>
</radialGradient>
<radialGradient id="paint50_radial_473_196" cx="0" cy="0" r="1" gradientUnits="userSpaceOnUse" gradientTransform="translate(108.121 86.7949) scale(332.436 332.436)">
<stop stop-color="#96B3DD"/>
<stop offset="0.1" stop-color="#5C8CC1"/>
<stop offset="0.2" stop-color="#2465A7"/>
<stop offset="0.25" stop-color="#0F579D"/>
<stop offset="0.57" stop-color="#004989"/>
<stop offset="0.75" stop-color="#002561"/>
<stop offset="0.91" stop-color="#000A44"/>
<stop offset="1" stop-color="#000039"/>
</radialGradient>
<radialGradient id="paint51_radial_473_196" cx="0" cy="0" r="1" gradientUnits="userSpaceOnUse" gradientTransform="translate(107.99 90.1846) scale(328.051 328.051)">
<stop stop-color="#96B3DD"/>
<stop offset="0.1" stop-color="#5C8CC1"/>
<stop offset="0.2" stop-color="#2465A7"/>
<stop offset="0.25" stop-color="#0F579D"/>
<stop offset="0.57" stop-color="#004989"/>
<stop offset="0.75" stop-color="#002561"/>
<stop offset="0.91" stop-color="#000A44"/>
<stop offset="1" stop-color="#000039"/>
</radialGradient>
<radialGradient id="paint52_radial_473_196" cx="0" cy="0" r="1" gradientUnits="userSpaceOnUse" gradientTransform="translate(107.403 92.9234) scale(332.415 332.415)">
<stop stop-color="#96B3DD"/>
<stop offset="0.1" stop-color="#5C8CC1"/>
<stop offset="0.2" stop-color="#2465A7"/>
<stop offset="0.25" stop-color="#0F579D"/>
<stop offset="0.57" stop-color="#004989"/>
<stop offset="0.75" stop-color="#002561"/>
<stop offset="0.91" stop-color="#000A44"/>
<stop offset="1" stop-color="#000039"/>
</radialGradient>
</defs>
</svg>
