<svg width="41" height="41" viewBox="0 0 41 41" fill="none" xmlns="http://www.w3.org/2000/svg">
<path d="M0.383066 20.506C0.383066 9.39708 9.3891 0.395035 20.498 0.391045C31.6069 0.391045 40.6129 9.39708 40.6129 20.506C40.6129 31.6149 31.6069 40.6209 20.498 40.6209C9.3891 40.6209 0.383066 31.6149 0.383066 20.506Z" fill="white"/>
<path d="M20.498 0C9.17761 0 0 9.17762 0 20.498C0 31.8184 9.17761 40.996 20.498 40.996C31.8184 40.996 40.996 31.8184 41 20.498C41 9.17762 31.8224 0 20.498 0ZM34.5198 34.5198C30.9326 38.1071 25.9766 40.3256 20.502 40.3256C15.0234 40.3256 10.0714 38.1071 6.48418 34.5198C2.89294 30.9286 0.674355 25.9766 0.674355 20.498C0.674355 15.0194 2.89294 10.0674 6.48019 6.4802C10.0714 2.89294 15.0234 0.674355 20.498 0.674355C25.9727 0.674355 30.9286 2.89294 34.5158 6.4802C38.1031 10.0674 40.3217 15.0234 40.3217 20.498C40.3217 25.9727 38.1031 30.9286 34.5158 34.5158L34.5198 34.5198ZM11.2127 27.8042C11.891 25.6135 11.1209 24.7157 11.1209 24.7157C10.3348 25.7931 10.9134 27.3932 10.9134 27.3932C9.85596 25.9687 8.13616 25.9527 8.13616 25.9527C9.03397 27.7643 11.2127 27.8002 11.2127 27.8002V27.8042ZM9.04993 22.4293C10.6061 20.7414 10.2949 19.6002 10.2949 19.6002C9.11776 20.2386 8.95815 21.9305 8.95815 21.9305C8.61499 20.1908 7.06676 19.4406 7.06676 19.4406C7.10268 21.4597 9.04993 22.4293 9.04993 22.4293ZM15.3585 31.6229C15.0912 29.3444 13.9739 28.9135 13.9739 28.9135C13.6906 30.2223 14.9196 31.3675 14.9196 31.3675C13.3754 30.4936 11.7952 31.2598 11.7952 31.2598C13.3514 32.5087 15.3585 31.6229 15.3585 31.6229ZM12.4736 29.2247C12.7848 26.9503 11.879 26.1921 11.879 26.1921C11.2765 27.3892 12.1105 28.8696 12.1105 28.8696C10.8336 27.6366 9.13771 27.9039 9.13771 27.9039C10.3188 29.54 12.4736 29.2247 12.4736 29.2247ZM13.7744 30.4697C13.7944 28.1753 12.8846 27.5488 12.8846 27.5488C12.4417 28.8137 13.3913 30.1744 13.3913 30.1744C11.9668 29.113 10.2709 29.7155 10.2709 29.7155C11.6516 31.1919 13.7744 30.4697 13.7744 30.4697ZM10.1792 26.1921C11.2007 24.1371 10.5862 23.1276 10.5862 23.1276C9.63251 24.0693 9.95173 25.7372 9.95173 25.7372C9.13771 24.1611 7.44185 23.8738 7.44185 23.8738C8.04039 25.8051 10.1832 26.1881 10.1832 26.1881L10.1792 26.1921ZM23.7581 30.9126C23.7581 30.9126 23.7581 30.9246 23.7581 30.9326C23.786 30.9086 23.79 30.9006 23.7581 30.9126ZM17.238 30.9326C17.238 30.9326 17.238 30.9206 17.238 30.9126C17.202 30.9006 17.206 30.9126 17.238 30.9326ZM22.9121 5.57839L22.6408 6.21684C25.7731 6.6837 28.5743 8.15212 30.7131 10.2869C33.3267 12.9005 34.9428 16.5117 34.9428 20.498C34.9428 24.4843 33.3267 28.0955 30.7131 30.7091C28.6621 32.7601 25.9926 34.1926 23.0119 34.7153C22.3255 34.5238 21.6751 34.3243 21.0606 34.1128C21.5634 33.9213 22.0422 33.7218 22.5051 33.5222C23.0199 33.7696 24.2129 34.1926 25.5257 33.614C25.5257 33.614 24.3965 32.6204 22.8044 33.211C22.8044 33.211 23.9536 32.3331 23.762 30.9326C23.6144 31.0483 22.7804 31.6149 22.2856 33.207C21.723 33.4504 21.1325 33.6898 20.506 33.9173C19.8795 33.6898 19.285 33.4544 18.7223 33.207C18.2275 31.6149 17.3896 31.0443 17.2459 30.9326C17.0544 32.3331 18.2036 33.211 18.2036 33.211C16.6155 32.6204 15.4822 33.614 15.4822 33.614C16.795 34.1966 17.9881 33.7736 18.5029 33.5222C18.9657 33.7257 19.4446 33.9213 19.9473 34.1128C19.3289 34.3243 18.6784 34.5278 17.9921 34.7153C15.0114 34.1926 12.3419 32.7601 10.2909 30.7091C7.67728 28.0955 6.06122 24.4883 6.06122 20.498C6.06122 16.5077 7.67728 12.9005 10.2909 10.2869C12.4257 8.15212 15.2269 6.6837 18.3592 6.21684L18.0879 5.57839C10.8894 6.73158 5.38686 12.9724 5.38686 20.502C5.38686 28.0316 10.5064 33.8215 17.3297 35.2819C17.3297 35.2819 18.858 34.9148 20.502 34.3203C22.146 34.9148 23.6743 35.2819 23.6743 35.2819C30.4976 33.8255 35.6171 27.7603 35.6171 20.502C35.6171 13.2437 30.1145 6.73557 22.9161 5.57839H22.9121ZM9.72428 15.2588C9.80409 14.6642 9.70832 14.1176 9.49285 13.7744C9.19757 14.0497 8.95815 14.5525 8.87835 15.1471C8.79854 15.7416 8.89431 16.2883 9.10978 16.6354C9.40506 16.3601 9.64448 15.8573 9.72428 15.2628V15.2588ZM7.91669 15.3386C7.63338 17.4973 8.98209 18.5388 8.98209 18.5388C10.5822 17.214 10.4944 15.9411 10.4944 15.9411C9.23348 16.388 8.96613 17.9921 8.96613 17.9921C8.90229 16.2164 7.91669 15.3386 7.91669 15.3386ZM8.95815 20.4701C10.678 18.9458 10.4824 17.7806 10.4824 17.7806C9.24944 18.2954 8.91426 19.9633 8.91426 19.9633C8.75066 18.1956 7.28623 17.2938 7.28623 17.2938C7.11465 19.3089 8.95815 20.4701 8.95815 20.4701ZM9.50083 24.3885C10.7657 22.4732 10.2789 21.3958 10.2789 21.3958C9.22151 22.2138 9.32925 23.9097 9.32925 23.9097C8.71075 22.2457 7.06676 21.7509 7.06676 21.7509C7.42589 23.7421 9.50083 24.3845 9.50083 24.3845V24.3885ZM17.1063 32.6364C16.6434 30.3899 15.5381 29.9709 15.5381 29.9709C15.3705 31.2997 16.6474 32.4209 16.6474 32.4209C15.0353 31.6827 13.523 32.4967 13.523 32.4967C15.183 33.6499 17.1103 32.6364 17.1103 32.6364H17.1063ZM32.0419 21.9305C32.0419 21.9305 31.8782 20.2386 30.7011 19.6002C30.7011 19.6002 30.3899 20.7414 31.9461 22.4293C31.9461 22.4293 33.8933 21.4597 33.9292 19.4406C33.9292 19.4406 32.385 20.1908 32.0379 21.9305H32.0419ZM30.7251 21.3958C30.7251 21.3958 30.2343 22.4732 31.4992 24.3885C31.4992 24.3885 33.5781 23.7461 33.9372 21.7549C33.9372 21.7549 32.2892 22.2457 31.6708 23.9137C31.6708 23.9137 31.7825 22.2178 30.7251 21.3998V21.3958ZM30.8208 26.1921C30.8208 26.1921 32.9636 25.8051 33.5621 23.8778C33.5621 23.8778 31.8663 24.1651 31.0523 25.7412C31.0523 25.7412 31.3675 24.0693 30.4178 23.1316C30.4178 23.1316 29.8033 24.1411 30.8248 26.1961L30.8208 26.1921ZM32.1177 15.1431C32.0379 14.5485 31.7984 14.0457 31.5032 13.7704C31.2917 14.1136 31.1919 14.6602 31.2757 15.2548C31.3555 15.8493 31.5909 16.3521 31.8902 16.6274C32.1017 16.2843 32.1975 15.7376 32.1177 15.1391V15.1431ZM29.7873 27.8042C29.7873 27.8042 31.962 27.7683 32.8599 25.9567C32.8599 25.9567 31.14 25.9727 30.0826 27.3972C30.0826 27.3972 30.6652 25.7971 29.8751 24.7197C29.8751 24.7197 29.105 25.6135 29.7873 27.8082V27.8042ZM32.0818 19.9633C32.0818 19.9633 31.7506 18.2954 30.5136 17.7806C30.5136 17.7806 30.3181 18.9458 32.0379 20.4701C32.0379 20.4701 33.8814 19.3089 33.7098 17.2938C33.7098 17.2938 32.2454 18.1956 32.0818 19.9633ZM25.4619 29.9709C25.4619 29.9709 24.3566 30.3859 23.8937 32.6364C23.8937 32.6364 25.821 33.6499 27.481 32.4967C27.481 32.4967 25.9687 31.6787 24.3566 32.4209C24.3566 32.4209 25.6335 31.2997 25.4619 29.9709ZM27.0261 28.9135C27.0261 28.9135 25.9088 29.3444 25.6415 31.6229C25.6415 31.6229 27.6486 32.5087 29.2048 31.2598C29.2048 31.2598 27.6246 30.4936 26.0804 31.3675C26.0804 31.3675 27.3094 30.2223 27.0261 28.9135ZM30.5056 15.9411C30.5056 15.9411 30.4218 17.214 32.0179 18.5388C32.0179 18.5388 33.3666 17.4933 33.0793 15.3386C33.0793 15.3386 32.0977 16.2164 32.0339 17.9921C32.0339 17.9921 31.7665 16.388 30.5056 15.9411ZM28.1154 27.5488C28.1154 27.5488 27.2056 28.1753 27.2256 30.4697C27.2256 30.4697 29.3444 31.1919 30.7251 29.7155C30.7251 29.7155 29.0292 29.113 27.6087 30.1744C27.6087 30.1744 28.5583 28.8097 28.1154 27.5488ZM29.117 26.1921C29.117 26.1921 28.2112 26.9543 28.5224 29.2247C28.5224 29.2247 30.6772 29.54 31.8583 27.9039C31.8583 27.9039 30.1584 27.6326 28.8855 28.8696C28.8855 28.8696 29.7195 27.3892 29.117 26.1921Z" fill="#437FC1"/>
<path d="M5.44273 27.9917C5.73003 27.8441 5.742 27.8162 5.69412 27.6645L5.66618 27.5688C5.67416 27.5368 5.74599 27.5009 5.77392 27.5169C5.85373 27.6845 5.92555 27.8361 6.00137 27.9798C6.07718 28.1234 6.15699 28.275 6.24876 28.4386C6.24078 28.4706 6.17295 28.5065 6.14103 28.4945L6.08117 28.4147C5.9854 28.287 5.95348 28.279 5.66618 28.4307L4.54492 29.0092C4.25762 29.1569 4.24565 29.1848 4.29353 29.3404L4.32146 29.4322C4.31348 29.4641 4.24565 29.504 4.21373 29.4881C4.13392 29.3205 4.05811 29.1649 3.98229 29.0212C3.90648 28.8776 3.82667 28.7259 3.73489 28.5663C3.74287 28.5344 3.81071 28.4945 3.84263 28.5105L3.90249 28.5863C3.99825 28.714 4.03017 28.7219 4.31747 28.5743L5.43874 27.9957L5.44273 27.9917Z" fill="#01499A"/>
<path d="M4.18978 25.0309C4.40127 24.9591 4.60477 24.8913 4.71251 24.8474C4.76039 24.8554 4.82424 24.9352 4.85217 25.011C4.85217 25.011 4.72448 25.1786 4.58881 25.3941L3.91445 26.4595C3.75085 26.7228 3.6511 26.8784 3.61917 26.9543C3.65908 26.9582 3.71095 26.9423 3.83465 26.8984L4.46112 26.6869C4.72448 26.5951 4.96389 26.4994 5.03971 26.4355C5.09557 26.3836 5.09158 26.2999 5.07961 26.2121L5.06365 26.1163C5.07961 26.0804 5.15144 26.0644 5.17937 26.0764C5.23124 26.252 5.27115 26.3837 5.31903 26.5113C5.35893 26.631 5.40681 26.7508 5.45071 26.8705C5.43874 26.8984 5.3709 26.9263 5.33898 26.9104L5.31105 26.8585C5.26716 26.7787 5.21927 26.7188 5.14346 26.7148C5.0437 26.7109 4.7963 26.7827 4.53295 26.8745L3.71095 27.1538C3.53139 27.2136 3.48351 27.2336 3.4436 27.2695C3.39971 27.3134 3.37577 27.3732 3.39572 27.4929L3.41168 27.5887C3.39572 27.6206 3.31591 27.6446 3.29596 27.6127C3.25207 27.457 3.19621 27.2934 3.15231 27.1618C3.1164 27.05 3.08049 26.9582 3.04857 26.8944C3.18424 26.8146 3.35981 26.5193 3.6072 26.1083L3.83465 25.7253C3.95436 25.5257 4.03416 25.3901 4.08604 25.2943C4.05012 25.2943 3.99426 25.3103 3.93441 25.3302L3.4875 25.4858C3.22414 25.5736 2.98472 25.6694 2.90891 25.7332C2.84905 25.7851 2.85304 25.8649 2.869 25.9567L2.88497 26.0485C2.869 26.0844 2.79718 26.1003 2.77324 26.0884C2.72136 25.9128 2.68146 25.7851 2.63358 25.6494C2.59368 25.5297 2.54978 25.414 2.5019 25.2903C2.51387 25.2624 2.58171 25.2345 2.61363 25.2504L2.64156 25.3063C2.68146 25.3861 2.72934 25.438 2.80915 25.4459C2.90891 25.4539 3.1563 25.3821 3.41966 25.2903L4.19377 25.027L4.18978 25.0309Z" fill="#01499A"/>
<path d="M1.99913 22.1659C2.05898 22.158 2.33032 22.1061 2.52185 22.0462C2.56575 22.0542 2.59368 22.142 2.56176 22.1699C2.26249 22.3056 2.12283 22.549 2.17071 22.8762C2.22657 23.2513 2.60565 23.6064 3.28 23.5107C3.95436 23.4109 4.26161 22.968 4.20176 22.561C4.1419 22.15 3.81869 22.0023 3.57528 21.9465C3.54336 21.9265 3.53937 21.8427 3.57528 21.8148C3.83066 21.8028 4.04214 21.8308 4.12594 21.8627C4.20575 22.0383 4.31348 22.2697 4.35339 22.533C4.40127 22.8642 4.37334 23.2154 4.22969 23.4827C4.07806 23.7541 3.82268 23.9815 3.4037 24.0454C2.98871 24.1052 2.67348 23.9735 2.44604 23.766C2.21061 23.5546 2.05898 23.2234 2.00711 22.8722C1.95523 22.5251 1.99913 22.2617 1.99115 22.1619L1.99913 22.1659Z" fill="#01499A"/>
<path d="M3.09645 20.099C3.08847 20.2386 3.09645 20.2426 3.18823 20.2466L3.67903 20.2706C3.99825 20.2865 4.03017 20.2666 4.0581 20.1109L4.07806 20.0032C4.102 19.9753 4.17781 19.9793 4.19776 20.0112C4.1818 20.2067 4.16983 20.3743 4.16584 20.5299C4.15786 20.6935 4.15387 20.8651 4.15387 21.0407C4.13392 21.0646 4.05411 21.0646 4.03416 21.0367L4.02618 20.9529C4.01421 20.7933 3.9783 20.7773 3.66307 20.7614L2.39017 20.7015C2.07095 20.6855 2.03504 20.7015 2.0111 20.8611L1.99514 20.9409C1.97518 20.9689 1.89538 20.9649 1.87543 20.9369C1.89139 20.7693 1.90336 20.5898 1.91134 20.4262C1.91932 20.2745 1.92331 20.103 1.92331 19.9513C1.94725 19.9234 2.02307 19.9274 2.04302 19.9513L2.051 20.0272C2.06696 20.1748 2.09888 20.1947 2.4181 20.2107L2.81713 20.2267C2.91689 20.2307 2.92088 20.2267 2.92487 20.087L2.95679 19.3727C2.96078 19.2291 2.95679 19.2291 2.86102 19.2251L2.462 19.2052C2.14278 19.1932 2.11484 19.2052 2.08292 19.3648L2.06696 19.4565C2.04302 19.4845 1.9672 19.4805 1.94725 19.4526C1.96321 19.265 1.97119 19.0974 1.97917 18.9338C1.98715 18.7662 1.99114 18.6066 1.99114 18.451C2.01509 18.4231 2.0909 18.4271 2.11085 18.455L2.11883 18.5228C2.13479 18.6824 2.16672 18.7024 2.48195 18.7183L3.75484 18.7742C4.07406 18.7902 4.09801 18.7702 4.13392 18.6146L4.15387 18.5348C4.17382 18.5069 4.25363 18.5109 4.27358 18.5388C4.25762 18.7104 4.24964 18.878 4.24166 19.0336C4.23368 19.2052 4.22969 19.3727 4.22969 19.5364C4.20973 19.5643 4.12993 19.5603 4.10998 19.5324L4.102 19.4565C4.09003 19.2969 4.05411 19.281 3.73888 19.265L3.24409 19.2411C3.14832 19.2411 3.14433 19.2411 3.13635 19.3807L3.10443 20.091L3.09645 20.099Z" fill="#01499A"/>
<path d="M3.21616 16.7432C3.31192 16.7631 3.31591 16.7631 3.33587 16.6713L3.38774 16.4399C3.42764 16.2643 3.41168 16.2204 3.26005 16.1526L3.18025 16.1167C3.16029 16.0888 3.18025 16.005 3.21217 15.993C3.31591 16.0249 3.43961 16.0529 3.56331 16.0848C3.691 16.1127 3.81071 16.1366 3.91844 16.1526C3.94638 16.1766 3.92643 16.2603 3.8945 16.2763H3.80672C3.63913 16.2723 3.60321 16.3042 3.56331 16.4798L3.51144 16.7112C3.49149 16.803 3.49548 16.807 3.59523 16.827L3.99426 16.9187C4.14589 16.9507 4.25762 16.9626 4.32545 16.9347C4.39329 16.9028 4.43718 16.8469 4.48905 16.6035C4.5529 16.3122 4.56886 16.1965 4.23368 15.9292C4.20574 15.8932 4.23368 15.8134 4.27757 15.8094C4.44915 15.8613 4.70054 16.001 4.78034 16.0688C4.73246 16.2444 4.66063 16.5636 4.59679 16.8389L4.50102 17.2739C4.46511 17.4335 4.43319 17.5971 4.38132 17.8485C4.35737 17.8724 4.27358 17.8525 4.2656 17.8245L4.27757 17.6609C4.28954 17.5053 4.27358 17.4814 3.96633 17.4095L2.71737 17.1302C2.41411 17.0624 2.39017 17.0784 2.32633 17.222L2.29042 17.3018C2.26248 17.3257 2.18667 17.3058 2.1747 17.2699C2.21859 17.1143 2.2545 16.9507 2.29042 16.7911L2.45003 16.0808C2.49791 15.8653 2.53781 15.6738 2.5418 15.6299C2.59368 15.6379 2.84107 15.6698 3.06852 15.7017C3.10443 15.7217 3.09246 15.8015 3.05655 15.8294C2.92886 15.8414 2.82112 15.8653 2.76526 15.8972C2.68545 15.9451 2.6256 16.0369 2.5857 16.2005L2.52584 16.4678C2.5019 16.5796 2.50988 16.5796 2.63358 16.6075L3.22015 16.7392L3.21616 16.7432Z" fill="#01499A"/>
<path d="M4.87212 12.6132C5.55844 12.9045 5.77791 13.539 5.4946 14.2173C5.22725 14.8518 4.61674 15.1391 3.95835 14.8637C3.33187 14.6004 3.04458 13.93 3.32389 13.2716C3.59922 12.6132 4.22968 12.3499 4.87212 12.6172V12.6132ZM3.45956 13.3514C3.29596 13.7425 3.57129 14.1016 4.09801 14.3251C4.48107 14.4887 5.15942 14.6084 5.37489 14.0936C5.55046 13.6826 5.21129 13.3514 4.70054 13.136C4.16185 12.9085 3.62316 12.9604 3.45956 13.3514Z" fill="#01499A"/>
<path d="M6.99494 10.2909C7.17849 10.4146 7.35806 10.5343 7.45781 10.5902C7.47776 10.6341 7.45781 10.7338 7.40993 10.8017C7.40993 10.8017 7.20243 10.8017 6.94706 10.8216L5.69411 10.9333C5.37888 10.9613 5.19932 10.9772 5.12351 10.9972C5.14346 11.0291 5.19134 11.061 5.29509 11.1329L5.84574 11.5039C6.07718 11.6596 6.29664 11.7912 6.3964 11.8112C6.47621 11.8232 6.53606 11.7713 6.5999 11.7075L6.66375 11.6356C6.69966 11.6276 6.75552 11.6715 6.76351 11.7035C6.65577 11.8511 6.57596 11.9668 6.50015 12.0785C6.42832 12.1823 6.36049 12.29 6.29265 12.4018C6.26472 12.4057 6.20088 12.3738 6.1929 12.3339L6.21684 12.2781C6.25674 12.1903 6.2727 12.1224 6.22881 12.0586C6.17295 11.9748 5.96545 11.8232 5.73402 11.6675L5.01178 11.1847C4.85616 11.081 4.80827 11.053 4.7564 11.0411C4.69256 11.0291 4.6327 11.0491 4.54891 11.1368L4.48506 11.2087C4.44516 11.2127 4.38132 11.1648 4.39329 11.1329C4.48905 11.0012 4.58881 10.8615 4.66462 10.7458C4.72847 10.65 4.78034 10.5662 4.81625 10.5024C4.96389 10.5583 5.30307 10.5223 5.7819 10.4665L6.22083 10.4186C6.45226 10.3947 6.60788 10.3787 6.71562 10.3547C6.69567 10.3268 6.64779 10.2909 6.59591 10.255L6.20088 9.99164C5.97343 9.83601 5.74998 9.70434 5.65421 9.68438C5.5784 9.66842 5.51455 9.7203 5.45071 9.78813L5.39085 9.85597C5.35095 9.86395 5.29509 9.81606 5.2911 9.78813C5.39883 9.64049 5.47864 9.52876 5.55445 9.41305C5.62628 9.3093 5.69012 9.20156 5.76195 9.08983C5.78988 9.08185 5.85372 9.11777 5.8617 9.15767L5.83377 9.21353C5.79786 9.29733 5.7819 9.36516 5.82579 9.42901C5.88166 9.5128 6.08915 9.66842 6.3166 9.82005L6.99494 10.2789V10.2909Z" fill="#01499A"/>
<path d="M10.2111 7.05879C10.3587 7.22638 10.4984 7.38998 10.5742 7.47378C10.5822 7.52166 10.5343 7.60945 10.4745 7.66531C10.4705 7.66531 10.271 7.60945 10.0196 7.56156L8.78258 7.33412C8.47533 7.27825 8.29178 7.24234 8.21197 7.24234C8.21995 7.27825 8.25986 7.32215 8.34365 7.4219L8.7746 7.92468C8.95416 8.13616 9.13373 8.3237 9.22151 8.3676C9.29334 8.39952 9.36915 8.3676 9.44497 8.31971L9.52477 8.26784C9.56467 8.27183 9.60458 8.33168 9.60458 8.35962C9.46093 8.47533 9.35319 8.56312 9.24944 8.65091C9.15368 8.7347 9.05791 8.8185 8.96613 8.91027C8.9382 8.91027 8.88633 8.8584 8.88633 8.8185L8.92224 8.77061C8.9821 8.69879 9.01801 8.63494 8.99008 8.56312C8.95815 8.47134 8.79854 8.26784 8.61898 8.05636L8.05236 7.39796C7.92866 7.25431 7.88876 7.21441 7.84487 7.19047C7.78501 7.16254 7.72117 7.16254 7.62141 7.23037L7.53762 7.28224C7.50171 7.27825 7.44983 7.21042 7.46978 7.18249C7.59747 7.08273 7.72915 6.97499 7.83689 6.88322C7.92467 6.8074 7.9965 6.73957 8.04837 6.68769C8.17207 6.78346 8.51124 6.83533 8.98609 6.91514L9.42501 6.98696C9.65645 7.02288 9.80808 7.05081 9.91981 7.05879C9.90784 7.02288 9.87192 6.98297 9.83202 6.93509L9.52477 6.57597C9.34521 6.36448 9.16565 6.18093 9.07786 6.13305C9.00604 6.10112 8.93421 6.13305 8.85441 6.18093L8.7746 6.22881C8.7347 6.22881 8.6948 6.16497 8.6948 6.13704C8.84244 6.02132 8.94219 5.93752 9.04993 5.84575C9.1457 5.76195 9.23747 5.67816 9.33324 5.58638C9.36516 5.58638 9.41703 5.63825 9.41304 5.67816L9.37314 5.72604C9.31329 5.79387 9.28136 5.85772 9.30531 5.93353C9.33723 6.0293 9.49285 6.2328 9.6764 6.44429L10.2071 7.06677L10.2111 7.05879Z" fill="#01499A"/>
<path d="M11.5039 5.96545C11.4321 6.00535 11.4241 6.01333 11.4401 6.08117L11.5359 6.48818C11.5518 6.55601 11.5638 6.57995 11.5758 6.60389C11.5877 6.61985 11.6197 6.62385 11.7114 6.59192L11.8072 6.55601C11.8391 6.56798 11.883 6.63183 11.8631 6.66375C11.7553 6.71961 11.6356 6.78745 11.5119 6.85927C11.4122 6.91913 11.3483 6.96701 11.2127 7.04681C11.1688 7.04681 11.1368 6.98696 11.1408 6.94706L11.2166 6.89119C11.2805 6.83932 11.3284 6.78346 11.3084 6.63582C11.2885 6.48818 11.2605 6.31659 11.2127 6.05723L11.053 5.17937C11.0131 4.95591 11.0052 4.81625 10.9453 4.73645C11.069 4.62073 11.0929 4.40925 11.0969 4.40526C11.1368 4.38131 11.1608 4.3893 11.2007 4.42521C11.2725 4.49703 11.3763 4.58482 11.5718 4.74842L12.6571 5.66618C12.8247 5.80584 12.8886 5.85771 13.0083 5.80983L13.132 5.76195C13.1599 5.76594 13.2038 5.83377 13.1878 5.86569C13.0442 5.94151 12.8806 6.03329 12.729 6.12506C12.5813 6.21285 12.4696 6.28467 12.3339 6.36847C12.29 6.36847 12.2501 6.3126 12.2701 6.26871L12.3539 6.20088C12.4137 6.149 12.4137 6.12107 12.4057 6.10112C12.3898 6.08117 12.3299 6.02131 12.2302 5.93353L11.9987 5.72604C11.9548 5.68613 11.9269 5.69411 11.8272 5.75796L11.496 5.95348L11.5039 5.96545ZM11.7274 5.62229C11.7952 5.58239 11.8072 5.56642 11.7354 5.50258L11.5159 5.30706C11.4002 5.20331 11.2885 5.10754 11.2246 5.05966C11.2326 5.14346 11.2605 5.29509 11.2964 5.4547L11.3563 5.71805C11.3763 5.81382 11.3962 5.81382 11.468 5.76993L11.7234 5.6183L11.7274 5.62229Z" fill="#01499A"/>
<path d="M13.4193 3.59922C13.3873 3.52341 13.3834 3.50745 13.3075 3.53937L13.112 3.61917C12.8806 3.71095 12.8646 3.86657 12.8646 4.13791C12.8327 4.17382 12.7728 4.18978 12.7369 4.15786C12.713 3.91046 12.6531 3.70696 12.6212 3.57528C12.6292 3.55932 12.6452 3.54735 12.6611 3.54336C12.6771 3.53538 12.693 3.53139 12.709 3.53937C12.7449 3.58725 12.7609 3.59523 13.0003 3.49947L14.1814 3.02063C14.3889 2.93684 14.4368 2.9129 14.4408 2.83309C14.4488 2.82112 14.4607 2.81314 14.4767 2.80915C14.4927 2.80117 14.5246 2.80516 14.5326 2.80915C14.5445 2.92886 14.6243 3.19621 14.7041 3.37577C14.7041 3.41168 14.6163 3.45158 14.5924 3.43163C14.4567 3.25207 14.349 3.12039 14.1136 3.21616L13.922 3.29197C13.8462 3.32389 13.8422 3.33587 13.8742 3.41966L14.4408 4.82025C14.5605 5.11553 14.5924 5.13149 14.74 5.09557L14.8717 5.05966C14.9036 5.07163 14.9316 5.14346 14.9156 5.17139C14.7081 5.25119 14.5485 5.31105 14.4049 5.36691C14.2532 5.43076 14.0896 5.49859 13.8662 5.59436C13.8343 5.58638 13.8023 5.51056 13.8223 5.48263L13.958 5.40681C14.0936 5.33499 14.1016 5.29509 13.9819 4.99981L13.4153 3.59922H13.4193Z" fill="#01499A"/>
<path d="M16.6434 4.12593C16.7232 4.43718 16.7472 4.45713 16.9068 4.44516L17.0025 4.43718C17.0345 4.44915 17.0504 4.52496 17.0265 4.55289C16.8469 4.5928 16.6833 4.62871 16.5277 4.66861C16.3681 4.70851 16.2005 4.75241 16.0249 4.80428C15.993 4.79231 15.973 4.7125 15.997 4.68856L16.0848 4.64866C16.2324 4.58482 16.2444 4.55289 16.1686 4.24165L15.8613 3.02063C15.7815 2.70939 15.7576 2.68944 15.598 2.70141H15.5022C15.4703 2.69343 15.4503 2.61761 15.4743 2.58968C15.6538 2.54978 15.8214 2.51387 15.981 2.47396C16.1366 2.43406 16.3002 2.39017 16.4798 2.33829C16.5117 2.35027 16.5317 2.42608 16.5077 2.45401L16.42 2.49392C16.2723 2.55776 16.2603 2.58569 16.3401 2.90092L16.6474 4.12194L16.6434 4.12593Z" fill="#01499A"/>
<path d="M20.087 3.00068C20.1548 3.74287 19.7 4.23767 18.9657 4.3055C18.2794 4.36934 17.7407 3.96633 17.6729 3.25207C17.613 2.57771 18.0679 2.00711 18.7822 1.93927C19.4925 1.87543 20.0232 2.30638 20.087 3.00068ZM18.7702 2.10287C18.3512 2.14277 18.1597 2.55377 18.2156 3.12438C18.2555 3.53937 18.463 4.19776 19.0176 4.14589C19.4645 4.10599 19.6002 3.6511 19.5483 3.10044C19.4925 2.51786 19.1932 2.06696 18.7702 2.10686V2.10287Z" fill="#01499A"/>
<path d="M23.1316 3.77878C23.1076 4.00224 23.0877 4.21372 23.0837 4.32944C23.0558 4.36934 22.956 4.39728 22.8762 4.38531C22.8722 4.38531 22.7764 4.20175 22.6368 3.98628L21.9465 2.93285C21.7749 2.66949 21.6751 2.51786 21.6193 2.45801C21.5993 2.48993 21.5913 2.54978 21.5794 2.67747L21.5115 3.33586C21.4836 3.61119 21.4716 3.87056 21.4996 3.96633C21.5235 4.04214 21.5993 4.07406 21.6871 4.09402L21.7829 4.11796C21.8068 4.14988 21.7948 4.21771 21.7709 4.23767C21.5873 4.21372 21.4517 4.19377 21.316 4.1818C21.1883 4.16983 21.0646 4.16185 20.9329 4.15387C20.917 4.13392 20.917 4.0581 20.9449 4.03416H21.0048C21.1005 4.02219 21.1684 4.00623 21.2043 3.9384C21.2522 3.85061 21.2881 3.59523 21.316 3.3199L21.4038 2.45402C21.4198 2.26647 21.4237 2.21061 21.4078 2.16273C21.3838 2.09888 21.3439 2.05499 21.2242 2.02706L21.1325 2.00312C21.1125 1.97518 21.1205 1.89139 21.1564 1.8874C21.316 1.91134 21.4876 1.93129 21.6273 1.94725C21.743 1.95922 21.8427 1.96321 21.9146 1.96321C21.9345 2.12282 22.13 2.40214 22.3974 2.79718L22.6488 3.16428C22.7804 3.35981 22.8682 3.4875 22.9361 3.57129C22.956 3.53937 22.96 3.47951 22.964 3.41966L23.0119 2.94881C23.0398 2.67348 23.0518 2.41411 23.0238 2.31835C22.9999 2.24253 22.9281 2.21061 22.8363 2.19066L22.7445 2.16672C22.7206 2.13479 22.7326 2.06696 22.7565 2.04701C22.94 2.07494 23.0717 2.0909 23.2114 2.10287C23.3391 2.11484 23.4588 2.12282 23.5945 2.1308C23.6104 2.15076 23.6104 2.22258 23.5825 2.25051H23.5186C23.4269 2.25849 23.363 2.27844 23.3231 2.35027C23.2752 2.43805 23.2353 2.69343 23.2074 2.96876L23.1236 3.78277L23.1316 3.77878Z" fill="#01499A"/>
<path d="M24.7676 3.94637C24.6878 3.92243 24.6758 3.92642 24.6399 3.98229L24.4125 4.32944C24.3726 4.39328 24.3646 4.41723 24.3566 4.44117C24.3526 4.46112 24.3726 4.48905 24.4603 4.53294L24.5561 4.57684C24.5721 4.60477 24.5561 4.68457 24.5162 4.69255C24.4045 4.65265 24.2688 4.61674 24.1331 4.57684C24.0214 4.54491 23.9416 4.53294 23.79 4.49304C23.7581 4.46511 23.782 4.39328 23.8139 4.37732L23.9057 4.39328C23.9895 4.40526 24.0613 4.39727 24.1531 4.28555C24.2449 4.16983 24.3486 4.02618 24.5042 3.8147L25.027 3.09246C25.1586 2.90491 25.2544 2.80915 25.2704 2.70939C25.438 2.71737 25.6055 2.58968 25.6135 2.58968C25.6534 2.60165 25.6694 2.62161 25.6694 2.67747C25.6694 2.78122 25.6734 2.9129 25.6933 3.17226L25.7811 4.5928C25.7931 4.80827 25.8051 4.89606 25.9208 4.94793L26.0405 5.0038C26.0564 5.02774 26.0405 5.10754 26.0046 5.11951C25.849 5.06764 25.6734 5.01577 25.4978 4.96788C25.3342 4.92399 25.2025 4.88808 25.0509 4.85217C25.019 4.82024 25.031 4.75241 25.0748 4.73645L25.1866 4.74842C25.2664 4.7564 25.2863 4.73645 25.2903 4.7165C25.2943 4.69255 25.2943 4.60876 25.2903 4.47309L25.2783 4.16584C25.2783 4.10599 25.2504 4.09401 25.1347 4.06209L24.7676 3.95835V3.94637ZM25.1666 3.87056C25.2424 3.89051 25.2624 3.88652 25.2584 3.79075L25.2464 3.49946C25.2384 3.34384 25.2345 3.1962 25.2225 3.12039C25.1706 3.18423 25.0788 3.30793 24.9871 3.44759L24.8354 3.67105C24.7836 3.75085 24.7955 3.76681 24.8753 3.79075L25.1626 3.87056H25.1666Z" fill="#01499A"/>
<path d="M27.3892 5.07961C27.3214 5.22725 27.2894 5.331 27.3054 5.39883C27.3214 5.47066 27.3692 5.52253 27.5927 5.62628C27.876 5.75397 27.9678 5.78589 28.3189 5.50657C28.3588 5.48662 28.4227 5.53051 28.4267 5.57839C28.3389 5.73401 28.1473 5.95747 28.0636 6.0253C27.9 5.94151 27.6047 5.80584 27.3493 5.69012L26.9303 5.49859C26.7867 5.43474 26.6271 5.36691 26.4315 5.28311C26.4116 5.25119 26.4395 5.17937 26.4714 5.17139L26.5951 5.2073C26.7468 5.25119 26.7747 5.23523 26.9064 4.94394L27.4331 3.78277C27.5648 3.49148 27.5568 3.45557 27.4251 3.37577L27.3413 3.3199C27.3174 3.28798 27.3533 3.21616 27.3972 3.21217C27.5568 3.29197 27.7124 3.3638 27.86 3.43562C28.0117 3.50346 28.1673 3.57129 28.3229 3.63513C28.3389 3.66706 28.307 3.73888 28.275 3.74287L28.1872 3.71893C28.0356 3.67504 28.0077 3.69499 27.876 3.98229L27.3812 5.07163L27.3892 5.07961Z" fill="#01499A"/>
<path d="M31.0842 5.80185C31.2837 5.55445 31.2797 5.52253 31.18 5.40282L31.1241 5.33499C31.1161 5.30307 31.16 5.23922 31.2039 5.25119C31.3276 5.35893 31.4593 5.46667 31.587 5.57041C31.7186 5.67416 31.8503 5.77791 31.986 5.87368C31.994 5.9056 31.9461 5.96545 31.9142 5.96545L31.8423 5.92555C31.7067 5.85372 31.6708 5.85771 31.4752 6.1091L30.9804 6.72759C30.7291 7.04282 30.4896 7.41392 30.8966 7.74112C31.2398 8.01645 31.583 7.79698 31.8743 7.43387L32.1336 7.11066C32.3052 6.89518 32.4568 6.67971 32.4848 6.58793C32.5047 6.51212 32.4608 6.45226 32.397 6.38044L32.3371 6.30861C32.3331 6.26871 32.381 6.22083 32.409 6.21684C32.5486 6.33655 32.6484 6.42433 32.7601 6.51212C32.8599 6.59192 32.9596 6.66774 33.0674 6.74355C33.0674 6.77149 33.0314 6.83134 32.9955 6.83533L32.9397 6.8074C32.8559 6.76749 32.792 6.74355 32.7242 6.77947C32.6404 6.82735 32.4648 7.02287 32.2932 7.23835L32.0538 7.53762C31.8543 7.789 31.6428 8.00049 31.3675 8.04438C31.152 8.0763 30.9006 7.98852 30.6852 7.81295C30.4817 7.64934 30.326 7.46978 30.2742 7.23835C30.2263 7.0109 30.326 6.76749 30.5615 6.47222L31.0962 5.80185H31.0842Z" fill="#01499A"/>
<path d="M33.9093 10.1712C33.7417 10.3188 33.5781 10.4585 33.4943 10.5383C33.4464 10.5463 33.3546 10.4984 33.3028 10.4385C33.3028 10.4346 33.3586 10.235 33.4025 9.98365L33.626 8.74667C33.6818 8.43942 33.7178 8.25587 33.7138 8.17606C33.6779 8.18404 33.634 8.22394 33.5382 8.30774L33.0354 8.74268C32.8239 8.92224 32.6404 9.1018 32.5965 9.18959C32.5606 9.26141 32.5965 9.33324 32.6404 9.41304L32.6923 9.49684C32.6923 9.53674 32.6324 9.57665 32.6005 9.57665C32.4848 9.433 32.397 9.32526 32.3092 9.22151C32.2254 9.12575 32.1416 9.03397 32.0498 8.9382C32.0498 8.91027 32.1017 8.8584 32.1416 8.8584L32.1855 8.89431C32.2613 8.95416 32.3212 8.99008 32.393 8.96214C32.4888 8.93022 32.6883 8.77061 32.8998 8.58706L33.5582 8.01645C33.7018 7.89275 33.7377 7.85684 33.7617 7.80896C33.7856 7.7491 33.7856 7.68526 33.7218 7.5855L33.6699 7.5057C33.6699 7.46978 33.7377 7.41791 33.7696 7.43786C33.8694 7.56555 33.9811 7.69723 34.0689 7.80497C34.1447 7.89275 34.2126 7.96458 34.2644 8.01645C34.1687 8.14414 34.1168 8.47932 34.045 8.95416L33.9731 9.39309C33.9372 9.62453 33.9133 9.77616 33.9053 9.88789C33.9412 9.87592 33.9851 9.84 34.029 9.79611L34.3881 9.48886C34.5996 9.30531 34.7832 9.12973 34.8271 9.03796C34.863 8.97012 34.831 8.89431 34.7792 8.8145L34.7313 8.7347C34.7353 8.6948 34.7951 8.65489 34.8231 8.65489C34.9388 8.79854 35.0226 8.90229 35.1144 9.00604C35.1982 9.1018 35.2819 9.19358 35.3737 9.28935C35.3737 9.31728 35.3219 9.36915 35.2819 9.36915L35.2341 9.32925C35.1662 9.26939 35.1024 9.24146 35.0266 9.26141C34.9308 9.29334 34.7273 9.44896 34.5198 9.63251L33.9013 10.1672L33.9093 10.1712Z" fill="#01499A"/>
<path d="M34.8191 11.6755C34.5477 11.8511 34.5358 11.879 34.5996 12.0267L34.6395 12.1145C34.6395 12.1504 34.5677 12.1903 34.5358 12.1783C34.44 12.0187 34.3562 11.875 34.2684 11.7394C34.1806 11.5997 34.0849 11.4561 33.9811 11.3044C33.9811 11.2725 34.049 11.2286 34.0809 11.2406L34.1487 11.3124C34.2565 11.4321 34.2884 11.4361 34.5597 11.2645L35.6251 10.5862C35.8965 10.4106 35.9044 10.3827 35.8446 10.235L35.8047 10.1433C35.8047 10.1113 35.8725 10.0674 35.9084 10.0794C36.0042 10.239 36.092 10.3867 36.1798 10.5263C36.2675 10.662 36.3593 10.8056 36.4671 10.9573C36.4671 10.9932 36.3992 11.0331 36.3673 11.0211L36.2995 10.9493C36.1917 10.8296 36.1598 10.8256 35.8885 10.9972L34.8231 11.6755H34.8191Z" fill="#01499A"/>
<path d="M36.2795 13.7185C35.8326 13.7345 35.5453 13.7624 35.3378 13.7744C35.3099 13.7545 35.2859 13.7225 35.262 13.6786C35.246 13.6427 35.242 13.6108 35.25 13.5829C35.3179 13.5111 35.4575 13.3834 35.5453 13.2876L36.5788 12.1983C36.8222 11.9429 36.8222 11.9229 36.8022 11.8152L36.7743 11.6755C36.7982 11.6356 36.8581 11.6157 36.886 11.6396C36.9539 11.7992 36.9978 11.903 37.0736 12.0666C37.1374 12.2102 37.2053 12.3419 37.297 12.5294C37.293 12.5614 37.2292 12.5853 37.1933 12.5813L37.1334 12.4975C37.0935 12.4457 37.0656 12.4337 37.0377 12.4457C37.0137 12.4576 36.906 12.5654 36.7544 12.729L36.1798 13.3275C36.084 13.4233 36.0281 13.4871 35.9842 13.535C36.0481 13.535 36.1518 13.535 36.2596 13.527L36.6027 13.5071C36.8342 13.4951 37.2452 13.4632 37.3689 13.4512C37.4367 13.4432 37.4766 13.4392 37.4965 13.4312C37.5205 13.4193 37.5245 13.4073 37.5085 13.3195L37.4886 13.2198C37.5005 13.1839 37.5684 13.1519 37.5963 13.1799C37.6601 13.3315 37.712 13.4472 37.7639 13.5669C37.8118 13.6707 37.8597 13.7664 37.9075 13.8502C37.9075 13.8821 37.8317 13.9181 37.8038 13.9061L37.7519 13.8343C37.6961 13.7545 37.6482 13.7225 37.5644 13.7146C37.4327 13.6946 37.2212 13.6866 36.9219 13.6986L36.2795 13.7185Z" fill="#01499A"/>
<path d="M37.4926 15.578C37.4008 15.6059 37.3968 15.6099 37.4207 15.6977L37.4846 15.9252C37.5325 16.0967 37.5684 16.1327 37.736 16.1207L37.8237 16.1127C37.8557 16.1287 37.8796 16.2125 37.8557 16.2364C37.7479 16.2603 37.6282 16.2923 37.5045 16.3242C37.3808 16.3601 37.2611 16.396 37.1574 16.4319C37.1215 16.4239 37.0975 16.3441 37.1175 16.3122L37.1973 16.2723C37.3489 16.1965 37.3609 16.1486 37.313 15.977L37.2491 15.7496C37.2252 15.6618 37.2172 15.6578 37.1215 15.6857L36.7304 15.7975C36.5788 15.8414 36.475 15.8813 36.4311 15.9371C36.3833 15.997 36.3753 16.0688 36.4431 16.3082C36.5269 16.5955 36.5668 16.7033 36.9898 16.7831C37.0337 16.799 37.0417 16.8868 37.0097 16.9108C36.8342 16.9467 36.5469 16.9427 36.4431 16.9227C36.3992 16.7472 36.3154 16.4279 36.2396 16.1566L36.1199 15.7296C36.076 15.57 36.0281 15.4104 35.9483 15.163C35.9603 15.1311 36.0401 15.1111 36.064 15.1311L36.1279 15.2787C36.1957 15.4224 36.2197 15.4344 36.5229 15.3506L37.7519 15.0034C38.0512 14.9196 38.0672 14.8917 38.0552 14.74L38.0472 14.6523C38.0592 14.6163 38.135 14.6004 38.1669 14.6243C38.2028 14.78 38.2467 14.9435 38.2906 15.1032L38.4901 15.8015C38.55 16.0129 38.6058 16.2005 38.6218 16.2404C38.5699 16.2563 38.3385 16.3481 38.123 16.4279C38.0831 16.4279 38.0552 16.3521 38.0751 16.3082C38.1789 16.2404 38.2667 16.1646 38.2986 16.1087C38.3425 16.0289 38.3545 15.9172 38.3106 15.7576L38.2387 15.4942C38.2068 15.3865 38.2028 15.3865 38.0791 15.4224L37.5005 15.586L37.4926 15.578Z" fill="#01499A"/>
<path d="M38.3265 17.7088C38.6697 17.6689 38.7016 17.6609 38.7096 17.5133V17.4215C38.7256 17.3856 38.8093 17.3736 38.8293 17.4135C38.8772 17.6689 38.9211 17.9323 38.957 18.2555C38.9889 18.5428 38.9729 18.7982 38.9131 18.9378C38.8173 19.1493 38.6617 19.269 38.4422 19.2969C38.139 19.3289 37.9874 19.1413 37.8916 18.9937C37.8716 18.9618 37.8477 18.9618 37.8118 18.9857C37.3808 19.261 37.1414 19.4326 37.0217 19.6082C36.9619 19.7039 36.9499 19.7957 36.9539 19.8476C36.9419 19.8795 36.89 19.8875 36.8661 19.8715C36.8342 19.8197 36.8182 19.7119 36.8062 19.6082C36.7703 19.2929 36.8581 19.0855 37.0895 18.9059C37.2571 18.7742 37.4128 18.6784 37.5883 18.5827C37.6761 18.5308 37.6961 18.471 37.6881 18.3872C37.6761 18.2674 37.6641 18.2635 37.6003 18.2714L37.1813 18.3193C36.8701 18.3552 36.8501 18.3792 36.8382 18.5348V18.6266C36.8182 18.6505 36.7344 18.6625 36.7145 18.6385C36.6985 18.459 36.6865 18.2994 36.6666 18.1358C36.6466 17.9682 36.6267 17.8165 36.5987 17.641C36.6147 17.6091 36.6985 17.6011 36.7184 17.629L36.7464 17.7168C36.7903 17.8644 36.8182 17.8844 37.1294 17.8485L38.3345 17.7088H38.3265ZM37.9474 18.2236C37.8277 18.2355 37.8198 18.2515 37.8437 18.451C37.8557 18.5747 37.8956 18.6425 37.9674 18.6984C38.0312 18.7503 38.147 18.8021 38.3505 18.7782C38.6577 18.7423 38.8333 18.5428 38.8054 18.2754C38.7894 18.1358 38.7774 18.1278 38.6138 18.1477L37.9514 18.2236H37.9474Z" fill="#01499A"/>
<path d="M36.7583 21.0088C36.7703 20.6935 36.8661 20.502 36.91 20.4302C36.9898 20.3663 37.2372 20.3344 37.4686 20.3424C37.5125 20.3663 37.5125 20.4461 37.4686 20.4741C37.2452 20.5339 36.9219 20.7534 36.91 21.0407C36.898 21.2921 37.0696 21.4158 37.2412 21.4237C37.5205 21.4357 37.6921 21.1803 37.8038 20.9768C37.9355 20.7334 38.1509 20.4741 38.4901 20.486C38.8772 20.498 39.1326 20.8092 39.1126 21.304C39.1086 21.4158 39.0887 21.5554 39.0408 21.6911C39.0248 21.735 39.0168 21.7669 39.0089 21.8068C38.933 21.8308 38.7455 21.8587 38.5181 21.8507C38.4781 21.8308 38.4781 21.747 38.5141 21.715C38.6896 21.6632 38.945 21.5275 38.957 21.2801C38.965 21.0566 38.8253 20.925 38.6537 20.917C38.4981 20.913 38.3465 21.0447 38.2507 21.2163L38.123 21.4357C38.0033 21.6432 37.7918 21.9066 37.4167 21.8946C36.9938 21.8786 36.7344 21.5195 36.7544 21.0048L36.7583 21.0088Z" fill="#01499A"/>
<path d="M37.0696 23.379C36.7504 23.3271 36.7264 23.3471 36.6746 23.4987L36.6426 23.5905C36.6187 23.6144 36.5389 23.5984 36.5229 23.5665C36.5588 23.387 36.5908 23.2194 36.6147 23.0598C36.6386 22.8962 36.6626 22.7286 36.6865 22.545C36.7105 22.5211 36.7903 22.533 36.8062 22.561V22.6607C36.8062 22.8203 36.8302 22.8443 37.1494 22.8962L38.3944 23.0957C38.7136 23.1436 38.7415 23.1276 38.7934 22.98L38.8253 22.8882C38.8492 22.8642 38.929 22.8762 38.941 22.9081C38.9051 23.0917 38.8732 23.2593 38.8492 23.4229C38.8253 23.5825 38.8014 23.7501 38.7774 23.9336C38.7535 23.9576 38.6737 23.9456 38.6577 23.9137V23.8139C38.6577 23.6543 38.6338 23.6304 38.3145 23.5785L37.0696 23.379Z" fill="#01499A"/>
<path d="M38.111 25.5577C38.1909 25.5816 38.2068 25.5856 38.2308 25.5098L38.2906 25.3063C38.3624 25.0669 38.2507 24.9591 38.0432 24.7875C38.0352 24.7436 38.0592 24.6838 38.1071 24.6758C38.3145 24.8115 38.5101 24.8913 38.6338 24.9511C38.6378 24.9671 38.6378 24.9871 38.6338 25.003C38.6258 25.019 38.6218 25.0349 38.6058 25.0469C38.546 25.0469 38.53 25.0549 38.4542 25.3023L38.0871 26.5233C38.0233 26.7388 38.0113 26.7907 38.0711 26.8425C38.0711 26.8585 38.0711 26.8665 38.0711 26.8864C38.0672 26.9064 38.0472 26.9223 38.0352 26.9303C37.9355 26.8625 37.6761 26.7587 37.4846 26.7109C37.4606 26.6869 37.4806 26.5951 37.5125 26.5872C37.74 26.5951 37.9075 26.5951 37.9794 26.3477L38.0392 26.1522C38.0632 26.0724 38.0552 26.0604 37.9714 26.0365L36.5229 25.6016C36.2197 25.5098 36.1877 25.5217 36.1199 25.6654L36.064 25.7931C36.0361 25.809 35.9603 25.7851 35.9483 25.7612C36.0201 25.5497 36.072 25.3861 36.1159 25.2384C36.1638 25.0788 36.2117 24.9072 36.2755 24.6758C36.3035 24.6559 36.3793 24.6758 36.3912 24.7117L36.3633 24.8634C36.3354 25.015 36.3633 25.0429 36.6626 25.1347L38.111 25.5696V25.5577Z" fill="#01499A"/>
<path d="M35.5014 28.0995C35.2141 27.9598 35.1822 27.9678 35.0944 28.0995L35.0186 28.2152C34.9907 28.2272 34.9188 28.1952 34.9109 28.1633C35.0146 27.9678 35.0904 27.8162 35.1622 27.6685C35.2341 27.5209 35.3059 27.3653 35.3857 27.1817C35.4176 27.1657 35.4894 27.2017 35.4934 27.2336L35.4575 27.3453C35.4136 27.4969 35.4256 27.5249 35.7129 27.6645L35.8685 27.7403C36.0241 27.8162 36.072 27.8361 36.2755 27.8361H37.2132C37.3689 27.8361 37.4327 27.8361 37.5045 27.7364L37.5724 27.6406C37.6083 27.6246 37.6841 27.6645 37.6721 27.7044C37.5963 27.8401 37.5404 27.9518 37.4527 28.1354C37.3609 28.3229 37.2891 28.4825 37.2412 28.5903C37.2172 28.6142 37.1414 28.5823 37.1334 28.5424L37.1574 28.4267C37.1733 28.3668 37.1694 28.3429 37.1654 28.3389C37.1414 28.3269 37.0856 28.3189 36.91 28.3149L36.511 28.299C36.3873 28.299 36.2356 28.295 36.1399 28.295C36.2476 28.4586 36.3833 28.6302 36.503 28.7898C36.6626 29.0132 36.7464 29.105 36.7823 29.125C36.8022 29.1329 36.8262 29.109 36.8741 29.0412L36.922 28.9773C36.9499 28.9614 37.0257 28.9933 37.0257 29.0332C36.9579 29.1529 36.902 29.2646 36.8501 29.3764C36.7943 29.4921 36.7504 29.5918 36.7145 29.6836C36.6825 29.7155 36.6107 29.6836 36.5987 29.6437L36.6227 29.5559C36.6426 29.4961 36.6466 29.4242 36.6227 29.3724C36.5868 29.2965 36.511 29.1689 36.3154 28.8895L36.0601 28.5264C35.9523 28.3748 35.8925 28.307 35.7169 28.2232L35.5014 28.1194V28.0995Z" fill="#01499A"/>
<path d="M19.7558 11.7114C19.8556 11.7234 20.0391 11.7394 20.1509 11.7394C20.2905 11.7434 20.2706 11.6556 20.2067 11.6197C19.1573 10.9972 18.6625 10.2709 18.7104 9.56467C18.7423 9.12175 18.9817 8.76263 19.253 8.5671C19.2171 8.71474 19.2251 8.85839 19.273 8.98608C19.3528 9.20156 19.5124 9.30131 19.8117 9.47289C20.486 9.85995 20.3184 10.3986 19.9912 10.5981C19.9354 10.6301 19.9274 10.6859 20.0032 10.6819C20.2945 10.654 20.5818 10.4864 20.8571 10.1512C21.0407 9.92779 21.2362 9.54073 21.1285 8.97411C20.9609 8.12817 20.2626 7.65732 19.7319 7.34608C19.6241 7.28224 19.5324 7.22637 19.4605 7.17849C19.3847 7.1346 19.257 7.0907 19.2969 7.23435C19.4765 7.77304 19.1533 7.98851 18.6904 8.31173C18.4151 8.49927 18.1078 8.71075 17.8525 9.02598C17.3856 9.59659 17.4415 10.0954 17.5731 10.4106C17.8525 11.077 18.7064 11.5877 19.7558 11.7114ZM20.9768 11.4401C20.921 11.46 20.917 11.5119 20.9768 11.5239C21.8068 11.5359 22.5769 11.1927 23.0398 10.5822C23.4428 10.0475 23.5466 9.40107 23.3351 8.75864C23.0278 7.83289 22.2737 7.37002 21.6273 6.84331C20.8731 6.22482 20.4142 5.74199 20.3105 4.9599C20.2905 4.8362 20.2426 4.84817 20.1908 4.95192C19.4366 6.49615 20.6297 7.18248 21.5474 8.43942C22.7046 10.0315 21.5195 11.2007 20.9768 11.4401ZM24.4763 13.3155L25.1387 12.0666H15.7775L16.4399 13.3155H24.4803H24.4763ZM21.6991 22.0382H29.3843C29.4202 21.7669 29.4322 21.5355 29.4322 21.3559V18.032H21.6991V22.0382ZM24.177 13.8821L23.4947 15.163H17.4215L16.7392 13.8821H11.48V17.7048H19.2131C19.1772 17.218 18.8141 16.803 18.0799 16.7192V16.412H22.8323V16.7192C22.0981 16.803 21.735 17.214 21.6991 17.7048H29.4282V13.8821H24.173H24.177ZM21.6991 26.3757H27.6166C28.694 24.8634 29.1569 23.3989 29.3364 22.3694H21.7031V26.3757H21.6991ZM19.2211 22.3694H11.5798C11.7593 23.4029 12.2222 24.8634 13.2996 26.3757H19.2211V22.3694ZM19.2211 18.032H11.484V21.3559C11.484 21.5395 11.496 21.7669 11.5319 22.0382H19.2211V18.032ZM22.8363 27.6885V27.9997H18.0839V27.6885C18.8181 27.6087 19.1772 27.1937 19.2171 26.7069H13.543C14.8677 28.4267 17.0145 30.1784 20.4581 31.3914C23.9017 30.1744 26.0485 28.4267 27.3732 26.7069H21.7031C21.739 27.1937 22.1021 27.6087 22.8363 27.6885Z" fill="#01499A"/>
<path d="M26.9183 24.2489C26.6949 24.1331 26.4994 24.0414 26.5034 23.8618C26.5034 23.6743 26.6271 23.6224 26.7627 23.6184C26.9702 23.6224 27.0141 23.7182 27.0221 23.9177V23.9695H27.3573V23.9296C27.3573 23.9296 27.3573 23.8977 27.3573 23.8857C27.3573 23.6982 27.3054 23.5506 27.2017 23.4588C27.0979 23.363 26.9543 23.3231 26.7787 23.3231C26.4395 23.3231 26.1722 23.5226 26.1682 23.8897C26.1682 24.205 26.4076 24.3526 26.6231 24.4643C26.8465 24.58 27.042 24.6758 27.0381 24.8554C27.0381 25.0669 26.9183 25.1267 26.7308 25.1307C26.5832 25.1267 26.4475 25.0669 26.4435 24.8235V24.7676V24.7277H26.1243V24.7636C26.1243 24.7636 26.1243 24.7995 26.1243 24.8195C26.1243 24.9232 26.1363 25.0709 26.2161 25.1985C26.2999 25.3262 26.4515 25.422 26.7148 25.422H26.7308C26.8944 25.422 27.054 25.3901 27.1737 25.2983C27.2934 25.2065 27.3732 25.0549 27.3692 24.8434C27.3692 24.5122 27.1298 24.3606 26.9144 24.2489H26.9183ZM13.4312 23.6583H13.942V25.3861H14.2692V23.6583H14.7799V23.363H13.4312V23.6583ZM15.4623 23.363L15.4543 23.3909L14.8238 25.3861H15.155L15.3027 24.9232H15.993L16.1327 25.3861H16.4958L15.8374 23.367H15.4663L15.4623 23.363ZM15.3865 24.6279L15.6418 23.7581L15.9012 24.6279H15.3865ZM17.4614 24.2489C17.238 24.1331 17.0424 24.0414 17.0464 23.8618C17.0464 23.6743 17.1701 23.6224 17.3058 23.6184C17.5133 23.6224 17.5572 23.7182 17.5652 23.9177V23.9695H17.9003V23.9296C17.9003 23.9296 17.9003 23.8977 17.9003 23.8857C17.9003 23.6982 17.8485 23.5546 17.7447 23.4588C17.645 23.363 17.4973 23.3231 17.3218 23.3231C16.9826 23.3231 16.7112 23.5226 16.7112 23.8897C16.7112 24.205 16.9507 24.3526 17.1661 24.4643C17.3896 24.58 17.5851 24.6758 17.5811 24.8554C17.5811 25.0669 17.4614 25.1267 17.2739 25.1307C17.1262 25.1307 16.9906 25.0669 16.9866 24.8235V24.7277H16.6673V24.7636C16.6673 24.7636 16.6634 24.7995 16.6634 24.8195C16.6634 24.9232 16.6753 25.0709 16.7591 25.1985C16.8429 25.3262 16.9945 25.422 17.2579 25.422H17.2739C17.4375 25.422 17.5971 25.3901 17.7208 25.2983C17.8405 25.2065 17.9203 25.0549 17.9163 24.8434C17.9163 24.5122 17.6769 24.3606 17.4614 24.2489ZM22.8922 23.6583H23.4029V25.3861H23.7301V23.6583H24.2409V23.363H22.8922V23.6583ZM24.9232 23.363L24.9152 23.3909L24.2848 25.3861H24.616L24.7636 24.9232H25.4579L25.5976 25.3861H25.9567L25.2983 23.367H24.9272L24.9232 23.363ZM24.8474 24.6279L25.1028 23.7581L25.3661 24.6279H24.8514H24.8474ZM24.1212 19.0336H23.794V21.0527H24.1212V19.0336ZM28.7299 21.0008C28.694 20.8891 28.6661 20.5818 28.6661 20.502C28.6661 20.1947 28.5943 20.0551 28.4466 19.9952C28.6102 19.9154 28.706 19.7518 28.702 19.5563C28.702 19.3049 28.5663 19.0336 28.1992 19.0336H27.489V21.0527H27.8162V20.1588H28.0675C28.1513 20.1628 28.303 20.1588 28.3229 20.3703C28.3469 20.6257 28.3229 20.8771 28.4027 21.0287L28.4147 21.0487H28.7499L28.7339 20.9968L28.7299 21.0008ZM28.1473 19.8636H27.8162V19.3249H28.1513C28.3149 19.3249 28.3708 19.4486 28.3748 19.5802C28.3748 19.7399 28.299 19.8636 28.1513 19.8636H28.1473ZM25.5856 20.9609C25.7173 20.8811 25.817 20.7255 25.813 20.4661C25.817 20.2307 25.7133 20.0551 25.5058 19.9873C25.6854 19.9035 25.7532 19.7359 25.7492 19.5284C25.7492 19.4845 25.7372 19.3648 25.6654 19.2491C25.5896 19.1333 25.4779 19.0296 25.1985 19.0336H24.5282V21.0527H25.1906C25.3023 21.0527 25.4579 21.0407 25.5856 20.9609ZM24.8554 19.3249H25.1666C25.3542 19.3249 25.422 19.4326 25.426 19.5802C25.422 19.7558 25.3502 19.8436 25.1786 19.8516H24.8554V19.3249ZM24.8554 20.7574V20.1429H25.0788C25.3302 20.1509 25.4779 20.1828 25.4818 20.4661C25.4818 20.5938 25.406 20.7574 25.1626 20.7574H24.8514H24.8554ZM15.6099 20.7574H14.8398V20.1628H15.5381V19.8675H14.8398V19.3209H15.594V19.0256H14.5166V21.0447H15.6099V20.7494V20.7574ZM27.1977 20.7574H26.4275V20.1628H27.1258V19.8715H26.4275V19.3249H27.1817V19.0296H26.1043V21.0487H27.1977V20.7534V20.7574ZM23.5426 20.7574H22.8283V19.0296H22.5011V21.0487H23.5386V20.7534L23.5426 20.7574ZM13.6108 21.0247L14.1934 19.0336H13.8582L13.4312 20.6377L13.0163 19.0336H12.6651L13.2477 21.0527H13.6028L13.6108 21.0247ZM17.7766 21.0527H18.1038V19.0336H17.7766V21.0527ZM16.8708 20.3703C16.8948 20.6257 16.8708 20.8771 16.9507 21.0287L16.9626 21.0487H17.2978L17.2818 20.9968C17.2459 20.8851 17.218 20.5778 17.218 20.498C17.214 20.1908 17.1462 20.0511 16.9985 19.9912C17.1661 19.9114 17.2579 19.7438 17.2579 19.5483C17.2579 19.2969 17.1222 19.0256 16.7551 19.0256H16.0489V21.0447H16.3721V20.1509H16.6235C16.7072 20.1548 16.8589 20.1509 16.8748 20.3623L16.8708 20.3703ZM16.3681 19.8636V19.3249H16.7033C16.8669 19.3249 16.9227 19.4486 16.9267 19.5802C16.9267 19.7399 16.8509 19.8636 16.7033 19.8636H16.3721H16.3681Z" fill="white"/>
<path d="M10.5383 32.8519C10.5383 32.812 10.5144 32.7761 10.4824 32.7441L10.2071 32.4888L10.1872 32.5087C10.1872 32.5526 10.1872 32.6045 10.1113 32.6843L8.76263 34.1527L9.11377 34.4719L10.4984 32.9676C10.5303 32.9357 10.5423 32.8958 10.5383 32.8519Z" fill="#01499A"/>
<path d="M7.31416 33.7617L7.88876 33.1352L7.53762 32.812L6.93509 33.4664C6.8473 33.5621 6.85129 33.7138 6.94706 33.8016L8.45139 35.1862L8.63893 34.9827L7.31017 33.7577L7.31416 33.7617Z" fill="#01499A"/>
<path d="M9.2654 31.6269C8.89431 31.2837 8.32769 31.2957 8.00049 31.6508C7.67328 32.0059 7.7092 32.5726 8.08428 32.9117C8.45538 33.2549 9.02199 33.2429 9.3492 32.8878C9.6764 32.5327 9.64049 31.966 9.2654 31.6269ZM8.27182 32.7082C8.09226 32.5446 8.12817 32.2134 8.35163 31.974C8.57508 31.7306 8.90229 31.6708 9.07786 31.8344C9.25742 31.998 9.22151 32.3291 8.99805 32.5726C8.7746 32.816 8.45139 32.8758 8.27182 32.7122V32.7082Z" fill="#01499A"/>
<path d="M13.0322 37.6681L13.3395 36.8781L12.9005 36.7065L12.5773 37.5365C12.5294 37.6562 12.5893 37.7958 12.709 37.8437L14.6164 38.5899L14.7161 38.3305L13.0322 37.6721V37.6681Z" fill="#01499A"/>
<path d="M14.0617 35.9004C14.0537 35.7568 14.0817 35.6171 14.1136 35.5054L14.7839 35.7648L14.8837 35.5094L14.2093 35.246L14.2612 35.1104C14.2772 35.0665 14.2772 35.0266 14.2612 34.9867C14.2413 34.9508 14.2133 34.9228 14.1694 34.9069L13.8303 34.7752L13.8183 34.8031C13.8383 34.843 13.8502 34.8909 13.8143 34.9907L13.7784 35.0784L13.116 34.8191L13.0163 35.0784L13.6746 35.3378C13.6228 35.4416 13.551 35.5653 13.4472 35.665C13.2477 35.8565 13.0282 36.0201 12.5055 36.1L12.5574 36.3992C13.0482 36.3833 13.4153 36.2236 13.6707 36.0201C13.7225 36.3434 13.8821 36.7105 14.2293 37.0536L14.4687 36.8701C14.1415 36.4551 14.0777 36.1837 14.0577 35.9084L14.0617 35.9004Z" fill="#01499A"/>
<path d="M15.7097 35.653C15.6897 35.6171 15.6618 35.5892 15.6179 35.5732L15.2668 35.4376L15.2548 35.4655C15.2747 35.5054 15.2867 35.5533 15.2468 35.653L15.0154 36.2396L14.4128 36.0042L14.3131 36.2636L14.9156 36.499L14.5206 37.5085L14.9635 37.6801L15.7097 35.7728C15.7256 35.7289 15.7256 35.689 15.7057 35.6491L15.7097 35.653Z" fill="#01499A"/>
<path d="M21.8108 36.3833C21.7789 36.3553 21.743 36.3394 21.6951 36.3394H21.32V36.3673C21.3559 36.3992 21.3838 36.4391 21.3838 36.5469V37.309H21.1245V36.495C21.1245 36.4511 21.1085 36.4112 21.0766 36.3833C21.0447 36.3553 21.0088 36.3394 20.9649 36.3394H20.5898V36.3673C20.6257 36.3992 20.6536 36.4391 20.6536 36.5469V38.2627C20.494 38.3465 20.2346 38.3584 20.111 38.3584H19.4526V36.7464H20.3943V36.4671H18.9777V38.4023C18.9777 38.534 19.0855 38.6378 19.2131 38.6378H20.107C20.2307 38.6378 20.49 38.6258 20.6496 38.542V39.5156H21.1245V37.5923H21.3838V39.5156H21.8587V36.499C21.8587 36.4551 21.8427 36.4152 21.8108 36.3873V36.3833Z" fill="#01499A"/>
<path d="M27.4411 35.7129L27.1817 35.0785C27.1657 35.0346 27.1338 35.0066 27.0939 34.9907C27.054 34.9787 27.0141 34.9787 26.9742 34.9947L26.6271 35.1383L26.639 35.1662C26.6829 35.1822 26.7268 35.2101 26.7667 35.3059L27.3613 36.7703L27.8002 36.5908L27.5488 35.9683L28.0436 35.7688L27.9399 35.5134L27.4451 35.7129H27.4411Z" fill="#01499A"/>
<path d="M26.3996 35.4535L25.7292 35.7249L25.6734 35.5892C25.6574 35.5453 25.6255 35.5174 25.5856 35.5014C25.5457 35.4895 25.5058 35.4895 25.4659 35.5014L25.1427 35.6331L25.1546 35.661C25.1985 35.677 25.2424 35.7049 25.2823 35.8047L25.3182 35.8925L24.6479 36.1678L24.7516 36.4232L25.003 36.3234C24.9152 36.503 24.8993 36.7025 24.9751 36.8821C25.1307 37.2691 25.6415 37.4247 26.1083 37.2372C26.5752 37.0457 26.8306 36.5788 26.6709 36.1917C26.5951 36.0122 26.4475 35.8805 26.26 35.8127L26.5113 35.7129L26.4076 35.4575L26.3996 35.4535ZM25.9966 36.9778C25.7572 37.0736 25.5098 36.9459 25.41 36.7025C25.3103 36.4591 25.3981 36.1917 25.6375 36.096C25.8769 36.0002 26.1243 36.1279 26.224 36.3713C26.3238 36.6147 26.236 36.8821 25.9966 36.9778Z" fill="#01499A"/>
<path d="M27.6845 36.9419L25.849 37.6881L25.9527 37.9475L27.5648 37.293L27.876 38.0552L28.3189 37.8756L27.9917 37.0736C27.9438 36.9539 27.8042 36.894 27.6845 36.9419Z" fill="#01499A"/>
<path d="M31.9022 31.8543L30.2821 33.2589L30.4617 33.4704L31.9022 32.2214L33.0354 33.5262L33.3946 33.215L32.2334 31.8783C32.1496 31.7785 31.998 31.7705 31.8982 31.8543H31.9022Z" fill="#01499A"/>
<path d="M33.0195 33.9691L32.389 33.2429C32.3571 33.211 32.3212 33.191 32.2773 33.1871C32.2374 33.1871 32.1975 33.203 32.1616 33.231L31.8782 33.4783L31.8982 33.5023C31.9421 33.5023 31.994 33.5143 32.0618 33.5941L32.6603 34.2804L32.3451 34.5557L31.7146 33.8295C31.6827 33.7936 31.6468 33.7776 31.6029 33.7776C31.563 33.7776 31.5231 33.7896 31.4912 33.8215L31.2039 34.0689L31.2238 34.0928C31.2677 34.0928 31.3196 34.1048 31.3874 34.1846L31.986 34.871L31.5191 35.278L31.7027 35.4894L34.0889 33.4185L33.9093 33.211L33.0235 33.9771L33.0195 33.9691Z" fill="#01499A"/>
</svg>
