<svg width="372" height="372" viewBox="0 0 372 372" fill="none" xmlns="http://www.w3.org/2000/svg">
<path d="M3.46875 186.416C3.46875 85.8189 85.0234 4.30039 185.621 4.26425C286.218 4.26425 367.773 85.8189 367.773 186.416C367.773 287.014 286.218 368.568 185.621 368.568C85.0234 368.568 3.46875 287.014 3.46875 186.416Z" fill="white"/>
<path d="M185.621 0.722168C83.1084 0.722168 0 83.8306 0 186.343C0 288.855 83.1084 371.964 185.621 371.964C288.133 371.964 371.242 288.855 371.278 186.343C371.278 83.8306 288.169 0.722168 185.621 0.722168ZM312.596 313.318C280.111 345.803 235.233 365.893 185.657 365.893C136.045 365.893 91.2024 345.803 58.7179 313.318C26.1972 280.798 6.10666 235.955 6.10666 186.343C6.10666 136.731 26.1972 91.8885 58.6818 59.4039C91.2024 26.9194 136.045 6.82883 185.621 6.82883C235.197 6.82883 280.075 26.9194 312.56 59.4039C345.044 91.8885 365.135 136.767 365.135 186.343C365.135 235.919 345.044 280.798 312.56 313.282L312.596 313.318ZM101.537 252.505C107.68 232.667 100.706 224.537 100.706 224.537C93.5873 234.293 98.8267 248.783 98.8267 248.783C89.2512 235.883 73.6774 235.738 73.6774 235.738C81.8076 252.143 101.537 252.468 101.537 252.468V252.505ZM81.9521 203.832C96.0444 188.547 93.226 178.213 93.226 178.213C82.5664 183.994 81.121 199.315 81.121 199.315C78.0135 183.561 63.9935 176.767 63.9935 176.767C64.3187 195.051 81.9521 203.832 81.9521 203.832ZM139.08 287.085C136.659 266.452 126.542 262.55 126.542 262.55C123.976 274.402 135.105 284.772 135.105 284.772C121.121 276.859 106.812 283.797 106.812 283.797C120.905 295.107 139.08 287.085 139.08 287.085ZM112.955 265.368C115.774 244.772 107.571 237.906 107.571 237.906C102.115 248.747 109.667 262.152 109.667 262.152C98.1041 250.987 82.7471 253.408 82.7471 253.408C93.4428 268.223 112.955 265.368 112.955 265.368ZM124.735 276.642C124.916 255.865 116.677 250.192 116.677 250.192C112.666 261.646 121.266 273.968 121.266 273.968C108.366 264.357 93.0091 269.813 93.0091 269.813C105.512 283.182 124.735 276.642 124.735 276.642ZM92.1781 237.906C101.428 219.297 95.8637 210.155 95.8637 210.155C87.2277 218.683 90.1184 233.787 90.1184 233.787C82.7471 219.514 67.3901 216.912 67.3901 216.912C72.8102 234.401 92.2142 237.87 92.2142 237.87L92.1781 237.906ZM215.142 280.653C215.142 280.653 215.142 280.761 215.142 280.834C215.395 280.617 215.431 280.545 215.142 280.653ZM156.099 280.834C156.099 280.834 156.099 280.725 156.099 280.653C155.774 280.545 155.81 280.653 156.099 280.834ZM207.482 51.2376L205.025 57.0191C233.39 61.2468 258.756 74.5441 278.124 93.8759C301.792 117.544 316.426 150.245 316.426 186.343C316.426 222.441 301.792 255.142 278.124 278.81C259.551 297.383 235.377 310.355 208.385 315.089C202.17 313.354 196.28 311.548 190.716 309.632C195.269 307.898 199.605 306.091 203.796 304.285C208.458 306.525 219.262 310.355 231.15 305.116C231.15 305.116 220.924 296.118 206.506 301.466C206.506 301.466 216.913 293.517 215.179 280.834C213.842 281.882 206.29 287.013 201.809 301.43C196.714 303.634 191.366 305.802 185.693 307.862C180.02 305.802 174.636 303.67 169.541 301.43C165.061 287.013 157.472 281.845 156.172 280.834C154.437 293.517 164.844 301.466 164.844 301.466C150.462 296.118 140.2 305.116 140.2 305.116C152.088 310.391 162.892 306.561 167.554 304.285C171.745 306.128 176.081 307.898 180.634 309.632C175.034 311.548 169.144 313.39 162.929 315.089C135.936 310.355 111.763 297.383 93.1898 278.81C69.522 255.142 54.8877 222.477 54.8877 186.343C54.8877 150.209 69.522 117.544 93.1898 93.8759C112.522 74.5441 137.888 61.2468 166.253 57.0191L163.796 51.2376C98.6099 61.6804 48.781 118.194 48.781 186.379C48.781 254.564 95.1411 306.995 156.93 320.22C156.93 320.22 170.77 316.895 185.657 311.511C200.544 316.895 214.384 320.22 214.384 320.22C276.173 307.031 322.533 252.107 322.533 186.379C322.533 120.651 272.704 61.7165 207.518 51.2376H207.482ZM88.0588 138.899C88.7815 133.515 87.9142 128.565 85.963 125.457C83.2891 127.95 81.121 132.503 80.3984 137.887C79.6757 143.271 80.5429 148.222 82.4941 151.365C85.1681 148.872 87.3361 144.319 88.0588 138.935V138.899ZM71.69 139.622C69.1245 159.17 81.3378 168.601 81.3378 168.601C95.8276 156.605 95.0327 145.078 95.0327 145.078C83.6143 149.125 81.1933 163.651 81.1933 163.651C80.6152 147.571 71.69 139.622 71.69 139.622ZM81.121 186.09C96.6948 172.287 94.9243 161.736 94.9243 161.736C83.7588 166.397 80.7236 181.501 80.7236 181.501C79.2421 165.494 65.9808 157.327 65.9808 157.327C64.4271 175.575 81.121 186.09 81.121 186.09ZM86.0353 221.574C97.4898 204.229 93.0814 194.473 93.0814 194.473C83.5059 201.881 84.4815 217.238 84.4815 217.238C78.8807 202.17 63.9935 197.689 63.9935 197.689C67.2455 215.72 86.0353 221.538 86.0353 221.538V221.574ZM154.907 296.263C150.715 275.919 140.706 272.125 140.706 272.125C139.189 284.158 150.751 294.312 150.751 294.312C136.153 287.627 122.458 294.998 122.458 294.998C137.49 305.441 154.943 296.263 154.943 296.263H154.907ZM290.157 199.315C290.157 199.315 288.675 183.994 278.016 178.213C278.016 178.213 275.197 188.547 289.29 203.832C289.29 203.832 306.923 195.051 307.248 176.767C307.248 176.767 293.264 183.561 290.121 199.315H290.157ZM278.232 194.473C278.232 194.473 273.788 204.229 285.243 221.574C285.243 221.574 304.068 215.756 307.32 197.725C307.32 197.725 292.397 202.17 286.796 217.274C286.796 217.274 287.808 201.917 278.232 194.509V194.473ZM279.1 237.906C279.1 237.906 298.504 234.401 303.924 216.949C303.924 216.949 288.567 219.55 281.195 233.823C281.195 233.823 284.05 218.683 275.45 210.191C275.45 210.191 269.886 219.333 279.136 237.942L279.1 237.906ZM290.843 137.851C290.121 132.467 287.953 127.914 285.279 125.421C283.364 128.528 282.46 133.479 283.219 138.863C283.942 144.247 286.074 148.8 288.784 151.293C290.699 148.185 291.566 143.235 290.843 137.815V137.851ZM269.741 252.505C269.741 252.505 289.434 252.179 297.564 235.774C297.564 235.774 281.99 235.919 272.415 248.819C272.415 248.819 277.69 234.329 270.536 224.573C270.536 224.573 263.562 232.667 269.741 252.541V252.505ZM290.518 181.501C290.518 181.501 287.519 166.397 276.317 161.736C276.317 161.736 274.547 172.287 290.121 186.09C290.121 186.09 306.815 175.575 305.261 157.327C305.261 157.327 292 165.494 290.518 181.501ZM230.572 272.125C230.572 272.125 220.562 275.883 216.371 296.263C216.371 296.263 233.824 305.441 248.855 294.998C248.855 294.998 235.161 287.591 220.562 294.312C220.562 294.312 232.125 284.158 230.572 272.125ZM244.736 262.55C244.736 262.55 234.619 266.452 232.198 287.085C232.198 287.085 250.373 295.107 264.465 283.797C264.465 283.797 250.156 276.859 236.172 284.772C236.172 284.772 247.302 274.402 244.736 262.55ZM276.245 145.078C276.245 145.078 275.486 156.605 289.94 168.601C289.94 168.601 302.153 159.134 299.552 139.622C299.552 139.622 290.663 147.571 290.084 163.651C290.084 163.651 287.663 149.125 276.245 145.078ZM254.601 250.192C254.601 250.192 246.362 255.865 246.543 276.642C246.543 276.642 265.73 283.182 278.232 269.813C278.232 269.813 262.876 264.357 250.012 273.968C250.012 273.968 258.612 261.61 254.601 250.192ZM263.67 237.906C263.67 237.906 255.468 244.808 258.286 265.368C258.286 265.368 277.799 268.223 288.495 253.408C288.495 253.408 273.101 250.951 261.575 262.152C261.575 262.152 269.127 248.747 263.67 237.906Z" fill="#437FC1"/>
<path d="M49.2867 254.201C51.8883 252.864 51.9967 252.611 51.5631 251.238L51.3102 250.371C51.3825 250.082 52.0329 249.757 52.2858 249.901C53.0085 251.419 53.6589 252.792 54.3455 254.093C55.032 255.394 55.7547 256.767 56.5858 258.248C56.5135 258.537 55.8992 258.863 55.6101 258.754L55.0681 258.031C54.2009 256.875 53.9118 256.803 51.3102 258.176L41.1565 263.415C38.5549 264.752 38.4465 265.005 38.8801 266.415L39.133 267.246C39.0607 267.535 38.4465 267.896 38.1574 267.752C37.4347 266.234 36.7481 264.825 36.0616 263.524C35.3751 262.223 34.6524 260.85 33.8213 259.405C33.8936 259.115 34.5078 258.754 34.7969 258.899L35.3389 259.585C36.2061 260.741 36.4952 260.814 39.0969 259.477L49.2505 254.237L49.2867 254.201Z" fill="#01499A"/>
<path d="M37.9419 227.39C39.8571 226.74 41.6999 226.126 42.6755 225.728C43.1091 225.8 43.6873 226.523 43.9402 227.21C43.9402 227.21 42.7839 228.727 41.5554 230.678L35.4487 240.326C33.9672 242.711 33.0638 244.12 32.7748 244.807C33.1361 244.843 33.6059 244.699 34.726 244.301L40.3991 242.386C42.7839 241.555 44.952 240.688 45.6385 240.109C46.1444 239.64 46.1082 238.881 45.9998 238.086L45.8553 237.219C45.9998 236.894 46.6503 236.749 46.9032 236.857C47.3729 238.447 47.7343 239.64 48.1679 240.796C48.5292 241.88 48.9628 242.964 49.3603 244.048C49.2519 244.301 48.6376 244.554 48.3486 244.409L48.0956 243.94C47.6982 243.217 47.2645 242.675 46.578 242.639C45.6746 242.603 43.4343 243.253 41.0495 244.084L33.6059 246.614C31.9798 247.156 31.5462 247.336 31.1849 247.661C30.7874 248.059 30.5706 248.601 30.7513 249.685L30.8958 250.552C30.7513 250.841 30.0286 251.058 29.8479 250.769C29.4504 249.36 28.9446 247.878 28.5471 246.686C28.2219 245.674 27.8967 244.843 27.6076 244.265C28.8362 243.542 30.4261 240.868 32.6664 237.146L34.726 233.678C35.81 231.871 36.5327 230.642 37.0025 229.775C36.6773 229.775 36.1714 229.92 35.6294 230.1L31.5823 231.51C29.1975 232.305 27.0295 233.172 26.3429 233.75C25.8009 234.22 25.837 234.942 25.9816 235.773L26.1261 236.604C25.9816 236.93 25.3311 237.074 25.1143 236.966C24.6446 235.376 24.2833 234.22 23.8497 232.991C23.4883 231.907 23.0908 230.859 22.6572 229.739C22.7656 229.486 23.3799 229.233 23.669 229.378L23.9219 229.884C24.2833 230.606 24.7169 231.076 25.4396 231.148C26.3429 231.22 28.5832 230.57 30.9681 229.739L37.9781 227.354L37.9419 227.39Z" fill="#01499A"/>
<path d="M18.1043 201.448C18.6463 201.375 21.1034 200.906 22.8379 200.364C23.2354 200.436 23.4883 201.231 23.1992 201.484C20.4892 202.712 19.2245 204.916 19.6581 207.879C20.164 211.276 23.5967 214.492 29.7034 213.625C35.81 212.721 38.5923 208.711 38.0503 205.025C37.5083 201.303 34.5815 199.966 32.3773 199.46C32.0882 199.28 32.0521 198.521 32.3773 198.268C34.6899 198.159 36.605 198.412 37.3638 198.701C38.0865 200.291 39.0621 202.387 39.4234 204.772C39.857 207.771 39.6041 210.951 38.3033 213.372C36.9302 215.829 34.6176 217.889 30.8235 218.467C27.0656 219.009 24.211 217.816 22.1513 215.937C20.0194 214.022 18.6463 211.023 18.1766 207.843C17.7068 204.7 18.1043 202.315 18.032 201.411L18.1043 201.448Z" fill="#01499A"/>
<path d="M28.0404 182.727C27.9682 183.992 28.0404 184.028 28.8715 184.064L33.316 184.281C36.2067 184.425 36.4958 184.245 36.7487 182.835L36.9294 181.86C37.1462 181.607 37.8328 181.643 38.0134 181.932C37.8689 183.703 37.7605 185.22 37.7244 186.629C37.6521 188.111 37.616 189.665 37.616 191.255C37.4353 191.471 36.7126 191.471 36.5319 191.218L36.4597 190.46C36.3513 189.014 36.0261 188.87 33.1715 188.725L21.6447 188.183C18.754 188.039 18.4288 188.183 18.212 189.629L18.0674 190.351C17.8868 190.604 17.1641 190.568 16.9834 190.315C17.1279 188.797 17.2363 187.171 17.3086 185.69C17.3809 184.317 17.417 182.763 17.417 181.39C17.6338 181.137 18.3204 181.173 18.501 181.39L18.5733 182.077C18.7178 183.413 19.0069 183.594 21.8976 183.739L25.511 183.883C26.4144 183.919 26.4505 183.883 26.4867 182.619L26.7757 176.151C26.8119 174.85 26.7757 174.85 25.9085 174.814L22.2951 174.633C19.4044 174.524 19.1514 174.633 18.8624 176.078L18.7178 176.909C18.501 177.162 17.8145 177.126 17.6338 176.873C17.7783 175.175 17.8506 173.657 17.9229 172.176C17.9952 170.658 18.0313 169.213 18.0313 167.804C18.2481 167.551 18.9346 167.587 19.1153 167.84L19.1876 168.454C19.3321 169.899 19.6212 170.08 22.4758 170.225L34.0026 170.73C36.8933 170.875 37.1101 170.694 37.4353 169.285L37.616 168.562C37.7966 168.309 38.5193 168.346 38.7 168.598C38.5555 170.152 38.4832 171.67 38.4109 173.079C38.3386 174.633 38.3025 176.151 38.3025 177.632C38.1218 177.885 37.3992 177.849 37.2185 177.596L37.1462 176.909C37.0378 175.464 36.7126 175.319 33.858 175.175L29.3774 174.958C28.5102 174.958 28.474 174.958 28.4018 176.223L28.1127 182.655L28.0404 182.727Z" fill="#01499A"/>
<path d="M29.1253 152.341C29.9926 152.522 30.0287 152.522 30.2094 151.691L30.6791 149.595C31.0404 148.005 30.8959 147.608 29.5228 146.994L28.8001 146.668C28.6195 146.415 28.8001 145.657 29.0892 145.548C30.0287 145.837 31.1488 146.09 32.269 146.379C33.4253 146.632 34.5093 146.849 35.4849 146.994C35.7379 147.21 35.5572 147.969 35.2681 148.114H34.4732C32.9555 148.078 32.6303 148.367 32.269 149.957L31.7993 152.052C31.6186 152.883 31.6547 152.92 32.5581 153.1L36.1715 153.931C37.5446 154.22 38.5563 154.329 39.1706 154.076C39.7849 153.787 40.1824 153.281 40.6521 151.077C41.2303 148.439 41.3748 147.391 38.3395 144.97C38.0866 144.645 38.3395 143.922 38.737 143.886C40.2908 144.356 42.5672 145.62 43.2899 146.235C42.8563 147.825 42.2059 150.715 41.6277 153.209L40.7605 157.147C40.4353 158.593 40.1462 160.074 39.6765 162.351C39.4597 162.567 38.7009 162.387 38.6286 162.134L38.737 160.652C38.8454 159.243 38.7009 159.026 35.9185 158.376L24.6086 155.846C21.8624 155.232 21.6456 155.377 21.0674 156.677L20.7422 157.4C20.4893 157.617 19.8027 157.436 19.6943 157.111C20.0918 155.702 20.417 154.22 20.7422 152.775L22.1876 146.343C22.6212 144.392 22.9825 142.657 23.0187 142.26C23.4884 142.332 25.7287 142.621 27.7884 142.91C28.1136 143.091 28.0052 143.814 27.68 144.067C26.5237 144.175 25.5481 144.392 25.0422 144.681C24.3195 145.115 23.7775 145.946 23.4161 147.427L22.8741 149.848C22.6573 150.86 22.7296 150.86 23.8498 151.113L29.1615 152.305L29.1253 152.341Z" fill="#01499A"/>
<path d="M44.1204 114.939C50.3355 117.577 52.3228 123.322 49.7573 129.465C47.3363 135.21 41.8078 137.812 35.8457 135.319C30.1727 132.934 27.571 126.863 30.1004 120.901C32.5936 114.939 38.3028 112.554 44.1204 114.975V114.939ZM31.3289 121.624C29.8474 125.165 32.3407 128.417 37.1104 130.441C40.5793 131.922 46.7221 133.006 48.6733 128.345C50.2632 124.623 47.1918 121.624 42.5666 119.673C37.6885 117.613 32.8104 118.083 31.3289 121.624Z" fill="#01499A"/>
<path d="M63.3442 93.9086C65.0064 95.0288 66.6324 96.1128 67.5358 96.6187C67.7165 97.0162 67.5358 97.9195 67.1022 98.5338C67.1022 98.5338 65.2232 98.5338 62.9106 98.7145L51.5645 99.7262C48.7099 99.9792 47.0839 100.124 46.3973 100.304C46.578 100.593 47.0116 100.883 47.9511 101.533L52.9376 104.893C55.0334 106.303 57.0208 107.495 57.9241 107.676C58.6468 107.784 59.1888 107.314 59.767 106.736L60.3451 106.086C60.6703 106.014 61.1762 106.411 61.2485 106.7C60.2728 108.037 59.5502 109.085 58.8636 110.097C58.2132 111.036 57.5989 112.012 56.9846 113.024C56.7317 113.06 56.1535 112.771 56.0813 112.409L56.2981 111.903C56.6594 111.108 56.804 110.494 56.4065 109.916C55.9006 109.157 54.0216 107.784 51.9259 106.375L45.3856 102.003C43.9764 101.063 43.5427 100.81 43.073 100.702C42.4949 100.593 41.9528 100.774 41.194 101.569L40.6159 102.219C40.2545 102.256 39.6764 101.822 39.7848 101.533C40.652 100.341 41.5554 99.0758 42.2419 98.0279C42.8201 97.1607 43.2898 96.4019 43.615 95.8237C44.952 96.3296 48.0234 96.0044 52.3595 95.4985L56.3342 95.0649C58.43 94.8481 59.8392 94.7036 60.8148 94.4868C60.6342 94.2339 60.2006 93.9086 59.7308 93.5834L56.1535 91.1986C54.0939 89.7894 52.0704 88.5969 51.2032 88.4163C50.5166 88.2717 49.9385 88.7415 49.3603 89.3558L48.8183 89.97C48.457 90.0423 47.9511 89.6087 47.915 89.3558C48.8906 88.0188 49.6133 87.007 50.2998 85.9591C50.9502 85.0197 51.5284 84.044 52.1788 83.0323C52.4317 82.96 53.0099 83.2852 53.0821 83.6466L52.8292 84.1524C52.504 84.9113 52.3595 85.5255 52.7569 86.1037C53.2628 86.8625 55.1418 88.2717 57.2014 89.6448L63.3442 93.8002V93.9086Z" fill="#01499A"/>
<path d="M92.4668 64.6449C93.8037 66.1625 95.0684 67.644 95.755 68.4028C95.8272 68.8364 95.3936 69.6314 94.8516 70.1373C94.8155 70.1373 93.0088 69.6314 90.7323 69.1978L79.5308 67.1381C76.7484 66.6323 75.0863 66.3071 74.3636 66.3071C74.4358 66.6323 74.7972 67.0297 75.556 67.9331L79.4585 72.486C81.0845 74.4011 82.7106 76.0994 83.5055 76.4969C84.1559 76.7859 84.8425 76.4969 85.529 76.0633L86.2517 75.5935C86.613 75.6297 86.9744 76.1717 86.9744 76.4246C85.6735 77.4725 84.6979 78.2674 83.7584 79.0624C82.8912 79.8212 82.024 80.58 81.1929 81.4111C80.94 81.4111 80.4702 80.9414 80.4702 80.58L80.7955 80.1464C81.3375 79.496 81.6627 78.9179 81.4097 78.2674C81.1207 77.4364 79.6753 75.5935 78.0493 73.6784L72.9182 67.7163C71.7981 66.4155 71.4367 66.0541 71.0392 65.8373C70.4972 65.5844 69.9191 65.5844 69.0157 66.1987L68.2569 66.6684C67.9317 66.6323 67.462 66.018 67.6426 65.7651C68.7989 64.8617 69.9914 63.8861 70.967 63.055C71.7619 62.3684 72.4123 61.7542 72.8821 61.2844C74.0022 62.1516 77.0736 62.6214 81.3736 63.3441L85.3483 63.9945C87.4441 64.3197 88.8172 64.5726 89.829 64.6449C89.7206 64.3197 89.3954 63.9583 89.034 63.5247L86.2517 60.2727C84.6257 58.3576 82.9996 56.6954 82.2047 56.2618C81.5543 55.9727 80.9039 56.2618 80.1812 56.6954L79.4585 57.129C79.0971 57.129 78.7358 56.5509 78.7358 56.2979C80.0728 55.25 80.9761 54.4912 81.9517 53.6601C82.819 52.9013 83.65 52.1425 84.5173 51.3114C84.8063 51.3114 85.2761 51.7812 85.2399 52.1425L84.8786 52.5761C84.3366 53.1904 84.0475 53.7685 84.2643 54.4551C84.5534 55.3223 85.9626 57.1651 87.6248 59.0802L92.4306 64.7172L92.4668 64.6449Z" fill="#01499A"/>
<path d="M104.175 54.7437C103.525 55.105 103.452 55.1773 103.597 55.7916L104.464 59.4772C104.609 60.0915 104.717 60.3083 104.825 60.5251C104.934 60.6697 105.223 60.7058 106.054 60.4167L106.921 60.0915C107.21 60.1999 107.608 60.7781 107.427 61.0671C106.451 61.573 105.367 62.1873 104.247 62.8377C103.344 63.3797 102.766 63.8133 101.537 64.536C101.14 64.536 100.851 63.994 100.887 63.6327L101.573 63.1268C102.151 62.657 102.585 62.1512 102.404 60.8142C102.224 59.4772 101.971 57.9235 101.537 55.5748L100.092 47.6253C99.7305 45.6017 99.6582 44.3371 99.1162 43.6144C100.236 42.5665 100.453 40.6514 100.489 40.6152C100.851 40.3984 101.067 40.4707 101.429 40.7959C102.079 41.4463 103.019 42.2413 104.789 43.7228L114.618 52.0336C116.135 53.2983 116.714 53.7681 117.798 53.3344L118.918 52.9008C119.171 52.937 119.568 53.5512 119.424 53.8403C118.123 54.5269 116.641 55.358 115.268 56.189C113.931 56.984 112.919 57.6344 111.691 58.3932C111.293 58.3932 110.932 57.8873 111.113 57.4899L111.872 56.8756C112.414 56.4058 112.414 56.1529 112.341 55.9722C112.197 55.7916 111.655 55.2496 110.751 54.4546L108.656 52.5756C108.258 52.2143 108.005 52.2866 107.102 52.8647L104.103 54.6353L104.175 54.7437ZM106.198 51.6361C106.813 51.2748 106.921 51.1303 106.271 50.5521L104.283 48.7816C103.235 47.8421 102.224 46.9748 101.646 46.5412C101.718 47.3001 101.971 48.6731 102.296 50.1185L102.838 52.5034C103.019 53.3706 103.199 53.3706 103.85 52.9731L106.162 51.6L106.198 51.6361Z" fill="#01499A"/>
<path d="M121.52 33.3117C121.231 32.6251 121.195 32.4806 120.508 32.7697L118.737 33.4923C116.642 34.3234 116.497 35.7327 116.497 38.1898C116.208 38.515 115.666 38.6595 115.341 38.3705C115.124 36.1301 114.582 34.2873 114.293 33.0949C114.365 32.9503 114.51 32.8419 114.654 32.8058C114.799 32.7335 114.943 32.6974 115.088 32.7697C115.413 33.2033 115.558 33.2755 117.726 32.4083L128.421 28.0722C130.3 27.3134 130.734 27.0966 130.77 26.3739C130.842 26.2655 130.951 26.1933 131.095 26.1571C131.24 26.0849 131.529 26.121 131.601 26.1571C131.71 27.2411 132.432 29.6621 133.155 31.2882C133.155 31.6134 132.36 31.9747 132.143 31.794C130.915 30.168 129.939 28.9756 127.807 29.8428L126.073 30.5294C125.386 30.8184 125.35 30.9268 125.639 31.6856L130.77 44.3687C131.854 47.0426 132.143 47.1872 133.48 46.862L134.673 46.5368C134.962 46.6452 135.215 47.2956 135.07 47.5485C133.191 48.2712 131.746 48.8132 130.445 49.3191C129.072 49.8972 127.59 50.5115 125.567 51.3787C125.278 51.3065 124.989 50.6199 125.169 50.367L126.398 49.6804C127.626 49.03 127.699 48.6687 126.615 45.9947L121.484 33.3117H121.52Z" fill="#01499A"/>
<path d="M150.717 38.0821C151.44 40.9006 151.657 41.0813 153.102 40.9729L153.969 40.9006C154.258 41.009 154.403 41.6955 154.186 41.9485C152.56 42.3098 151.078 42.635 149.669 42.9964C148.224 43.3577 146.706 43.7552 145.116 44.2249C144.827 44.1165 144.647 43.3938 144.863 43.177L145.658 42.8157C146.995 42.2375 147.104 41.9485 146.417 39.13L143.635 28.073C142.912 25.2545 142.695 25.0739 141.25 25.1823H140.383C140.094 25.11 139.913 24.4234 140.13 24.1705C141.756 23.8092 143.274 23.484 144.719 23.1226C146.128 22.7613 147.61 22.3638 149.236 21.8941C149.525 22.0025 149.705 22.689 149.489 22.9419L148.694 23.3033C147.357 23.8814 147.248 24.1344 147.971 26.989L150.753 38.046L150.717 38.0821Z" fill="#01499A"/>
<path d="M181.9 27.8915C182.514 34.6124 178.395 39.0931 171.746 39.7074C165.531 40.2855 160.653 36.636 160.039 30.168C159.497 24.0613 163.616 18.8941 170.084 18.2798C176.516 17.7017 181.322 21.6042 181.9 27.8915ZM169.976 19.7613C166.182 20.1227 164.447 23.8445 164.953 29.0117C165.315 32.7696 167.193 38.7317 172.216 38.262C176.263 37.9006 177.492 33.7814 177.022 28.7949C176.516 23.5193 173.806 19.4361 169.976 19.7975V19.7613Z" fill="#01499A"/>
<path d="M209.469 34.9392C209.253 36.9627 209.072 38.8778 209.036 39.9257C208.783 40.2871 207.88 40.54 207.157 40.4316C207.121 40.4316 206.254 38.7694 204.989 36.8182L198.738 27.2788C197.184 24.8939 196.281 23.5208 195.775 22.9788C195.594 23.2679 195.522 23.8099 195.413 24.9662L194.799 30.9283C194.546 33.4216 194.438 35.7703 194.691 36.6375C194.907 37.3241 195.594 37.6131 196.389 37.7938L197.256 38.0106C197.473 38.2997 197.365 38.914 197.148 39.0946C195.486 38.8778 194.257 38.6971 193.028 38.5887C191.872 38.4803 190.752 38.4081 189.56 38.3358C189.415 38.1551 189.415 37.4686 189.668 37.2518H190.21C191.077 37.1434 191.691 36.9988 192.017 36.3846C192.45 35.5896 192.776 33.277 193.028 30.7838L193.823 22.9427C193.968 21.2444 194.004 20.7385 193.86 20.3049C193.643 19.7268 193.281 19.3293 192.197 19.0763L191.366 18.8595C191.186 18.6066 191.258 17.8478 191.583 17.8116C193.028 18.0285 194.582 18.2091 195.847 18.3537C196.895 18.4621 197.798 18.4982 198.449 18.4982C198.629 19.9436 200.4 22.4729 202.821 26.0502L205.097 29.3746C206.29 31.1451 207.085 32.3014 207.699 33.0602C207.88 32.7712 207.916 32.2291 207.952 31.6871L208.385 27.4233C208.638 24.9301 208.747 22.5813 208.494 21.7141C208.277 21.0276 207.627 20.7385 206.796 20.5578L205.964 20.341C205.748 20.052 205.856 19.4377 206.073 19.257C207.735 19.5099 208.927 19.6545 210.192 19.7629C211.348 19.8713 212.432 19.9436 213.661 20.0158C213.806 20.1965 213.806 20.8469 213.553 21.0998H212.974C212.143 21.1721 211.565 21.3528 211.204 22.0032C210.77 22.7981 210.409 25.1107 210.156 27.604L209.397 34.9753L209.469 34.9392Z" fill="#01499A"/>
<path d="M224.284 36.4559C223.562 36.239 223.453 36.2752 223.128 36.7811L221.068 39.9247C220.707 40.5029 220.635 40.7197 220.562 40.9365C220.526 41.1171 220.707 41.3701 221.502 41.7676L222.369 42.165C222.514 42.418 222.369 43.1407 222.008 43.2129C220.996 42.8516 219.768 42.5264 218.539 42.165C217.527 41.876 216.805 41.7676 215.431 41.4062C215.142 41.1533 215.359 40.5029 215.648 40.3583L216.479 40.5029C217.238 40.6113 217.889 40.539 218.72 39.5272C219.551 38.4794 220.49 37.1785 221.899 35.2634L226.633 28.7232C227.825 27.0249 228.693 26.1576 228.837 25.2543C230.355 25.3265 231.872 24.1703 231.945 24.1703C232.306 24.2787 232.451 24.4593 232.451 24.9652C232.451 25.9047 232.487 27.0971 232.667 29.4458L233.462 42.3096C233.571 44.2608 233.679 45.0558 234.727 45.5255L235.811 46.0314C235.956 46.2482 235.811 46.9709 235.486 47.0793C234.077 46.6095 232.487 46.1398 230.897 45.7062C229.415 45.3087 228.223 44.9835 226.85 44.6583C226.561 44.3692 226.669 43.7549 227.067 43.6104L228.078 43.7188C228.801 43.7911 228.982 43.6104 229.018 43.4297C229.054 43.2129 229.054 42.4541 229.018 41.2255L228.909 38.4432C228.909 37.9012 228.657 37.7928 227.609 37.5037L224.284 36.5643V36.4559ZM227.898 35.7693C228.584 35.95 228.765 35.9138 228.729 35.0466L228.62 32.4088C228.548 30.9996 228.512 29.6626 228.404 28.9761C227.934 29.5542 227.103 30.6744 226.272 31.9391L224.899 33.9626C224.429 34.6853 224.537 34.8298 225.26 35.0466L227.862 35.7693H227.898Z" fill="#01499A"/>
<path d="M248.024 46.7192C247.41 48.0562 247.121 48.9956 247.265 49.6099C247.41 50.2603 247.843 50.7301 249.867 51.6696C252.432 52.8259 253.263 53.1149 256.443 50.5855C256.804 50.4049 257.383 50.8023 257.419 51.236C256.624 52.6452 254.889 54.6687 254.131 55.283C252.649 54.5242 249.975 53.2956 247.663 52.2477L243.868 50.5133C242.568 49.9351 241.122 49.3208 239.352 48.562C239.171 48.273 239.424 47.6225 239.713 47.5503L240.833 47.8755C242.206 48.273 242.459 48.1284 243.652 45.4906L248.421 34.9756C249.614 32.3378 249.542 32.0126 248.349 31.2899L247.59 30.7841C247.373 30.495 247.699 29.8446 248.096 29.8084C249.542 30.5311 250.951 31.1815 252.288 31.8319C253.661 32.4462 255.07 33.0605 256.479 33.6387C256.624 33.9277 256.335 34.5781 256.046 34.6143L255.251 34.3975C253.878 34 253.625 34.1807 252.432 36.7823L247.952 46.6469L248.024 46.7192Z" fill="#01499A"/>
<path d="M281.484 53.2598C283.291 51.0195 283.255 50.7304 282.351 49.6464L281.845 49.0321C281.773 48.743 282.171 48.1649 282.568 48.2733C283.688 49.2489 284.881 50.2245 286.037 51.164C287.229 52.1035 288.422 53.043 289.65 53.9102C289.723 54.1993 289.289 54.7413 289 54.7413L288.35 54.3799C287.121 53.7295 286.796 53.7656 285.025 56.0421L280.545 61.6429C278.268 64.4975 276.1 67.8579 279.786 70.8209C282.893 73.3142 286.001 71.3268 288.639 68.0386L290.987 65.1118C292.541 63.1605 293.914 61.2093 294.167 60.3782C294.348 59.6916 293.95 59.1496 293.372 58.4992L292.83 57.8488C292.794 57.4875 293.228 57.0538 293.481 57.0177C294.745 58.1017 295.649 58.8967 296.66 59.6916C297.564 60.4143 298.467 61.1009 299.443 61.7874C299.443 62.0404 299.118 62.5824 298.792 62.6185L298.286 62.3656C297.528 62.0042 296.95 61.7874 296.335 62.1126C295.576 62.5462 293.987 64.3168 292.433 66.268L290.265 68.9781C288.458 71.2545 286.543 73.1697 284.05 73.5671C282.098 73.8562 279.822 73.0613 277.871 71.4714C276.028 69.9899 274.619 68.3638 274.149 66.268C273.715 64.2084 274.619 62.0042 276.751 59.3303L281.593 53.2598H281.484Z" fill="#01499A"/>
<path d="M307.067 92.8258C305.549 94.1628 304.068 95.4275 303.309 96.1501C302.875 96.2224 302.044 95.7888 301.575 95.2468C301.575 95.2107 302.08 93.404 302.478 91.1275L304.501 79.9259C305.007 77.1436 305.333 75.4814 305.296 74.7588C304.971 74.831 304.574 75.1924 303.707 75.9512L299.154 79.8898C297.239 81.5158 295.576 83.1419 295.179 83.9368C294.854 84.5872 295.179 85.2377 295.576 85.9603L296.046 86.7191C296.046 87.0805 295.504 87.4418 295.215 87.4418C294.167 86.141 293.372 85.1654 292.577 84.2259C291.818 83.3587 291.06 82.5276 290.229 81.6604C290.229 81.4074 290.698 80.9377 291.06 80.9377L291.457 81.2629C292.144 81.8049 292.686 82.1301 293.336 81.8772C294.203 81.5881 296.01 80.1427 297.925 78.4806L303.887 73.3134C305.188 72.1932 305.513 71.868 305.73 71.4344C305.947 70.8924 305.947 70.3143 305.369 69.4109L304.899 68.6882C304.899 68.363 305.513 67.8933 305.802 68.074C306.706 69.2302 307.717 70.4227 308.512 71.3983C309.199 72.1932 309.813 72.8437 310.283 73.3134C309.416 74.4697 308.946 77.505 308.296 81.8049L307.645 85.7797C307.32 87.8754 307.103 89.2485 307.031 90.2603C307.356 90.1519 307.754 89.8267 308.151 89.4292L311.403 86.6469C313.318 84.9847 314.98 83.3948 315.378 82.5637C315.703 81.9494 315.414 81.2629 314.944 80.5402L314.511 79.8175C314.547 79.4562 315.089 79.0949 315.342 79.0949C316.39 80.3957 317.148 81.3352 317.979 82.2747C318.738 83.1419 319.497 83.973 320.328 84.8402C320.328 85.0931 319.858 85.5629 319.497 85.5629L319.064 85.2015C318.449 84.6595 317.871 84.4066 317.185 84.5872C316.317 84.8763 314.474 86.2855 312.596 87.9477L306.995 92.7897L307.067 92.8258Z" fill="#01499A"/>
<path d="M315.307 106.448C312.85 108.038 312.741 108.291 313.32 109.628L313.681 110.423C313.681 110.748 313.03 111.109 312.741 111.001C311.874 109.555 311.115 108.255 310.32 107.026C309.525 105.761 308.658 104.461 307.719 103.087C307.719 102.798 308.333 102.401 308.622 102.509L309.236 103.16C310.212 104.244 310.501 104.28 312.958 102.726L322.606 96.5833C325.063 94.9934 325.135 94.7404 324.593 93.4035L324.232 92.5724C324.232 92.2833 324.846 91.8859 325.171 91.9943C326.039 93.4396 326.834 94.7766 327.629 96.0413C328.424 97.2698 329.255 98.5707 330.23 99.9438C330.23 100.269 329.616 100.63 329.327 100.522L328.713 99.8715C327.737 98.7875 327.448 98.7513 324.991 100.305L315.343 106.448H315.307Z" fill="#01499A"/>
<path d="M328.533 124.949C324.486 125.094 321.884 125.346 320.005 125.455C319.752 125.274 319.535 124.985 319.318 124.588C319.174 124.262 319.138 123.973 319.21 123.72C319.824 123.07 321.089 121.914 321.884 121.046L331.243 111.182C333.447 108.869 333.447 108.689 333.266 107.713L333.013 106.448C333.23 106.087 333.772 105.906 334.025 106.123C334.639 107.568 335.037 108.508 335.723 109.989C336.301 111.29 336.916 112.483 337.747 114.181C337.711 114.47 337.132 114.687 336.807 114.651L336.265 113.892C335.904 113.422 335.651 113.314 335.398 113.422C335.181 113.531 334.206 114.506 332.833 115.988L327.629 121.408C326.762 122.275 326.256 122.853 325.859 123.287C326.437 123.287 327.376 123.287 328.352 123.215L331.459 123.034C333.555 122.925 337.277 122.636 338.397 122.528C339.011 122.456 339.373 122.42 339.553 122.347C339.77 122.239 339.806 122.131 339.662 121.336L339.481 120.432C339.59 120.107 340.204 119.818 340.457 120.071C341.035 121.444 341.505 122.492 341.974 123.576C342.408 124.515 342.842 125.383 343.275 126.141C343.275 126.43 342.589 126.756 342.336 126.647L341.866 125.997C341.36 125.274 340.927 124.985 340.168 124.913C338.975 124.732 337.06 124.66 334.35 124.768L328.533 124.949Z" fill="#01499A"/>
<path d="M339.518 141.788C338.687 142.041 338.651 142.077 338.868 142.872L339.446 144.932C339.879 146.485 340.205 146.811 341.722 146.702L342.517 146.63C342.806 146.774 343.023 147.533 342.806 147.75C341.831 147.967 340.747 148.256 339.626 148.545C338.506 148.87 337.422 149.195 336.483 149.521C336.158 149.448 335.941 148.726 336.121 148.437L336.844 148.075C338.217 147.389 338.326 146.955 337.892 145.401L337.314 143.342C337.097 142.547 337.025 142.511 336.158 142.764L332.616 143.775C331.243 144.173 330.304 144.534 329.906 145.04C329.473 145.582 329.401 146.232 330.015 148.4C330.774 151.002 331.135 151.978 334.965 152.7C335.363 152.845 335.435 153.64 335.146 153.857C333.556 154.182 330.954 154.146 330.015 153.965C329.617 152.375 328.859 149.485 328.172 147.027L327.088 143.161C326.69 141.716 326.257 140.27 325.534 138.03C325.643 137.741 326.365 137.56 326.582 137.741L327.16 139.078C327.775 140.379 327.991 140.487 330.737 139.728L341.867 136.585C344.577 135.826 344.721 135.573 344.613 134.2L344.541 133.405C344.649 133.08 345.336 132.935 345.625 133.152C345.95 134.561 346.347 136.043 346.745 137.488L348.552 143.811C349.094 145.727 349.6 147.425 349.744 147.786C349.274 147.931 347.179 148.762 345.227 149.484C344.866 149.484 344.613 148.798 344.794 148.4C345.733 147.786 346.528 147.1 346.817 146.594C347.215 145.871 347.323 144.859 346.926 143.414L346.275 141.029C345.986 140.054 345.95 140.054 344.83 140.379L339.59 141.86L339.518 141.788Z" fill="#01499A"/>
<path d="M347.07 161.081C350.177 160.72 350.466 160.647 350.539 159.31V158.479C350.683 158.154 351.442 158.046 351.623 158.407C352.056 160.72 352.454 163.105 352.779 166.031C353.068 168.633 352.924 170.946 352.382 172.21C351.514 174.125 350.105 175.209 348.118 175.462C345.372 175.751 343.998 174.053 343.131 172.716C342.951 172.427 342.734 172.427 342.409 172.644C338.506 175.137 336.338 176.691 335.254 178.281C334.712 179.148 334.604 179.979 334.64 180.449C334.531 180.738 334.062 180.81 333.845 180.666C333.556 180.196 333.411 179.22 333.303 178.281C332.978 175.426 333.773 173.547 335.868 171.921C337.386 170.729 338.795 169.862 340.385 168.994C341.18 168.525 341.361 167.983 341.288 167.224C341.18 166.14 341.072 166.104 340.493 166.176L336.699 166.61C333.881 166.935 333.7 167.152 333.592 168.561V169.392C333.411 169.609 332.652 169.717 332.472 169.5C332.327 167.874 332.219 166.429 332.038 164.947C331.857 163.43 331.677 162.057 331.424 160.467C331.568 160.178 332.327 160.105 332.508 160.358L332.761 161.153C333.158 162.49 333.411 162.671 336.23 162.346L347.142 161.081H347.07ZM343.637 165.742C342.553 165.851 342.481 165.995 342.698 167.802C342.806 168.922 343.167 169.536 343.818 170.042C344.396 170.512 345.444 170.982 347.287 170.765C350.069 170.44 351.659 168.633 351.406 166.212C351.261 164.947 351.153 164.875 349.672 165.056L343.673 165.742H343.637Z" fill="#01499A"/>
<path d="M332.869 190.965C332.978 188.11 333.845 186.376 334.242 185.725C334.965 185.147 337.205 184.858 339.301 184.93C339.698 185.147 339.698 185.87 339.301 186.123C337.277 186.665 334.351 188.652 334.242 191.254C334.134 193.53 335.688 194.65 337.241 194.723C339.771 194.831 341.324 192.519 342.336 190.676C343.529 188.471 345.48 186.123 348.551 186.231C352.056 186.34 354.369 189.158 354.188 193.639C354.152 194.65 353.971 195.915 353.538 197.144C353.393 197.541 353.321 197.83 353.249 198.192C352.562 198.408 350.864 198.661 348.804 198.589C348.443 198.408 348.443 197.65 348.768 197.36C350.358 196.891 352.671 195.662 352.779 193.422C352.851 191.398 351.587 190.206 350.033 190.134C348.624 190.098 347.25 191.29 346.383 192.844L345.227 194.831C344.143 196.71 342.228 199.095 338.831 198.987C335.001 198.842 332.652 195.59 332.833 190.929L332.869 190.965Z" fill="#01499A"/>
<path d="M335.686 212.432C332.795 211.962 332.578 212.143 332.108 213.516L331.819 214.347C331.603 214.564 330.88 214.419 330.735 214.13C331.061 212.504 331.35 210.987 331.566 209.541C331.783 208.06 332 206.542 332.217 204.88C332.434 204.663 333.156 204.772 333.301 205.025V205.928C333.301 207.373 333.518 207.59 336.408 208.06L347.682 209.866C350.573 210.3 350.826 210.156 351.296 208.819L351.585 207.987C351.802 207.771 352.524 207.879 352.633 208.168C352.307 209.83 352.018 211.348 351.802 212.829C351.585 214.275 351.368 215.792 351.151 217.455C350.934 217.671 350.212 217.563 350.067 217.274V216.371C350.067 214.925 349.85 214.708 346.96 214.239L335.686 212.432Z" fill="#01499A"/>
<path d="M345.119 232.158C345.842 232.374 345.986 232.41 346.203 231.724L346.745 229.881C347.395 227.713 346.384 226.737 344.505 225.184C344.432 224.786 344.649 224.244 345.083 224.172C346.962 225.4 348.732 226.123 349.852 226.665C349.889 226.81 349.889 226.99 349.852 227.135C349.78 227.279 349.744 227.424 349.599 227.532C349.057 227.532 348.913 227.605 348.226 229.845L344.902 240.902C344.324 242.853 344.216 243.323 344.758 243.793C344.758 243.937 344.758 244.009 344.758 244.19C344.721 244.371 344.541 244.515 344.432 244.588C343.529 243.973 341.18 243.034 339.446 242.6C339.229 242.383 339.41 241.552 339.699 241.48C341.758 241.552 343.276 241.552 343.926 239.312L344.468 237.541C344.685 236.819 344.613 236.71 343.854 236.494L330.737 232.555C327.991 231.724 327.702 231.832 327.088 233.133L326.582 234.289C326.329 234.434 325.643 234.217 325.534 234C326.185 232.085 326.654 230.604 327.052 229.267C327.485 227.821 327.919 226.268 328.497 224.172C328.75 223.991 329.437 224.172 329.545 224.497L329.292 225.87C329.039 227.243 329.292 227.496 332.002 228.327L345.119 232.266V232.158Z" fill="#01499A"/>
<path d="M321.486 255.178C318.884 253.913 318.595 253.985 317.8 255.178L317.113 256.226C316.86 256.334 316.21 256.045 316.138 255.756C317.077 253.985 317.764 252.612 318.414 251.275C319.065 249.938 319.715 248.529 320.438 246.867C320.727 246.722 321.377 247.048 321.413 247.337L321.088 248.348C320.691 249.721 320.799 249.974 323.401 251.239L324.81 251.926C326.219 252.612 326.653 252.793 328.496 252.793H336.987C338.396 252.793 338.974 252.793 339.625 251.89L340.239 251.022C340.564 250.878 341.251 251.239 341.143 251.6C340.456 252.829 339.95 253.841 339.155 255.503C338.324 257.201 337.674 258.647 337.24 259.622C337.023 259.839 336.337 259.55 336.264 259.189L336.481 258.141C336.626 257.599 336.59 257.382 336.553 257.346C336.337 257.237 335.831 257.165 334.241 257.129L330.627 256.984C329.507 256.984 328.134 256.948 327.267 256.948C328.243 258.43 329.471 259.984 330.555 261.429C332.001 263.452 332.759 264.284 333.085 264.464C333.265 264.536 333.482 264.32 333.916 263.705L334.349 263.127C334.602 262.983 335.289 263.272 335.289 263.633C334.674 264.717 334.169 265.729 333.699 266.741C333.193 267.789 332.796 268.692 332.47 269.523C332.181 269.812 331.531 269.523 331.422 269.162L331.639 268.367C331.82 267.825 331.856 267.174 331.639 266.705C331.314 266.018 330.627 264.862 328.857 262.332L326.544 259.044C325.569 257.671 325.027 257.057 323.437 256.298L321.486 255.358V255.178Z" fill="#01499A"/>
<path d="M178.899 106.775C179.802 106.883 181.465 107.028 182.476 107.028C183.741 107.064 183.56 106.269 182.982 105.944C173.479 100.307 168.998 93.7307 169.432 87.3349C169.721 83.324 171.889 80.072 174.346 78.3014C174.021 79.6384 174.093 80.9392 174.527 82.0955C175.25 84.0467 176.695 84.9501 179.405 86.5038C185.512 90.0089 183.994 94.887 181.031 96.6937C180.525 96.9827 180.453 97.4886 181.139 97.4525C183.777 97.1995 186.379 95.6819 188.872 92.6466C190.534 90.6231 192.305 87.1181 191.329 81.9871C189.812 74.3267 183.488 70.0628 178.682 67.2444C177.707 66.6662 176.876 66.1604 176.225 65.7267C175.539 65.3293 174.382 64.9318 174.744 66.2326C176.37 71.1107 173.443 73.062 169.251 75.9888C166.758 77.6871 163.976 79.6022 161.663 82.4568C157.435 87.624 157.941 92.1408 159.134 94.9954C161.663 101.03 169.396 105.655 178.899 106.775ZM189.956 104.318C189.45 104.499 189.414 104.968 189.956 105.077C197.472 105.185 204.446 102.078 208.637 96.5491C212.287 91.7072 213.227 85.8534 211.311 80.0358C208.529 71.6527 201.7 67.4612 195.846 62.6915C189.017 57.0907 184.861 52.7185 183.922 45.6362C183.741 44.516 183.307 44.6244 182.838 45.5639C176.008 59.5478 186.812 65.7629 195.123 77.1451C205.602 91.5626 194.87 102.15 189.956 104.318ZM221.646 121.301L227.644 109.991H142.873L148.872 121.301H221.682H221.646ZM196.496 200.29H266.091C266.416 197.833 266.524 195.737 266.524 194.111V164.011H196.496V200.29ZM218.936 126.432L212.757 138.031H157.761L151.582 126.432H103.957V161.048H173.985C173.66 156.64 170.371 152.882 163.723 152.123V149.341H206.759V152.123C200.11 152.882 196.822 156.604 196.496 161.048H266.488V126.432H218.9H218.936ZM196.496 239.568H250.083C259.839 225.873 264.031 212.612 265.657 203.289H196.533V239.568H196.496ZM174.057 203.289H104.86C106.486 212.648 110.678 225.873 120.434 239.568H174.057V203.289ZM174.057 164.011H103.993V194.111C103.993 195.773 104.102 197.833 104.427 200.29H174.057V164.011ZM206.795 251.456V254.274H163.759V251.456C170.408 250.733 173.66 246.975 174.021 242.567H122.638C134.635 258.141 154.075 274.004 185.259 284.988C216.442 273.968 235.883 258.141 247.879 242.567H196.533C196.858 246.975 200.146 250.733 206.795 251.456Z" fill="#01499A"/>
<path d="M243.76 220.308C241.737 219.26 239.966 218.429 240.002 216.803C240.002 215.105 241.123 214.635 242.351 214.599C244.23 214.635 244.628 215.502 244.7 217.309V217.779H247.735V217.417C247.735 217.417 247.735 217.128 247.735 217.02C247.735 215.321 247.265 213.985 246.326 213.153C245.386 212.286 244.086 211.925 242.496 211.925C239.424 211.925 237.003 213.732 236.967 217.056C236.967 219.911 239.135 221.247 241.087 222.259C243.11 223.307 244.881 224.174 244.844 225.8C244.844 227.715 243.76 228.257 242.062 228.294C240.725 228.257 239.497 227.715 239.46 225.511V225.005V224.644H236.57V224.969C236.57 224.969 236.57 225.294 236.57 225.475C236.57 226.415 236.678 227.752 237.401 228.908C238.16 230.064 239.533 230.931 241.918 230.931H242.062C243.544 230.931 244.989 230.642 246.073 229.811C247.157 228.98 247.88 227.607 247.844 225.692C247.844 222.693 245.676 221.32 243.724 220.308H243.76ZM121.627 214.96H126.252V230.606H129.215V214.96H133.841V212.286H121.627V214.96ZM140.019 212.286L139.947 212.539L134.238 230.606H137.237L138.574 226.415H144.825L146.09 230.606H149.378L143.416 212.322H140.056L140.019 212.286ZM139.333 223.741L141.645 215.863L143.994 223.741H139.333ZM158.123 220.308C156.099 219.26 154.329 218.429 154.365 216.803C154.365 215.105 155.485 214.635 156.713 214.599C158.592 214.635 158.99 215.502 159.062 217.309V217.779H162.097V217.417C162.097 217.417 162.097 217.128 162.097 217.02C162.097 215.321 161.628 214.021 160.688 213.153C159.785 212.286 158.448 211.925 156.858 211.925C153.787 211.925 151.329 213.732 151.329 217.056C151.329 219.911 153.497 221.247 155.449 222.259C157.472 223.307 159.243 224.174 159.207 225.8C159.207 227.715 158.123 228.257 156.424 228.294C155.087 228.294 153.859 227.715 153.823 225.511V224.644H150.932V224.969C150.932 224.969 150.896 225.294 150.896 225.475C150.896 226.415 151.004 227.752 151.763 228.908C152.522 230.064 153.895 230.931 156.28 230.931H156.424C157.906 230.931 159.351 230.642 160.471 229.811C161.555 228.98 162.278 227.607 162.242 225.692C162.242 222.693 160.074 221.32 158.123 220.308ZM207.301 214.96H211.926V230.606H214.889V214.96H219.514V212.286H207.301V214.96ZM225.693 212.286L225.621 212.539L219.912 230.606H222.911L224.248 226.415H230.535L231.8 230.606H235.052L229.09 212.322H225.73L225.693 212.286ZM225.007 223.741L227.319 215.863L229.704 223.741H225.043H225.007ZM218.43 173.081H215.467V191.365H218.43V173.081ZM260.165 190.895C259.84 189.883 259.587 187.101 259.587 186.378C259.587 183.596 258.937 182.331 257.6 181.789C259.081 181.066 259.948 179.585 259.912 177.814C259.912 175.538 258.684 173.081 255.359 173.081H248.928V191.365H251.891V183.271H254.167C254.926 183.307 256.299 183.271 256.48 185.186C256.696 187.498 256.48 189.775 257.202 191.148L257.311 191.328H260.346L260.201 190.859L260.165 190.895ZM254.89 180.597H251.891V175.719H254.926C256.407 175.719 256.913 176.839 256.949 178.031C256.949 179.476 256.263 180.597 254.926 180.597H254.89ZM231.692 190.533C232.884 189.811 233.787 188.402 233.751 186.053C233.787 183.921 232.848 182.331 230.969 181.717C232.595 180.958 233.209 179.44 233.173 177.561C233.173 177.164 233.065 176.08 232.414 175.032C231.728 173.984 230.716 173.045 228.187 173.081H222.116V191.365H228.114C229.126 191.365 230.535 191.256 231.692 190.533ZM225.079 175.719H227.898C229.596 175.719 230.21 176.694 230.246 178.031C230.21 179.621 229.56 180.416 228.006 180.488H225.079V175.719ZM225.079 188.691V183.126H227.103C229.379 183.198 230.716 183.487 230.752 186.053C230.752 187.209 230.066 188.691 227.861 188.691H225.043H225.079ZM141.356 188.691H134.383V183.307H140.706V180.633H134.383V175.682H141.212V173.008H131.456V191.292H141.356V188.618V188.691ZM246.29 188.691H239.316V183.307H245.639V180.669H239.316V175.719H246.145V173.045H236.389V191.328H246.29V188.655V188.691ZM213.191 188.691H206.723V173.045H203.76V191.328H213.155V188.655L213.191 188.691ZM123.253 191.112L128.529 173.081H125.494L121.627 187.607L117.869 173.081H114.689L119.965 191.365H123.181L123.253 191.112ZM160.977 191.365H163.94V173.081H160.977V191.365ZM152.775 185.186C152.992 187.498 152.775 189.775 153.497 191.148L153.606 191.328H156.641L156.497 190.859C156.171 189.847 155.918 187.065 155.918 186.342C155.882 183.56 155.268 182.295 153.931 181.753C155.449 181.03 156.28 179.513 156.28 177.742C156.28 175.466 155.051 173.008 151.727 173.008H145.331V191.292H148.258V183.198H150.534C151.293 183.234 152.666 183.198 152.811 185.113L152.775 185.186ZM148.222 180.597V175.719H151.257C152.739 175.719 153.245 176.839 153.281 178.031C153.281 179.476 152.594 180.597 151.257 180.597H148.258H148.222Z" fill="white"/>
<path d="M95.4312 298.215C95.4312 297.853 95.2144 297.528 94.9254 297.239L92.4321 294.926L92.2514 295.107C92.2514 295.505 92.2514 295.974 91.5649 296.697L79.3516 309.994L82.5314 312.885L95.0699 299.263C95.359 298.974 95.4674 298.612 95.4312 298.215Z" fill="#01499A"/>
<path d="M66.2335 306.453L71.4368 300.78L68.257 297.853L62.8008 303.779C62.0058 304.646 62.0419 306.019 62.9092 306.814L76.5317 319.353L78.23 317.51L66.1974 306.417L66.2335 306.453Z" fill="#01499A"/>
<path d="M83.903 287.122C80.5426 284.015 75.4115 284.123 72.4485 287.339C69.4855 290.555 69.8107 295.686 73.2073 298.757C76.5678 301.865 81.6989 301.756 84.6619 298.541C87.6248 295.325 87.2996 290.194 83.903 287.122ZM74.9056 296.915C73.2796 295.433 73.6048 292.434 75.6283 290.266C77.6518 288.062 80.6148 287.52 82.2047 289.001C83.8308 290.483 83.5056 293.482 81.4821 295.686C79.4585 297.89 76.5317 298.432 74.9056 296.951V296.915Z" fill="#01499A"/>
<path d="M118.011 341.829L120.793 334.675L116.819 333.121L113.892 340.637C113.458 341.721 114 342.986 115.084 343.419L132.356 350.176L133.26 347.828L118.011 341.866V341.829Z" fill="#01499A"/>
<path d="M127.335 325.822C127.263 324.521 127.516 323.256 127.805 322.244L133.876 324.593L134.779 322.281L128.672 319.896L129.142 318.667C129.287 318.27 129.287 317.908 129.142 317.547C128.961 317.222 128.709 316.969 128.311 316.824L125.24 315.632L125.131 315.885C125.312 316.246 125.42 316.68 125.095 317.583L124.77 318.378L118.772 316.029L117.868 318.378L123.83 320.727C123.361 321.666 122.71 322.786 121.771 323.69C119.964 325.424 117.977 326.906 113.243 327.628L113.713 330.338C118.157 330.194 121.482 328.749 123.794 326.906C124.264 329.833 125.709 333.157 128.853 336.264L131.021 334.602C128.058 330.844 127.48 328.387 127.299 325.894L127.335 325.822Z" fill="#01499A"/>
<path d="M142.259 323.585C142.079 323.26 141.826 323.007 141.428 322.862L138.248 321.634L138.14 321.887C138.321 322.248 138.429 322.682 138.068 323.585L135.972 328.897L130.516 326.765L129.612 329.113L135.069 331.245L131.491 340.387L135.502 341.941L142.259 324.669C142.404 324.272 142.404 323.91 142.223 323.549L142.259 323.585Z" fill="#01499A"/>
<path d="M197.51 330.193C197.221 329.94 196.895 329.795 196.462 329.795H193.065V330.048C193.39 330.337 193.643 330.698 193.643 331.674V338.576H191.295V331.204C191.295 330.807 191.15 330.445 190.861 330.193C190.572 329.94 190.247 329.795 189.849 329.795H186.453V330.048C186.778 330.337 187.031 330.698 187.031 331.674V347.212C185.585 347.971 183.237 348.079 182.117 348.079H176.154V333.481H184.682V330.951H171.854V348.476C171.854 349.669 172.83 350.608 173.986 350.608H182.08C183.201 350.608 185.549 350.5 186.995 349.741V358.558H191.295V341.141H193.643V358.558H197.943V331.24C197.943 330.843 197.799 330.482 197.51 330.229V330.193Z" fill="#01499A"/>
<path d="M248.495 324.124L246.147 318.379C246.002 317.981 245.713 317.728 245.352 317.584C244.99 317.475 244.629 317.475 244.268 317.62L241.124 318.921L241.232 319.174C241.63 319.318 242.027 319.571 242.389 320.438L247.773 333.7L251.747 332.074L249.471 326.437L253.952 324.63L253.012 322.317L248.531 324.124H248.495Z" fill="#01499A"/>
<path d="M239.064 321.774L232.994 324.231L232.488 323.003C232.343 322.605 232.054 322.352 231.693 322.208C231.331 322.099 230.97 322.099 230.609 322.208L227.682 323.4L227.79 323.653C228.188 323.798 228.585 324.051 228.946 324.954L229.272 325.749L223.201 328.242L224.141 330.555L226.417 329.651C225.622 331.277 225.478 333.084 226.164 334.71C227.573 338.215 232.199 339.624 236.426 337.926C240.654 336.192 242.967 331.964 241.521 328.459C240.835 326.833 239.498 325.641 237.799 325.026L240.076 324.123L239.136 321.81L239.064 321.774ZM235.414 335.577C233.246 336.445 231.006 335.288 230.103 333.084C229.199 330.88 229.994 328.459 232.162 327.592C234.33 326.725 236.571 327.881 237.474 330.085C238.377 332.289 237.583 334.71 235.414 335.577Z" fill="#01499A"/>
<path d="M250.7 335.255L234.078 342.012L235.018 344.361L249.616 338.435L252.434 345.337L256.445 343.711L253.482 336.448C253.049 335.364 251.784 334.822 250.7 335.255Z" fill="#01499A"/>
<path d="M288.891 289.18L274.221 301.899L275.847 303.814L288.891 292.504L299.153 304.32L302.405 301.502L291.89 289.397C291.131 288.494 289.758 288.421 288.855 289.18H288.891Z" fill="#01499A"/>
<path d="M299.007 308.331L293.298 301.755C293.009 301.466 292.684 301.285 292.286 301.249C291.925 301.249 291.564 301.394 291.239 301.646L288.673 303.887L288.854 304.104C289.251 304.104 289.721 304.212 290.335 304.935L295.755 311.15L292.901 313.643L287.192 307.067C286.903 306.741 286.577 306.597 286.18 306.597C285.818 306.597 285.457 306.705 285.168 306.994L282.566 309.235L282.747 309.451C283.145 309.451 283.614 309.56 284.229 310.282L289.649 316.498L285.421 320.183L287.083 322.098L308.691 303.345L307.065 301.466L299.044 308.404L299.007 308.331Z" fill="#01499A"/>
</svg>
