<svg width="42" height="42" viewBox="0 0 42 42" fill="none" xmlns="http://www.w3.org/2000/svg">
<path d="M5.22028 20.8397C5.22028 21.2254 4.88943 21.5434 4.4823 21.5434C4.07517 21.5434 3.74261 21.2254 3.74261 20.8397C3.74261 20.454 4.07346 20.13 4.4823 20.13C4.89115 20.13 5.22028 20.4463 5.22028 20.8397Z" fill="#58595B"/>
<path d="M38.4026 20.8397C38.4026 21.2254 38.0734 21.5434 37.6637 21.5434C37.254 21.5434 36.9275 21.2254 36.9275 20.8397C36.9275 20.454 37.2583 20.13 37.6637 20.13C38.0691 20.13 38.4026 20.4463 38.4026 20.8397Z" fill="#58595B"/>
<path d="M21.1754 34.2178C13.704 34.2178 7.62361 28.1399 7.62361 20.6683C7.62361 13.1967 13.704 7.11447 21.1754 7.11447C28.6469 7.11447 34.7255 13.1975 34.7255 20.6683C34.7255 28.139 28.6452 34.2178 21.1754 34.2178ZM21.1754 7.4359C13.8822 7.4359 7.94503 13.3741 7.94503 20.6674C7.94503 27.9608 13.8822 33.8964 21.1754 33.8964C28.4686 33.8964 34.4041 27.9608 34.4041 20.6674C34.4041 13.3741 28.4695 7.4359 21.1754 7.4359Z" fill="#58595B"/>
<path d="M3.36205 14.6709C3.66804 14.4892 3.99117 14.4549 4.33058 14.5715C4.66229 14.6889 4.89114 14.9092 5.0197 15.2435C5.14141 15.5546 5.14141 15.8769 5.02742 16.1992C4.91171 16.5343 4.70857 16.7821 4.42401 16.9526C4.12059 17.1343 3.79917 17.1678 3.46576 17.0495C3.12548 16.9338 2.89578 16.7126 2.76721 16.3826C2.64379 16.0706 2.64121 15.7501 2.75607 15.4201C2.87178 15.0926 3.07406 14.8415 3.36205 14.6709ZM3.28319 16.1221C3.35262 16.3072 3.48118 16.4272 3.66204 16.4898C3.8326 16.5498 4.0066 16.5266 4.1763 16.4315C4.3443 16.3355 4.45658 16.1992 4.51743 16.0235C4.57486 15.8563 4.57058 15.6824 4.49944 15.5075C4.42829 15.3215 4.30487 15.1964 4.13688 15.1372C3.95688 15.0789 3.77689 15.0952 3.60461 15.1964C3.43919 15.2881 3.32519 15.4218 3.26776 15.5924C3.20348 15.7689 3.21291 15.9446 3.28405 16.1212L3.28319 16.1221ZM3.65689 13.3964L3.84717 12.8444L6.53508 13.7735L6.34566 14.3238L3.65604 13.3972L3.65689 13.3964ZM5.19798 17.2595L5.39169 16.7058L6.2908 17.016L7.33562 14.0084L7.82332 14.1764L6.69622 17.4095C6.66022 17.5175 6.60365 17.5886 6.53422 17.6229C6.4588 17.6572 6.35594 17.6546 6.22995 17.61L5.19798 17.2586V17.2595Z" fill="#58595B"/>
<path d="M7.17876 9.05673C7.34419 9.04387 7.51475 9.06101 7.68189 9.11501C7.8516 9.16644 8.00502 9.24701 8.1413 9.35844C8.43872 9.60272 8.623 9.89329 8.69071 10.2259C8.76442 10.5979 8.67271 10.9407 8.41129 11.2596C8.15159 11.5801 7.82588 11.7387 7.44533 11.7387C7.10334 11.7387 6.78621 11.6187 6.48707 11.3736C6.35336 11.2638 6.24622 11.1361 6.15708 10.9801C6.07223 10.8258 6.02166 10.6621 5.99852 10.4924L5.70881 10.8516L5.31026 10.5301L5.99509 9.69786L5.67967 9.44244L6.08423 8.95902L6.39365 9.21101L7.07591 8.37702L7.46761 8.70273L7.17876 9.05587V9.05673ZM6.48879 10.3913C6.5565 10.591 6.67821 10.765 6.86249 10.9193C7.04505 11.0684 7.23619 11.1507 7.43933 11.167C7.66903 11.1824 7.85503 11.1044 7.99902 10.9321C8.13702 10.7616 8.17901 10.5644 8.1173 10.3381C8.06588 10.1359 7.94845 9.961 7.76846 9.81615C7.58246 9.66529 7.38361 9.57958 7.17019 9.56758C6.93449 9.54701 6.74592 9.62415 6.60707 9.793C6.46736 9.96872 6.42536 10.1624 6.48964 10.3921L6.48879 10.3913ZM9.30183 8.57245L11.0058 9.96786L10.6312 10.417L7.37419 7.75046L7.7436 7.29961L8.90756 8.24845L9.27783 7.79075L9.67639 8.11474L9.30269 8.57159L9.30183 8.57245Z" fill="#58595B"/>
<path d="M14.5208 6.26762C14.3391 5.9582 14.046 5.78077 13.6628 5.71735L14.5705 5.18335L14.3091 4.74022L14.1222 4.84993L13.2908 3.44081L9.91211 5.43535L10.1761 5.8802L13.0483 4.17537L13.6217 5.14735L12.4517 5.83992L12.0943 5.2305L11.5998 5.52621L11.9529 6.13306L10.6167 6.92076L10.8806 7.36304L11.7386 6.85647C11.6049 7.2199 11.6246 7.55932 11.8115 7.87046C12.0163 8.22531 12.3317 8.43702 12.75 8.49874C13.14 8.56216 13.518 8.48588 13.8831 8.27074C14.2345 8.05731 14.4822 7.77018 14.6125 7.39732C14.7625 6.99704 14.7274 6.61991 14.5199 6.26505L14.5208 6.26762ZM14.034 7.28161C13.9637 7.52161 13.8171 7.70589 13.6123 7.82932C13.3946 7.95789 13.1631 7.99389 12.9171 7.93817C12.6703 7.88503 12.4809 7.7556 12.3617 7.54646C12.2332 7.33304 12.2066 7.10418 12.2803 6.85733C12.3549 6.61733 12.4989 6.43648 12.7106 6.30705C12.9197 6.18534 13.1494 6.14763 13.3937 6.19991C13.6483 6.25391 13.8411 6.38591 13.9645 6.59676C14.0863 6.80505 14.1085 7.03476 14.0323 7.28075L14.034 7.28161Z" fill="#58595B"/>
<path d="M17.363 4.25937C17.6793 4.20108 17.9373 4.05194 18.137 3.81366C18.2878 3.63366 18.3675 3.43567 18.3821 3.22053L19.4981 3.02253L19.6378 3.7888L20.2069 3.68852L19.8606 1.73426L19.2889 1.83883L19.4089 2.51768L18.3075 2.71996C18.2192 2.50225 18.0693 2.33597 17.8533 2.20911C17.5807 2.05911 17.2884 2.01283 16.9713 2.0694C16.6524 2.12426 16.3919 2.26911 16.1905 2.50825C15.9788 2.75853 15.9033 3.04996 15.9599 3.37652C16.0182 3.70052 16.187 3.94566 16.4759 4.10937C16.7484 4.26708 17.0399 4.31594 17.3613 4.25937H17.363ZM16.5402 3.27538C16.5136 3.1091 16.5547 2.96081 16.667 2.82539C16.775 2.69768 16.9079 2.61968 17.0673 2.59396C17.2293 2.56396 17.3836 2.58882 17.525 2.66853C17.6793 2.7551 17.7744 2.88367 17.8027 3.0491C17.831 3.20938 17.7864 3.36024 17.6716 3.49824C17.5636 3.62938 17.4358 3.70909 17.2704 3.73995C17.1084 3.76909 16.9601 3.73995 16.8136 3.65681C16.6627 3.56338 16.5719 3.43824 16.5402 3.27538Z" fill="#58595B"/>
<path d="M20.5266 5.4945L20.2755 4.0708L19.7072 4.1728L19.7758 4.56965L17.2396 5.0265L17.165 4.62879L16.6044 4.73079L16.8522 6.1502C16.8787 6.28391 16.9276 6.37305 16.9919 6.42363C17.0587 6.46648 17.1487 6.47934 17.2644 6.46048L20.2489 5.92478C20.3637 5.90335 20.4426 5.85792 20.4829 5.79706C20.5343 5.72935 20.5532 5.62992 20.5266 5.49535V5.4945ZM17.3964 5.91878L17.3184 5.49792L19.8589 5.0385L19.9343 5.46364L17.3956 5.91878H17.3964Z" fill="#58595B"/>
<path d="M22.4448 4.47193L23.0208 4.57308L22.8494 5.49792L25.9804 6.05934L25.8861 6.55991L22.5271 5.95991C22.4114 5.9402 22.3317 5.89563 22.2888 5.8322C22.2391 5.76106 22.2288 5.66078 22.2511 5.52963L22.4457 4.47193H22.4448ZM25.1576 2.69253L24.2002 2.52111C24.1445 2.86481 24.1616 3.13738 24.2619 3.34138C24.3733 3.58309 24.6073 3.75623 24.9553 3.86166L24.855 4.41708C24.6639 4.38451 24.465 4.29365 24.2473 4.14708C23.9748 3.95766 23.7965 3.74766 23.7133 3.50509C23.5393 3.69966 23.2951 3.8368 22.9771 3.91223C22.7242 3.97737 22.5022 3.9928 22.3137 3.96108L22.4165 3.40652C22.7851 3.42881 23.0611 3.34738 23.2496 3.16224C23.4048 3.0071 23.5196 2.7551 23.5908 2.41225L22.6557 2.24254L22.7482 1.73854L25.2493 2.18597L25.1567 2.69253H25.1576ZM25.8904 3.1091L26.0344 2.32825L26.6087 2.42853L26.0953 5.23135L25.5184 5.1285L25.7953 3.61738L25.1147 3.49652L25.209 2.98824L25.8904 3.10824V3.1091Z" fill="#58595B"/>
<path d="M27.9243 6.89676L30.7871 8.60073L30.5257 9.04387L27.4606 7.22161C27.3569 7.1599 27.2952 7.08876 27.2849 7.01761C27.2601 6.93361 27.2866 6.83333 27.3561 6.71762L27.8686 5.85792L28.3692 6.15791L27.9252 6.89676H27.9243ZM29.5391 6.41676L27.9312 5.46364L28.19 5.02307L31.8122 7.17533L31.5525 7.61503L30.0345 6.71248L29.6154 7.40504L29.1269 7.11104L29.5383 6.41676H29.5391ZM29.3111 3.43824L32.6804 5.44049L32.0976 6.42276C32.0205 6.54448 31.9408 6.61476 31.861 6.63533C31.7848 6.65333 31.6913 6.63533 31.5911 6.57619L28.8149 4.92707C28.7189 4.86536 28.6614 4.80193 28.6426 4.72479C28.622 4.64336 28.6537 4.54308 28.7274 4.41708L29.312 3.43738L29.3111 3.43824ZM31.939 5.58363L29.5366 4.15737L29.2717 4.60308L31.6742 6.03106L31.939 5.58363Z" fill="#58595B"/>
<path d="M36.9609 9.93272L35.9152 10.7796L35.6246 10.4264L36.672 9.57529L36.3318 9.15787L34.1915 10.8936L33.0722 9.50758L34.8189 8.09589L35.6426 9.12273L36.048 8.79616L34.8498 7.31675L32.5545 9.17416C32.4593 9.25387 32.4147 9.33701 32.4207 9.42444C32.4233 9.49129 32.4627 9.57358 32.5407 9.66615L33.7913 11.215L33.0473 11.815L33.3876 12.2341L35.2252 10.7478L35.5106 11.1044L33.6781 12.5898L34.0227 13.021L37.3054 10.3613L36.96 9.93272H36.9609Z" fill="#58595B"/>
<path d="M35.9563 17.94L35.7678 17.3932L36.9197 16.998L35.9092 14.0212L36.3995 13.8541L37.5986 17.3829L35.9563 17.94ZM38.76 15.1578C38.7128 15.2375 38.6588 15.3026 38.5911 15.3626C38.52 15.4269 38.4403 15.4706 38.352 15.4989C38.0674 15.6035 37.7914 15.5735 37.5343 15.4201C37.2866 15.2718 37.1126 15.0566 37.0166 14.7687C36.9189 14.4764 36.9197 14.1944 37.0277 13.9227C37.1314 13.6372 37.3337 13.4435 37.62 13.3467C37.7066 13.3184 37.7966 13.3012 37.8926 13.3064C37.9783 13.3107 38.0726 13.3347 38.1583 13.3741L38.0477 13.0518L38.5191 12.8915L38.8328 13.8275L39.2202 13.699L39.4242 14.2921L39.0368 14.4249L39.3445 15.3086L38.8671 15.4689L38.7591 15.1561L38.76 15.1578ZM38.1908 13.9415C38.0554 13.8678 37.9208 13.8549 37.7889 13.9012C37.6569 13.9458 37.5651 14.0358 37.5017 14.1781C37.4391 14.3187 37.4331 14.4601 37.4794 14.6007C37.5291 14.7395 37.6166 14.8424 37.752 14.9212C37.8883 14.9932 38.022 15.0121 38.1514 14.9692C38.2851 14.9221 38.382 14.8226 38.4437 14.6821C38.502 14.5407 38.5063 14.4027 38.4617 14.2681C38.4103 14.1232 38.3245 14.0144 38.1917 13.9407L38.1908 13.9415ZM38.8148 16.9646L38.0348 17.2312L37.8488 16.6801L39.7619 16.0235L39.9488 16.5738L39.3042 16.7958L39.4902 17.352L39.0068 17.5183L38.8148 16.9646Z" fill="#58595B"/>
<path d="M21.1754 41.17C9.87097 41.17 0.675003 31.9756 0.675003 20.6683C0.675003 9.36101 9.87097 0.169998 21.1754 0.169998C32.4799 0.169998 41.675 9.36444 41.675 20.6683C41.675 31.9721 32.4799 41.1709 21.1754 41.1709V41.17ZM21.1754 0.679991C10.1512 0.679991 1.1867 9.64558 1.1867 20.6683C1.1867 31.691 10.1521 40.6591 21.1754 40.6591C32.1988 40.6591 41.1659 31.691 41.1659 20.6683C41.1659 9.64558 32.197 0.679991 21.1754 0.679991Z" fill="#58595B"/>
<path d="M3.43834 23.5088L5.86225 23.01L5.96254 23.4994L3.53776 23.9982L3.43834 23.5088Z" fill="#58595B"/>
<path d="M3.67319 24.6368L6.03625 23.9048L6.18024 24.3685L4.90229 25.8256L6.47938 25.3362L6.61651 25.7794L4.25174 26.5131L4.10517 26.0331L5.35313 24.6042L3.81033 25.0799L3.67319 24.6359V24.6368Z" fill="#58595B"/>
<path d="M4.52431 27.2339L6.7828 26.2225L6.98679 26.6776L6.09625 27.0753L6.49738 27.9693L7.38449 27.569L7.58934 28.0242L5.33428 29.039L5.13029 28.583L6.11597 28.1408L5.71569 27.2476L4.7283 27.6899L4.52431 27.2331V27.2339Z" fill="#58595B"/>
<path d="M6.83765 31.5856L6.55395 31.1227L6.92079 30.6444L6.40309 29.801L5.81597 29.9219L5.53912 29.471L8.15075 28.9962L8.42845 29.4479L6.83765 31.5856ZM7.19164 30.2913L7.79419 29.5199L6.83765 29.7127L7.19164 30.2904V30.2913Z" fill="#58595B"/>
<path d="M8.11475 33.1438L9.63098 31.7578L9.13814 31.2153L9.44841 30.9324L10.7752 32.3835L10.4641 32.6655L9.97125 32.1264L8.45331 33.5115L8.1156 33.1438H8.11475Z" fill="#58595B"/>
<path d="M9.37642 34.4518L10.9321 32.5327L12.3575 33.6881L12.0943 34.013L11.0555 33.1713L10.7109 33.5981L11.6761 34.3798L11.4129 34.7038L10.4487 33.9212L10.0253 34.4441L11.0975 35.3141L10.8361 35.6389L9.37471 34.451L9.37642 34.4518Z" fill="#58595B"/>
<path d="M13.2386 36.0126L13.584 36.3855C13.3869 36.5843 13.1794 36.6983 12.966 36.7283C12.7517 36.7575 12.5272 36.7069 12.2949 36.5775C12.0103 36.4155 11.8295 36.1849 11.7566 35.8875C11.6821 35.5866 11.7403 35.2669 11.9323 34.9284C12.1329 34.5709 12.3823 34.3447 12.6806 34.2504C12.978 34.1544 13.2763 34.1938 13.5763 34.3627C13.842 34.5118 14.0125 34.7098 14.0897 34.9584C14.1343 35.1058 14.1343 35.2798 14.0871 35.4804L13.596 35.3407C13.6346 35.2138 13.6294 35.0955 13.5857 34.9858C13.5411 34.8752 13.4614 34.7869 13.3457 34.7227C13.1863 34.6327 13.0234 34.6181 12.8614 34.6764C12.6969 34.7347 12.5417 34.8924 12.3977 35.1495C12.2435 35.4238 12.1852 35.6432 12.2177 35.8155C12.2495 35.9852 12.3437 36.1164 12.5015 36.2029C12.6172 36.2681 12.738 36.2869 12.864 36.2604C12.9883 36.2346 13.1117 36.1524 13.2377 36.0135L13.2386 36.0126Z" fill="#58595B"/>
<path d="M13.8908 37.3412L14.7128 35.0098L15.1859 35.1735L14.8619 36.0915L15.7868 36.4172L16.1082 35.4992L16.5796 35.6655L15.7576 37.9995L15.2862 37.8323L15.6453 36.8141L14.724 36.4892L14.364 37.5083L13.8917 37.3429L13.8908 37.3412Z" fill="#58595B"/>
<path d="M16.487 38.1898L16.9396 35.7572L17.4196 35.8455L18.113 37.6558L18.4138 36.0324L18.8724 36.1181L18.4172 38.548L17.9253 38.4563L17.2396 36.6863L16.9422 38.2738L16.487 38.1889V38.1898Z" fill="#58595B"/>
<path d="M19.1115 38.608L19.3309 36.1446L19.8289 36.1901L19.6112 38.6535L19.1124 38.6089L19.1115 38.608Z" fill="#58595B"/>
<path d="M21.8474 37.8049L22.3317 37.96C22.2563 38.23 22.1311 38.4298 21.958 38.5609C21.7866 38.692 21.5671 38.7589 21.3031 38.7546C20.974 38.7546 20.704 38.6423 20.494 38.4178C20.2823 38.1923 20.1769 37.8855 20.1786 37.4963C20.1812 37.0841 20.2857 36.7652 20.5 36.5381C20.7126 36.3092 20.9946 36.1961 21.3409 36.1961C21.6426 36.1978 21.886 36.2869 22.0754 36.4669C22.1903 36.5732 22.2734 36.7266 22.3265 36.9246L21.832 37.0421C21.8046 36.9135 21.7437 36.8123 21.6511 36.7369C21.5577 36.6641 21.4454 36.6263 21.3143 36.6263C21.1317 36.6263 20.9809 36.6915 20.8669 36.8209C20.7512 36.9521 20.6954 37.1663 20.6954 37.462C20.6954 37.7749 20.7477 37.9978 20.8592 38.1298C20.9714 38.2609 21.1206 38.3286 21.298 38.3286C21.4309 38.3303 21.5457 38.2875 21.6426 38.2026C21.7377 38.1203 21.8054 37.9875 21.8474 37.8049Z" fill="#58595B"/>
<path d="M25.1602 38.458L24.6202 38.5112L24.3485 37.9738L23.3628 38.0732L23.2188 38.6517L22.69 38.7049L23.4014 36.1464L23.9259 36.0949L25.1602 38.458ZM24.147 37.5752L23.7168 36.6958L23.4768 37.642L24.147 37.576V37.5752Z" fill="#58595B"/>
<path d="M25.5964 38.3612L25.1944 35.9389L25.6864 35.8601L26.0207 37.8683L27.2455 37.6652L27.3132 38.0749L25.5956 38.3612H25.5964Z" fill="#58595B"/>
<path d="M29.8631 35.6115L30.3611 35.5009C30.4314 35.7718 30.4254 36.0084 30.3431 36.2081C30.2574 36.4078 30.1023 36.5741 29.8717 36.7069C29.5837 36.8723 29.2966 36.9092 29.0026 36.8209C28.7052 36.7309 28.4592 36.5201 28.2646 36.1832C28.0572 35.8275 27.9903 35.4958 28.0598 35.1924C28.13 34.8898 28.3126 34.649 28.6143 34.4758C28.8766 34.3241 29.1346 34.2778 29.3883 34.3395C29.5374 34.3755 29.6874 34.4647 29.8348 34.607L29.4637 34.9567C29.378 34.8598 29.2743 34.8041 29.1543 34.7844C29.0394 34.7681 28.922 34.7921 28.8055 34.8598C28.6486 34.9524 28.5535 35.0835 28.5192 35.2524C28.484 35.4238 28.5415 35.6381 28.6897 35.8926C28.8475 36.1635 29.0086 36.3289 29.1706 36.3872C29.3343 36.4446 29.4971 36.4266 29.6531 36.3384C29.7654 36.2715 29.8434 36.1789 29.8846 36.0555C29.9248 35.9372 29.918 35.7881 29.8623 35.6098L29.8631 35.6115Z" fill="#58595B"/>
<path d="M30.4623 34.8838C30.3088 34.685 30.2085 34.4947 30.1605 34.313C30.1288 34.1792 30.1203 34.0421 30.1331 33.9032C30.1485 33.7652 30.1871 33.6427 30.248 33.533C30.3277 33.3855 30.4485 33.2493 30.6062 33.1258C30.8917 32.9013 31.1942 32.8113 31.5062 32.8541C31.8165 32.8987 32.0976 33.077 32.3453 33.395C32.593 33.7104 32.6976 34.0224 32.6659 34.3352C32.6342 34.6455 32.473 34.9138 32.1893 35.1367C31.8988 35.3629 31.5996 35.4547 31.2911 35.4135C30.9799 35.3707 30.7057 35.1932 30.4623 34.8838ZM30.8591 34.553C31.0305 34.7741 31.2105 34.9018 31.4025 34.9352C31.5936 34.9712 31.7693 34.9249 31.9245 34.8007C32.0839 34.6798 32.167 34.523 32.179 34.331C32.1902 34.1415 32.1096 33.9315 31.9331 33.7078C31.7573 33.4815 31.5782 33.353 31.3948 33.3195C31.2097 33.2878 31.0374 33.3333 30.8754 33.4618C30.7134 33.5878 30.6251 33.7447 30.614 33.9332C30.602 34.1227 30.6834 34.3284 30.8591 34.553Z" fill="#58595B"/>
<path d="M33.5753 33.9084L31.8079 32.207L32.1559 31.8461L33.6207 33.2604L34.4838 32.3647L34.7838 32.6561L33.5753 33.9084Z" fill="#58595B"/>
<path d="M35.1541 32.1976L33.1767 30.7447L33.4741 30.3419L35.1164 31.5478L35.8509 30.5476L36.186 30.7953L35.1532 32.1976H35.1541Z" fill="#58595B"/>
<path d="M36.4989 30.2913L34.3184 29.1299L35.1798 27.5116L35.5484 27.707L34.9201 28.8847L35.4069 29.1427L35.9898 28.0482L36.3566 28.2436L35.7712 29.339L36.3678 29.657L37.014 28.4356L37.3834 28.631L36.498 30.2922L36.4989 30.2913Z" fill="#58595B"/>
<path d="M37.1812 26.5885L36.786 26.4556L37.128 25.4339L38.0614 25.7476C38.1257 25.8788 38.1609 26.0528 38.172 26.2645C38.1814 26.4771 38.154 26.6811 38.0897 26.8713C38.0066 27.1199 37.8849 27.3162 37.7194 27.4636C37.554 27.611 37.362 27.6985 37.1409 27.7259C36.918 27.7542 36.6935 27.7302 36.4698 27.6556C36.2263 27.5725 36.0275 27.4491 35.8706 27.2811C35.7155 27.1148 35.6212 26.9159 35.5835 26.6853C35.5578 26.5088 35.5809 26.3091 35.6547 26.0854C35.7549 25.7948 35.8912 25.5882 36.0669 25.4657C36.2443 25.3422 36.4475 25.2942 36.6815 25.3199L36.612 25.8188C36.4852 25.8136 36.3721 25.8471 36.2726 25.9139C36.1809 25.9834 36.1072 26.0854 36.0609 26.2225C35.9898 26.4291 36.0035 26.6151 36.0918 26.7805C36.1818 26.9476 36.3575 27.0736 36.6129 27.1611C36.8906 27.2545 37.122 27.2622 37.3029 27.1859C37.4846 27.1079 37.6054 26.9691 37.6749 26.7685C37.7074 26.6691 37.7246 26.5628 37.7177 26.4505C37.7109 26.3382 37.6903 26.2345 37.6612 26.1454L37.3629 26.0459L37.1812 26.5894V26.5885Z" fill="#58595B"/>
<path d="M38.5414 25.1588L36.1046 24.7397L36.4149 22.932L36.8272 23.0014L36.6026 24.3171L37.14 24.4114L37.3517 23.1865L37.7631 23.2594L37.5523 24.4842L38.2148 24.5965L38.4514 23.2362L38.8594 23.3048L38.5405 25.1597L38.5414 25.1588Z" fill="#58595B"/>
<path d="M18.0744 13.021C18.0744 13.021 18.1027 9.59929 20.9774 9.51958H23.6105V12.4818H24.9973V13.207H28.2518L29.5271 27.9419L21.1737 30.8441L12.8769 28.0379L14.0768 13.0218H18.0727L18.0744 13.021Z" fill="white"/>
<path d="M24.309 11.9838H25.4387V12.6481H28.7146L30.08 28.4776L21.586 31.1698C21.1343 31.3198 20.6817 31.1673 20.6817 31.1673L12.2212 28.5547L13.5668 12.5881H17.7376C18.1593 8.9933 21.1557 9.01987 21.1557 9.01987H24.3116L24.309 11.9821V11.9838ZM23.3268 9.95243H21.0117C21.0117 9.95243 18.5895 10.1684 18.5724 13.507H14.3631L13.1623 27.9033L21.1514 30.4361L29.1834 27.8596L27.9492 13.5061H24.5079L24.495 12.9284H23.3285V9.95072L23.3268 9.95243Z" fill="#1D388D"/>
<path d="M18.5544 17.3452H14.5088L14.7882 13.9767H18.5544V17.3452Z" fill="#009B55"/>
<path d="M20.944 13.9767H19.4629V17.3452H20.944V13.9767Z" fill="#009B55"/>
<path d="M24.5028 13.9767V14.5355H23.3182V16.7401H24.5028V17.3452H27.7906L27.5035 13.9767H24.5028Z" fill="#009B55"/>
<path d="M20.9329 13.507L20.944 11.3521C20.944 11.3521 19.5358 11.2347 19.4578 13.507H20.9329Z" fill="#1D388D"/>
<path d="M13.6603 27.545L21.1514 29.8996L28.6426 27.545L27.8223 17.7043H24.5079V18.2683H23.3208V19.9792H20.9457V17.7043H19.4629C19.4629 17.7043 19.4501 20.022 16.331 19.9792V19.0774C16.331 19.0774 18.2578 19.2694 18.5535 17.7035H14.4771L13.6594 27.5442L13.6603 27.545Z" fill="#1D388D"/>
<path d="M16.0225 26.3056V22.4314H15.5905V21.8494H16.6927V26.3065H16.0216L16.0225 26.3056Z" fill="white"/>
<path d="M18.023 26.3056L18.9289 24.8734H18.6984C18.3247 24.8734 18.0024 24.7234 17.7375 24.4268C17.4693 24.1345 17.3381 23.7771 17.3381 23.358C17.3381 23.2191 17.3561 23.0794 17.3896 22.9414C17.4273 22.7991 17.4847 22.6637 17.561 22.5377C17.6964 22.2763 17.8738 22.0774 18.0881 21.9428C18.3041 21.8083 18.5552 21.7406 18.8407 21.7406C19.0369 21.7406 19.2246 21.7808 19.4029 21.8588C19.5778 21.9351 19.7363 22.0474 19.8795 22.1991C20.0183 22.3457 20.1229 22.5154 20.1992 22.71C20.2763 22.896 20.3123 23.0854 20.3123 23.2757C20.3123 23.5328 20.2515 23.7985 20.1255 24.0719C20.0483 24.2391 19.9026 24.4954 19.6823 24.8382V24.8502L18.7567 26.3031H18.0247L18.023 26.3056ZM19.4552 22.6808C19.2864 22.5025 19.0832 22.4134 18.8467 22.4134C18.5912 22.4134 18.3847 22.4965 18.2261 22.6637C18.0607 22.8334 17.981 23.0597 17.981 23.3408C17.981 23.622 18.0581 23.8397 18.2141 24.0051C18.3701 24.1765 18.5741 24.2614 18.8278 24.2614C19.0815 24.2614 19.2864 24.1722 19.4552 23.9948C19.6206 23.82 19.7029 23.6142 19.7029 23.376C19.7029 23.0957 19.6206 22.8634 19.4552 22.6808Z" fill="white"/>
<path d="M21.1951 24.8905C21.2243 25.1528 21.316 25.3568 21.4677 25.5034C21.6168 25.6542 21.7994 25.7288 22.018 25.7288C22.2648 25.7288 22.4731 25.6379 22.6402 25.4554C22.8022 25.2728 22.8811 25.0465 22.8811 24.7722C22.8811 24.4979 22.8022 24.2717 22.6402 24.1002C22.4791 23.9348 22.2665 23.8508 22.0025 23.8508C21.8414 23.8508 21.7051 23.8851 21.5928 23.952C21.4746 24.0197 21.3811 24.1225 21.3066 24.2614L20.746 24.1242L21.1497 21.8263H23.1434V22.4665H21.6168L21.4446 23.412C21.5954 23.3288 21.7266 23.2714 21.8303 23.2397C21.9211 23.2157 22.018 23.2037 22.1225 23.2037C22.5185 23.2037 22.8545 23.3562 23.1271 23.6614C23.4014 23.9665 23.5368 24.3385 23.5368 24.7782C23.5368 25.2179 23.3911 25.5985 23.0996 25.9079C22.7997 26.2191 22.4242 26.3768 21.9734 26.3768C21.556 26.3768 21.2191 26.2439 20.9689 25.9791C20.7083 25.7142 20.572 25.3508 20.5523 24.8905H21.1951Z" fill="white"/>
<path d="M24.0262 24.3094C24.1325 24.1234 24.3039 23.9588 24.5473 23.8165C24.4102 23.6725 24.3039 23.5285 24.2413 23.382C24.177 23.2397 24.1453 23.0931 24.1453 22.9422C24.1453 22.6097 24.2559 22.326 24.4753 22.092C24.699 21.8588 24.9707 21.7414 25.2947 21.7414C25.6187 21.7414 25.8947 21.8563 26.1193 22.0868C26.3438 22.32 26.4561 22.6071 26.4561 22.9482C26.4561 23.1068 26.421 23.2534 26.3524 23.388C26.2847 23.5302 26.1784 23.6725 26.0344 23.8165C26.271 23.946 26.4458 24.1054 26.5564 24.2914C26.6584 24.4611 26.7081 24.6677 26.7081 24.9102C26.7081 25.3302 26.5692 25.6799 26.289 25.9611C26.0121 26.2431 25.6744 26.3828 25.2759 26.3828C24.9064 26.3828 24.5825 26.2431 24.3048 25.9611C24.0253 25.6765 23.8839 25.3354 23.8839 24.9394C23.8839 24.6899 23.9311 24.4799 24.0271 24.3094H24.0262ZM24.7196 25.4974C24.8713 25.6525 25.0616 25.7288 25.2887 25.7288C25.5313 25.7288 25.7258 25.6491 25.8741 25.4905C26.0181 25.3405 26.0918 25.1588 26.0918 24.9445C26.0918 24.7105 26.0233 24.5219 25.8861 24.3797C25.7421 24.2297 25.5484 24.1534 25.3076 24.1534C25.0522 24.1534 24.8524 24.2271 24.7085 24.3745C24.5687 24.5134 24.4985 24.6994 24.4985 24.9334C24.4985 25.1674 24.573 25.3448 24.7196 25.4982V25.4974ZM24.9236 23.352C25.0162 23.4591 25.1404 23.5122 25.2973 23.5122C25.4619 23.5122 25.5879 23.4634 25.6813 23.364C25.7704 23.2645 25.8176 23.1257 25.8176 22.9482C25.8176 22.7708 25.7678 22.638 25.6693 22.5317C25.5733 22.4323 25.4533 22.3834 25.3067 22.3834C25.1533 22.3834 25.0316 22.4357 24.9373 22.5385C24.837 22.6414 24.7882 22.7743 24.7882 22.9362C24.7882 23.1102 24.8336 23.25 24.9236 23.352Z" fill="white"/>
</svg>
