<svg width="372" height="372" viewBox="0 0 372 372" fill="none" xmlns="http://www.w3.org/2000/svg">
<path d="M41.217 187.713C41.217 191.206 38.221 194.086 34.5342 194.086C30.8474 194.086 27.8359 191.206 27.8359 187.713C27.8359 184.22 30.8319 181.286 34.5342 181.286C38.2365 181.286 41.217 184.151 41.217 187.713Z" fill="#58595B"/>
<path d="M341.701 187.713C341.701 191.206 338.72 194.086 335.01 194.086C331.3 194.086 328.343 191.206 328.343 187.713C328.343 184.22 331.339 181.286 335.01 181.286C338.681 181.286 341.701 184.151 341.701 187.713Z" fill="#58595B"/>
<path d="M185.698 308.859C118.04 308.859 62.9785 253.82 62.9785 186.16C62.9785 118.501 118.04 63.4231 185.698 63.4231C253.356 63.4231 308.401 118.509 308.401 186.16C308.401 253.812 253.34 308.859 185.698 308.859ZM185.698 66.3338C119.654 66.3338 65.8891 120.107 65.8891 186.153C65.8891 252.198 119.654 305.948 185.698 305.948C251.741 305.948 305.491 252.198 305.491 186.153C305.491 120.107 251.749 66.3338 185.698 66.3338Z" fill="#58595B"/>
<path d="M24.3904 131.857C27.1613 130.211 30.0874 129.901 33.161 130.956C36.1648 132.02 38.2372 134.014 39.4014 137.041C40.5036 139.859 40.5036 142.777 39.4713 145.696C38.4234 148.731 36.5839 150.974 34.0071 152.519C31.2594 154.164 28.3488 154.467 25.3296 153.396C22.2482 152.348 20.1681 150.345 19.0038 147.357C17.8862 144.532 17.8629 141.629 18.9029 138.64C19.9507 135.675 21.7825 133.401 24.3904 131.857ZM23.6763 144.997C24.305 146.674 25.4693 147.761 27.107 148.327C28.6515 148.87 30.2271 148.661 31.764 147.799C33.2852 146.93 34.302 145.696 34.8531 144.105C35.3731 142.591 35.3343 141.016 34.6901 139.432C34.0459 137.748 32.9282 136.615 31.4069 136.079C29.777 135.551 28.147 135.699 26.5869 136.615C25.0889 137.445 24.0566 138.656 23.5366 140.201C22.9545 141.799 23.0399 143.391 23.6841 144.99L23.6763 144.997ZM27.0604 120.315L28.7835 115.316L53.124 123.73L51.4087 128.713L27.0526 120.323L27.0604 120.315ZM41.0158 155.297L42.7699 150.283L50.9119 153.093L60.3733 125.857L64.7897 127.378L54.5832 156.656C54.2572 157.634 53.7449 158.278 53.1162 158.588C52.4332 158.899 51.5018 158.875 50.3608 158.472L41.0158 155.289V155.297Z" fill="#58595B"/>
<path d="M58.9516 81.016C60.4496 80.8996 61.9942 81.0548 63.5077 81.5438C65.0445 82.0095 66.4338 82.7391 67.6679 83.7481C70.3612 85.9603 72.03 88.5915 72.6431 91.6031C73.3106 94.9717 72.4801 98.0764 70.1128 100.964C67.7611 103.867 64.8116 105.303 61.3655 105.303C58.2686 105.303 55.3968 104.216 52.688 101.996C51.4772 101.003 50.507 99.8461 49.6997 98.4335C48.9313 97.0363 48.4734 95.5538 48.2638 94.017L45.6404 97.2692L42.0312 94.3585L48.2328 86.8218L45.3765 84.5088L49.04 80.1311L51.842 82.4131L58.0202 74.8609L61.5673 77.8104L58.9516 81.0082V81.016ZM52.7035 93.1011C53.3167 94.9096 54.4188 96.4853 56.0876 97.8824C57.7408 99.2329 59.4716 99.9781 61.3111 100.126C63.3913 100.265 65.0755 99.5589 66.3795 97.9988C67.6291 96.4542 68.0094 94.669 67.4506 92.6199C66.9849 90.7881 65.9216 89.2047 64.2916 87.8929C62.6073 86.5269 60.8066 85.7507 58.874 85.642C56.7395 85.4557 55.032 86.1543 53.7746 87.6834C52.5095 89.2745 52.1291 91.0287 52.7113 93.1089L52.7035 93.1011ZM78.1772 76.6306L93.6073 89.2668L90.2155 93.334L60.7213 69.187L64.0665 65.1043L74.6068 73.6966L77.9599 69.5518L81.569 72.4858L78.1849 76.6228L78.1772 76.6306Z" fill="#58595B"/>
<path d="M125.44 55.7586C123.795 52.9566 121.14 51.3499 117.671 50.7755L125.891 45.94L123.523 41.9271L121.831 42.9206L114.302 30.1602L83.7061 48.2219L86.0966 52.2503L112.106 36.8121L117.298 45.614L106.704 51.8855L103.467 46.3668L98.9887 49.0447L102.187 54.54L90.0861 61.6731L92.4767 65.6782L100.246 61.091C99.0353 64.382 99.2138 67.4556 100.906 70.2732C102.761 73.4866 105.617 75.4037 109.405 75.9626C112.936 76.5369 116.359 75.8462 119.666 73.8979C122.848 71.9653 125.091 69.365 126.271 65.9887C127.629 62.3639 127.311 58.9487 125.433 55.7353L125.44 55.7586ZM121.032 64.9408C120.395 67.1141 119.068 68.7829 117.213 69.9006C115.242 71.0649 113.146 71.3909 110.918 70.8864C108.683 70.4051 106.968 69.2331 105.889 67.3392C104.725 65.4065 104.484 63.3341 105.151 61.0987C105.827 58.9254 107.131 57.2877 109.048 56.1157C110.942 55.0135 113.022 54.672 115.234 55.1454C117.539 55.6344 119.285 56.8298 120.403 58.7392C121.505 60.6253 121.707 62.7054 121.016 64.9331L121.032 64.9408Z" fill="#58595B"/>
<path d="M151.177 37.5716C154.041 37.0438 156.377 35.6933 158.185 33.5355C159.552 31.9055 160.273 30.1125 160.405 28.1643L170.511 26.3714L171.776 33.3104L176.93 32.4023L173.794 14.7054L168.617 15.6523L169.704 21.7997L159.73 23.6314C158.931 21.66 157.572 20.1542 155.616 19.0054C153.148 17.6471 150.501 17.228 147.63 17.7402C144.742 18.237 142.383 19.5487 140.559 21.7143C138.642 23.9807 137.959 26.6197 138.471 29.577C138.999 32.5109 140.528 34.7308 143.143 36.2133C145.612 37.6415 148.251 38.0839 151.161 37.5716H151.177ZM143.726 28.6611C143.485 27.1553 143.857 25.8125 144.874 24.5862C145.852 23.4296 147.055 22.7233 148.499 22.4905C149.966 22.2188 151.363 22.4439 152.644 23.1657C154.041 23.9497 154.902 25.114 155.158 26.612C155.415 28.0634 155.011 29.4295 153.971 30.6792C152.993 31.8667 151.836 32.5886 150.338 32.868C148.872 33.1319 147.529 32.868 146.201 32.1151C144.835 31.2691 144.013 30.1358 143.726 28.6611Z" fill="#58595B"/>
<path d="M179.825 48.7561L177.551 35.8638L172.405 36.7874L173.026 40.3811L150.059 44.5182L149.384 40.9167L144.308 41.8404L146.551 54.6939C146.791 55.9047 147.234 56.712 147.816 57.1699C148.421 57.558 149.236 57.6744 150.284 57.5037L177.31 52.6525C178.35 52.4585 179.064 52.0471 179.429 51.496C179.895 50.8828 180.065 49.9825 179.825 48.7639V48.7561ZM151.479 52.5982L150.773 48.7872L173.779 44.6268L174.462 48.4767L151.472 52.5982H151.479Z" fill="#58595B"/>
<path d="M197.194 39.4972L202.41 40.4131L200.858 48.7881L229.211 53.8721L228.357 58.405L197.939 52.9717C196.891 52.7932 196.17 52.3896 195.782 51.8152C195.331 51.171 195.238 50.2629 195.44 49.0753L197.202 39.4972H197.194ZM221.76 23.3838L213.09 21.8314C212.586 24.9439 212.741 27.4121 213.649 29.2594C214.658 31.4483 216.777 33.0161 219.928 33.9708L219.02 39.0005C217.289 38.7055 215.488 37.8828 213.517 36.5555C211.049 34.8402 209.434 32.9385 208.681 30.7419C207.106 32.5039 204.894 33.7458 202.014 34.4288C199.724 35.0187 197.714 35.1584 196.007 34.8712L196.938 29.8493C200.276 30.0511 202.775 29.3138 204.482 27.6372C205.887 26.2323 206.927 23.9504 207.571 20.8456L199.104 19.3088L199.942 14.7449L222.59 18.7965L221.752 23.3838H221.76ZM228.396 27.156L229.7 20.085L234.9 20.9931L230.251 46.3742L225.027 45.4428L227.534 31.7587L221.372 30.6643L222.225 26.0616L228.396 27.1482V27.156Z" fill="#58595B"/>
<path d="M246.815 61.4559L272.739 76.8864L270.372 80.8992L242.616 64.3977C241.677 63.8388 241.118 63.1946 241.025 62.5504C240.8 61.7897 241.041 60.8816 241.669 59.8337L246.311 52.0486L250.844 54.7653L246.823 61.4559H246.815ZM261.438 57.1093L246.877 48.4782L249.221 44.4887L282.022 63.9785L279.67 67.9603L265.924 59.7872L262.129 66.0587L257.705 63.3964L261.43 57.1093H261.438ZM259.374 30.1371L289.885 48.2687L284.607 57.1637C283.908 58.2658 283.186 58.9023 282.464 59.0886C281.774 59.2516 280.928 59.0886 280.02 58.553L254.88 43.6193C254.01 43.0605 253.49 42.4861 253.32 41.7876C253.133 41.0502 253.42 40.1421 254.088 39.0011L259.381 30.1293L259.374 30.1371ZM283.171 49.5649L261.415 36.6492L259.017 40.6854L280.772 53.6165L283.171 49.5649Z" fill="#58595B"/>
<path d="M328.647 88.9477L319.177 96.6163L316.546 93.4185L326.031 85.711L322.949 81.931L303.569 97.6486L293.432 85.0978L309.25 72.3141L316.709 81.6128L320.38 78.6555L309.53 65.2587L288.744 82.0785C287.882 82.8003 287.479 83.5532 287.533 84.3449C287.556 84.9503 287.913 85.6955 288.62 86.5338L299.944 100.559L293.207 105.993L296.288 109.788L312.929 96.3291L315.514 99.558L298.919 113.009L302.04 116.913L331.767 92.8286L328.639 88.9477H328.647Z" fill="#58595B"/>
<path d="M319.549 161.457L317.842 156.505L328.273 152.927L319.122 125.97L323.562 124.456L334.421 156.412L319.549 161.457ZM344.938 136.262C344.511 136.984 344.022 137.574 343.409 138.117C342.764 138.699 342.043 139.095 341.243 139.351C338.666 140.298 336.167 140.027 333.839 138.637C331.595 137.294 330.02 135.346 329.151 132.738C328.266 130.091 328.273 127.538 329.251 125.077C330.191 122.493 332.022 120.738 334.615 119.861C335.399 119.605 336.214 119.45 337.083 119.497C337.859 119.535 338.713 119.753 339.489 120.11L338.488 117.191L342.757 115.74L345.597 124.216L349.106 123.051L350.953 128.423L347.445 129.626L350.231 137.628L345.908 139.08L344.93 136.247L344.938 136.262ZM339.784 125.248C338.558 124.581 337.339 124.464 336.144 124.883C334.948 125.287 334.118 126.102 333.544 127.39C332.977 128.663 332.923 129.944 333.342 131.217C333.792 132.474 334.584 133.406 335.81 134.12C337.044 134.772 338.255 134.943 339.427 134.554C340.638 134.128 341.515 133.227 342.074 131.954C342.601 130.674 342.64 129.424 342.237 128.205C341.771 126.894 340.995 125.908 339.792 125.24L339.784 125.248ZM345.434 152.624L338.371 155.038L336.687 150.047L354.011 144.101L355.703 149.085L349.866 151.095L351.551 156.132L347.173 157.638L345.434 152.624Z" fill="#58595B"/>
<path d="M185.699 371.816C83.3312 371.816 0.0566406 288.556 0.0566406 186.162C0.0566406 83.7683 83.3312 0.538574 185.699 0.538574C288.068 0.538574 371.334 83.7994 371.334 186.162C371.334 288.525 288.068 371.824 185.699 371.824V371.816ZM185.699 5.15684C85.8693 5.15684 4.69034 86.3452 4.69034 186.162C4.69034 285.979 85.877 367.19 185.699 367.19C285.522 367.19 366.724 285.979 366.724 186.162C366.724 86.3452 285.506 5.15684 185.699 5.15684Z" fill="#58595B"/>
<path d="M25.0811 211.888L47.031 207.371L47.9391 211.803L25.9814 216.32L25.0811 211.888Z" fill="#58595B"/>
<path d="M27.208 222.099L48.6068 215.471L49.9108 219.67L38.3382 232.865L52.6196 228.433L53.8615 232.446L32.4471 239.09L31.1199 234.743L42.4208 221.804L28.4499 226.112L27.208 222.091V222.099Z" fill="#58595B"/>
<path d="M34.915 245.62L55.3669 236.461L57.2142 240.582L49.1499 244.184L52.7823 252.279L60.8156 248.654L62.6706 252.776L42.2498 261.966L40.4025 257.837L49.3284 253.832L45.7037 245.744L36.7623 249.749L34.915 245.612V245.62Z" fill="#58595B"/>
<path d="M55.8643 285.024L53.2952 280.833L56.6172 276.502L51.9292 268.864L46.6125 269.959L44.1055 265.876L67.7552 261.576L70.2699 265.667L55.8643 285.024ZM59.0699 273.304L64.5263 266.319L55.8643 268.065L59.0699 273.296V273.304Z" fill="#58595B"/>
<path d="M67.4297 299.137L81.16 286.586L76.6971 281.673L79.5068 279.112L91.5218 292.252L88.7043 294.806L84.2414 289.924L70.4955 302.467L67.4374 299.137H67.4297Z" fill="#58595B"/>
<path d="M78.8534 310.981L92.9408 293.602L105.848 304.065L103.466 307.007L94.0585 299.385L90.9383 303.25L99.6779 310.329L97.2951 313.263L88.5632 306.177L84.729 310.911L94.4388 318.789L92.0715 321.731L78.8379 310.973L78.8534 310.981Z" fill="#58595B"/>
<path d="M113.828 325.117L116.956 328.493C115.171 330.294 113.292 331.326 111.36 331.598C109.419 331.862 107.386 331.404 105.282 330.232C102.706 328.765 101.068 326.677 100.408 323.983C99.7329 321.259 100.261 318.364 101.999 315.298C103.815 312.061 106.074 310.012 108.775 309.158C111.468 308.289 114.17 308.646 116.886 310.175C119.292 311.526 120.837 313.319 121.535 315.569C121.939 316.905 121.939 318.48 121.512 320.296L117.065 319.031C117.414 317.883 117.367 316.811 116.971 315.818C116.568 314.817 115.846 314.017 114.798 313.435C113.355 312.62 111.88 312.488 110.413 313.016C108.923 313.544 107.518 314.972 106.214 317.3C104.817 319.784 104.289 321.771 104.584 323.331C104.871 324.868 105.725 326.056 107.153 326.84C108.201 327.43 109.295 327.6 110.436 327.36C111.562 327.127 112.679 326.382 113.82 325.124L113.828 325.117Z" fill="#58595B"/>
<path d="M119.733 337.145L127.177 316.033L131.461 317.516L128.527 325.829L136.902 328.778L139.813 320.465L144.082 321.971L136.638 343.107L132.369 341.593L135.621 332.372L127.278 329.43L124.018 338.659L119.741 337.161L119.733 337.145Z" fill="#58595B"/>
<path d="M143.244 344.83L147.342 322.802L151.689 323.601L157.968 339.994L160.692 325.293L164.845 326.07L160.723 348.074L156.268 347.244L150.059 331.216L147.366 345.591L143.244 344.822V344.83Z" fill="#58595B"/>
<path d="M167.01 348.621L168.997 326.313L173.506 326.725L171.535 349.032L167.018 348.628L167.01 348.621Z" fill="#58595B"/>
<path d="M191.785 341.347L196.17 342.752C195.487 345.197 194.354 347.005 192.786 348.193C191.234 349.38 189.247 349.986 186.856 349.947C183.876 349.947 181.431 348.93 179.529 346.897C177.612 344.855 176.658 342.077 176.673 338.553C176.696 334.819 177.643 331.932 179.584 329.875C181.509 327.803 184.062 326.778 187.198 326.778C189.93 326.794 192.134 327.601 193.85 329.231C194.89 330.193 195.642 331.583 196.124 333.376L191.645 334.439C191.397 333.275 190.846 332.359 190.008 331.676C189.162 331.016 188.145 330.674 186.957 330.674C185.304 330.674 183.938 331.264 182.906 332.436C181.858 333.624 181.353 335.564 181.353 338.242C181.353 341.075 181.827 343.093 182.836 344.289C183.853 345.476 185.203 346.089 186.81 346.089C188.013 346.105 189.053 345.717 189.93 344.948C190.791 344.203 191.405 343 191.785 341.347Z" fill="#58595B"/>
<path d="M221.785 347.261L216.895 347.743L214.435 342.876L205.509 343.776L204.205 349.015L199.416 349.497L205.858 326.328L210.608 325.862L221.785 347.261ZM212.611 339.267L208.714 331.303L206.541 339.872L212.611 339.274V339.267Z" fill="#58595B"/>
<path d="M225.735 346.384L222.095 324.449L226.55 323.735L229.577 341.921L240.668 340.081L241.281 343.792L225.727 346.384H225.735Z" fill="#58595B"/>
<path d="M264.373 321.481L268.882 320.48C269.519 322.933 269.464 325.075 268.719 326.884C267.943 328.692 266.538 330.198 264.45 331.401C261.843 332.899 259.242 333.233 256.58 332.433C253.887 331.618 251.659 329.709 249.897 326.658C248.019 323.437 247.414 320.434 248.042 317.686C248.679 314.946 250.332 312.765 253.064 311.197C255.439 309.823 257.775 309.404 260.073 309.963C261.423 310.289 262.782 311.096 264.117 312.385L260.756 315.551C259.98 314.674 259.041 314.17 257.954 313.991C256.914 313.844 255.851 314.061 254.795 314.674C253.375 315.513 252.513 316.7 252.203 318.229C251.884 319.782 252.404 321.722 253.747 324.027C255.175 326.48 256.634 327.978 258.101 328.506C259.584 329.026 261.059 328.863 262.471 328.063C263.488 327.458 264.194 326.62 264.567 325.502C264.932 324.431 264.87 323.08 264.365 321.466L264.373 321.481Z" fill="#58595B"/>
<path d="M269.797 314.893C268.408 313.092 267.5 311.369 267.065 309.723C266.778 308.513 266.7 307.271 266.817 306.013C266.956 304.764 267.306 303.654 267.857 302.66C268.579 301.325 269.673 300.091 271.101 298.973C273.686 296.94 276.426 296.125 279.251 296.513C282.06 296.916 284.606 298.531 286.849 301.41C289.093 304.267 290.039 307.092 289.752 309.925C289.465 312.735 288.006 315.164 285.437 317.182C282.806 319.232 280.097 320.062 277.303 319.689C274.485 319.301 272.001 317.695 269.797 314.893ZM273.391 311.897C274.943 313.899 276.573 315.056 278.312 315.358C280.042 315.684 281.634 315.265 283.038 314.14C284.482 313.045 285.235 311.625 285.344 309.886C285.445 308.171 284.715 306.269 283.116 304.244C281.525 302.194 279.903 301.03 278.242 300.727C276.565 300.44 275.005 300.852 273.538 302.016C272.071 303.157 271.272 304.577 271.171 306.285C271.062 308 271.8 309.863 273.391 311.897Z" fill="#58595B"/>
<path d="M297.989 306.059L281.984 290.652L285.136 287.384L298.4 300.191L306.216 292.08L308.933 294.719L297.989 306.059Z" fill="#58595B"/>
<path d="M312.284 290.566L294.378 277.41L297.071 273.762L311.942 284.682L318.594 275.624L321.629 277.868L312.276 290.566H312.284Z" fill="#58595B"/>
<path d="M324.463 273.305L304.718 262.788L312.518 248.133L315.856 249.903L310.166 260.568L314.575 262.904L319.853 252.992L323.175 254.762L317.874 264.681L323.276 267.561L329.128 256.501L332.473 258.27L324.456 273.313L324.463 273.305Z" fill="#58595B"/>
<path d="M330.64 239.776L327.062 238.572L330.159 229.32L338.612 232.161C339.194 233.349 339.512 234.924 339.613 236.842C339.698 238.767 339.45 240.614 338.868 242.337C338.115 244.588 337.013 246.365 335.515 247.7C334.017 249.035 332.278 249.827 330.276 250.075C328.258 250.332 326.224 250.114 324.198 249.439C321.994 248.686 320.193 247.568 318.773 246.047C317.368 244.541 316.514 242.741 316.173 240.653C315.94 239.054 316.149 237.245 316.817 235.219C317.725 232.588 318.959 230.718 320.55 229.608C322.157 228.49 323.996 228.055 326.115 228.288L325.487 232.805C324.338 232.759 323.313 233.062 322.413 233.667C321.583 234.296 320.915 235.219 320.496 236.461C319.852 238.332 319.976 240.016 320.775 241.514C321.59 243.028 323.181 244.169 325.494 244.96C328.009 245.806 330.105 245.876 331.743 245.186C333.388 244.479 334.482 243.222 335.111 241.406C335.406 240.505 335.561 239.543 335.499 238.526C335.437 237.509 335.251 236.57 334.987 235.763L332.286 234.862L330.64 239.783V239.776Z" fill="#58595B"/>
<path d="M342.958 226.828L320.892 223.032L323.701 206.663L327.435 207.291L325.401 219.206L330.268 220.059L332.185 208.968L335.91 209.628L334.001 220.719L340.001 221.736L342.143 209.418L345.838 210.039L342.95 226.835L342.958 226.828Z" fill="#58595B"/>
<path d="M157.618 116.911C157.618 116.911 157.874 85.9259 183.907 85.2041H207.751V112.029H220.309V118.595H249.78L261.329 252.028L185.684 278.31L110.552 252.898L121.418 116.919H157.603L157.618 116.911Z" fill="white"/>
<path d="M214.076 107.521H224.305V113.536H253.97L266.335 256.881L189.417 281.261C185.327 282.619 181.228 281.238 181.228 281.238L104.613 257.58L116.799 112.993H154.567C158.386 80.4402 185.521 80.6808 185.521 80.6808H214.099L214.076 107.506V107.521ZM205.181 89.1256H184.217C184.217 89.1256 162.282 91.0816 162.127 121.314H124.01L113.136 251.681L185.482 274.617L258.216 251.285L247.039 121.306H215.876L215.76 116.075H205.196V89.1101L205.181 89.1256Z" fill="#1D388D"/>
<path d="M161.964 156.074H125.329L127.859 125.57H161.964V156.074Z" fill="#009B55"/>
<path d="M183.603 125.57H170.19V156.074H183.603V125.57Z" fill="#009B55"/>
<path d="M215.829 125.57V130.631H205.103V150.594H215.829V156.074H245.603L243.003 125.57H215.829Z" fill="#009B55"/>
<path d="M183.502 121.314L183.603 101.8C183.603 101.8 170.851 100.737 170.145 121.314H183.502Z" fill="#1D388D"/>
<path d="M117.645 248.436L185.482 269.758L253.319 248.436L245.891 159.323H215.877V164.43H205.127V179.923H183.619V159.323H170.192C170.192 159.323 170.075 180.311 141.831 179.923V171.757C141.831 171.757 159.279 173.496 161.957 159.315H125.042L117.638 248.428L117.645 248.436Z" fill="#1D388D"/>
<path d="M139.037 237.213V202.13H135.125V196.86H145.106V237.221H139.029L139.037 237.213Z" fill="white"/>
<path d="M157.152 237.215L165.356 224.245H163.268C159.884 224.245 156.965 222.886 154.567 220.201C152.138 217.554 150.95 214.317 150.95 210.522C150.95 209.264 151.113 207.999 151.416 206.75C151.757 205.461 152.277 204.235 152.968 203.094C154.195 200.726 155.801 198.926 157.742 197.707C159.698 196.488 161.972 195.875 164.556 195.875C166.334 195.875 168.034 196.24 169.648 196.946C171.231 197.637 172.667 198.654 173.963 200.028C175.221 201.355 176.168 202.892 176.859 204.654C177.557 206.338 177.883 208.054 177.883 209.777C177.883 212.105 177.332 214.511 176.191 216.987C175.492 218.501 174.173 220.822 172.178 223.926V224.035L163.796 237.191H157.167L157.152 237.215ZM170.121 204.39C168.592 202.775 166.753 201.968 164.611 201.968C162.298 201.968 160.427 202.721 158.991 204.235C157.493 205.772 156.771 207.821 156.771 210.367C156.771 212.912 157.47 214.884 158.883 216.382C160.295 217.934 162.142 218.703 164.44 218.703C166.737 218.703 168.592 217.895 170.121 216.289C171.619 214.705 172.365 212.843 172.365 210.685C172.365 208.147 171.619 206.043 170.121 204.39Z" fill="white"/>
<path d="M185.879 224.401C186.143 226.776 186.973 228.623 188.347 229.95C189.698 231.316 191.351 231.992 193.33 231.992C195.565 231.992 197.451 231.169 198.965 229.516C200.432 227.862 201.146 225.813 201.146 223.33C201.146 220.846 200.432 218.797 198.965 217.244C197.506 215.746 195.581 214.986 193.19 214.986C191.731 214.986 190.497 215.296 189.48 215.901C188.409 216.515 187.563 217.446 186.888 218.704L181.812 217.462L185.467 196.652H203.521V202.45H189.698L188.137 211.012C189.504 210.259 190.691 209.739 191.63 209.451C192.453 209.234 193.33 209.125 194.277 209.125C197.863 209.125 200.905 210.507 203.374 213.27C205.857 216.033 207.084 219.402 207.084 223.384C207.084 227.366 205.764 230.812 203.125 233.614C200.409 236.431 197.009 237.86 192.926 237.86C189.146 237.86 186.096 236.657 183.83 234.258C181.47 231.86 180.236 228.569 180.058 224.401H185.879Z" fill="white"/>
<path d="M211.515 219.138C212.477 217.454 214.03 215.964 216.234 214.675C214.992 213.371 214.03 212.067 213.463 210.74C212.881 209.451 212.594 208.124 212.594 206.758C212.594 203.747 213.595 201.177 215.582 199.058C217.608 196.947 220.068 195.884 223.002 195.884C225.936 195.884 228.435 196.924 230.469 199.012C232.502 201.123 233.519 203.723 233.519 206.812C233.519 208.248 233.201 209.576 232.58 210.794C231.967 212.083 231.004 213.371 229.701 214.675C231.843 215.847 233.426 217.291 234.427 218.975C235.351 220.512 235.801 222.383 235.801 224.579C235.801 228.382 234.544 231.549 232.006 234.095C229.499 236.649 226.441 237.914 222.831 237.914C219.486 237.914 216.552 236.649 214.038 234.095C211.507 231.518 210.227 228.429 210.227 224.843C210.227 222.584 210.653 220.683 211.523 219.138H211.515ZM217.794 229.896C219.168 231.301 220.891 231.992 222.948 231.992C225.144 231.992 226.906 231.27 228.249 229.834C229.553 228.476 230.221 226.83 230.221 224.89C230.221 222.771 229.6 221.063 228.358 219.775C227.054 218.416 225.3 217.726 223.119 217.726C220.806 217.726 218.997 218.393 217.693 219.728C216.428 220.985 215.792 222.67 215.792 224.789C215.792 226.908 216.467 228.514 217.794 229.904V229.896ZM219.641 210.468C220.48 211.438 221.605 211.92 223.025 211.92C224.516 211.92 225.657 211.477 226.503 210.577C227.31 209.677 227.737 208.419 227.737 206.812C227.737 205.206 227.287 204.003 226.394 203.04C225.525 202.14 224.438 201.697 223.111 201.697C221.722 201.697 220.619 202.171 219.766 203.102C218.858 204.034 218.415 205.237 218.415 206.704C218.415 208.279 218.826 209.545 219.641 210.468Z" fill="white"/>
</svg>
