<svg
xmlns="http://www.w3.org/2000/svg"
width="200"
height="33"
viewBox="0 0 200 33"
fill="none">
<path
d="M35.3225 10.8767C29.3152 10.8767 24.4448 15.7832 24.4448 21.835C24.4448 27.8868 29.3152 32.7933 35.3225 32.7933C41.3299 32.7933 46.2002 27.8868 46.2002 21.835C46.2002 15.7832 41.3299 10.8767 35.3225 10.8767ZM35.3225 28.4168C31.7164 28.4168 28.7976 25.4763 28.7976 21.8435C28.7976 18.2107 31.7164 15.2703 35.3225 15.2703C38.9286 15.2703 41.8475 18.2107 41.8475 21.8435C41.8475 25.4763 38.9286 28.4168 35.3225 28.4168Z"
fill="url(#paint0_linear_64_118)" />
<path
d="M59.8045 10.8767C53.7971 10.8767 48.9268 15.7832 48.9268 21.835C48.9268 27.8868 53.7971 32.7933 59.8045 32.7933C65.8118 32.7933 70.6822 27.8868 70.6822 21.835C70.6822 15.7832 65.8118 10.8767 59.8045 10.8767ZM59.8045 28.4168C56.1984 28.4168 53.2795 25.4763 53.2795 21.8435C53.2795 18.2107 56.1984 15.2703 59.8045 15.2703C63.4106 15.2703 66.3294 18.2107 66.3294 21.8435C66.3294 25.4763 63.4106 28.4168 59.8045 28.4168Z"
fill="url(#paint1_linear_64_118)" />
<path
d="M169.259 10.8767C163.252 10.8767 158.381 15.7832 158.381 21.835C158.381 27.8868 163.252 32.7933 169.259 32.7933C175.267 32.7933 180.137 27.8868 180.137 21.835C180.137 15.7832 175.267 10.8767 169.259 10.8767ZM169.259 28.4168C165.653 28.4168 162.734 25.4763 162.734 21.8435C162.734 18.2107 165.653 15.2703 169.259 15.2703C172.865 15.2703 175.784 18.2107 175.784 21.8435C175.784 25.4763 172.865 28.4168 169.259 28.4168Z"
fill="url(#paint2_linear_64_118)" />
<path
d="M73.9464 21.2885V32.2468H78.2992V21.2885C78.2992 18.2626 80.7344 15.8093 83.7381 15.8093H85.9102V11.4243H83.7381C78.3331 11.4243 73.9464 15.8435 73.9464 21.2885Z"
fill="url(#paint3_linear_64_118)" />
<path
d="M109.845 11.4243C107.248 11.4243 104.915 12.5783 103.32 14.399C101.724 12.5783 99.3911 11.4243 96.7947 11.4243C91.9922 11.4243 88.0891 15.3478 88.0891 20.1944V32.2468H92.4419V20.1944C92.4419 17.7753 94.3934 15.8093 96.7947 15.8093C99.1959 15.8093 101.147 17.7753 101.147 20.1944V32.2468H105.5V20.1944C105.5 17.7753 107.452 15.8093 109.853 15.8093C112.254 15.8093 114.206 17.7753 114.206 20.1944V32.2468H118.559V20.1944C118.559 15.3563 114.664 11.4243 109.853 11.4243H109.845Z"
fill="url(#paint4_linear_64_118)" />
<path
d="M197.648 14.2627C197.52 14.1174 197.385 13.9806 197.249 13.8438C197.172 13.7754 197.096 13.6985 197.02 13.6301C196.884 13.5019 196.74 13.3822 196.587 13.2711C196.502 13.2027 196.417 13.1344 196.324 13.0745C196.18 12.9634 196.027 12.8608 195.866 12.7668C195.772 12.707 195.679 12.6471 195.577 12.5873C195.425 12.4933 195.263 12.4163 195.094 12.3309C194.992 12.2796 194.89 12.2283 194.78 12.177C194.61 12.1001 194.44 12.0402 194.271 11.9719C194.16 11.9291 194.058 11.8864 193.948 11.8522C193.77 11.7923 193.592 11.7496 193.405 11.6983C193.295 11.6727 193.185 11.6385 193.074 11.6128C192.879 11.5701 192.667 11.5445 192.463 11.5103C192.361 11.4932 192.268 11.4761 192.166 11.4675C191.861 11.4334 191.555 11.4163 191.241 11.4163C190.928 11.4163 190.622 11.4334 190.317 11.4675C190.215 11.4761 190.121 11.5017 190.02 11.5103C189.816 11.5359 189.612 11.5701 189.409 11.6128C189.298 11.6385 189.188 11.6727 189.078 11.6983C188.9 11.7411 188.713 11.7923 188.535 11.8522C188.424 11.8864 188.314 11.9291 188.212 11.9719C188.043 12.0317 187.873 12.1001 187.703 12.177C187.601 12.2283 187.5 12.2796 187.389 12.3309C187.228 12.4078 187.067 12.4933 186.906 12.5873C186.804 12.6471 186.71 12.707 186.617 12.7668C186.464 12.8608 186.312 12.9634 186.159 13.0745C186.074 13.1344 185.981 13.2027 185.896 13.2711C185.752 13.3908 185.607 13.5105 185.463 13.6301C185.387 13.6985 185.31 13.7669 185.234 13.8438C185.098 13.9806 184.963 14.1174 184.835 14.2627C183.401 15.8269 182.527 17.904 182.527 20.1948V32.2472H186.88V20.1948C186.88 17.7758 188.832 15.8098 191.233 15.8098C193.634 15.8098 195.586 17.7758 195.586 20.1948V32.2472H199.939V20.1948C199.939 17.904 199.056 15.8184 197.631 14.2627H197.648Z"
fill="url(#paint5_linear_64_118)" />
<path
d="M147.522 9.25345C146.088 9.25345 144.688 9.62099 143.441 10.3134V0.466309H139.088V32.247H143.441V17.7499C143.441 15.4848 145.273 13.6384 147.522 13.6384C149.77 13.6384 151.603 15.4848 151.603 17.7499V32.247H155.956V17.7499C155.956 13.0657 152.172 9.25345 147.522 9.25345Z"
fill="url(#paint6_linear_64_118)" />
<path
d="M130.774 0.466309H126.421V9.78341H121.254V14.1684H126.421V32.247H130.774V14.1684H135.941V9.78341H130.774V0.466309Z"
fill="url(#paint7_linear_64_118)" />
<path
d="M21.7554 13.074C21.7554 7.02217 16.8851 2.11572 10.8777 2.11572C4.87037 2.11572 0.296977 6.72297 0.0169735 12.5184C0.00848858 12.6979 0 12.8859 0 13.0655C0 13.245 3.62554e-06 13.433 0.0169735 13.6125C0.296977 19.254 4.92976 23.7416 10.6062 23.7416C13.1941 23.7416 15.5614 22.8099 17.4026 21.2628V22.9211C17.3602 23.6049 17.1566 25.3743 15.8075 26.7932C13.8814 28.819 10.8947 28.7849 8.94315 28.101C6.89827 27.3916 5.74431 25.8957 5.3031 25.2461L1.25577 26.9385C2.58791 29.4858 4.88733 31.4347 7.66191 32.298C7.93343 32.3835 9.17224 32.7681 10.8777 32.7852C12.0826 32.8023 15.9517 32.8451 18.8875 29.8961C21.5433 27.2292 21.73 23.81 21.7554 22.9211V13.0655V13.074ZM10.8777 19.6472C7.27161 19.6472 4.35279 16.7068 4.35279 13.074C4.35279 9.44119 7.27161 6.50075 10.8777 6.50075C14.4838 6.50075 17.4026 9.44119 17.4026 13.074C17.4026 16.7068 14.4838 19.6472 10.8777 19.6472Z"
fill="url(#paint8_linear_64_118)" />
<defs>
<linearGradient
id="paint0_linear_64_118"
x1="24.4448"
y1="21.835"
x2="46.2002"
y2="21.835"
gradientUnits="userSpaceOnUse">
<stop stop-color="#5E9EFF" />
<stop offset="1" stop-color="#A45BEC" />
</linearGradient>
<linearGradient
id="paint1_linear_64_118"
x1="48.9268"
y1="21.835"
x2="70.6822"
y2="21.835"
gradientUnits="userSpaceOnUse">
<stop stop-color="#5E9EFF" />
<stop offset="1" stop-color="#A45BEC" />
</linearGradient>
<linearGradient
id="paint2_linear_64_118"
x1="158.381"
y1="21.835"
x2="180.137"
y2="21.835"
gradientUnits="userSpaceOnUse">
<stop stop-color="#5E9EFF" />
<stop offset="1" stop-color="#A45BEC" />
</linearGradient>
<linearGradient
id="paint3_linear_64_118"
x1="73.9464"
y1="21.8355"
x2="85.9102"
y2="21.8355"
gradientUnits="userSpaceOnUse">
<stop stop-color="#5E9EFF" />
<stop offset="1" stop-color="#A45BEC" />
</linearGradient>
<linearGradient
id="paint4_linear_64_118"
x1="88.0891"
y1="21.8355"
x2="118.559"
y2="21.8355"
gradientUnits="userSpaceOnUse">
<stop stop-color="#5E9EFF" />
<stop offset="1" stop-color="#A45BEC" />
</linearGradient>
<linearGradient
id="paint5_linear_64_118"
x1="182.527"
y1="21.8318"
x2="199.939"
y2="21.8318"
gradientUnits="userSpaceOnUse">
<stop stop-color="#5E9EFF" />
<stop offset="1" stop-color="#A45BEC" />
</linearGradient>
<linearGradient
id="paint6_linear_64_118"
x1="139.088"
y1="16.3567"
x2="155.956"
y2="16.3567"
gradientUnits="userSpaceOnUse">
<stop stop-color="#5E9EFF" />
<stop offset="1" stop-color="#A45BEC" />
</linearGradient>
<linearGradient
id="paint7_linear_64_118"
x1="121.254"
y1="16.3567"
x2="135.941"
y2="16.3567"
gradientUnits="userSpaceOnUse">
<stop stop-color="#5E9EFF" />
<stop offset="1" stop-color="#A45BEC" />
</linearGradient>
<linearGradient
id="paint8_linear_64_118"
x1="0"
y1="17.452"
x2="21.7554"
y2="17.452"
gradientUnits="userSpaceOnUse">
<stop stop-color="#5E9EFF" />
<stop offset="1" stop-color="#A45BEC" />
</linearGradient>
</defs>
</svg>