<svg
  xmlns="http://www.w3.org/2000/svg"
  width="218"
  height="32"
  viewBox="0 0 218 32"
  fill="none">
  <path
    d="M155.518 8.06055C151.012 8.06055 147.364 11.7361 147.364 16.275C147.364 20.8139 151.012 24.4894 155.518 24.4894C160.023 24.4894 163.672 20.8139 163.672 16.275C163.672 11.7361 160.023 8.06055 155.518 8.06055ZM155.518 21.207C152.811 21.207 150.622 19.0017 150.622 16.275C150.622 13.5482 152.811 11.3429 155.518 11.3429C158.224 11.3429 160.413 13.5482 160.413 16.275C160.413 19.0017 158.224 21.207 155.518 21.207Z"
    fill="url(#paint0_linear_64_100)" />
  <path
    d="M173.874 8.06055C169.368 8.06055 165.719 11.7361 165.719 16.275C165.719 20.8139 169.368 24.4894 173.874 24.4894C178.379 24.4894 182.028 20.8139 182.028 16.275C182.028 11.7361 178.379 8.06055 173.874 8.06055ZM173.874 21.207C171.167 21.207 168.978 19.0017 168.978 16.275C168.978 13.5482 171.167 11.3429 173.874 11.3429C176.58 11.3429 178.769 13.5482 178.769 16.275C178.769 19.0017 176.58 21.207 173.874 21.207Z"
    fill="url(#paint1_linear_64_100)" />
  <path
    d="M191.82 8.47069C187.764 8.47069 184.48 11.7787 184.48 15.8645V24.079H187.747V15.8645C187.747 13.5994 189.571 11.753 191.828 11.753H193.458V8.46216H191.828L191.82 8.47069Z"
    fill="url(#paint2_linear_64_100)" />
  <path
    d="M217.928 15.044C217.928 11.4111 215.009 8.4707 211.403 8.4707C209.451 8.4707 207.703 9.33404 206.507 10.7017C205.31 9.33404 203.563 8.4707 201.611 8.4707C198.005 8.4707 195.086 11.4111 195.086 15.044V24.0876H198.353V15.044C198.353 13.2318 199.812 11.7531 201.62 11.7531C203.427 11.7531 204.886 13.2233 204.886 15.044V24.0876H208.153V15.044C208.153 13.2318 209.612 11.7531 211.42 11.7531C213.227 11.7531 214.686 13.2233 214.686 15.044V24.0876H217.953V15.044H217.928Z"
    fill="url(#paint3_linear_64_100)" />
  <path
    d="M145.321 16.275C145.321 11.7361 141.672 8.06055 137.167 8.06055C132.661 8.06055 129.233 11.5224 129.021 15.8647C129.021 16.0014 129.013 16.1382 129.013 16.275C129.013 16.4117 129.013 16.5485 129.021 16.6853C129.233 20.9164 132.712 24.2843 136.963 24.2843C138.906 24.2843 140.68 23.5833 142.063 22.4208V23.6688C142.029 24.1817 141.884 25.5151 140.866 26.5751C139.424 28.088 137.184 28.0624 135.716 27.5581C134.18 27.0281 133.315 25.8998 132.984 25.4126L129.946 26.6777C130.947 28.5838 132.67 30.0455 134.749 30.6951C134.952 30.7549 135.886 31.0456 137.158 31.0627C138.058 31.0712 140.968 31.1054 143.166 28.8915C145.16 26.8913 145.295 24.327 145.312 23.6603V16.2664L145.321 16.275ZM137.158 21.207C134.452 21.207 132.262 19.0017 132.262 16.275C132.262 13.5482 134.452 11.3429 137.158 11.3429C139.865 11.3429 142.054 13.5482 142.054 16.275C142.054 19.0017 139.865 21.207 137.158 21.207Z"
    fill="url(#paint4_linear_64_100)" />
  <path
    d="M2.84221 24.0706H0.067627V0.606913L2.84221 0V24.0706ZM10.2496 7.03485L12.4217 8.6162L7.08469 15.3519L13.2617 22.8226L11.1235 24.4895L3.83495 15.5057L10.2581 7.03485H10.2496Z"
    fill="url(#paint5_linear_64_100)" />
  <path
    d="M15.7209 19.6089C15.7209 17.925 16.2809 16.6514 17.3924 15.771C18.5039 14.8905 20.1331 14.4461 22.2543 14.4461H25.4531V13.3861C25.4531 10.8132 24.3246 9.53108 22.0761 9.53108C21.3549 9.53108 20.5912 9.63364 19.8021 9.83878C19.0046 10.0439 18.2833 10.2918 17.613 10.5996L16.7985 8.62499C17.6215 8.1634 18.5124 7.79587 19.4628 7.54798C20.4131 7.29155 21.3464 7.17188 22.2458 7.17188C26.1404 7.17188 28.0919 9.26609 28.0919 13.4545V24.0794H26.0471L25.7162 22.2587C24.8931 22.9255 24.0107 23.4469 23.0773 23.8059C22.144 24.1734 21.2531 24.353 20.4131 24.353C18.9452 24.353 17.7997 23.9341 16.9682 23.0964C16.1366 22.2587 15.7124 21.0962 15.7124 19.6175M20.9222 22.0963C21.304 22.0963 21.6943 22.045 22.1101 21.9425C22.5173 21.8399 22.9331 21.7117 23.3404 21.5493C23.7476 21.3869 24.138 21.1903 24.4943 20.9595C24.8592 20.7287 25.1731 20.4808 25.4531 20.2158V16.3266H22.5682C21.1088 16.3266 20.0397 16.583 19.3694 17.0873C18.6991 17.5916 18.3682 18.3951 18.3682 19.4893C18.3682 21.233 19.2167 22.0963 20.9222 22.0963Z"
    fill="url(#paint6_linear_64_100)" />
  <path
    d="M35.8149 24.0706H33.0403V0.606913L35.8149 0V24.0706ZM43.2222 7.03485L45.3944 8.6162L40.0658 15.3519L46.2429 22.8226L44.1047 24.4895L36.8161 15.5057L43.2307 7.03485H43.2222Z"
    fill="url(#paint7_linear_64_100)" />
  <path
    d="M48.6957 19.6089C48.6957 17.925 49.2557 16.6514 50.3672 15.771C51.4872 14.8905 53.1078 14.4461 55.2376 14.4461H58.4279V13.3861C58.4279 10.8132 57.2994 9.53108 55.0509 9.53108C54.3297 9.53108 53.566 9.63364 52.7769 9.83878C51.9794 10.0439 51.2581 10.2918 50.5963 10.5996L49.7818 8.62499C50.6048 8.1634 51.4957 7.79587 52.446 7.54798C53.3964 7.29155 54.3297 7.17188 55.2376 7.17188C59.1322 7.17188 61.0837 9.26609 61.0837 13.4545V24.0794H59.0303L58.6994 22.2587C57.8764 22.9255 57.0024 23.4469 56.0606 23.8059C55.1273 24.1734 54.2364 24.353 53.3964 24.353C51.9285 24.353 50.783 23.9341 49.943 23.0964C49.1114 22.2587 48.6957 21.0962 48.6957 19.6175M53.897 22.0963C54.2788 22.0963 54.6691 22.045 55.0848 21.9425C55.4921 21.8399 55.9079 21.7117 56.3152 21.5493C56.7225 21.3869 57.1128 21.1903 57.4691 20.9595C57.8255 20.7287 58.1479 20.4808 58.4279 20.2158V16.3266H55.5515C54.0921 16.3266 53.023 16.583 52.3527 17.0873C51.6824 17.5916 51.3515 18.3951 51.3515 19.4893C51.3515 21.233 52.2 22.0963 53.9055 22.0963"
    fill="url(#paint8_linear_64_100)" />
  <path
    d="M72.2318 7.18921C74.5228 7.18921 76.3216 7.94142 77.6283 9.43728C78.935 10.9332 79.5883 13.0786 79.5883 15.8738C79.5883 18.6689 78.9434 20.7375 77.6452 22.2163C76.347 23.695 74.5482 24.4301 72.2403 24.4301C69.9324 24.4301 68.1506 23.695 66.8439 22.2163C65.5372 20.7375 64.8839 18.6262 64.8839 15.8738C64.8839 13.1214 65.5372 10.9332 66.8609 9.43728C68.176 7.94142 69.9663 7.18921 72.2403 7.18921M72.2318 9.43728C70.7894 9.43728 69.6779 9.98436 68.9057 11.0785C68.1336 12.1726 67.7433 13.771 67.7433 15.8738C67.7433 17.9765 68.1336 19.5322 68.9057 20.5922C69.6779 21.6521 70.7894 22.1821 72.2318 22.1821C73.6743 22.1821 74.8198 21.6521 75.5919 20.5922C76.364 19.5322 76.7543 17.9594 76.7543 15.8738C76.7543 13.7881 76.364 12.1726 75.5919 11.0785C74.8198 9.98436 73.6997 9.43728 72.2318 9.43728Z"
    fill="url(#paint9_linear_64_100)" />
  <path
    d="M97.3285 7.01388L95.9246 8.42822L111.986 24.6086L113.39 23.1942L97.3285 7.01388Z"
    fill="url(#paint10_linear_64_100)" />
  <path
    d="M111.986 7.02035L95.9246 23.2007L97.3285 24.615L113.39 8.43469L111.986 7.02035Z"
    fill="url(#paint11_linear_64_100)" />
  <defs>
    <linearGradient
      id="paint0_linear_64_100"
      x1="147.364"
      y1="16.275"
      x2="163.672"
      y2="16.275"
      gradientUnits="userSpaceOnUse">
      <stop stop-color="#5E9EFF" />
      <stop offset="1" stop-color="#A45BEC" />
    </linearGradient>
    <linearGradient
      id="paint1_linear_64_100"
      x1="165.719"
      y1="16.275"
      x2="182.028"
      y2="16.275"
      gradientUnits="userSpaceOnUse">
      <stop stop-color="#5E9EFF" />
      <stop offset="1" stop-color="#A45BEC" />
    </linearGradient>
    <linearGradient
      id="paint2_linear_64_100"
      x1="184.48"
      y1="16.2706"
      x2="193.458"
      y2="16.2706"
      gradientUnits="userSpaceOnUse">
      <stop stop-color="#5E9EFF" />
      <stop offset="1" stop-color="#A45BEC" />
    </linearGradient>
    <linearGradient
      id="paint3_linear_64_100"
      x1="195.086"
      y1="16.2791"
      x2="217.953"
      y2="16.2791"
      gradientUnits="userSpaceOnUse">
      <stop stop-color="#5E9EFF" />
      <stop offset="1" stop-color="#A45BEC" />
    </linearGradient>
    <linearGradient
      id="paint4_linear_64_100"
      x1="129.013"
      y1="19.5623"
      x2="145.321"
      y2="19.5623"
      gradientUnits="userSpaceOnUse">
      <stop stop-color="#5E9EFF" />
      <stop offset="1" stop-color="#A45BEC" />
    </linearGradient>
    <linearGradient
      id="paint5_linear_64_100"
      x1="0.067627"
      y1="12.2447"
      x2="13.2617"
      y2="12.2447"
      gradientUnits="userSpaceOnUse">
      <stop stop-color="#5E9EFF" />
      <stop offset="1" stop-color="#A45BEC" />
    </linearGradient>
    <linearGradient
      id="paint6_linear_64_100"
      x1="15.7124"
      y1="15.7624"
      x2="28.0919"
      y2="15.7624"
      gradientUnits="userSpaceOnUse">
      <stop stop-color="#5E9EFF" />
      <stop offset="1" stop-color="#A45BEC" />
    </linearGradient>
    <linearGradient
      id="paint7_linear_64_100"
      x1="33.0403"
      y1="12.2447"
      x2="46.2429"
      y2="12.2447"
      gradientUnits="userSpaceOnUse">
      <stop stop-color="#5E9EFF" />
      <stop offset="1" stop-color="#A45BEC" />
    </linearGradient>
    <linearGradient
      id="paint8_linear_64_100"
      x1="48.6957"
      y1="15.7624"
      x2="61.0837"
      y2="15.7624"
      gradientUnits="userSpaceOnUse">
      <stop stop-color="#5E9EFF" />
      <stop offset="1" stop-color="#A45BEC" />
    </linearGradient>
    <linearGradient
      id="paint9_linear_64_100"
      x1="64.8839"
      y1="15.8097"
      x2="79.5883"
      y2="15.8097"
      gradientUnits="userSpaceOnUse">
      <stop stop-color="#5E9EFF" />
      <stop offset="1" stop-color="#A45BEC" />
    </linearGradient>
    <linearGradient
      id="paint10_linear_64_100"
      x1="103.955"
      y1="16.5184"
      x2="105.37"
      y2="15.1145"
      gradientUnits="userSpaceOnUse">
      <stop stop-color="#5E9EFF" />
      <stop offset="1" stop-color="#A45BEC" />
    </linearGradient>
    <linearGradient
      id="paint11_linear_64_100"
      x1="96.6265"
      y1="23.9079"
      x2="112.806"
      y2="7.84692"
      gradientUnits="userSpaceOnUse">
      <stop stop-color="#5E9EFF" />
      <stop offset="1" stop-color="#A45BEC" />
    </linearGradient>
  </defs>
</svg>