  <svg
    xmlns="http://www.w3.org/2000/svg"
    width="200"
    height="33"
    viewBox="0 0 200 33"
    fill="none">
    <path
      d="M35.3225 10.8769C29.3151 10.8769 24.4448 15.7834 24.4448 21.8352C24.4448 27.8871 29.3151 32.7935 35.3225 32.7935C41.3298 32.7935 46.2002 27.8871 46.2002 21.8352C46.2002 15.7834 41.3298 10.8769 35.3225 10.8769ZM35.3225 28.417C31.7164 28.417 28.7975 25.4766 28.7975 21.8437C28.7975 18.2109 31.7164 15.2705 35.3225 15.2705C38.9286 15.2705 41.8474 18.2109 41.8474 21.8437C41.8474 25.4766 38.9286 28.417 35.3225 28.417Z"
      fill="url(#paint0_linear_64_66)" />
    <path
      d="M59.8044 10.8769C53.7971 10.8769 48.9267 15.7834 48.9267 21.8352C48.9267 27.8871 53.7971 32.7935 59.8044 32.7935C65.8117 32.7935 70.6821 27.8871 70.6821 21.8352C70.6821 15.7834 65.8117 10.8769 59.8044 10.8769ZM59.8044 28.417C56.1983 28.417 53.2795 25.4766 53.2795 21.8437C53.2795 18.2109 56.1983 15.2705 59.8044 15.2705C63.4105 15.2705 66.3293 18.2109 66.3293 21.8437C66.3293 25.4766 63.4105 28.417 59.8044 28.417Z"
      fill="url(#paint1_linear_64_66)" />
    <path
      d="M169.259 10.8769C163.252 10.8769 158.381 15.7834 158.381 21.8352C158.381 27.8871 163.252 32.7935 169.259 32.7935C175.267 32.7935 180.137 27.8871 180.137 21.8352C180.137 15.7834 175.267 10.8769 169.259 10.8769ZM169.259 28.417C165.653 28.417 162.734 25.4766 162.734 21.8437C162.734 18.2109 165.653 15.2705 169.259 15.2705C172.865 15.2705 175.784 18.2109 175.784 21.8437C175.784 25.4766 172.865 28.417 169.259 28.417Z"
      fill="url(#paint2_linear_64_66)" />
    <path
      d="M73.9464 21.2887V32.247H78.2992V21.2887C78.2992 18.2627 80.7344 15.8095 83.7381 15.8095H85.9102V11.4245H83.7381C78.3331 11.4245 73.9464 15.8437 73.9464 21.2887Z"
      fill="url(#paint3_linear_64_66)" />
    <path
      d="M109.845 11.4245C107.248 11.4245 104.915 12.5785 103.32 14.3991C101.724 12.5785 99.3911 11.4245 96.7947 11.4245C91.9922 11.4245 88.0891 15.3479 88.0891 20.1946V32.247H92.4419V20.1946C92.4419 17.7755 94.3934 15.8095 96.7947 15.8095C99.1959 15.8095 101.147 17.7755 101.147 20.1946V32.247H105.5V20.1946C105.5 17.7755 107.452 15.8095 109.853 15.8095C112.254 15.8095 114.206 17.7755 114.206 20.1946V32.247H118.559V20.1946C118.559 15.3565 114.664 11.4245 109.853 11.4245H109.845Z"
      fill="url(#paint4_linear_64_66)" />
    <path
      d="M197.648 14.2627C197.52 14.1174 197.385 13.9806 197.249 13.8438C197.172 13.7754 197.096 13.6985 197.02 13.6301C196.884 13.5019 196.74 13.3822 196.587 13.2711C196.502 13.2027 196.417 13.1344 196.324 13.0745C196.18 12.9634 196.027 12.8608 195.866 12.7668C195.772 12.707 195.679 12.6471 195.577 12.5873C195.425 12.4933 195.263 12.4163 195.094 12.3309C194.992 12.2796 194.89 12.2283 194.78 12.177C194.61 12.1001 194.44 12.0402 194.271 11.9719C194.16 11.9291 194.058 11.8864 193.948 11.8522C193.77 11.7923 193.592 11.7496 193.405 11.6983C193.295 11.6727 193.185 11.6385 193.074 11.6128C192.879 11.5701 192.667 11.5445 192.463 11.5103C192.361 11.4932 192.268 11.4761 192.166 11.4675C191.861 11.4334 191.555 11.4163 191.241 11.4163C190.928 11.4163 190.622 11.4334 190.317 11.4675C190.215 11.4761 190.121 11.5017 190.02 11.5103C189.816 11.5359 189.612 11.5701 189.409 11.6128C189.298 11.6385 189.188 11.6727 189.078 11.6983C188.9 11.7411 188.713 11.7923 188.535 11.8522C188.424 11.8864 188.314 11.9291 188.212 11.9719C188.043 12.0317 187.873 12.1001 187.703 12.177C187.601 12.2283 187.5 12.2796 187.389 12.3309C187.228 12.4078 187.067 12.4933 186.906 12.5873C186.804 12.6471 186.71 12.707 186.617 12.7668C186.464 12.8608 186.312 12.9634 186.159 13.0745C186.074 13.1344 185.981 13.2027 185.896 13.2711C185.752 13.3908 185.607 13.5105 185.463 13.6301C185.387 13.6985 185.31 13.7669 185.234 13.8438C185.098 13.9806 184.963 14.1174 184.835 14.2627C183.401 15.8269 182.527 17.904 182.527 20.1948V32.2472H186.88V20.1948C186.88 17.7758 188.832 15.8098 191.233 15.8098C193.634 15.8098 195.586 17.7758 195.586 20.1948V32.2472H199.939V20.1948C199.939 17.904 199.056 15.8184 197.631 14.2627H197.648Z"
      fill="url(#paint5_linear_64_66)" />
    <path
      d="M147.522 9.25351C146.088 9.25351 144.688 9.62106 143.441 10.3134V0.46637H139.088V32.2471H143.441V17.75C143.441 15.4848 145.273 13.6385 147.522 13.6385C149.77 13.6385 151.603 15.4848 151.603 17.75V32.2471H155.956V17.75C155.956 13.0658 152.172 9.25351 147.522 9.25351Z"
      fill="url(#paint6_linear_64_66)" />
    <path
      d="M130.774 0.46637H126.421V9.78347H121.254V14.1685H126.421V32.2471H130.774V14.1685H135.941V9.78347H130.774V0.46637Z"
      fill="url(#paint7_linear_64_66)" />
    <path
      d="M21.7554 13.0742C21.7554 7.02232 16.8851 2.11588 10.8777 2.11588C4.87037 2.11588 0.296977 6.72312 0.0169735 12.5185C0.00848858 12.698 0 12.8861 0 13.0656C0 13.2451 3.62554e-06 13.4331 0.0169735 13.6126C0.296977 19.2542 4.92976 23.7418 10.6062 23.7418C13.1941 23.7418 15.5614 22.8101 17.4026 21.2629V22.9212C17.3602 23.605 17.1566 25.3744 15.8075 26.7934C13.8814 28.8192 10.8947 28.785 8.94315 28.1012C6.89827 27.3917 5.74431 25.8959 5.3031 25.2462L1.25577 26.9387C2.58791 29.4859 4.88733 31.4348 7.66191 32.2982C7.93343 32.3836 9.17224 32.7683 10.8777 32.7854C12.0826 32.8025 15.9517 32.8452 18.8875 29.8962C21.5433 27.2293 21.73 23.8102 21.7554 22.9212V13.0656V13.0742ZM10.8777 19.6474C7.27161 19.6474 4.35279 16.707 4.35279 13.0742C4.35279 9.44135 7.27161 6.5009 10.8777 6.5009C14.4838 6.5009 17.4026 9.44135 17.4026 13.0742C17.4026 16.707 14.4838 19.6474 10.8777 19.6474Z"
      fill="url(#paint8_linear_64_66)" />
    <defs>
      <linearGradient
        id="paint0_linear_64_66"
        x1="24.4448"
        y1="21.8352"
        x2="46.2002"
        y2="21.8352"
        gradientUnits="userSpaceOnUse">
        <stop stop-color="#FF90B8" />
        <stop offset="1" stop-color="#FFB6D6" />
      </linearGradient>
      <linearGradient
        id="paint1_linear_64_66"
        x1="48.9267"
        y1="21.8352"
        x2="70.6821"
        y2="21.8352"
        gradientUnits="userSpaceOnUse">
        <stop stop-color="#FF90B8" />
        <stop offset="1" stop-color="#FFB6D6" />
      </linearGradient>
      <linearGradient
        id="paint2_linear_64_66"
        x1="158.381"
        y1="21.8352"
        x2="180.137"
        y2="21.8352"
        gradientUnits="userSpaceOnUse">
        <stop stop-color="#FF90B8" />
        <stop offset="1" stop-color="#FFB6D6" />
      </linearGradient>
      <linearGradient
        id="paint3_linear_64_66"
        x1="73.9464"
        y1="21.8357"
        x2="85.9102"
        y2="21.8357"
        gradientUnits="userSpaceOnUse">
        <stop stop-color="#FF90B8" />
        <stop offset="1" stop-color="#FFB6D6" />
      </linearGradient>
      <linearGradient
        id="paint4_linear_64_66"
        x1="88.0891"
        y1="21.8357"
        x2="118.559"
        y2="21.8357"
        gradientUnits="userSpaceOnUse">
        <stop stop-color="#FF90B8" />
        <stop offset="1" stop-color="#FFB6D6" />
      </linearGradient>
      <linearGradient
        id="paint5_linear_64_66"
        x1="182.527"
        y1="21.8318"
        x2="199.939"
        y2="21.8318"
        gradientUnits="userSpaceOnUse">
        <stop stop-color="#FF90B8" />
        <stop offset="1" stop-color="#FFB6D6" />
      </linearGradient>
      <linearGradient
        id="paint6_linear_64_66"
        x1="139.088"
        y1="16.3567"
        x2="155.956"
        y2="16.3567"
        gradientUnits="userSpaceOnUse">
        <stop stop-color="#FF90B8" />
        <stop offset="1" stop-color="#FFB6D6" />
      </linearGradient>
      <linearGradient
        id="paint7_linear_64_66"
        x1="121.254"
        y1="16.3567"
        x2="135.941"
        y2="16.3567"
        gradientUnits="userSpaceOnUse">
        <stop stop-color="#FF90B8" />
        <stop offset="1" stop-color="#FFB6D6" />
      </linearGradient>
      <linearGradient
        id="paint8_linear_64_66"
        x1="0"
        y1="17.4522"
        x2="21.7554"
        y2="17.4522"
        gradientUnits="userSpaceOnUse">
        <stop stop-color="#FF90B8" />
        <stop offset="1" stop-color="#FFB6D6" />
      </linearGradient>
    </defs>
  </svg>