<svg
  xmlns="http://www.w3.org/2000/svg"
  width="96"
  height="33"
  viewBox="0 0 96 33"
  fill="none">
  <path
    d="M79.9294 0.439697H16.6911C7.81579 0.439697 0.620544 7.68823 0.620544 16.6292C0.620544 25.5702 7.81579 32.8188 16.6911 32.8188H79.9294C88.8047 32.8188 95.9999 25.5702 95.9999 16.6292C95.9999 7.68823 88.8047 0.439697 79.9294 0.439697ZM31.6161 18.7747C31.6161 23.4162 28.273 26.7157 23.3857 26.7157C18.4983 26.7157 15.1553 23.6299 15.1553 18.7747V6.86766H18.668V18.5183C18.668 21.2622 20.3396 23.4589 23.3857 23.4589C26.4318 23.4589 28.0948 21.2878 28.0948 18.5354V6.86766H31.6246V18.7747H31.6161ZM52.4127 26.2883H49.3921L38.8877 12.7058V26.2883H35.358V6.86766H38.3871L48.8914 20.4587V6.86766H52.4042V26.2883H52.4127ZM60.0407 26.2883H56.5109V6.86766H60.0407V26.2883ZM73.9221 26.2883H70.7063L62.6286 6.8591H66.3535L72.293 21.6468L72.3524 21.6212L78.2748 6.8591H82.0167L73.9221 26.2883Z"
    fill="url(#paint0_linear_64_65)" />
  <defs>
    <linearGradient
      id="paint0_linear_64_65"
      x1="0.620544"
      y1="16.6292"
      x2="95.9999"
      y2="16.6292"
      gradientUnits="userSpaceOnUse">
      <stop stop-color="#FF90B8" />
      <stop offset="1" stop-color="#FFB6D6" />
    </linearGradient>
  </defs>
</svg>