  <svg
    xmlns="http://www.w3.org/2000/svg"
    width="218"
    height="32"
    viewBox="0 0 218 32"
    fill="none">
    <path
      d="M155.518 8.06061C151.012 8.06061 147.364 11.7362 147.364 16.275C147.364 20.8139 151.012 24.4895 155.518 24.4895C160.023 24.4895 163.672 20.8139 163.672 16.275C163.672 11.7362 160.023 8.06061 155.518 8.06061ZM155.518 21.2071C152.811 21.2071 150.622 19.0018 150.622 16.275C150.622 13.5483 152.811 11.343 155.518 11.343C158.224 11.343 160.413 13.5483 160.413 16.275C160.413 19.0018 158.224 21.2071 155.518 21.2071Z"
      fill="url(#paint0_linear_64_48)" />
    <path
      d="M173.874 8.06061C169.368 8.06061 165.719 11.7362 165.719 16.275C165.719 20.8139 169.368 24.4895 173.874 24.4895C178.379 24.4895 182.028 20.8139 182.028 16.275C182.028 11.7362 178.379 8.06061 173.874 8.06061ZM173.874 21.2071C171.167 21.2071 168.978 19.0018 168.978 16.275C168.978 13.5483 171.167 11.343 173.874 11.343C176.58 11.343 178.769 13.5483 178.769 16.275C178.769 19.0018 176.58 21.2071 173.874 21.2071Z"
      fill="url(#paint1_linear_64_48)" />
    <path
      d="M191.82 8.47069C187.764 8.47069 184.48 11.7787 184.48 15.8645V24.079H187.747V15.8645C187.747 13.5994 189.571 11.753 191.828 11.753H193.458V8.46216H191.828L191.82 8.47069Z"
      fill="url(#paint2_linear_64_48)" />
    <path
      d="M217.928 15.044C217.928 11.4112 215.009 8.47076 211.403 8.47076C209.451 8.47076 207.703 9.33411 206.507 10.7018C205.31 9.33411 203.563 8.47076 201.611 8.47076C198.005 8.47076 195.086 11.4112 195.086 15.044V24.0876H198.353V15.044C198.353 13.2319 199.812 11.7531 201.62 11.7531C203.427 11.7531 204.886 13.2233 204.886 15.044V24.0876H208.153V15.044C208.153 13.2319 209.612 11.7531 211.42 11.7531C213.227 11.7531 214.686 13.2233 214.686 15.044V24.0876H217.953V15.044H217.928Z"
      fill="url(#paint3_linear_64_48)" />
    <path
      d="M145.321 16.275C145.321 11.7361 141.672 8.06058 137.167 8.06058C132.661 8.06058 129.233 11.5224 129.021 15.8647C129.021 16.0015 129.013 16.1382 129.013 16.275C129.013 16.4118 129.013 16.5485 129.021 16.6853C129.233 20.9165 132.712 24.2843 136.963 24.2843C138.906 24.2843 140.68 23.5834 142.063 22.4209V23.6688C142.029 24.1817 141.884 25.5152 140.866 26.5751C139.424 28.0881 137.184 28.0624 135.716 27.5581C134.18 27.0281 133.315 25.8998 132.984 25.4126L129.946 26.6777C130.947 28.5838 132.67 30.0455 134.749 30.6951C134.952 30.755 135.886 31.0456 137.158 31.0627C138.058 31.0712 140.968 31.1054 143.166 28.8916C145.16 26.8914 145.295 24.327 145.312 23.6603V16.2664L145.321 16.275ZM137.158 21.2071C134.452 21.2071 132.262 19.0017 132.262 16.275C132.262 13.5483 134.452 11.3429 137.158 11.3429C139.865 11.3429 142.054 13.5483 142.054 16.275C142.054 19.0017 139.865 21.2071 137.158 21.2071Z"
      fill="url(#paint4_linear_64_48)" />
    <path
      d="M2.84221 24.0706H0.067627V0.606913L2.84221 0V24.0706ZM10.2496 7.03485L12.4217 8.6162L7.08469 15.3519L13.2617 22.8226L11.1235 24.4895L3.83495 15.5057L10.2581 7.03485H10.2496Z"
      fill="url(#paint5_linear_64_48)" />
    <path
      d="M15.7208 19.6088C15.7208 17.9249 16.2808 16.6513 17.3924 15.7709C18.5039 14.8904 20.133 14.446 22.2542 14.446H25.4531V13.386C25.4531 10.8131 24.3246 9.53098 22.0761 9.53098C21.3548 9.53098 20.5912 9.63355 19.8021 9.83869C19.0045 10.0438 18.2833 10.2917 17.613 10.5995L16.7984 8.62489C17.6215 8.16331 18.5124 7.79577 19.4627 7.54789C20.413 7.29145 21.3463 7.17178 22.2458 7.17178C26.1403 7.17178 28.0919 9.266 28.0919 13.4544V24.0793H26.047L25.7161 22.2586C24.8931 22.9254 24.0106 23.4468 23.0773 23.8058C22.1439 24.1734 21.253 24.3529 20.413 24.3529C18.9451 24.3529 17.7996 23.934 16.9681 23.0963C16.1366 22.2587 15.7123 21.0961 15.7123 19.6174M20.9221 22.0962C21.3039 22.0962 21.6942 22.045 22.11 21.9424C22.5173 21.8398 22.933 21.7116 23.3403 21.5492C23.7476 21.3868 24.1379 21.1902 24.4943 20.9594C24.8591 20.7286 25.1731 20.4807 25.4531 20.2157V16.3265H22.5682C21.1088 16.3265 20.0397 16.5829 19.3694 17.0872C18.699 17.5916 18.3681 18.395 18.3681 19.4892C18.3681 21.2329 19.2166 22.0962 20.9221 22.0962Z"
      fill="url(#paint6_linear_64_48)" />
    <path
      d="M35.8149 24.0706H33.0403V0.606913L35.8149 0V24.0706ZM43.2223 7.03485L45.3945 8.6162L40.0659 15.3519L46.243 22.8226L44.1047 24.4895L36.8162 15.5057L43.2308 7.03485H43.2223Z"
      fill="url(#paint7_linear_64_48)" />
    <path
      d="M48.6957 19.6088C48.6957 17.9249 49.2557 16.6513 50.3672 15.7709C51.4872 14.8904 53.1078 14.446 55.2376 14.446H58.4279V13.386C58.4279 10.8131 57.2994 9.53098 55.0509 9.53098C54.3297 9.53098 53.566 9.63355 52.7769 9.83869C51.9794 10.0438 51.2581 10.2917 50.5963 10.5995L49.7818 8.62489C50.6048 8.16331 51.4957 7.79577 52.446 7.54789C53.3964 7.29145 54.3297 7.17178 55.2376 7.17178C59.1322 7.17178 61.0837 9.266 61.0837 13.4544V24.0793H59.0303L58.6994 22.2586C57.8764 22.9254 57.0024 23.4468 56.0606 23.8058C55.1273 24.1734 54.2364 24.3529 53.3964 24.3529C51.9285 24.3529 50.783 23.934 49.943 23.0963C49.1114 22.2587 48.6957 21.0961 48.6957 19.6174M53.897 22.0962C54.2788 22.0962 54.6691 22.045 55.0848 21.9424C55.4921 21.8398 55.9079 21.7116 56.3152 21.5492C56.7225 21.3868 57.1128 21.1902 57.4691 20.9594C57.8255 20.7286 58.1479 20.4807 58.4279 20.2157V16.3265H55.5515C54.0921 16.3265 53.023 16.5829 52.3527 17.0872C51.6824 17.5916 51.3515 18.395 51.3515 19.4892C51.3515 21.2329 52.2 22.0962 53.9055 22.0962"
      fill="url(#paint8_linear_64_48)" />
    <path
      d="M72.2318 7.18918C74.5228 7.18918 76.3216 7.94139 77.6283 9.43725C78.935 10.9331 79.5883 13.0786 79.5883 15.8737C79.5883 18.6689 78.9434 20.7375 77.6452 22.2162C76.347 23.695 74.5482 24.4301 72.2403 24.4301C69.9324 24.4301 68.1506 23.695 66.8439 22.2162C65.5372 20.7375 64.8839 18.6261 64.8839 15.8737C64.8839 13.1214 65.5372 10.9331 66.8609 9.43725C68.176 7.94139 69.9663 7.18918 72.2403 7.18918M72.2318 9.43725C70.7894 9.43725 69.6779 9.98433 68.9057 11.0784C68.1336 12.1726 67.7433 13.771 67.7433 15.8737C67.7433 17.9765 68.1336 19.5322 68.9057 20.5921C69.6779 21.6521 70.7894 22.182 72.2318 22.182C73.6743 22.182 74.8198 21.6521 75.5919 20.5921C76.364 19.5322 76.7543 17.9594 76.7543 15.8737C76.7543 13.7881 76.364 12.1726 75.5919 11.0784C74.8198 9.98433 73.6997 9.43725 72.2318 9.43725Z"
      fill="url(#paint9_linear_64_48)" />
    <path
      d="M97.3285 7.01376L95.9246 8.4281L111.986 24.6084L113.39 23.1941L97.3285 7.01376Z"
      fill="url(#paint10_linear_64_48)" />
    <path
      d="M111.986 7.02016L95.9246 23.2005L97.3285 24.6148L113.39 8.4345L111.986 7.02016Z"
      fill="url(#paint11_linear_64_48)" />
    <defs>
      <linearGradient
        id="paint0_linear_64_48"
        x1="147.364"
        y1="16.275"
        x2="163.672"
        y2="16.275"
        gradientUnits="userSpaceOnUse">
        <stop stop-color="#FF90B8" />
        <stop offset="1" stop-color="#FFB6D6" />
      </linearGradient>
      <linearGradient
        id="paint1_linear_64_48"
        x1="165.719"
        y1="16.275"
        x2="182.028"
        y2="16.275"
        gradientUnits="userSpaceOnUse">
        <stop stop-color="#FF90B8" />
        <stop offset="1" stop-color="#FFB6D6" />
      </linearGradient>
      <linearGradient
        id="paint2_linear_64_48"
        x1="184.48"
        y1="16.2706"
        x2="193.458"
        y2="16.2706"
        gradientUnits="userSpaceOnUse">
        <stop stop-color="#FF90B8" />
        <stop offset="1" stop-color="#FFB6D6" />
      </linearGradient>
      <linearGradient
        id="paint3_linear_64_48"
        x1="195.086"
        y1="16.2792"
        x2="217.953"
        y2="16.2792"
        gradientUnits="userSpaceOnUse">
        <stop stop-color="#FF90B8" />
        <stop offset="1" stop-color="#FFB6D6" />
      </linearGradient>
      <linearGradient
        id="paint4_linear_64_48"
        x1="129.013"
        y1="19.5623"
        x2="145.321"
        y2="19.5623"
        gradientUnits="userSpaceOnUse">
        <stop stop-color="#FF90B8" />
        <stop offset="1" stop-color="#FFB6D6" />
      </linearGradient>
      <linearGradient
        id="paint5_linear_64_48"
        x1="0.067627"
        y1="12.2447"
        x2="13.2617"
        y2="12.2447"
        gradientUnits="userSpaceOnUse">
        <stop stop-color="#FF90B8" />
        <stop offset="1" stop-color="#FFB6D6" />
      </linearGradient>
      <linearGradient
        id="paint6_linear_64_48"
        x1="15.7123"
        y1="15.7623"
        x2="28.0919"
        y2="15.7623"
        gradientUnits="userSpaceOnUse">
        <stop stop-color="#FF90B8" />
        <stop offset="1" stop-color="#FFB6D6" />
      </linearGradient>
      <linearGradient
        id="paint7_linear_64_48"
        x1="33.0403"
        y1="12.2447"
        x2="46.243"
        y2="12.2447"
        gradientUnits="userSpaceOnUse">
        <stop stop-color="#FF90B8" />
        <stop offset="1" stop-color="#FFB6D6" />
      </linearGradient>
      <linearGradient
        id="paint8_linear_64_48"
        x1="48.6957"
        y1="15.7623"
        x2="61.0837"
        y2="15.7623"
        gradientUnits="userSpaceOnUse">
        <stop stop-color="#FF90B8" />
        <stop offset="1" stop-color="#FFB6D6" />
      </linearGradient>
      <linearGradient
        id="paint9_linear_64_48"
        x1="64.8839"
        y1="15.8096"
        x2="79.5883"
        y2="15.8096"
        gradientUnits="userSpaceOnUse">
        <stop stop-color="#FF90B8" />
        <stop offset="1" stop-color="#FFB6D6" />
      </linearGradient>
      <linearGradient
        id="paint10_linear_64_48"
        x1="103.955"
        y1="16.5183"
        x2="105.37"
        y2="15.1144"
        gradientUnits="userSpaceOnUse">
        <stop stop-color="#FF90B8" />
        <stop offset="1" stop-color="#FFB6D6" />
      </linearGradient>
      <linearGradient
        id="paint11_linear_64_48"
        x1="96.6265"
        y1="23.9077"
        x2="112.806"
        y2="7.84673"
        gradientUnits="userSpaceOnUse">
        <stop stop-color="#FF90B8" />
        <stop offset="1" stop-color="#FFB6D6" />
      </linearGradient>
    </defs>
  </svg>