<svg
                xmlns="http://www.w3.org/2000/svg"
                width="100"
                height="80"
                viewBox="0 0 100 80"
                fill="none">
                <g filter="url(#filter0_d_42_847)">
                  <path
                    d="M69.9033 38.1974C69.2256 38.0479 67.8835 38.2004 67.1906 38.1974C65.7977 38.1974 64.418 38.4831 63.1364 39.0331C61.9801 39.5295 60.9226 40.2294 60.0173 41.1023C59.8559 41.258 59.5983 41.2611 59.4401 41.102C59.2868 40.948 59.2844 40.699 59.4407 40.5479C60.426 39.5954 61.5771 38.8307 62.837 38.295C64.2167 37.7063 65.7027 37.4033 67.2007 37.4033C67.8592 37.4124 68.5157 37.4765 69.1621 37.6005C69.1469 36.8644 69.0801 36.1293 68.9638 35.4023C68.9638 35.385 68.9638 35.3677 68.9527 35.3484C68.4682 32.3622 67.1421 29.5772 65.1332 27.3241L65.114 27.3027L64.9825 27.1553C63.54 25.5427 62.0535 24.0732 60.0831 23.1906C58.1136 22.3081 55.9437 21.6123 53.7861 21.6082C46.3888 21.6082 39.6954 26.9657 38.0506 34.0414L37.6688 34.1167C34.4562 34.1818 31.7812 35.7551 29.5397 38.0662C28.9934 38.6244 28.5018 39.2345 28.0689 39.8862C26.7256 41.8984 26.0084 44.2664 26.0084 46.6873C26.0084 48.5379 26.4221 50.364 27.2202 52.0304C27.4792 52.5673 27.7735 53.0838 28.1073 53.578C29.2099 55.1814 30.6695 56.5012 32.375 57.4315C34.1745 58.4594 36.2076 59.0044 38.2782 59.0197H67.752L67.9543 59.0065H68.0423L68.2365 58.9892C73.5501 58.4615 77.7095 54.0314 77.7095 48.6426C77.6923 43.5832 75.4699 39.2518 70.653 38.295L69.9033 38.1974Z"
                    fill="white" />
                  <path
                    d="M53.5301 21C46.0337 21 39.5508 26.0421 37.5096 33.3547C34.2181 33.5428 31.1147 34.9663 28.8155 37.3424C28.2258 37.9464 27.6937 38.6042 27.2264 39.3078C25.7749 41.4847 25 44.0449 25 46.6651C24.996 48.6672 25.4431 50.6427 26.311 52.4434C26.5891 53.023 26.9098 53.5832 27.2689 54.116C28.4534 55.8536 30.0334 57.2822 31.8764 58.2837C33.8225 59.3981 36.0226 59.9888 38.2641 60H67.7986L68.0141 59.9848H68.0889L68.3236 59.9654C74.2289 59.3788 78.6836 54.5034 78.6836 48.6245C78.6836 43.4522 75.1312 38.9296 70.1403 37.6119V37.5814C70.1403 37.1188 70.1019 36.6531 70.0543 36.1874L69.9319 35.2377V35.192C69.4171 32.0156 68.007 29.0507 65.8697 26.6552L65.8504 26.6339L65.8292 26.6095L65.7108 26.4773C64.1713 24.7681 62.2919 23.4006 60.197 22.4611C58.1022 21.5216 55.8353 21.0325 53.5402 21.0244L53.5291 21.001L53.5301 21ZM53.5361 22.0198C55.6937 22.0219 57.827 22.4804 59.7975 23.366C61.7669 24.2516 63.533 25.5388 64.9755 27.1504L65.107 27.2978L65.1262 27.3192C67.1351 29.5723 68.4612 32.3573 68.9457 35.3435C68.9457 35.3628 68.9457 35.3801 68.9568 35.3974C69.0731 36.1244 69.1399 36.8605 69.1551 37.5956C68.5087 37.4726 67.8522 37.4075 67.1937 37.3984C65.6957 37.4004 64.2138 37.7054 62.8361 38.2941C61.5783 38.8316 60.4275 39.5963 59.4439 40.547C59.2876 40.6981 59.2901 40.9471 59.4435 41.101C59.6016 41.2596 59.8588 41.2566 60.02 41.1011C60.9261 40.2276 61.9838 39.5259 63.1396 39.0313C64.4222 38.4812 65.8009 38.1986 67.1937 38.1955C67.8866 38.1975 68.5785 38.2758 69.2562 38.4253C74.0721 39.3821 77.6984 43.5823 77.6984 48.6173C77.6984 54.0062 73.5471 58.4352 68.2255 58.9629L68.0313 58.9802H67.9433L67.741 58.9934H38.2672C36.1966 58.9782 34.1634 58.4332 32.3639 57.4052C30.6585 56.4749 29.1968 55.1551 28.0963 53.5517C27.7625 53.0586 27.4671 52.541 27.2092 52.0042C26.4101 50.3377 25.9944 48.5116 25.9974 46.6611C25.9974 44.2392 26.7146 41.8721 28.0579 39.8599C28.4888 39.2082 28.9814 38.5981 29.5286 38.0399C31.7702 35.7288 34.827 34.3979 38.0396 34.3328H38.2894C39.9342 27.2582 46.1348 21.9985 53.5321 21.9985L53.5382 22.0178L53.5361 22.0198Z"
                    fill="white" />
                  <path
                    d="M51.4332 32.2271C51.4332 33.5255 50.8779 34.584 50.1911 34.584C49.5042 34.584 48.9489 33.5306 48.9489 32.2271C48.9489 30.9236 49.5063 29.8682 50.1911 29.8682C50.8759 29.8682 51.4332 30.9246 51.4332 32.2271Z"
                    fill="#3E404C" />
                  <path
                    d="M53.7677 34.586C54.4546 34.586 55.0099 33.5296 55.0099 32.2271C55.0099 30.9246 54.4546 29.8682 53.7677 29.8682C53.0809 29.8682 52.5256 30.9246 52.5256 32.2271C52.5256 33.5296 53.0809 34.586 53.7677 34.586Z"
                    fill="#3E404C" />
                  <path
                    d="M51.9511 37.6627C52.0502 37.6688 52.1493 37.6688 52.2485 37.6627C52.7289 37.6454 53.2003 37.5224 53.6282 37.2987C54.0571 37.076 54.4293 36.7618 54.7216 36.3785C54.8471 36.226 54.8257 35.9991 54.674 35.8728C54.5214 35.7458 54.2936 35.767 54.1683 35.921C53.9397 36.2239 53.6474 36.4731 53.3136 36.6479C52.9778 36.8259 52.6096 36.9225 52.2303 36.9377C51.8165 36.9357 51.4079 36.8421 51.0336 36.6673C50.6594 36.4914 50.3256 36.2361 50.0585 35.9189C49.927 35.771 49.6992 35.7596 49.5524 35.8923C49.4056 36.0251 49.395 36.2548 49.5275 36.4019C50.1415 37.1228 51.0104 37.5722 51.9521 37.6617"
                    fill="#3E404C" />
                </g>
                <defs>
                  <filter
                    id="filter0_d_42_847"
                    x="0"
                    y="0"
                    width="103.684"
                    height="89"
                    filterUnits="userSpaceOnUse"
                    color-interpolation-filters="sRGB">
                    <feFlood flood-opacity="0" result="BackgroundImageFix" />
                    <feColorMatrix
                      in="SourceAlpha"
                      type="matrix"
                      values="0 0 0 0 0 0 0 0 0 0 0 0 0 0 0 0 0 0 127 0"
                      result="hardAlpha" />
                    <feOffset dy="4" />
                    <feGaussianBlur stdDeviation="12.5" />
                    <feComposite in2="hardAlpha" operator="out" />
                    <feColorMatrix
                      type="matrix"
                      values="0 0 0 0 0.805161 0 0 0 0 0.809032 0 0 0 0 0.84 0 0 0 1 0" />
                    <feBlend
                      mode="normal"
                      in2="BackgroundImageFix"
                      result="effect1_dropShadow_42_847" />
                    <feBlend
                      mode="normal"
                      in="SourceGraphic"
                      in2="effect1_dropShadow_42_847"
                      result="shape" />
                  </filter>
                </defs>
              </svg>