<svg xmlns="http://www.w3.org/2000/svg" width="105" height="105" viewBox="0 0 105 105" fill="none">
  <path fill-rule="evenodd" clip-rule="evenodd" d="M33.0188 83.8762C37.4158 84.912 41.8161 84.1949 45.4862 82.1786C47.8342 86.1285 51.721 89.1567 56.5469 90.2936C65.9795 92.5157 75.4276 86.6705 77.6498 77.2378C78.3668 74.194 78.2438 71.1486 77.4313 68.3448C83.9562 68.0245 90.0405 64.0571 92.7499 57.6356C96.5171 48.707 92.3329 38.415 83.4043 34.6477C80.7132 33.5123 77.8982 33.0992 75.1754 33.3206C75.6834 27.8784 73.6489 22.2793 69.2061 18.4233C61.8875 12.0711 50.8051 12.8546 44.4529 20.1733C43.3736 21.4168 42.5003 22.7689 41.8301 24.1881C40.1814 23.5183 38.4019 23.09 36.5319 22.9498C26.8681 22.2256 18.447 29.4724 17.7228 39.1362C17.2616 45.2899 20.0326 50.9397 24.6017 54.4191C22.3841 56.6438 20.7362 59.4914 19.963 62.7733C17.7409 72.206 23.5862 81.654 33.0188 83.8762Z" fill="#96BFFC"/>
  <path d="M60.2985 52.8756C60.2512 52.7069 60.2191 52.534 60.2075 52.3552C60.1061 50.9333 61.1772 49.7006 62.5991 49.5991L68.3369 49.1957C69.7588 49.0943 70.993 50.1705 71.093 51.5873C71.1944 53.0092 70.1233 54.2419 68.7014 54.3434L62.9636 54.7468C61.7205 54.8367 60.6215 54.0258 60.2971 52.8705L60.2985 52.8756Z" fill="#3986FA"/>
  <path d="M39.1304 54.3631C39.083 54.1944 39.051 54.0214 39.0394 53.8427C38.938 52.4208 40.0091 51.188 41.431 51.0866L47.1688 50.6832C48.5907 50.5817 49.8249 51.6581 49.9249 53.0749C50.0264 54.4968 48.9552 55.7294 47.5333 55.8308L41.7955 56.2343C40.5524 56.3241 39.4533 55.5132 39.129 54.358L39.1304 54.3631Z" fill="#3986FA"/>
  <path d="M46.5511 65.469C46.3832 64.8709 46.43 64.2127 46.7259 63.6167L49.2961 58.4723C49.9357 57.1952 51.4849 56.683 52.7605 57.3175C54.0375 57.9571 54.5548 59.5048 53.9152 60.7818L51.345 65.9263C50.7054 67.2033 49.1576 67.7206 47.8806 67.081C47.201 66.7424 46.7406 66.1437 46.5511 65.469Z" fill="#3986FA"/>
  <path d="M56.0323 46.5011C55.8644 45.903 55.9112 45.2447 56.2071 44.6487L58.7773 39.5043C59.4169 38.2272 60.9646 37.71 62.2416 38.3496C63.5172 38.984 64.036 40.5369 63.3964 41.8139L60.8262 46.9584C60.1866 48.2354 58.6388 48.7526 57.3618 48.113C56.6821 47.7744 56.2218 47.1759 56.0323 46.5011Z" fill="#3986FA"/>
  <path d="M56.5123 60.0698C56.2037 58.9708 56.6571 57.7571 57.6831 57.1492C58.9131 56.4233 60.4952 56.8338 61.2197 58.0587L64.1435 63.0117C64.8731 64.2352 64.464 65.8225 63.234 66.5483C62.004 67.2742 60.4232 66.8688 59.6973 65.6388L56.7684 60.6872C56.6519 60.4883 56.5661 60.2808 56.5072 60.0712L56.5123 60.0698Z" fill="#3986FA"/>
  <path d="M45.7123 41.7968C45.4037 40.6978 45.8571 39.4841 46.8831 38.8761C48.1131 38.1502 49.6938 38.5557 50.4197 39.7857L53.3435 44.7386C54.0745 45.9672 53.6639 47.5493 52.4339 48.2752C51.2039 49.0011 49.6232 48.5957 48.8973 47.3657L45.9735 42.4128C45.857 42.2139 45.7712 42.0064 45.7123 41.7968Z" fill="#3986FA"/>
</svg>