
          <svg
            xmlns="http://www.w3.org/2000/svg"
            width="80"
            height="80"
            viewBox="0 0 76 76"
            fill="none">
            <path
              fill-rule="evenodd"
              clip-rule="evenodd"
              d="M38.0016 75.0024C42.3044 73.6291 45.7085 70.7512 47.8187 67.135C51.8657 69.3181 56.7602 69.9174 61.4867 68.4088C70.7187 65.4621 75.814 55.5894 72.8673 46.3574C71.9159 43.3766 70.2424 40.827 68.1016 38.8402C73.5304 35.2086 76.7059 28.6776 75.7262 21.7784C74.3638 12.1838 65.4813 5.51034 55.8867 6.87277C52.9938 7.28357 50.3665 8.37801 48.1449 9.96948C45.7804 5.04344 41.1565 1.29045 35.3648 0.269422C25.8211 -1.41305 16.7205 4.9597 15.038 14.5034C14.7524 16.1232 14.6989 17.7303 14.8536 19.2904C13.0955 19.5642 11.3495 20.1123 9.67416 20.9539C1.01451 25.3039 -2.47908 35.8503 1.87096 44.51C4.64061 50.0235 9.92214 53.4429 15.6293 54.0769C14.8733 57.1239 14.9256 60.4116 15.9502 63.6218C18.8969 72.8538 28.7696 77.9491 38.0016 75.0024Z"
              fill="#B9D4FD" />
            <path
              d="M45.4478 34.3993C45.3204 34.279 45.2039 34.1472 45.102 33.9998C44.2836 32.8327 44.568 31.2246 45.7352 30.4061L50.4481 27.1086C51.6152 26.2902 53.2272 26.5782 54.0418 27.7417C54.8602 28.9089 54.5758 30.517 53.4087 31.3354L48.6957 34.633C47.6759 35.3495 46.3163 35.2195 45.4439 34.3957L45.4478 34.3993Z"
              fill="#3986FA" />
            <path
              d="M28.0695 46.5678C27.9421 46.4475 27.8257 46.3156 27.7238 46.1683C26.9054 45.0012 27.1898 43.393 28.3569 42.5746L33.0698 39.277C34.237 38.4586 35.8491 38.7468 36.6636 39.9103C37.4821 41.0774 37.1976 42.6855 36.0304 43.5039L31.3175 46.8014C30.2977 47.518 28.9381 47.3879 28.0656 46.5641L28.0695 46.5678Z"
              fill="#3986FA" />
            <path
              d="M40.1422 52.2709C39.6905 51.8444 39.392 51.2559 39.3392 50.5926L38.8969 44.8589C38.7885 43.4348 39.8535 42.1986 41.2737 42.0865C42.6979 41.9781 43.9376 43.0392 44.046 44.4633L44.4883 50.197C44.5968 51.6212 43.5356 52.861 42.1115 52.9694C41.3545 53.0287 40.6517 52.7521 40.1422 52.2709Z"
              fill="#3986FA" />
            <path
              d="M38.5141 31.1181C38.0624 30.6916 37.7639 30.103 37.711 29.4397L37.2687 23.706C37.1603 22.2819 38.2215 21.0421 39.6456 20.9336C41.0658 20.8216 42.3095 21.8864 42.4179 23.3105L42.8602 29.0442C42.9687 30.4684 41.9074 31.7081 40.4833 31.8165C39.7263 31.8758 39.0236 31.5993 38.5141 31.1181Z"
              fill="#3986FA" />
            <path
              d="M45.901 42.5055C45.071 41.7218 44.8355 40.4478 45.4026 39.3987C46.084 38.1435 47.6519 37.6816 48.9032 38.3594L53.9584 41.1028C55.2134 41.7766 55.6791 43.3482 54.9977 44.6034C54.3163 45.8586 52.7523 46.3242 51.4971 45.6428L46.4382 42.9032C46.236 42.7926 46.0556 42.6588 45.8974 42.5093L45.901 42.5055Z"
              fill="#3986FA" />
            <path
              d="M27.2508 32.3967C26.4208 31.613 26.1852 30.3389 26.7523 29.2898C27.4337 28.0346 28.9978 27.5692 30.253 28.2506L35.3081 30.9939C36.567 31.6714 37.0288 33.2393 36.3474 34.4945C35.666 35.7497 34.102 36.2153 32.8468 35.5339L27.7916 32.7906C27.5894 32.6799 27.4091 32.5461 27.2508 32.3967Z"
              fill="#3986FA" />
          </svg>