<svg xmlns="http://www.w3.org/2000/svg" width="120" height="120" viewBox="0 0 120 120" fill="none">
  <path
    fill-rule="evenodd"
    clip-rule="evenodd"
    d="M27.8228 77.2593C30.9117 80.5579 34.9749 82.3975 39.1493 82.7497C38.9148 87.3418 40.4744 92.0194 43.8655 95.6406C50.4895 102.714 61.5936 103.079 68.6671 96.4546C70.9511 94.3157 72.5356 91.7098 73.4112 88.9232C79.0213 92.2675 86.2828 92.3321 92.0934 88.4861C100.174 83.1373 102.389 72.2503 97.0406 64.1692C95.4278 61.7327 93.3116 59.8295 90.9207 58.506C94.3499 54.2568 95.752 48.4736 94.1893 42.808C91.6125 33.4661 81.9505 27.9818 72.6085 30.5585C71.0226 30.996 69.548 31.6376 68.205 32.4471C67.2031 30.9765 65.9586 29.6346 64.4791 28.4825C56.8332 22.5282 45.8082 23.8996 39.854 31.5455C36.0645 36.4116 35.2422 42.6464 37.1162 48.0716C34.041 48.6971 31.0954 50.1552 28.6367 52.4577C21.5631 59.0817 21.1987 70.1857 27.8228 77.2593Z"
    fill="#DCEAFE" />
  <path
    d="M69.2871 59.1484C69.1826 59.0078 69.0909 58.8577 69.0162 58.6949C68.4133 57.4031 68.9732 55.869 70.265 55.2661L75.4797 52.839C76.7715 52.2361 78.3088 52.8002 78.9085 54.0877C79.5113 55.3795 78.9514 56.9136 77.6597 57.5165L72.4449 59.9436C71.316 60.4718 69.9997 60.1072 69.284 59.1441L69.2871 59.1484Z"
    fill="#3986FA" />
  <path
    d="M50.0567 68.1074C49.9522 67.9668 49.8605 67.8167 49.7858 67.6539C49.1829 66.3621 49.7428 64.828 51.0345 64.2251L56.2493 61.798C57.5411 61.1951 59.0784 61.7594 59.6781 63.0468C60.281 64.3386 59.721 65.8726 58.4293 66.4755L53.2145 68.9026C52.0855 69.4308 50.7693 69.0662 50.0535 68.1031L50.0567 68.1074Z"
    fill="#3986FA" />
  <path
    d="M60.9529 75.8242C60.5823 75.3256 60.3908 74.6941 60.4542 74.0318L61.0163 68.3085C61.1573 66.8873 62.4212 65.8553 63.8393 65.992C65.2605 66.133 66.2967 67.3937 66.1557 68.8149L65.5936 74.5382C65.4526 75.9594 64.1919 76.9957 62.7706 76.8547C62.0149 76.7813 61.3709 76.3867 60.9529 75.8242Z"
    fill="#3986FA" />
  <path
    d="M63.0299 54.7108C62.6594 54.2122 62.4678 53.5806 62.5312 52.9182L63.0933 47.195C63.2343 45.7737 64.495 44.7375 65.9163 44.8785C67.3344 45.0153 68.3738 46.2803 68.2327 47.7015L67.6706 53.4248C67.5296 54.846 66.2689 55.8822 64.8476 55.7412C64.0919 55.6678 63.448 55.2732 63.0299 54.7108Z"
    fill="#3986FA" />
  <path
    d="M68.3228 67.2098C67.6419 66.2936 67.6316 64.9981 68.3726 64.0637C69.262 62.9462 70.8864 62.7642 72.0007 63.6493L76.5014 67.2305C77.62 68.1124 77.8052 69.7411 76.9158 70.8586C76.0264 71.9761 74.4051 72.1623 73.2876 71.2729L68.7827 67.6949C68.6028 67.5508 68.4484 67.3877 68.3186 67.213L68.3228 67.2098Z"
    fill="#3986FA" />
  <path
    d="M51.7161 54.01C51.0351 53.0939 51.0248 51.7983 51.7658 50.8639C52.6552 49.7464 54.2765 49.5602 55.394 50.4496L59.8946 54.0306C61.0164 54.9168 61.1983 56.5412 60.3089 57.6587C59.4195 58.7762 57.7983 58.9625 56.6808 58.0731L52.1802 54.492C52.0003 54.3479 51.8459 54.1848 51.7161 54.01Z"
    fill="#3986FA" />
</svg>