<svg width="372" height="372" viewBox="0 0 372 372" fill="none" xmlns="http://www.w3.org/2000/svg">
<path d="M186.073 0C83.5516 0 0.43457 83.1171 0.43457 185.639C0.43457 288.161 83.5516 371.278 186.073 371.278C288.595 371.278 371.712 288.161 371.712 185.639C371.712 83.1171 288.595 0 186.073 0ZM186.073 369.553C84.5219 369.553 2.15944 287.226 2.15944 185.639C2.15944 84.0514 84.5219 1.72487 186.073 1.72487C287.625 1.72487 369.987 84.0514 369.987 185.639C369.987 287.226 287.661 369.553 186.073 369.553Z" fill="#0D57A7"/>
<path d="M36.6924 156.747L34.2129 156.387L32.9911 164.257L27.3853 163.395L28.4993 156.244L26.1276 155.884L25.0136 163.035L19.5875 162.173L20.7733 154.662L18.2938 154.267L16.6768 164.724L35.0035 167.599L36.6924 156.747Z" fill="#0D57A7"/>
<path d="M41.4366 111.145L37.879 118.512L30.6921 115.026L29.3984 117.721L46.1081 125.807L47.4017 123.111L40.0711 119.554L43.6286 112.223L50.9593 115.781L52.2529 113.086L35.5433 105L34.2496 107.695L41.4366 111.145Z" fill="#0D57A7"/>
<path d="M98.7541 39.0646L96.2051 40.6132L105.851 56.4909L108.4 54.9423L98.7541 39.0646Z" fill="#0D57A7"/>
<path d="M206.029 16.1543L203.697 34.5857L206.656 34.96L208.988 16.5287L206.029 16.1543Z" fill="#0D57A7"/>
<path d="M356.872 182.548L338.006 175.182V178.452L342.893 180.32L342.965 186.573L338.15 188.585V191.856L356.836 183.986V182.513L356.872 182.548ZM345.337 181.291L349.253 182.8L351.302 183.339V183.411L349.253 183.986L345.372 185.603L345.301 181.291H345.337Z" fill="#0D57A7"/>
<path d="M253.057 28.6391L245.762 33.8137L243.965 25.0816L240.695 23.7879L243.426 35.7542L240.336 43.588L243.103 44.666L246.193 36.8682L256.327 29.9327L253.057 28.6391Z" fill="#0D57A7"/>
<path d="M17.8992 190.887L17.9711 185.496L34.0339 185.64V182.657L17.9711 182.514L18.043 177.124H15.5275L15.3838 190.851L17.8992 190.887Z" fill="#0D57A7"/>
<path d="M219.996 20.842L225.207 22.1357L221.326 37.7313L224.2 38.45L228.081 22.8543L233.328 24.148L233.903 21.7404L220.571 18.3984L219.996 20.842Z" fill="#0D57A7"/>
<path d="M150.821 37.6235L150.138 35.2159L142.448 37.336L140.939 31.9099L147.91 29.9694L147.263 27.6337L140.292 29.5741L138.818 24.2917L146.149 22.2434L145.466 19.8358L135.297 22.6747L140.256 40.5702L150.821 37.6235Z" fill="#0D57A7"/>
<path d="M337.216 168.034L339.696 167.639L338.474 159.733L344.08 158.87L345.158 166.021L347.565 165.662L346.452 158.511L351.878 157.685L353.028 165.195L355.507 164.8L353.89 154.343L335.527 157.181L337.216 168.034Z" fill="#0D57A7"/>
<path d="M300.31 58.7903L287.481 72.2299L289.602 74.2782L295.243 68.3489L300.49 73.3798L302.143 71.619L296.932 66.6241L300.705 62.6712L306.203 67.9177L307.928 66.121L300.31 58.7903Z" fill="#0D57A7"/>
<path d="M30.62 142.338C26.8468 141.188 24.9423 137.451 26.1282 133.57C26.5953 131.989 27.3859 130.803 28.5358 129.797L26.1282 128.431C24.7267 129.941 23.9361 131.234 23.3612 133.139C21.7801 138.313 24.583 143.596 29.7576 145.213C34.9322 146.794 40.2146 143.991 41.8316 138.817C42.3347 137.128 42.5144 135.942 42.3707 134.073L39.2803 132.42C39.7834 134.073 39.8193 135.942 39.2803 137.631C38.0944 141.512 34.3931 143.524 30.6559 142.374L30.62 142.338Z" fill="#0D57A7"/>
<path d="M68.1007 79.1288C70.0052 80.7459 70.1849 83.4051 68.5319 85.3455C66.8789 87.286 64.2197 87.5376 62.3152 85.9205L53.4034 78.3023L51.4629 80.5662L60.5903 88.3641C63.537 90.8795 67.9569 90.3764 70.688 87.2142C73.3831 84.0519 73.2034 79.596 70.2568 77.0806L61.1293 69.2827L59.1889 71.5466L68.1007 79.1648V79.1288Z" fill="#0D57A7"/>
<path d="M347.709 130.696L329.921 136.05L330.783 138.889L338.617 136.517L339.192 138.386L332.939 146.004L333.946 149.382L340.27 141.44C341.492 143.345 343.864 144.279 346.127 143.596C348.894 142.77 350.44 139.859 349.613 137.092L347.673 130.696H347.709ZM346.163 134.253L347.098 137.343C347.529 138.817 346.702 140.326 345.265 140.793C343.792 141.224 342.282 140.398 341.815 138.961L340.881 135.87L346.163 134.289V134.253Z" fill="#0D57A7"/>
<path d="M158.549 17.1417L160.921 35.5403L163.867 35.181L162.825 27.0957L164.766 26.8441L171.234 34.2467L174.719 33.8155L167.928 26.2692C169.976 25.3708 171.306 23.1788 171.018 20.843C170.659 18.0042 168.036 15.9559 165.197 16.3512L158.585 17.2136L158.549 17.1417ZM161.819 19.2619L165.017 18.8666C166.526 18.6869 167.892 19.729 168.107 21.2383C168.287 22.7476 167.245 24.1131 165.736 24.3287L162.538 24.724L161.855 19.2619H161.819Z" fill="#0D57A7"/>
<path d="M331.501 96.1258L329.525 93.1792L318.924 91.8136L325.572 87.3218L323.919 84.8782L308.539 95.2634L310.192 97.7429L316.984 93.1432L314.037 103.456L316.301 106.762L319.463 94.6165L331.501 96.1258Z" fill="#0D57A7"/>
<path d="M88.5833 58.3924L90.2363 60.3688L90.2003 60.4048L88.4755 60.0095L73.4548 57.3503L71.8018 58.6799L83.5524 73.0538L85.8522 71.1852L79.0246 62.8483L77.3716 60.9079L77.4076 60.8719L79.1324 61.2313L95.0875 63.8545L96.1655 62.9921L84.307 48.4744L82.0072 50.343L88.5833 58.3924Z" fill="#0D57A7"/>
<path d="M284.068 45.5312C279.684 42.4767 273.683 43.5548 270.628 47.9029C267.574 52.2869 268.652 58.288 273 61.3425C277.384 64.3969 283.385 63.3189 286.439 58.9708C289.494 54.5867 288.416 48.5856 284.068 45.5312ZM274.581 59.0786C271.562 56.9584 270.88 52.7181 273.072 49.5918C275.264 46.4655 279.468 45.639 282.523 47.7591C285.541 49.8793 286.224 54.1196 284.032 57.2459C281.84 60.3722 277.635 61.1987 274.581 59.0786Z" fill="#0D57A7"/>
<path d="M340.053 111.253C337.718 106.438 331.968 104.425 327.153 106.761C322.337 109.097 320.325 114.846 322.661 119.662C324.997 124.477 330.746 126.489 335.561 124.154C340.377 121.818 342.389 116.068 340.053 111.253ZM325.14 118.476C323.523 115.17 325.033 111.109 328.446 109.456C331.896 107.803 335.957 109.133 337.574 112.475C339.191 115.817 337.682 119.841 334.268 121.494C330.818 123.147 326.757 121.818 325.14 118.476Z" fill="#0D57A7"/>
<path d="M190.315 23.1078C189.956 22.9281 189.129 22.5328 187.871 22.0657C186.614 21.5985 185.823 20.5205 185.859 19.4424C185.859 18.5081 186.614 17.3223 188.77 17.3582C190.818 17.3582 192.255 18.4722 192.255 18.4722L192.83 15.849C192.83 15.849 191.285 14.735 188.77 14.699C185.536 14.6631 182.984 16.352 182.948 19.658C182.948 20.9517 183.451 22.4969 184.601 23.4312C185.248 23.9702 185.572 24.1499 186.29 24.5092C186.937 24.8326 187.512 25.0842 188.375 25.4076C189.812 25.9466 190.782 26.6294 190.746 28.7136C190.746 30.5463 188.662 31.3368 187.261 31.3368C184.781 31.3368 182.445 29.5042 182.445 29.5042L182.877 32.8461C184.494 33.7445 185.823 33.996 187.332 33.996C192.974 34.0679 193.693 30.1151 193.693 28.4261C193.729 24.617 190.854 23.3953 190.279 23.1437L190.315 23.1078Z" fill="#0D57A7"/>
<path d="M125.489 46.3948L124.914 26.1636L121.895 27.4932L122.29 39.4594L122.614 41.5796L122.542 41.6155L121.212 39.9625L112.624 31.5538L109.605 32.8834L124.159 46.9698L125.489 46.3948Z" fill="#0D57A7"/>
<path d="M321.581 217.618C339.247 142.77 292.892 67.7734 218.044 50.1078C143.197 32.4422 68.2 78.7973 50.5343 153.645C32.8687 228.492 79.2238 303.489 154.071 321.155C228.919 338.821 303.916 292.465 321.581 217.618Z" fill="#0D57A7"/>
<path d="M287.374 209.176C286.907 204.073 283.996 199.51 279.576 196.958L259.992 185.639L279.576 174.319C283.996 171.768 286.907 167.204 287.374 162.102L290.716 125.233L257.117 109.673C252.481 107.517 247.091 107.768 242.635 110.32L223.051 121.639V99.0002C223.051 93.8975 220.571 89.0822 216.367 86.1356L186.11 64.8263L155.853 86.1356C151.684 89.0822 149.205 93.8975 149.205 99.0002V121.639L129.585 110.32C125.129 107.768 119.738 107.517 115.103 109.673L81.5039 125.233L84.8458 162.102C85.313 167.204 88.2237 171.768 92.6437 174.319L112.228 185.639L92.6437 196.958C88.2237 199.51 85.313 204.073 84.8458 209.176L81.5039 246.045L115.103 261.605C117.187 262.575 119.451 263.042 121.679 263.042C124.41 263.042 127.141 262.324 129.549 260.922L149.169 249.603V272.242C149.169 277.344 151.649 282.16 155.817 285.07L186.074 306.416L216.331 285.07C220.535 282.124 223.015 277.344 223.015 272.242V249.603L242.599 260.922C245.043 262.324 247.738 263.006 250.469 263.006C252.733 263.006 254.961 262.539 257.081 261.569L290.68 246.009L287.338 209.14L287.374 209.176Z" fill="white"/>
<path d="M184.566 183.017V147.37L153.698 165.194L184.566 183.017Z" fill="#0D57A7"/>
<path d="M152.188 272.279C152.188 276.411 154.2 280.292 157.578 282.628L184.601 301.673V229.193L152.223 247.879V272.279H152.188Z" fill="#0D57A7"/>
<path d="M184.565 69.6067L157.578 88.6162C154.2 91.0238 152.188 94.9048 152.188 99.0014V162.534L184.565 143.812V69.5708V69.6067Z" fill="#0D57A7"/>
<path d="M187.584 147.37V183.017L218.452 165.194L187.584 147.37Z" fill="#0D57A7"/>
<path d="M187.583 301.673L214.606 282.628C217.984 280.256 219.996 276.375 219.996 272.279V247.879L187.619 229.193V301.673H187.583Z" fill="#88ABDA"/>
<path d="M214.608 88.6506L187.621 69.6411V143.882L219.998 162.604V99.0717C219.998 94.9392 217.986 91.0582 214.608 88.6865V88.6506Z" fill="#88ABDA"/>
<path d="M116.358 112.44L86.3887 126.31L149.167 162.568V125.16L128.037 112.979C124.444 110.93 120.095 110.715 116.358 112.44Z" fill="#008FD3"/>
<path d="M287.3 242.343L284.317 209.427C283.958 205.331 281.586 201.629 278.029 199.581L223.013 167.815V205.223L287.3 242.343Z" fill="#008FD3"/>
<path d="M219.995 203.462V167.815L189.091 185.638L219.995 203.462Z" fill="#008FD3"/>
<path d="M187.58 223.944L218.448 206.085L187.58 188.261V223.944Z" fill="#008FD3"/>
<path d="M87.8275 161.852C88.1869 165.948 90.5585 169.65 94.1161 171.698L115.246 183.88L147.659 165.158L84.8809 128.936L87.8634 161.852H87.8275Z" fill="#6EC3EE"/>
<path d="M221.505 207.85L189.128 226.572L244.144 258.338C247.738 260.386 252.086 260.602 255.823 258.877L285.792 245.006L221.505 207.885V207.85Z" fill="#6EC3EE"/>
<path d="M152.186 167.814V203.462L183.053 185.638L152.186 167.814Z" fill="#00B3CD"/>
<path d="M184.563 223.949V188.266L153.695 206.089L184.563 223.949Z" fill="#00B3CD"/>
<path d="M150.641 207.849L86.3535 244.97L116.323 258.841C120.06 260.566 124.444 260.386 128.002 258.302L183.018 226.535L150.641 207.813V207.849Z" fill="#00B3CD"/>
<path d="M224.524 165.194L256.938 183.916L278.067 171.734C281.625 169.65 283.996 165.984 284.356 161.888L287.338 128.971L224.56 165.194H224.524Z" fill="#00B3CD"/>
<path d="M87.8283 209.427L84.8457 242.343L106.191 230.018L149.133 205.223V167.815L94.1169 199.581C90.5593 201.629 88.1876 205.331 87.8283 209.427Z" fill="#91D2E5"/>
<path d="M255.825 112.438C252.088 110.713 247.74 110.893 244.146 112.977L223.017 125.159V162.567L285.795 126.309L255.825 112.438Z" fill="#91D2E5"/>
<path d="M155.996 332.464L139.394 328.188L138.567 331.386L153.444 335.231L152.079 340.478L145.862 338.86L146.797 335.231L143.203 334.297L142.269 337.926L135.693 336.237L134.866 339.435L156.283 344.969L157.11 341.771L155.601 341.376L157.325 334.728C157.577 333.722 157.002 332.716 155.996 332.464Z" fill="#0D57A7"/>
<path d="M145.54 343.173C141.659 342.167 137.742 344.323 136.808 348.024C135.874 351.689 138.245 355.498 142.09 356.505C145.971 357.511 149.888 355.355 150.823 351.653C151.757 347.988 149.385 344.179 145.54 343.173ZM147.553 350.791C147.013 352.839 144.929 354.025 142.845 353.522C140.761 352.983 139.539 350.899 140.042 348.851C140.581 346.802 142.665 345.58 144.75 346.119C146.834 346.658 148.056 348.743 147.553 350.791Z" fill="#0D57A7"/>
<path d="M120.169 320.248L105.184 311.947L103.567 314.858L117.007 322.297L114.455 326.86L99.6501 318.667L98.033 321.578L105.507 325.71L103.531 329.232L97.3143 325.782L95.6973 328.693L109.352 336.239L106.37 341.63L107.915 342.492C108.813 342.995 109.927 342.672 110.431 341.773L113.233 336.706C113.737 335.808 113.413 334.694 112.515 334.191L106.765 330.993L108.742 327.471L117.366 332.251L118.983 329.34L117.617 328.585L120.852 322.728C121.355 321.83 121.031 320.716 120.133 320.212L120.169 320.248Z" fill="#0D57A7"/>
<path d="M310.3 301.2L309.15 302.278L297.327 289.809C296.609 289.054 295.459 289.018 294.704 289.737L283.385 300.482L285.685 302.889L295.71 293.366L306.527 304.758L304.622 306.554L298.19 299.763L295.603 302.206L302.035 308.998L300.094 310.831L293.662 304.039L291.075 306.483L297.507 313.274L294.956 315.682L297.256 318.09L312.564 303.572L310.264 301.164L310.3 301.2Z" fill="#0D57A7"/>
<path d="M234.298 327.397L230.848 328.295L232.861 335.914L230.597 336.525L228.585 328.906L225.135 329.805L229.016 344.574L220.93 346.694L217.948 335.411L223.087 334.045L222.224 330.847L213.636 333.111L217.804 348.994C218.056 350 219.098 350.575 220.068 350.323L229.806 347.772L231.603 354.672L233.256 354.24C234.262 353.989 234.837 352.947 234.586 351.976L231.387 339.759L233.651 339.148L237.353 353.162L239.006 352.731C240.012 352.48 240.587 351.437 240.335 350.467L234.262 327.397H234.298Z" fill="#0D57A7"/>
<path d="M194.124 350.324H177.414V353.63H192.363V360.745H194.124C195.166 360.745 195.992 359.918 195.992 358.876C195.992 356.648 195.992 354.384 195.992 352.156C195.992 351.15 195.166 350.288 194.124 350.288V350.324Z" fill="#0D57A7"/>
<path d="M195.991 335.015H192.361V348.957H194.122C195.164 348.957 195.991 348.131 195.991 347.089V343.136H199.081V339.758H195.991V335.015Z" fill="#0D57A7"/>
<path d="M182.371 348.386C185.857 348.386 188.696 345.619 188.696 342.241C188.696 340.912 188.264 339.906 187.51 339.151H189.594V335.917H184.24V333.725H180.467V335.917H175.112V339.151H177.197C176.442 339.87 176.011 340.876 176.011 342.241C176.011 345.655 178.85 348.386 182.335 348.386H182.371ZM182.371 339.187C183.952 339.187 185.246 340.552 185.246 342.241C185.246 343.93 183.952 345.296 182.371 345.296C180.79 345.296 179.496 343.93 179.496 342.241C179.496 340.552 180.79 339.187 182.371 339.187Z" fill="#0D57A7"/>
<path d="M275.48 326.465C274.977 325.566 273.863 325.243 272.964 325.746L258.339 333.831L259.956 336.742L273.036 329.483L276.486 335.7L278.031 334.838C278.929 334.334 279.253 333.221 278.75 332.322C277.672 330.382 276.558 328.369 275.48 326.429V326.465Z" fill="#0D57A7"/>
<path d="M272.317 324.56C273.215 324.057 273.538 322.943 273.035 322.044L271.131 318.595L273.862 317.085L272.209 314.139L269.478 315.648L267.178 311.515L264.016 313.276L270.771 325.458L272.317 324.596V324.56Z" fill="#0D57A7"/>
<path d="M264.303 321.326C263.656 320.14 262.794 319.494 261.752 319.206L263.584 318.2L262.003 315.361L257.296 317.948L256.254 316.044L252.984 317.877L254.026 319.781L249.318 322.368L250.899 325.207L252.732 324.201C252.445 325.207 252.517 326.285 253.199 327.471C254.852 330.454 258.661 331.496 261.716 329.771C264.77 328.082 265.92 324.273 264.267 321.326H264.303ZM260.243 327.076C258.841 327.83 257.08 327.255 256.254 325.782C255.427 324.309 255.894 322.476 257.296 321.722C258.697 320.967 260.458 321.542 261.285 323.015C262.111 324.488 261.644 326.321 260.278 327.076H260.243Z" fill="#0D57A7"/>
<path d="M87.8272 298.33L75.4297 311.374L76.7233 312.596C77.478 313.314 78.6279 313.278 79.3466 312.524L84.7009 306.882L86.9647 309.002L89.3005 306.559L87.0366 304.439L90.4863 300.809L87.8631 298.294L87.8272 298.33Z" fill="#0D57A7"/>
<path d="M69.0339 302.03L66.4106 299.515L60.8767 305.336C60.158 306.091 60.1939 307.241 60.9485 307.96L73.0586 319.459L75.3584 317.051L64.542 306.774L69.0698 302.03H69.0339Z" fill="#0D57A7"/>
<path d="M80.2097 301.023C81.144 300.053 81.5033 299.011 81.4674 297.969L82.9767 299.406L85.2046 297.071L81.3237 293.369L82.8329 291.788L80.1019 289.201L78.5926 290.782L74.7117 287.081L72.4837 289.417L73.993 290.854C72.9509 290.854 71.9447 291.285 71.0104 292.255C68.6746 294.735 68.8184 298.688 71.3697 301.095C73.9211 303.503 77.8739 303.467 80.2097 300.988V301.023ZM73.4899 298.903C72.34 297.825 72.34 295.921 73.4899 294.699C74.6398 293.477 76.5084 293.369 77.6583 294.447C78.8082 295.525 78.8082 297.43 77.6583 298.652C76.5084 299.874 74.6398 299.981 73.4899 298.903Z" fill="#0D57A7"/>
</svg>
