<svg width="42" height="41" viewBox="0 0 42 41" fill="none" xmlns="http://www.w3.org/2000/svg">
<path d="M20.6585 0C9.33703 0 0.158463 9.17857 0.158463 20.5C0.158463 31.8214 9.33703 41 20.6585 41C31.9799 41 41.1585 31.8214 41.1585 20.5C41.1585 9.17857 31.9799 0 20.6585 0ZM20.6585 40.8095C9.44418 40.8095 0.348939 31.7183 0.348939 20.5C0.348939 9.28175 9.44418 0.190476 20.6585 0.190476C31.8727 0.190476 40.968 9.28175 40.968 20.5C40.968 31.7183 31.8767 40.8095 20.6585 40.8095Z" fill="#0D57A7"/>
<path d="M4.16244 17.3095L3.88863 17.2698L3.75371 18.1389L3.13466 18.0437L3.25767 17.254L2.99577 17.2143L2.87275 18.004L2.27355 17.9087L2.4045 17.0794L2.13069 17.0357L1.95212 18.1905L3.97593 18.5079L4.16244 17.3095Z" fill="#0D57A7"/>
<path d="M4.68625 12.2738L4.29339 13.0873L3.49974 12.7024L3.35688 13L5.20212 13.8929L5.34498 13.5952L4.53545 13.2024L4.92831 12.3929L5.73783 12.7857L5.88069 12.4881L4.03545 11.5952L3.89259 11.8929L4.68625 12.2738Z" fill="#0D57A7"/>
<path d="M11.0157 4.31366L10.7342 4.48467L11.7995 6.23804L12.081 6.06702L11.0157 4.31366Z" fill="#0D57A7"/>
<path d="M22.8622 1.78401L22.6048 3.81938L22.9315 3.86072L23.189 1.82535L22.8622 1.78401Z" fill="#0D57A7"/>
<path d="M39.5196 20.1587L37.4362 19.3452V19.7063L37.9759 19.9127L37.9839 20.6032L37.4521 20.8254V21.1865L39.5156 20.3175V20.1548L39.5196 20.1587ZM38.2458 20.0198L38.6783 20.1865L38.9045 20.246V20.254L38.6783 20.3175L38.2497 20.496L38.2418 20.0198H38.2458Z" fill="#0D57A7"/>
<path d="M28.0553 3.1627L27.2497 3.73413L27.0513 2.76984L26.6902 2.62698L26.9918 3.94841L26.6505 4.81349L26.9561 4.93254L27.2974 4.07143L28.4164 3.30556L28.0553 3.1627Z" fill="#0D57A7"/>
<path d="M2.08704 21.0794L2.09497 20.4841L3.86878 20.5V20.1706L2.09497 20.1548L2.10291 19.5595H1.82513L1.80926 21.0754L2.08704 21.0794Z" fill="#0D57A7"/>
<path d="M24.4045 2.30159L24.9799 2.44444L24.5513 4.16667L24.8688 4.24603L25.2974 2.52381L25.8767 2.66667L25.9402 2.40079L24.468 2.03175L24.4045 2.30159Z" fill="#0D57A7"/>
<path d="M16.7656 4.15477L16.6902 3.88889L15.841 4.12302L15.6743 3.52381L16.4442 3.30953L16.3728 3.05159L15.6029 3.26588L15.4402 2.68254L16.2497 2.45635L16.1743 2.19048L15.0513 2.50397L15.5989 4.48016L16.7656 4.15477Z" fill="#0D57A7"/>
<path d="M37.3489 18.5556L37.6227 18.5119L37.4878 17.6389L38.1069 17.5437L38.2259 18.3333L38.4918 18.2937L38.3688 17.504L38.968 17.4127L39.095 18.2421L39.3688 18.1984L39.1902 17.0437L37.1624 17.3571L37.3489 18.5556Z" fill="#0D57A7"/>
<path d="M33.2735 6.49207L31.8569 7.97619L32.091 8.20238L32.714 7.54762L33.2934 8.10318L33.4759 7.90873L32.9005 7.35714L33.3172 6.92064L33.9243 7.5L34.1148 7.30159L33.2735 6.49207Z" fill="#0D57A7"/>
<path d="M3.49179 15.7183C3.07513 15.5913 2.86481 15.1786 2.99576 14.75C3.04735 14.5754 3.13465 14.4444 3.26164 14.3333L2.99576 14.1825C2.841 14.3492 2.7537 14.4921 2.69021 14.7024C2.5156 15.2738 2.82513 15.8571 3.39656 16.0357C3.96798 16.2103 4.55132 15.9008 4.72989 15.3294C4.78544 15.1429 4.80529 15.0119 4.78941 14.8056L4.44814 14.623C4.5037 14.8056 4.50767 15.0119 4.44814 15.1984C4.31719 15.627 3.90846 15.8492 3.49576 15.7222L3.49179 15.7183Z" fill="#0D57A7"/>
<path d="M7.63068 8.7381C7.841 8.91667 7.86084 9.21032 7.6783 9.4246C7.49576 9.63889 7.20211 9.66667 6.99179 9.4881L6.00767 8.64683L5.79338 8.89683L6.80132 9.75794C7.12671 10.0357 7.61481 9.98016 7.9164 9.63095C8.21402 9.28175 8.19417 8.78968 7.86878 8.51191L6.86084 7.65079L6.64656 7.90079L7.63068 8.74206V8.7381Z" fill="#0D57A7"/>
<path d="M38.5077 14.4325L36.5434 15.0238L36.6386 15.3373L37.5037 15.0754L37.5672 15.2817L36.8767 16.123L36.9878 16.496L37.6862 15.619C37.8212 15.8294 38.0831 15.9325 38.3331 15.8571C38.6386 15.7659 38.8093 15.4444 38.718 15.1389L38.5037 14.4325H38.5077ZM38.337 14.8254L38.4402 15.1667C38.4878 15.3294 38.3966 15.496 38.2378 15.5476C38.0751 15.5952 37.9085 15.504 37.8569 15.3452L37.7537 15.004L38.337 14.8294V14.8254Z" fill="#0D57A7"/>
<path d="M17.6188 1.89286L17.8807 3.9246L18.2061 3.88492L18.091 2.99206L18.3053 2.96429L19.0196 3.78175L19.4045 3.73413L18.6545 2.90079C18.8807 2.80159 19.0275 2.55952 18.9958 2.30159C18.9561 1.9881 18.6664 1.76191 18.3529 1.80556L17.6227 1.90079L17.6188 1.89286ZM17.9799 2.12698L18.3331 2.08333C18.4997 2.06349 18.6505 2.17857 18.6743 2.34524C18.6942 2.51191 18.5791 2.6627 18.4124 2.68651L18.0593 2.73016L17.9839 2.12698H17.9799Z" fill="#0D57A7"/>
<path d="M36.718 10.6151L36.4997 10.2897L35.3291 10.1389L36.0632 9.64286L35.8807 9.37302L34.1823 10.5198L34.3648 10.7937L35.1148 10.2857L34.7894 11.4246L35.0394 11.7897L35.3886 10.4484L36.718 10.6151Z" fill="#0D57A7"/>
<path d="M9.89259 6.44841L10.0751 6.66667L10.0712 6.67064L9.88068 6.62699L8.22195 6.33333L8.03941 6.48016L9.33703 8.06746L9.591 7.86111L8.83703 6.94048L8.65449 6.72619L8.65846 6.72222L8.84894 6.76191L10.6108 7.05159L10.7299 6.95635L9.42037 5.35318L9.1664 5.55953L9.89259 6.44841Z" fill="#0D57A7"/>
<path d="M31.4799 5.02778C30.9958 4.69048 30.3331 4.80953 29.9958 5.28969C29.6585 5.77381 29.7775 6.43651 30.2577 6.77381C30.7418 7.11111 31.4045 6.99207 31.7418 6.51191C32.0791 6.02778 31.96 5.36508 31.4799 5.02778ZM30.4323 6.52381C30.0989 6.28969 30.0235 5.82143 30.2656 5.47619C30.5077 5.13096 30.972 5.03969 31.3093 5.27381C31.6426 5.50794 31.718 5.97619 31.4759 6.32143C31.2339 6.66667 30.7696 6.75794 30.4323 6.52381Z" fill="#0D57A7"/>
<path d="M37.6624 12.2857C37.4045 11.754 36.7696 11.5317 36.2378 11.7897C35.7061 12.0476 35.4839 12.6825 35.7418 13.2143C35.9997 13.746 36.6347 13.9683 37.1664 13.7103C37.6981 13.4524 37.9204 12.8175 37.6624 12.2857ZM36.0156 13.0833C35.837 12.7183 36.0037 12.2698 36.3807 12.0873C36.7616 11.9048 37.2101 12.0516 37.3886 12.4206C37.5672 12.7897 37.4005 13.2341 37.0235 13.4167C36.6426 13.5992 36.1942 13.4524 36.0156 13.0833Z" fill="#0D57A7"/>
<path d="M21.1267 2.55159C21.087 2.53175 20.9958 2.4881 20.8569 2.43651C20.718 2.38492 20.6307 2.26587 20.6347 2.14683C20.6347 2.04365 20.718 1.9127 20.9561 1.91667C21.1823 1.91667 21.341 2.03968 21.341 2.03968L21.4045 1.75C21.4045 1.75 21.2339 1.62699 20.9561 1.62302C20.5989 1.61905 20.3172 1.80556 20.3132 2.17064C20.3132 2.31349 20.3688 2.48413 20.4958 2.5873C20.5672 2.64683 20.6029 2.66667 20.6823 2.70635C20.7537 2.74207 20.8172 2.76984 20.9124 2.80556C21.0712 2.86508 21.1783 2.94048 21.1743 3.17064C21.1743 3.37302 20.9442 3.46032 20.7894 3.46032C20.5156 3.46032 20.2577 3.25794 20.2577 3.25794L20.3053 3.62699C20.4839 3.72619 20.6307 3.75397 20.7974 3.75397C21.4204 3.76191 21.4997 3.3254 21.4997 3.13889C21.5037 2.71826 21.1862 2.58333 21.1228 2.55556L21.1267 2.55159Z" fill="#0D57A7"/>
<path d="M13.968 5.12302L13.9045 2.88889L13.5712 3.03571L13.6148 4.35714L13.6505 4.59127L13.6426 4.59524L13.4958 4.4127L12.5474 3.48413L12.214 3.63095L13.8212 5.18651L13.968 5.12302Z" fill="#0D57A7"/>
<path d="M35.6224 24.0316C37.5732 15.7662 32.4543 7.48432 24.1889 5.53352C15.9235 3.58271 7.64165 8.70168 5.69084 16.9671C3.74003 25.2324 8.859 33.5143 17.1244 35.4651C25.3898 37.4159 33.6716 32.2969 35.6224 24.0316Z" fill="#0D57A7"/>
<path d="M31.845 23.0992C31.7934 22.5357 31.472 22.0317 30.9839 21.75L28.8212 20.5L30.9839 19.25C31.472 18.9683 31.7934 18.4643 31.845 17.9008L32.214 13.8294L28.5037 12.1111C27.9918 11.873 27.3966 11.9008 26.9045 12.1825L24.7418 13.4325V10.9325C24.7418 10.369 24.468 9.8373 24.0037 9.5119L20.6624 7.15873L17.3212 9.5119C16.8608 9.8373 16.587 10.369 16.587 10.9325V13.4325L14.4204 12.1825C13.9283 11.9008 13.3331 11.873 12.8212 12.1111L9.11084 13.8294L9.47989 17.9008C9.53147 18.4643 9.8529 18.9683 10.341 19.25L12.5037 20.5L10.341 21.75C9.8529 22.0317 9.53147 22.5357 9.47989 23.0992L9.11084 27.1706L12.8212 28.8889C13.0513 28.996 13.3013 29.0476 13.5473 29.0476C13.8489 29.0476 14.1505 28.9683 14.4164 28.8135L16.5831 27.5635V30.0635C16.5831 30.627 16.8569 31.1587 17.3172 31.4802L20.6585 33.8373L23.9997 31.4802C24.464 31.1548 24.7378 30.627 24.7378 30.0635V27.5635L26.9005 28.8135C27.1704 28.9683 27.468 29.0437 27.7696 29.0437C28.0196 29.0437 28.2656 28.9921 28.4997 28.8849L32.21 27.1667L31.841 23.0952L31.845 23.0992Z" fill="white"/>
<path d="M20.4918 20.2103V16.2738L17.0831 18.2421L20.4918 20.2103Z" fill="#0D57A7"/>
<path d="M16.9164 30.0675C16.9164 30.5238 17.1386 30.9524 17.5116 31.2103L20.4958 33.3135V25.3095L16.9204 27.373V30.0675H16.9164Z" fill="#0D57A7"/>
<path d="M20.4918 7.68651L17.5116 9.78572C17.1386 10.0516 16.9164 10.4802 16.9164 10.9325V17.9484L20.4918 15.881V7.68254V7.68651Z" fill="#0D57A7"/>
<path d="M20.8251 16.2738V20.2103L24.2339 18.2421L20.8251 16.2738Z" fill="#0D57A7"/>
<path d="M20.8251 33.3135L23.8093 31.2103C24.1823 30.9484 24.4045 30.5198 24.4045 30.0675V27.373L20.8291 25.3095V33.3135H20.8251Z" fill="#88ABDA"/>
<path d="M23.8095 9.78968L20.8293 7.69048V15.8889L24.4047 17.9563V10.9405C24.4047 10.4841 24.1825 10.0556 23.8095 9.79365V9.78968Z" fill="#88ABDA"/>
<path d="M12.9601 12.4167L9.65053 13.9484L16.5831 17.9524V13.8214L14.2497 12.4762C13.8529 12.25 13.3727 12.2262 12.9601 12.4167Z" fill="#008FD3"/>
<path d="M31.837 26.7619L31.5077 23.127C31.468 22.6746 31.2061 22.2659 30.8132 22.0397L24.7378 18.5317V22.6627L31.837 26.7619Z" fill="#008FD3"/>
<path d="M24.4045 22.4683V18.5317L20.9918 20.5L24.4045 22.4683Z" fill="#008FD3"/>
<path d="M20.8251 24.7302L24.2339 22.7579L20.8251 20.7897V24.7302Z" fill="#008FD3"/>
<path d="M9.80925 17.873C9.84894 18.3254 10.1108 18.7341 10.5037 18.9603L12.837 20.3056L16.4164 18.2381L9.48386 14.2381L9.81322 17.873H9.80925Z" fill="#6EC3EE"/>
<path d="M24.5712 22.9524L20.9958 25.0198L27.0712 28.5278C27.468 28.754 27.9481 28.7778 28.3608 28.5873L31.6704 27.0556L24.5712 22.9563V22.9524Z" fill="#6EC3EE"/>
<path d="M16.9164 18.5317V22.4683L20.3251 20.5L16.9164 18.5317Z" fill="#00B3CD"/>
<path d="M20.4918 24.7302V20.7897L17.0831 22.7579L20.4918 24.7302Z" fill="#00B3CD"/>
<path d="M16.7458 22.9524L9.64656 27.0516L12.9561 28.5833C13.3688 28.7738 13.8529 28.754 14.2458 28.5238L20.3212 25.0159L16.7458 22.9484V22.9524Z" fill="#00B3CD"/>
<path d="M24.9045 18.2421L28.4839 20.3095L30.8172 18.9643C31.2101 18.7341 31.472 18.3294 31.5116 17.877L31.841 14.2421L24.9085 18.2421H24.9045Z" fill="#00B3CD"/>
<path d="M9.80925 23.127L9.47989 26.7619L11.837 25.4008L16.5791 22.6627V18.5317L10.5037 22.0397C10.1108 22.2659 9.84894 22.6746 9.80925 23.127Z" fill="#91D2E5"/>
<path d="M28.3608 12.4167C27.9481 12.2262 27.468 12.246 27.0712 12.4762L24.7378 13.8214V17.9524L31.6704 13.9484L28.3608 12.4167Z" fill="#91D2E5"/>
<path d="M17.337 36.7143L15.5037 36.2421L15.4124 36.5952L17.0553 37.0198L16.9045 37.5992L16.218 37.4206L16.3212 37.0198L15.9243 36.9167L15.8212 37.3175L15.095 37.131L15.0037 37.4841L17.3688 38.0952L17.46 37.7421L17.2934 37.6984L17.4839 36.9643C17.5116 36.8532 17.4481 36.7421 17.337 36.7143Z" fill="#0D57A7"/>
<path d="M16.1823 37.8968C15.7537 37.7857 15.3212 38.0238 15.218 38.4325C15.1148 38.8373 15.3767 39.2579 15.8013 39.369C16.2299 39.4802 16.6624 39.2421 16.7656 38.8333C16.8688 38.4286 16.6069 38.0079 16.1823 37.8968ZM16.4045 38.7381C16.345 38.9643 16.1148 39.0952 15.8847 39.0397C15.6545 38.9802 15.5196 38.75 15.5751 38.5238C15.6347 38.2976 15.8648 38.1627 16.095 38.2222C16.3251 38.2817 16.46 38.5119 16.4045 38.7381Z" fill="#0D57A7"/>
<path d="M13.3807 35.3651L11.7259 34.4484L11.5474 34.7698L13.0315 35.5913L12.7497 36.0952L11.1148 35.1905L10.9362 35.5119L11.7616 35.9683L11.5434 36.3571L10.8569 35.9762L10.6783 36.2976L12.1862 37.131L11.8569 37.7262L12.0275 37.8214C12.1267 37.877 12.2497 37.8413 12.3053 37.7421L12.6148 37.1825C12.6704 37.0833 12.6347 36.9603 12.5354 36.9048L11.9005 36.5516L12.1188 36.1627L13.0712 36.6905L13.2497 36.369L13.0989 36.2857L13.4561 35.6389C13.5116 35.5397 13.4759 35.4167 13.3767 35.3611L13.3807 35.3651Z" fill="#0D57A7"/>
<path d="M34.3767 33.2619L34.2497 33.381L32.9442 32.004C32.8648 31.9206 32.7378 31.9167 32.6545 31.996L31.4045 33.1825L31.6585 33.4484L32.7656 32.3968L33.9601 33.6548L33.7497 33.8532L33.0394 33.1032L32.7537 33.373L33.464 34.123L33.2497 34.3254L32.5394 33.5754L32.2537 33.8452L32.964 34.5952L32.6823 34.8611L32.9362 35.127L34.6267 33.5238L34.3728 33.2579L34.3767 33.2619Z" fill="#0D57A7"/>
<path d="M25.9839 36.1548L25.6029 36.254L25.8251 37.0952L25.5751 37.1627L25.3529 36.3214L24.972 36.4206L25.4005 38.0516L24.5077 38.2857L24.1783 37.0397L24.7458 36.8889L24.6505 36.5357L23.7021 36.7857L24.1624 38.5397C24.1902 38.6508 24.3053 38.7143 24.4124 38.6865L25.4878 38.4048L25.6862 39.1667L25.8688 39.119C25.9799 39.0913 26.0434 38.9762 26.0156 38.869L25.6624 37.5198L25.9124 37.4524L26.3212 39L26.5037 38.9524C26.6148 38.9246 26.6783 38.8095 26.6505 38.7024L25.9799 36.1548H25.9839Z" fill="#0D57A7"/>
<path d="M21.5473 38.6865H19.7021V39.0516H21.3529V39.8373H21.5473C21.6624 39.8373 21.7537 39.746 21.7537 39.631C21.7537 39.3849 21.7537 39.1349 21.7537 38.8889C21.7537 38.7778 21.6624 38.6825 21.5473 38.6825V38.6865Z" fill="#0D57A7"/>
<path d="M21.7537 36.996H21.3529V38.5357H21.5474C21.6624 38.5357 21.7537 38.4444 21.7537 38.3294V37.8929H22.095V37.5198H21.7537V36.996Z" fill="#0D57A7"/>
<path d="M20.2497 38.4722C20.6347 38.4722 20.9481 38.1667 20.9481 37.7936C20.9481 37.6468 20.9005 37.5357 20.8172 37.4524H21.0473V37.0952H20.4561V36.8532H20.0394V37.0952H19.4481V37.4524H19.6783C19.595 37.5317 19.5473 37.6429 19.5473 37.7936C19.5473 38.1706 19.8608 38.4722 20.2458 38.4722H20.2497ZM20.2497 37.4563C20.4243 37.4563 20.5672 37.6071 20.5672 37.7936C20.5672 37.9802 20.4243 38.1309 20.2497 38.1309C20.0751 38.1309 19.9323 37.9802 19.9323 37.7936C19.9323 37.6071 20.0751 37.4563 20.2497 37.4563Z" fill="#0D57A7"/>
<path d="M30.5315 36.0516C30.4759 35.9524 30.3529 35.9167 30.2537 35.9722L28.6386 36.8651L28.8172 37.1865L30.2616 36.3849L30.6426 37.0714L30.8132 36.9762C30.9124 36.9206 30.9482 36.7976 30.8926 36.6984C30.7735 36.4841 30.6505 36.2619 30.5315 36.0476V36.0516Z" fill="#0D57A7"/>
<path d="M30.1823 35.8413C30.2815 35.7857 30.3172 35.6627 30.2616 35.5635L30.0513 35.1825L30.3529 35.0159L30.1704 34.6905L29.8688 34.8571L29.6148 34.4008L29.2656 34.5952L30.0116 35.9405L30.1823 35.8452V35.8413Z" fill="#0D57A7"/>
<path d="M29.2974 35.4841C29.2259 35.3532 29.1307 35.2818 29.0156 35.25L29.218 35.1389L29.0434 34.8254L28.5235 35.1111L28.4085 34.9008L28.0474 35.1032L28.1624 35.3135L27.6426 35.5992L27.8172 35.9127L28.0196 35.8016C27.9878 35.9127 27.9958 36.0317 28.0712 36.1627C28.2537 36.4921 28.6743 36.6071 29.0116 36.4167C29.3489 36.2302 29.4759 35.8095 29.2934 35.4841H29.2974ZM28.8489 36.119C28.6942 36.2024 28.4997 36.1389 28.4085 35.9762C28.3172 35.8135 28.3688 35.6111 28.5235 35.5278C28.6783 35.4444 28.8727 35.5079 28.964 35.6706C29.0553 35.8333 29.0037 36.0357 28.8529 36.119H28.8489Z" fill="#0D57A7"/>
<path d="M9.80926 32.9444L8.44021 34.3849L8.58307 34.5198C8.6664 34.5992 8.79338 34.5952 8.87275 34.5119L9.46402 33.8889L9.71402 34.123L9.97195 33.8532L9.72195 33.619L10.1029 33.2183L9.81322 32.9405L9.80926 32.9444Z" fill="#0D57A7"/>
<path d="M7.73386 33.3532L7.44418 33.0754L6.83307 33.7183C6.7537 33.8016 6.75767 33.9286 6.841 34.0079L8.1783 35.2778L8.43227 35.0119L7.23783 33.877L7.73783 33.3532H7.73386Z" fill="#0D57A7"/>
<path d="M8.96798 33.2421C9.07116 33.1349 9.11084 33.0198 9.10687 32.9048L9.27354 33.0635L9.51957 32.8056L9.091 32.3968L9.25767 32.2222L8.95608 31.9365L8.78941 32.1111L8.36084 31.7024L8.11481 31.9603L8.28148 32.119C8.1664 32.119 8.05529 32.1667 7.95211 32.2738C7.69417 32.5476 7.71005 32.9841 7.99179 33.25C8.27354 33.5159 8.71005 33.5119 8.96798 33.2381V33.2421ZM8.22592 33.0079C8.09894 32.8889 8.09894 32.6786 8.22592 32.5437C8.3529 32.4087 8.55925 32.3968 8.68624 32.5159C8.81322 32.6349 8.81322 32.8452 8.68624 32.9802C8.55925 33.1151 8.3529 33.127 8.22592 33.0079Z" fill="#0D57A7"/>
</svg>
