<svg width="41" height="41" viewBox="0 0 41 41" fill="none" xmlns="http://www.w3.org/2000/svg">
<path d="M0.187594 20.4985C0.187594 9.2815 9.2815 0.187592 20.4985 0.187592C31.7155 0.187592 40.8094 9.2815 40.8094 20.4985C40.8094 31.7155 31.7155 40.8094 20.4985 40.8094C9.2815 40.8094 0.184616 31.7155 0.184616 20.4985H0.187594Z" fill="#16318F"/>
<path d="M2.65015 26.0817L2.52211 25.647L4.2194 24.3338L4.34446 24.7596L3.95439 25.0514L4.18069 25.8286L4.66903 25.8673L4.78516 26.2663L2.65015 26.0817ZM2.97472 25.7571V25.7631L3.84719 25.8078L3.68341 25.2479L2.97472 25.7571Z" fill="white"/>
<path d="M1.87297 21.9397L1.86106 21.4484L3.33502 20.6534V20.6474L1.84319 20.6831L1.83426 20.299L3.82932 20.2514L3.84123 20.7397L2.36727 21.5377V21.5437L3.8591 21.508L3.86803 21.8921L1.87297 21.9397Z" fill="white"/>
<path d="M3.45711 16.9014L2.11714 17.3392L2.22136 16.8836L3.14147 16.6126L2.43278 15.9575L2.52806 15.5466L3.54346 16.5143L4.31171 16.69L4.22238 17.0801L3.45413 16.9044L3.45711 16.9014Z" fill="white"/>
<path d="M3.71915 12.5034L3.92163 12.1014L6.05367 12.2949L5.85416 12.691L5.36879 12.6404L5.00551 13.3639L5.33604 13.7242L5.15142 14.0935L3.71915 12.5034ZM4.17474 12.4885V12.4944L4.77921 13.1227L5.04125 12.6016L4.17771 12.4915L4.17474 12.4885Z" fill="white"/>
<path d="M5.96732 8.94205L6.29189 8.57281L7.91176 8.99267H7.91474L6.7981 8.00109L7.0512 7.71523L8.54303 9.03733L8.21846 9.40359L6.59561 8.98671H6.59264L7.70927 9.97829L7.45617 10.2641L5.96434 8.94205H5.96732Z" fill="white"/>
<path d="M10.9609 5.07699C10.7912 5.10379 10.6066 5.18716 10.4756 5.27649C10.0885 5.53555 10.0497 5.94052 10.276 6.27998C10.5024 6.61646 10.8805 6.73259 11.2349 6.49437C11.3242 6.43482 11.3897 6.37824 11.4374 6.32464L11.1485 5.89288L10.7971 6.12812L10.6215 5.86608L11.2914 5.41942L11.89 6.31273C11.747 6.47651 11.5892 6.6373 11.4106 6.75641C10.8746 7.11671 10.3207 7.09587 9.94553 6.53606C9.56438 5.96732 9.69838 5.41644 10.2641 5.04125C10.4577 4.91321 10.6274 4.83579 10.7971 4.78517L10.9639 5.07996L10.9609 5.07699Z" fill="white"/>
<path d="M15.6449 2.65016L16.0349 2.56381L16.2851 3.68938C16.3595 4.02288 16.5114 4.21643 16.8121 4.15092C17.1099 4.08541 17.1694 3.84422 17.095 3.51072L16.8478 2.38514L17.2379 2.29879L17.5119 3.54347C17.628 4.06457 17.3779 4.34745 16.8776 4.45763C16.3774 4.5678 16.0349 4.41892 15.9188 3.89484L15.6449 2.65016Z" fill="white"/>
<path d="M20.4002 2.02484L20.8916 2.04569L21.5883 3.56729H21.5943L21.6568 2.07844L22.038 2.09333L21.9546 4.08541L21.4663 4.06457L20.7665 2.54296H20.7605L20.698 4.03181L20.3139 4.01692L20.3973 2.02484H20.4002Z" fill="white"/>
<path d="M25.0693 2.62038L25.4564 2.7246L24.9442 4.65416L24.5571 4.54994L25.0693 2.62038Z" fill="white"/>
<path d="M28.175 3.69235L28.5562 3.88888L28.2912 5.51471H28.2971L29.4644 4.35936L29.8157 4.541L28.3031 6.00305L27.8653 5.77675L28.172 3.68938L28.175 3.69235Z" fill="white"/>
<path d="M32.2515 6.24722L33.1388 7.02143L32.9334 7.25964L32.3468 6.74748L32.0222 7.11671L32.5582 7.58421L32.3498 7.82243L31.8138 7.35493L31.4445 7.77776L32.0341 8.29291L31.8257 8.53112L30.9353 7.75394L32.2485 6.2502L32.2515 6.24722Z" fill="white"/>
<path d="M35.2024 9.28746L35.4525 9.63883C35.7027 9.98722 36.0094 10.3952 35.5597 10.7168C35.3692 10.8537 35.119 10.8388 34.9433 10.6512H34.9374C34.994 10.7465 34.9433 10.8627 34.8927 10.946L34.4431 11.6607L34.184 11.2974L34.5503 10.7406C34.6366 10.6066 34.6545 10.5321 34.5562 10.3952L34.4818 10.2909L33.8088 10.7733L33.5766 10.4488L35.1994 9.28746H35.2024ZM34.7409 10.1093L34.8183 10.2165C34.9314 10.3773 35.0893 10.5441 35.2888 10.3981C35.4853 10.2582 35.3692 10.0646 35.253 9.90384L35.1756 9.79665L34.7379 10.1093H34.7409Z" fill="white"/>
<path d="M37.5518 14.2662C37.5548 14.1292 37.531 13.9863 37.4774 13.8582C37.4268 13.7302 37.3047 13.5902 37.1022 13.6706C36.7806 13.8017 37.2451 14.558 36.6258 14.8081C36.2208 14.9719 35.9349 14.7158 35.7831 14.3406C35.7027 14.1381 35.6908 14.0369 35.661 13.8374L36.0094 13.7362C35.9915 13.891 36.0094 14.0548 36.0659 14.2007C36.1225 14.3406 36.2714 14.5014 36.4382 14.4329C36.7925 14.29 36.3161 13.5366 36.9295 13.2895C37.3434 13.1227 37.6233 13.3818 37.7573 13.7064C37.8228 13.8642 37.8615 14.022 37.8704 14.1769L37.5518 14.2662Z" fill="white"/>
<path d="M38.728 17.1426L38.7995 17.5357L36.8342 17.8871L36.7627 17.494L38.728 17.1397V17.1426Z" fill="white"/>
<path d="M38.7399 20.9481L38.7548 20.3764L39.0704 20.3854L39.0258 21.9278L38.7101 21.9189L38.728 21.3472L37.0486 21.2995L37.0605 20.9005L38.7399 20.9481Z" fill="white"/>
<path d="M37.2898 25.0395L38.6446 24.6524L38.5225 25.105L37.5905 25.3403L38.2724 26.0222L38.1622 26.4301L37.1856 25.4236L36.4233 25.2182L36.5275 24.8311L37.2868 25.0365L37.2898 25.0395Z" fill="white"/>
<path d="M8.72764 34.5354L9.1207 34.8391L8.63533 35.4674L9.89788 36.4441L9.72517 36.6674L8.34352 35.5984C8.1857 35.4764 8.14699 35.2888 8.27205 35.125L8.72764 34.5354ZM10.3356 34.3329C10.0646 34.6813 9.54353 34.729 9.1743 34.4431C8.80804 34.1602 8.72467 33.6421 8.99266 33.2937C9.26363 32.9453 9.78473 32.8977 10.151 33.1806C10.5202 33.4664 10.6036 33.9816 10.3356 34.3329ZM9.38572 33.5974C9.21301 33.8208 9.19514 34.1007 9.347 34.2198C9.50185 34.3389 9.76686 34.2525 9.94255 34.0292C10.1153 33.8059 10.1331 33.526 9.97828 33.4069C9.82641 33.2907 9.5614 33.3771 9.38572 33.6004V33.5974ZM11.1039 33.8863L11.4999 34.193L11.1068 34.7022L11.4999 35.0059L11.3272 35.2292L10.9341 34.9255L10.1242 35.9736L9.72815 35.6669L11.1068 33.8863H11.1039Z" fill="white"/>
<path d="M15.1506 36.8193C15.0106 37.2213 14.5461 37.4297 14.0994 37.2749C13.6587 37.123 13.4146 36.6674 13.5545 36.2655C13.6945 35.8635 14.1649 35.661 14.6056 35.8128C15.0493 35.9677 15.2875 36.4143 15.1476 36.8193H15.1506ZM15.359 38.6387C15.228 39.0169 14.7783 39.2015 14.3525 39.0526C13.9267 38.9037 13.6855 38.4838 13.8195 38.1027C13.9505 37.7245 14.4002 37.5429 14.826 37.6888C15.2518 37.8377 15.493 38.2605 15.359 38.6387ZM14.025 36.4322C13.9357 36.6913 14.0131 36.9503 14.1888 37.0099C14.3674 37.0724 14.5907 36.9206 14.6801 36.6585C14.7694 36.3995 14.692 36.1434 14.5133 36.0838C14.3376 36.0213 14.1143 36.1702 14.022 36.4322H14.025ZM14.2781 38.2635C14.2007 38.4809 14.2781 38.7221 14.4448 38.7816C14.6116 38.8382 14.82 38.6982 14.8974 38.4779C14.9749 38.2605 14.8974 38.0104 14.7337 37.9538C14.5669 37.8972 14.3555 38.0431 14.2811 38.2635H14.2781ZM16.1779 36.3429L16.0558 36.6942L16.5263 36.858L16.4339 37.123L15.9664 36.9593L15.8563 37.2779L16.3238 37.4416L16.2315 37.7067L15.761 37.5429L15.63 37.9211L15.1625 37.7573L15.7104 36.1821L16.1808 36.3459L16.1779 36.3429Z" fill="white"/>
<path d="M20.296 39.9399L20.3139 38.7429C20.2275 38.7995 20.1025 38.8471 19.9238 38.8441L19.2985 38.8352C19.09 38.8322 18.959 38.7042 18.962 38.5077L18.9858 36.995L20.0906 37.0129V37.2957L19.4682 37.2868L19.4474 38.5583L19.9447 38.5672C20.1144 38.5672 20.2394 38.5374 20.3169 38.5077L20.3407 36.9057L20.8112 36.9116L20.7993 37.7394L21.094 37.7454L21.106 36.9176L21.5764 36.9235L21.5288 39.9638L21.0583 39.9578L21.0881 38.0223L20.7933 38.0163L20.7635 39.9519L20.293 39.9459L20.296 39.9399Z" fill="white"/>
<path d="M25.5546 36.7091C25.7393 36.7806 25.8852 36.9205 25.9418 37.1052C26.0549 37.4625 25.8226 37.8615 25.4236 37.9866C25.0276 38.1116 24.6048 37.924 24.4916 37.5667C24.4321 37.3821 24.4708 37.1826 24.575 37.0188L24.2296 37.129L24.1462 36.8699L24.7447 36.6794L24.6345 36.3339L25.108 36.1851L25.2182 36.5305L25.8167 36.3399L25.9001 36.599L25.5546 36.7091ZM24.9412 37.4238C25.0127 37.6441 25.2003 37.7841 25.3462 37.7394C25.4981 37.6918 25.5636 37.4684 25.4951 37.2481C25.4266 37.0307 25.242 36.8878 25.0901 36.9384C24.9442 36.9861 24.8728 37.2094 24.9412 37.4268V37.4238ZM26.6534 38.1027L25.0455 38.6149L24.9591 38.3498L27.0405 37.6888L27.3651 38.7131L26.8916 38.865L26.6504 38.1087L26.6534 38.1027ZM26.6356 36.4024L27.109 36.2506L27.1954 36.5215L26.7219 36.6734L26.9839 37.4923L26.5105 37.6441L25.9745 35.9587L26.448 35.8069L26.6385 36.4024H26.6356Z" fill="white"/>
<path d="M29.1398 34.5027L30.9175 33.2133L31.5934 34.1424C31.8346 34.4729 31.9567 34.7617 31.9746 34.985L31.6202 35.2411C31.5994 34.997 31.4445 34.7677 31.1765 34.3984L30.6912 33.7285L29.3095 34.7319L29.1428 34.5027H29.1398ZM30.3517 34.9136L31.0723 35.9052L31.2718 35.7592L30.5512 34.7677L30.9383 34.4878L31.6589 35.4793L32.4897 34.8778L32.6535 35.1042L30.4589 36.7002L30.2951 36.4739L30.6882 36.188L29.9676 35.1965L30.3547 34.9166L30.3517 34.9136Z" fill="white"/>
<path d="M6.33655 30.584C6.32166 30.8282 6.11322 31.0158 5.86905 31.0009C5.62487 30.986 5.43728 30.7746 5.45217 30.5304C5.46706 30.2862 5.6755 30.0986 5.92265 30.1135C6.16682 30.1284 6.35441 30.3398 6.33655 30.584Z" fill="white"/>
<path d="M35.4466 30.584C35.4317 30.8282 35.2232 31.0158 34.9791 31.0009C34.7349 30.986 34.5473 30.7746 34.5622 30.5304C34.5771 30.2862 34.7855 30.0986 35.0327 30.1135C35.2768 30.1284 35.4615 30.3398 35.4466 30.584Z" fill="white"/>
<path d="M4.98766 20.4985C4.98766 11.9317 11.9317 4.98765 20.4985 4.98467C29.0654 4.98467 36.0094 11.9287 36.0124 20.4985C36.0124 29.0654 29.0654 36.0094 20.4985 36.0123C11.9317 36.0123 4.98766 29.0683 4.98766 20.4985Z" fill="white"/>
<path d="M20.4985 33.6689C20.4896 33.6689 20.4955 33.6689 20.4985 33.6689V33.6689ZM20.4985 33.6689C26.2633 32.046 28.3686 28.446 29.1487 25.3641C29.2232 25.0723 29.2738 24.7745 29.3155 24.4767C29.5477 22.8122 29.5329 21.1149 29.5329 19.4384V11.8066C29.5329 11.4582 29.4495 11.2527 29.0356 11.1426C24.8072 10.1808 21.8682 8.85271 20.8677 8.41797C20.8618 8.41797 20.8558 8.41201 20.8499 8.41201C20.7069 8.34948 20.6057 8.3197 20.4985 8.32268C20.3913 8.32268 20.2901 8.34948 20.1471 8.41201C20.1412 8.41201 20.1352 8.41499 20.1293 8.41797C19.1258 8.85271 16.1898 10.1778 11.9614 11.1426C11.5475 11.2527 11.4642 11.4582 11.4642 11.8066V19.4384C11.4642 21.1149 11.4493 22.8122 11.6815 24.4767C11.7232 24.7745 11.7738 25.0723 11.8483 25.3641C12.6284 28.449 14.7337 32.049 20.4985 33.6689Z" fill="#16318F"/>
<path d="M25.1586 17.6995L25.5308 17.491C25.5308 17.491 25.5397 17.4761 25.5308 17.4702L25.1586 17.2618C25.0901 17.223 25.0901 17.1605 25.1586 17.1248L25.513 16.9253C25.4058 15.9456 25.0187 15.0523 24.435 14.3257L24.0449 14.4359C23.9705 14.4568 23.9258 14.4121 23.9467 14.3376L24.0628 13.9267C24.0628 13.9267 24.0598 13.9089 24.0479 13.9148L23.637 14.0309C23.5626 14.0518 23.5179 14.0071 23.5387 13.9327L23.6489 13.5426C22.9194 12.959 22.0261 12.5719 21.0464 12.4647L20.8499 12.819C20.8141 12.8875 20.7516 12.8875 20.7129 12.819L20.5045 12.4468C20.5045 12.4468 20.4896 12.4379 20.4836 12.4468L20.2752 12.819C20.2365 12.8875 20.1739 12.8875 20.1382 12.819L19.9417 12.4647C18.962 12.5719 18.0687 12.959 17.3421 13.5426L17.4523 13.9327C17.4732 14.0071 17.4285 14.0518 17.354 14.0309L16.9431 13.9148C16.9431 13.9148 16.9253 13.9178 16.9282 13.9267L17.0444 14.3376C17.0652 14.4121 17.0205 14.4568 16.9461 14.4359L16.556 14.3257C15.9724 15.0553 15.5853 15.9486 15.4781 16.9253L15.8324 17.1248C15.9009 17.1635 15.9009 17.223 15.8324 17.2618L15.4602 17.4702C15.4602 17.4702 15.4513 17.4851 15.4602 17.491L15.8324 17.6995C15.9009 17.7382 15.9009 17.8007 15.8324 17.8364L15.4781 18.036C15.5853 19.0126 15.9694 19.9089 16.556 20.6355L16.9491 20.5253C17.0235 20.5045 17.0682 20.5491 17.0473 20.6236L16.9312 21.0345C16.9312 21.0345 16.9342 21.0524 16.9461 21.0494L17.357 20.9333C17.4315 20.9124 17.4761 20.9571 17.4553 21.0315L17.3451 21.4246C18.0746 22.0082 18.968 22.3953 19.9446 22.5025L20.1442 22.1452C20.1829 22.0767 20.2454 22.0767 20.2811 22.1452L20.4896 22.5174C20.4896 22.5174 20.5045 22.5263 20.5104 22.5174L20.7188 22.1452C20.7576 22.0767 20.8201 22.0767 20.8558 22.1452L21.0553 22.5025C22.035 22.3953 22.9283 22.0082 23.6549 21.4246L23.5447 21.0315C23.5238 20.9571 23.5685 20.9124 23.643 20.9333L24.0539 21.0494C24.0539 21.0494 24.0717 21.0464 24.0688 21.0345L23.9526 20.6236C23.9318 20.5491 23.9765 20.5045 24.0509 20.5253L24.444 20.6355C25.0276 19.906 25.4147 19.0126 25.5219 18.036L25.1646 17.8364C25.0961 17.7977 25.0961 17.7352 25.1646 17.6995H25.1586Z" fill="url(#paint0_radial_65_522)"/>
<path d="M20.4985 15.7372C19.5367 15.7372 18.7565 16.5203 18.7565 17.4791C18.7565 18.4379 19.5397 19.2211 20.4985 19.2211C21.4573 19.2211 22.2405 18.4409 22.2405 17.4791C22.2405 16.5173 21.4603 15.7372 20.4985 15.7372ZM20.4985 19.1526C19.5754 19.1526 18.828 18.4052 18.828 17.4821C18.828 16.559 19.5754 15.8116 20.4985 15.8116C21.4216 15.8116 22.169 16.559 22.169 17.4821C22.169 18.4052 21.4216 19.1526 20.4985 19.1526Z" fill="#EE7800"/>
<path d="M20.4985 15.8086C19.5754 15.8086 18.828 16.556 18.828 17.4791C18.828 18.4022 19.5754 19.1496 20.4985 19.1496C21.4216 19.1496 22.169 18.4022 22.169 17.4791C22.169 16.556 21.4216 15.8086 20.4985 15.8086Z" fill="white"/>
<path d="M15.6806 26.1413H15.1922L15.4424 25.379H15.4483L15.6806 26.1413ZM14.3912 26.9274H14.9183L15.0702 26.5105H15.8027L15.9486 26.9274H16.5173L15.7669 24.98H15.1297L14.3912 26.9274Z" fill="white"/>
<path d="M16.696 24.98H17.357L18.0151 26.3021H18.0211L18.0121 24.98H18.4856V26.9274H17.8394L17.1575 25.5963H17.1516L17.1665 26.9274H16.69V24.98H16.696Z" fill="white"/>
<path d="M19.367 26.1919L18.6464 24.977H19.2449L19.626 25.7571L20.0042 24.977H20.5998L19.8851 26.1919V26.9274H19.367V26.1919Z" fill="white"/>
<path d="M21.5943 26.1413H21.106L21.3561 25.379H21.362L21.5943 26.1413ZM20.305 26.9274H20.832L20.9869 26.5105H21.7194L21.8653 26.9274H22.434L21.6836 24.98H21.0464L20.3079 26.9274H20.305Z" fill="white"/>
<path d="M22.6425 24.98H23.3035L23.9616 26.3021H23.9675L23.9586 24.98H24.4321V26.9274H23.7889L23.107 25.5963H23.101L23.1189 26.9274H22.6425V24.98Z" fill="white"/>
<path d="M26.6088 26.8708C26.2782 26.9542 26.0341 26.9601 25.8554 26.9601C25.3373 26.9601 24.7358 26.6981 24.7358 25.9626C24.7358 25.2271 25.2509 24.9472 25.9656 24.9472C26.0936 24.9472 26.3646 24.9621 26.5552 25.0336L26.5135 25.4564C26.3497 25.3611 26.1621 25.3313 26.04 25.3313C25.6202 25.3313 25.2718 25.507 25.2718 25.9626C25.2718 26.3437 25.5427 26.576 25.9209 26.576C25.9894 26.576 26.0579 26.5641 26.1055 26.5433V26.1591H25.8018V25.7899H26.6088V26.8738V26.8708Z" fill="white"/>
<path d="M15.5496 27.6182H15.8116V28.3716C15.8116 28.5949 15.8831 28.7408 16.0826 28.7408C16.2821 28.7408 16.3535 28.5949 16.3535 28.3716V27.6182H16.6156V28.4549C16.6156 28.8033 16.4161 28.9492 16.0826 28.9492C15.7491 28.9492 15.5496 28.8063 15.5496 28.4549V27.6182Z" fill="white"/>
<path d="M16.8985 27.6182H17.22L17.7173 28.5949H17.7203V27.6182H17.9704V28.9254H17.6488L17.1486 27.9487H17.1456V28.9254H16.8955V27.6182H16.8985Z" fill="white"/>
<path d="M18.2414 27.6182H18.5034V28.9254H18.2414V27.6182Z" fill="white"/>
<path d="M18.6494 27.6182H18.9293L19.2657 28.6455H19.2687L19.5992 27.6182H19.8583L19.4176 28.9254H19.096L18.6464 27.6182H18.6494Z" fill="white"/>
<path d="M20.034 27.6182H20.8052V27.8237H20.296V28.1453H20.7635V28.3507H20.296V28.717H20.8082V28.9224H20.034V27.6152V27.6182Z" fill="white"/>
<path d="M21.3144 27.8237H21.4007C21.5318 27.8237 21.6777 27.8356 21.6777 27.9934C21.6777 28.1512 21.5288 28.175 21.4007 28.175H21.3144V27.8237ZM21.0524 28.9254H21.3144V28.3835H21.3978C21.5079 28.3835 21.5437 28.4222 21.5794 28.5175L21.7372 28.9254H22.029L21.8206 28.4133C21.7938 28.3537 21.7521 28.2852 21.6836 28.2793C21.8504 28.2525 21.9516 28.1244 21.9516 27.9726C21.9516 27.6093 21.6181 27.6182 21.3352 27.6182H21.0524V28.9254Z" fill="white"/>
<path d="M22.9134 27.8594C22.83 27.8237 22.7407 27.8028 22.6484 27.8028C22.5561 27.8028 22.4429 27.8415 22.4429 27.9845C22.4429 28.2108 23.0147 28.1155 23.0147 28.5532C23.0147 28.8391 22.7884 28.9492 22.5233 28.9492C22.3804 28.9492 22.3179 28.9314 22.1869 28.8986L22.2107 28.6634C22.3 28.711 22.4042 28.7438 22.5084 28.7438C22.6127 28.7438 22.7407 28.6932 22.7407 28.574C22.7407 28.3239 22.166 28.4281 22.166 27.9964C22.166 27.7046 22.3923 27.5974 22.6246 27.5974C22.7377 27.5974 22.842 27.6122 22.9372 27.645L22.9134 27.8624V27.8594Z" fill="white"/>
<path d="M23.235 27.6182H23.4971V28.9254H23.235V27.6182Z" fill="white"/>
<path d="M24.0182 27.8237H23.643V27.6182H24.6554V27.8237H24.2802V28.9254H24.0182V27.8237Z" fill="white"/>
<path d="M25.1675 28.4103L24.6881 27.6212H24.9948L25.3045 28.1691L25.6172 27.6212H25.8941L25.4266 28.4103V28.9284H25.1646V28.4103H25.1675Z" fill="white"/>
<path d="M19.0037 30.3249L19.1526 30.0331H19.2955V31.0247H19.1526V30.0331" fill="white"/>
<path d="M19.6915 30.8818C19.7422 30.9086 19.8047 30.9234 19.8672 30.9234C20.0518 30.9234 20.1412 30.7537 20.1442 30.5631C20.0786 30.6316 20.0102 30.6555 19.9268 30.6555C19.7362 30.6555 19.629 30.5185 19.629 30.3428C19.629 30.1373 19.769 30.0153 19.9476 30.0153C20.2246 30.0153 20.2811 30.2654 20.2811 30.4917C20.2811 30.7597 20.1918 31.0426 19.8791 31.0426C19.8107 31.0426 19.7094 31.0277 19.6737 31.0128L19.6915 30.8847V30.8818ZM19.9447 30.5393C20.0638 30.5393 20.1293 30.453 20.1293 30.3398C20.1293 30.2475 20.0697 30.1314 19.9536 30.1314C19.8375 30.1314 19.7779 30.2326 19.7779 30.3398C19.7779 30.4321 19.8315 30.5393 19.9447 30.5393Z" fill="white"/>
<path d="M20.8916 30.6823H20.5789L20.8886 30.1492V30.6823H20.8916ZM20.8916 31.0247H21.0345V30.7984H21.1596V30.6823H21.0345V30.0331H20.832L20.433 30.6823V30.7984H20.8945V31.0247H20.8916Z" fill="white"/>
<path d="M21.8444 30.7686C21.8444 30.8699 21.7611 30.9234 21.6658 30.9234C21.5705 30.9234 21.4663 30.8639 21.4663 30.7537C21.4663 30.6376 21.5496 30.6108 21.63 30.5542C21.7372 30.6048 21.8504 30.6287 21.8444 30.7656V30.7686ZM21.6509 31.0396C21.8355 31.0396 21.9933 30.9532 21.9933 30.7567C21.9933 30.6257 21.904 30.5363 21.7849 30.4947C21.9189 30.4232 21.9635 30.3488 21.9635 30.2386C21.9635 30.1284 21.8534 30.0153 21.6568 30.0153C21.4603 30.0153 21.3352 30.1254 21.3352 30.2535C21.3352 30.3458 21.3769 30.45 21.5228 30.5006C21.4037 30.5453 21.3114 30.6316 21.3114 30.7656C21.3114 30.9473 21.4811 31.0426 21.6479 31.0426L21.6509 31.0396ZM21.4811 30.2713C21.4811 30.176 21.5824 30.1314 21.6479 30.1314C21.7194 30.1314 21.8146 30.1641 21.8146 30.2564C21.8146 30.3249 21.7998 30.3636 21.6836 30.453C21.5496 30.3875 21.4782 30.3398 21.4782 30.2713H21.4811Z" fill="white"/>
<defs>
<radialGradient id="paint0_radial_65_522" cx="0" cy="0" r="1" gradientUnits="userSpaceOnUse" gradientTransform="translate(20.4985 17.4821) scale(5.03232)">
<stop offset="0.48" stop-color="#F5A200"/>
<stop offset="0.82" stop-color="#FFF100"/>
<stop offset="1" stop-color="#FFF100"/>
</radialGradient>
</defs>
</svg>
